%TF.GenerationSoftware,KiCad,Pcbnew,7.0.10*%
%TF.CreationDate,2024-04-26T11:26:37+02:00*%
%TF.ProjectId,port2-sdcard-interface,706f7274-322d-4736-9463-6172642d696e,rev3*%
%TF.SameCoordinates,Original*%
%TF.FileFunction,Copper,L1,Top*%
%TF.FilePolarity,Positive*%
%FSLAX46Y46*%
G04 Gerber Fmt 4.6, Leading zero omitted, Abs format (unit mm)*
G04 Created by KiCad (PCBNEW 7.0.10) date 2024-04-26 11:26:37*
%MOMM*%
%LPD*%
G01*
G04 APERTURE LIST*
%TA.AperFunction,ComponentPad*%
%ADD10R,1.800000X1.800000*%
%TD*%
%TA.AperFunction,ComponentPad*%
%ADD11C,1.800000*%
%TD*%
%TA.AperFunction,ComponentPad*%
%ADD12R,1.422400X1.422400*%
%TD*%
%TA.AperFunction,ComponentPad*%
%ADD13C,1.422400*%
%TD*%
%TA.AperFunction,ComponentPad*%
%ADD14R,1.700000X1.700000*%
%TD*%
%TA.AperFunction,ComponentPad*%
%ADD15O,1.700000X1.700000*%
%TD*%
%TA.AperFunction,SMDPad,CuDef*%
%ADD16R,2.000000X10.000000*%
%TD*%
%TA.AperFunction,ComponentPad*%
%ADD17R,1.600000X1.600000*%
%TD*%
%TA.AperFunction,ComponentPad*%
%ADD18C,1.600000*%
%TD*%
%TA.AperFunction,ViaPad*%
%ADD19C,0.800000*%
%TD*%
%TA.AperFunction,Conductor*%
%ADD20C,0.250000*%
%TD*%
%TA.AperFunction,Conductor*%
%ADD21C,0.500000*%
%TD*%
G04 APERTURE END LIST*
D10*
%TO.P,D1,1,K*%
%TO.N,Net-(D1-K)*%
X24760000Y-22225000D03*
D11*
%TO.P,D1,2,A*%
%TO.N,Net-(D1-A)*%
X27300000Y-22225000D03*
%TD*%
D10*
%TO.P,D4,1,K*%
%TO.N,GND*%
X32366000Y-30085000D03*
D11*
%TO.P,D4,2,A*%
%TO.N,Net-(D4-A)*%
X34906000Y-30085000D03*
%TD*%
D10*
%TO.P,D3,1,K*%
%TO.N,GND*%
X24746000Y-30085000D03*
D11*
%TO.P,D3,2,A*%
%TO.N,Net-(D3-A)*%
X27286000Y-30085000D03*
%TD*%
D10*
%TO.P,D2,1,K*%
%TO.N,Net-(D2-K)*%
X32380000Y-22225000D03*
D11*
%TO.P,D2,2,A*%
%TO.N,Net-(D2-A)*%
X34920000Y-22225000D03*
%TD*%
D12*
%TO.P,U15,1,NC*%
%TO.N,unconnected-(U15-NC-Pad1)*%
X61195000Y-81520000D03*
D13*
%TO.P,U15,2,A16*%
%TO.N,ROM16*%
X63735000Y-78980000D03*
%TO.P,U15,3,A15*%
%TO.N,CA15*%
X63735000Y-81520000D03*
%TO.P,U15,4,A12*%
%TO.N,CA12*%
X66275000Y-78980000D03*
%TO.P,U15,5,A7*%
%TO.N,CA7*%
X68815000Y-81520000D03*
%TO.P,U15,6,A6*%
%TO.N,CA6*%
X66275000Y-81520000D03*
%TO.P,U15,7,A5*%
%TO.N,CA5*%
X68815000Y-84060000D03*
%TO.P,U15,8,A4*%
%TO.N,CA4*%
X66275000Y-84060000D03*
%TO.P,U15,9,A3*%
%TO.N,CA3*%
X68815000Y-86600000D03*
%TO.P,U15,10,A2*%
%TO.N,CA2*%
X66275000Y-86600000D03*
%TO.P,U15,11,A1*%
%TO.N,CA1*%
X68815000Y-89140000D03*
%TO.P,U15,12,A0*%
%TO.N,CA0*%
X66275000Y-89140000D03*
%TO.P,U15,13,D0*%
%TO.N,D0*%
X68815000Y-91680000D03*
%TO.P,U15,14,D1*%
%TO.N,D1*%
X66275000Y-94220000D03*
%TO.P,U15,15,D2*%
%TO.N,D2*%
X66275000Y-91680000D03*
%TO.P,U15,16,GND*%
%TO.N,GND*%
X63735000Y-94220000D03*
%TO.P,U15,17,D3*%
%TO.N,D3*%
X63735000Y-91680000D03*
%TO.P,U15,18,D4*%
%TO.N,D4*%
X61195000Y-94220000D03*
%TO.P,U15,19,D5*%
%TO.N,D5*%
X61195000Y-91680000D03*
%TO.P,U15,20,D6*%
%TO.N,D6*%
X58655000Y-94220000D03*
%TO.P,U15,21,D7*%
%TO.N,D7*%
X56115000Y-91680000D03*
%TO.P,U15,22,CE*%
%TO.N,~{S13}*%
X58655000Y-91680000D03*
%TO.P,U15,23,A10*%
%TO.N,CA10*%
X56115000Y-89140000D03*
%TO.P,U15,24,OE*%
%TO.N,~{RD}*%
X58655000Y-89140000D03*
%TO.P,U15,25,A11*%
%TO.N,CA11*%
X56115000Y-86600000D03*
%TO.P,U15,26,A9*%
%TO.N,CA9*%
X58655000Y-86600000D03*
%TO.P,U15,27,A8*%
%TO.N,CA8*%
X56115000Y-84060000D03*
%TO.P,U15,28,A13*%
%TO.N,CA13*%
X58655000Y-84060000D03*
%TO.P,U15,29,A14*%
%TO.N,CA14*%
X56115000Y-81520000D03*
%TO.P,U15,30,NC*%
%TO.N,unconnected-(U15-NC-Pad30)*%
X58655000Y-78980000D03*
%TO.P,U15,31,PGM*%
%TO.N,~{WR}*%
X58655000Y-81520000D03*
%TO.P,U15,32,VCC*%
%TO.N,VCC*%
X61195000Y-78980000D03*
%TD*%
D14*
%TO.P,J3,1,Pin_1*%
%TO.N,~{CS}*%
X68561000Y-19671000D03*
D15*
%TO.P,J3,2,Pin_2*%
%TO.N,CLK*%
X68561000Y-22211000D03*
%TO.P,J3,3,Pin_3*%
%TO.N,MOSI*%
X68561000Y-24751000D03*
%TO.P,J3,4,Pin_4*%
%TO.N,MISO*%
X68561000Y-27291000D03*
%TO.P,J3,5,Pin_5*%
%TO.N,VCC*%
X68561000Y-29831000D03*
%TO.P,J3,6,Pin_6*%
%TO.N,GND*%
X68561000Y-32371000D03*
%TD*%
D16*
%TO.P,J2,1b,Pin_1b*%
%TO.N,VCC*%
X33875000Y-112776000D03*
%TO.P,J2,2b,Pin_2b*%
%TO.N,D1*%
X37835000Y-112776000D03*
%TO.P,J2,3b,Pin_3b*%
%TO.N,D3*%
X41795000Y-112776000D03*
%TO.P,J2,4b,Pin_4b*%
%TO.N,D5*%
X45755000Y-112776000D03*
%TO.P,J2,5b,Pin_5b*%
%TO.N,D7*%
X49715000Y-112776000D03*
%TO.P,J2,6b,Pin_6b*%
%TO.N,A1*%
X53675000Y-112776000D03*
%TO.P,J2,7b,Pin_7b*%
%TO.N,A3*%
X57635000Y-112776000D03*
%TO.P,J2,8b,Pin_8b*%
%TO.N,A5*%
X61595000Y-112776000D03*
%TO.P,J2,9b,Pin_9b*%
%TO.N,A7*%
X65555000Y-112776000D03*
%TO.P,J2,10b,Pin_10b*%
%TO.N,~{RES}*%
X69515000Y-112776000D03*
%TO.P,J2,11b,Pin_11b*%
%TO.N,unconnected-(J2-Pin_11b-Pad11b)*%
X73475000Y-112776000D03*
%TO.P,J2,12b,Pin_12b*%
%TO.N,GND*%
X77435000Y-112776000D03*
%TO.P,J2,14b,Pin_14b*%
%TO.N,~{WR}*%
X85369400Y-112776000D03*
%TO.P,J2,15b,Pin_15b*%
%TO.N,GND*%
X89315000Y-112776000D03*
%TD*%
D17*
%TO.P,X1,1,NC*%
%TO.N,unconnected-(X1-NC-Pad1)*%
X57385000Y-31990000D03*
D18*
%TO.P,X1,7,GND*%
%TO.N,GND*%
X42145000Y-31990000D03*
%TO.P,X1,8,OUT*%
%TO.N,16MHz*%
X42145000Y-24370000D03*
%TO.P,X1,14,Vcc*%
%TO.N,VCC*%
X57385000Y-24370000D03*
%TD*%
D19*
%TO.N,VCC*%
X91492600Y-66283600D03*
X34525000Y-93966000D03*
X93199000Y-58660000D03*
X33763000Y-101078000D03*
X99608100Y-65378500D03*
X84055000Y-39560100D03*
X74657000Y-97522000D03*
X35795000Y-41896000D03*
X92945000Y-73900000D03*
X24365000Y-52818000D03*
X49765000Y-66534000D03*
X35795000Y-66280000D03*
X34525000Y-54342000D03*
X81515000Y-90103900D03*
X86595000Y-64703300D03*
X86595000Y-54542200D03*
X45955000Y-35555700D03*
X76435000Y-86600000D03*
X77959000Y-45960000D03*
X73387000Y-94220000D03*
X76435000Y-76186000D03*
X34525000Y-77456000D03*
X24365000Y-68820000D03*
X51035000Y-42150000D03*
X48128600Y-41989600D03*
X76435000Y-66026000D03*
X85325000Y-44510700D03*
X76435000Y-96506000D03*
X50781000Y-46468000D03*
X60179000Y-74408000D03*
X39605000Y-47681800D03*
X76435000Y-55866000D03*
X31731000Y-56628000D03*
X83368700Y-98083400D03*
X70847000Y-98030000D03*
X43415000Y-55790900D03*
X51035000Y-52056000D03*
%TO.N,~{RES}*%
X36146100Y-86744900D03*
X72214900Y-101483300D03*
X81520500Y-43634400D03*
X91470800Y-62386900D03*
%TO.N,CA0*%
X39983500Y-68851800D03*
X65093000Y-59654900D03*
%TO.N,D0*%
X68055300Y-58687900D03*
X80511500Y-39555700D03*
X78161400Y-67883900D03*
X40137200Y-88748000D03*
%TO.N,D1*%
X68916400Y-60216800D03*
X41964400Y-88851000D03*
X73912100Y-60164400D03*
X41850000Y-72875300D03*
%TO.N,CA1*%
X64666700Y-62087200D03*
X43251100Y-68997700D03*
%TO.N,CA2*%
X58114600Y-62226800D03*
%TO.N,D2*%
X45800500Y-69322300D03*
X45727600Y-84867300D03*
X70022200Y-59003000D03*
X78470800Y-59406600D03*
%TO.N,D3*%
X80893100Y-59713100D03*
X43980400Y-88917200D03*
X71411800Y-68359200D03*
X45664500Y-72875300D03*
%TO.N,CA3*%
X47330200Y-68512500D03*
%TO.N,GND*%
X46856700Y-54178400D03*
X51035000Y-37070000D03*
X98025000Y-58660000D03*
X47488503Y-60592503D03*
X76435000Y-70852000D03*
X34525000Y-88886000D03*
X35795000Y-36816000D03*
X77959000Y-40880000D03*
X34525000Y-49008000D03*
X93707000Y-99300000D03*
X35795000Y-60946000D03*
X81769000Y-94220000D03*
X98025000Y-73900000D03*
X51797000Y-46976000D03*
X34525000Y-72376000D03*
X29445000Y-52818000D03*
X76435000Y-50786000D03*
X76435000Y-81266000D03*
X76181000Y-78980000D03*
X49765000Y-61708000D03*
X29699000Y-68820000D03*
X81241200Y-101817000D03*
X76435000Y-60946000D03*
X65259000Y-74662000D03*
X76435000Y-91426000D03*
%TO.N,CA4*%
X54160600Y-81387500D03*
X61202300Y-58658000D03*
%TO.N,D4*%
X82042400Y-59466600D03*
X70624500Y-67566800D03*
X81515000Y-49593200D03*
%TO.N,D5*%
X45327900Y-94862600D03*
X84196000Y-59742300D03*
X68658900Y-71745000D03*
X83475700Y-49659000D03*
%TO.N,CA5*%
X60186700Y-59028700D03*
%TO.N,CA6*%
X58334400Y-58772600D03*
%TO.N,D6*%
X47499300Y-82134100D03*
X69260300Y-72691000D03*
X84755800Y-49657600D03*
X85570300Y-59509900D03*
%TO.N,D7*%
X85794200Y-49583200D03*
X86414000Y-58898300D03*
X46783400Y-76776100D03*
%TO.N,CA7*%
X57051800Y-80031300D03*
X57241700Y-58972000D03*
%TO.N,CA8*%
X55018700Y-76754500D03*
%TO.N,CA9*%
X59600600Y-72261900D03*
X43251800Y-85301100D03*
%TO.N,CA10*%
X46025200Y-89338100D03*
X64344800Y-72275200D03*
%TO.N,CA11*%
X60953300Y-71923200D03*
%TO.N,CA12*%
X49864700Y-94908400D03*
X55783800Y-58970600D03*
%TO.N,CA13*%
X57600300Y-73627000D03*
%TO.N,CA14*%
X54369700Y-58997900D03*
%TO.N,CA15*%
X53906500Y-68455100D03*
X39296100Y-92783000D03*
%TO.N,~{RD}*%
X62265600Y-71818100D03*
X69281800Y-95847900D03*
X61726100Y-44218400D03*
%TO.N,~{WR}*%
X56381000Y-50355400D03*
X56511300Y-71855400D03*
X99438900Y-79584600D03*
X99565500Y-83626100D03*
%TO.N,Net-(D1-K)*%
X45049100Y-64410800D03*
%TO.N,Net-(D2-K)*%
X45481900Y-59586900D03*
%TO.N,~{CS}*%
X26589800Y-58535200D03*
%TO.N,CLK*%
X85187500Y-64511000D03*
%TO.N,A1*%
X79753100Y-69817500D03*
X79839400Y-80073100D03*
%TO.N,A5*%
X69850000Y-99195700D03*
%TO.N,A7*%
X77435400Y-91815700D03*
%TO.N,~{IORQ}*%
X83426700Y-80121400D03*
X71957500Y-99947900D03*
X83426700Y-69954600D03*
%TO.N,A4*%
X63869400Y-101638700D03*
X88774200Y-97220600D03*
%TO.N,A2*%
X80894400Y-80216000D03*
X80894400Y-69962800D03*
X66289000Y-98332800D03*
%TO.N,SD_SPI*%
X37400400Y-37629000D03*
X31408000Y-73164800D03*
X42982300Y-59301200D03*
%TO.N,~{CLKSTART_DB}*%
X30976100Y-74259100D03*
X41312900Y-55894000D03*
%TO.N,~{CLK}*%
X76329600Y-49215100D03*
X83723500Y-64293500D03*
X26664300Y-74164700D03*
%TO.N,Net-(U8-Cp)*%
X97816300Y-75507000D03*
X54364800Y-79581200D03*
%TO.N,Net-(U11-Cp)*%
X91371900Y-82324700D03*
X52459300Y-96696300D03*
%TO.N,~{S4}*%
X84152000Y-83828100D03*
X62664200Y-49738500D03*
%TO.N,~{S3}*%
X79741100Y-83682900D03*
X64000000Y-51955000D03*
%TO.N,~{S2}*%
X75388400Y-83882700D03*
X57714300Y-45599600D03*
%TO.N,~{S1}*%
X53994900Y-45651100D03*
X73714500Y-85237700D03*
%TO.N,~{SER_RD}*%
X58909200Y-34917000D03*
X82137200Y-64383800D03*
%TO.N,Net-(U4-Pad12)*%
X60812800Y-35371100D03*
X46255200Y-64065900D03*
%TO.N,~{SDOUT_SET}*%
X36289000Y-55686300D03*
X62380100Y-43324000D03*
%TO.N,~{SDOUT_RESET}*%
X57951400Y-43629600D03*
X32141500Y-59273800D03*
%TO.N,~{SER_WR}*%
X56341900Y-45283600D03*
X71882700Y-49254200D03*
%TO.N,~{SDCS_SET}*%
X26502100Y-63226900D03*
X62120600Y-52007500D03*
%TO.N,A3*%
X82131000Y-80209500D03*
X37400400Y-61223200D03*
%TO.N,~{S13}*%
X85709700Y-77920500D03*
%TO.N,ROM16*%
X99043800Y-70376900D03*
%TO.N,~{S14}*%
X87226200Y-77774500D03*
X78128300Y-70155500D03*
%TO.N,Net-(U3A-Q)*%
X29445000Y-44436000D03*
X75626600Y-40826600D03*
%TO.N,Net-(U3B-Q)*%
X69215800Y-46193800D03*
X27667000Y-44436000D03*
%TO.N,LED_SEL*%
X42586600Y-64469100D03*
X76450700Y-46261600D03*
%TO.N,~{S5}*%
X58043600Y-35723000D03*
X85385200Y-84926200D03*
%TD*%
D20*
%TO.N,VCC*%
X74657000Y-97522000D02*
X75419000Y-97522000D01*
D21*
X33875000Y-101190000D02*
X33763000Y-101078000D01*
D20*
X75419000Y-97522000D02*
X76435000Y-96506000D01*
X73387000Y-94220000D02*
X70847000Y-96760000D01*
X70847000Y-96760000D02*
X70847000Y-98030000D01*
D21*
X33875000Y-112776000D02*
X33875000Y-101190000D01*
D20*
%TO.N,~{RES}*%
X69515000Y-112776000D02*
X69515000Y-104183200D01*
X69515000Y-104183200D02*
X72214900Y-101483300D01*
%TO.N,CA0*%
X68564600Y-85330000D02*
X67778400Y-86116200D01*
X69899200Y-67867200D02*
X69985600Y-67953600D01*
X69985600Y-84356200D02*
X69011800Y-85330000D01*
X65093000Y-59654900D02*
X69899200Y-64461100D01*
X69985600Y-67953600D02*
X69985600Y-84356200D01*
X69011800Y-85330000D02*
X68564600Y-85330000D01*
X67778400Y-87636600D02*
X66275000Y-89140000D01*
X67778400Y-86116200D02*
X67778400Y-87636600D01*
X69899200Y-64461100D02*
X69899200Y-67867200D01*
%TO.N,D1*%
X37835000Y-92980400D02*
X41964400Y-88851000D01*
X37835000Y-107450700D02*
X37835000Y-92980400D01*
X37835000Y-112776000D02*
X37835000Y-107450700D01*
%TO.N,D3*%
X41795000Y-112776000D02*
X41795000Y-107450700D01*
X43980400Y-105265300D02*
X43980400Y-88917200D01*
X41795000Y-107450700D02*
X43980400Y-105265300D01*
%TO.N,GND*%
X76435000Y-60946000D02*
X75710000Y-61671000D01*
X48649503Y-60592503D02*
X49765000Y-61708000D01*
X81241200Y-101817000D02*
X81241200Y-103644500D01*
X77435000Y-112776000D02*
X77435000Y-107450700D01*
X76181000Y-78980000D02*
X74657000Y-77456000D01*
X74657000Y-72630000D02*
X76435000Y-70852000D01*
X81241200Y-103644500D02*
X77435000Y-107450700D01*
D21*
X89315000Y-103692000D02*
X93707000Y-99300000D01*
X89315000Y-112776000D02*
X89315000Y-103692000D01*
D20*
X47488503Y-60592503D02*
X48649503Y-60592503D01*
X74657000Y-77456000D02*
X74657000Y-72630000D01*
X81769000Y-94220000D02*
X81769000Y-101289200D01*
X81769000Y-101289200D02*
X81241200Y-101817000D01*
X75710000Y-61671000D02*
X75710000Y-70127000D01*
X75710000Y-70127000D02*
X76435000Y-70852000D01*
%TO.N,D5*%
X67545000Y-80485600D02*
X67545000Y-84318100D01*
X68658900Y-71745000D02*
X68535000Y-71868900D01*
X61195000Y-90640900D02*
X61195000Y-91680000D01*
X55629900Y-90640900D02*
X61195000Y-90640900D01*
X66766500Y-85096600D02*
X66263900Y-85096600D01*
X61195000Y-90165500D02*
X61195000Y-90640900D01*
X68535000Y-79495600D02*
X67545000Y-80485600D01*
X45755000Y-112776000D02*
X45755000Y-107450700D01*
X45755000Y-100515800D02*
X48368100Y-97902700D01*
X48368100Y-97902700D02*
X45327900Y-94862600D01*
X66263900Y-85096600D02*
X61195000Y-90165500D01*
X67545000Y-84318100D02*
X66766500Y-85096600D01*
X45755000Y-107450700D02*
X45755000Y-100515800D01*
X68535000Y-71868900D02*
X68535000Y-79495600D01*
X48368100Y-97902700D02*
X55629900Y-90640900D01*
%TO.N,D7*%
X56115000Y-101050700D02*
X56115000Y-91680000D01*
X49715000Y-107450700D02*
X56115000Y-101050700D01*
X49715000Y-112776000D02*
X49715000Y-107450700D01*
%TO.N,CA7*%
X56856200Y-72899500D02*
X57241700Y-72514000D01*
X57241700Y-72514000D02*
X57241700Y-58972000D01*
X56856200Y-79835700D02*
X56856200Y-72899500D01*
X57051800Y-80031300D02*
X56856200Y-79835700D01*
%TO.N,CA10*%
X64771600Y-82013800D02*
X64771600Y-78181400D01*
X58915400Y-87870000D02*
X64771600Y-82013800D01*
X64771600Y-78181400D02*
X64344800Y-77754600D01*
X64344800Y-77754600D02*
X64344800Y-72275200D01*
X56115000Y-89140000D02*
X57385000Y-87870000D01*
X57385000Y-87870000D02*
X58915400Y-87870000D01*
%TO.N,CA12*%
X59070500Y-90190500D02*
X65222000Y-84039000D01*
X65222000Y-84039000D02*
X65222000Y-80033000D01*
X65222000Y-80033000D02*
X66275000Y-78980000D01*
X54582600Y-90190500D02*
X59070500Y-90190500D01*
X49864700Y-94908400D02*
X54582600Y-90190500D01*
%TO.N,CA15*%
X49537100Y-82330100D02*
X50222900Y-82330100D01*
X54287200Y-82595700D02*
X62659300Y-82595700D01*
X39296100Y-92783000D02*
X39296100Y-92571100D01*
X52122300Y-80430700D02*
X54287200Y-82595700D01*
X53906500Y-78646500D02*
X53906500Y-68455100D01*
X52122300Y-80430700D02*
X53906500Y-78646500D01*
X39296100Y-92571100D02*
X49537100Y-82330100D01*
X50222900Y-82330100D02*
X52122300Y-80430700D01*
X62659300Y-82595700D02*
X63735000Y-81520000D01*
%TO.N,~{RD}*%
X62265600Y-58114600D02*
X62265600Y-71818100D01*
X61726100Y-44218400D02*
X61332800Y-44611700D01*
X61332800Y-44611700D02*
X61332800Y-57181800D01*
X61332800Y-57181800D02*
X62265600Y-58114600D01*
%TO.N,~{WR}*%
X85369400Y-97822200D02*
X85369400Y-112776000D01*
X56511300Y-50485700D02*
X56381000Y-50355400D01*
X56511300Y-71855400D02*
X56511300Y-50485700D01*
X99565500Y-83626100D02*
X85369400Y-97822200D01*
%TO.N,A1*%
X53675000Y-107450700D02*
X55271200Y-107450700D01*
X74999700Y-87009600D02*
X79839400Y-82169900D01*
X74999700Y-87722200D02*
X74999700Y-87009600D01*
X79839400Y-82169900D02*
X79839400Y-80073100D01*
X55271200Y-107450700D02*
X74999700Y-87722200D01*
X53675000Y-112776000D02*
X53675000Y-107450700D01*
%TO.N,A5*%
X61595000Y-112776000D02*
X61595000Y-107450700D01*
X69850000Y-99195700D02*
X61595000Y-107450700D01*
%TO.N,A7*%
X73605100Y-95646000D02*
X73605100Y-99400600D01*
X65555000Y-112776000D02*
X65555000Y-107450700D01*
X77435400Y-91815700D02*
X73605100Y-95646000D01*
X65555000Y-107117500D02*
X65555000Y-107450700D01*
X71914500Y-100758000D02*
X65555000Y-107117500D01*
X73605100Y-99400600D02*
X72247700Y-100758000D01*
X72247700Y-100758000D02*
X71914500Y-100758000D01*
%TO.N,A2*%
X66289000Y-98332800D02*
X66289000Y-97779200D01*
X80894400Y-83613900D02*
X80894400Y-80216000D01*
X66289000Y-97779200D02*
X69068600Y-94999600D01*
X69068600Y-94999600D02*
X69508700Y-94999600D01*
X69508700Y-94999600D02*
X80894400Y-83613900D01*
%TO.N,SD_SPI*%
X37400400Y-53719300D02*
X42982300Y-59301200D01*
X37400400Y-37629000D02*
X37400400Y-53719300D01*
%TO.N,A3*%
X82130900Y-84403000D02*
X82130900Y-80209500D01*
X57635000Y-112776000D02*
X57635000Y-107450700D01*
X57635000Y-107450700D02*
X59083200Y-107450700D01*
X59083200Y-107450700D02*
X82130900Y-84403000D01*
X82130900Y-80209500D02*
X82131000Y-80209500D01*
%TO.N,~{S13}*%
X60731000Y-95269800D02*
X59925000Y-94463800D01*
X78518900Y-80366900D02*
X78518900Y-82537800D01*
X85709700Y-77920500D02*
X85709700Y-77920600D01*
X78518900Y-82537800D02*
X74157900Y-86898800D01*
X74157900Y-87878100D02*
X66766200Y-95269800D01*
X59925000Y-92950000D02*
X58655000Y-91680000D01*
X74157900Y-86898800D02*
X74157900Y-87878100D01*
X66766200Y-95269800D02*
X60731000Y-95269800D01*
X80965200Y-77920600D02*
X78518900Y-80366900D01*
X85709700Y-77920600D02*
X80965200Y-77920600D01*
X59925000Y-94463800D02*
X59925000Y-92950000D01*
%TO.N,~{S14}*%
X78128300Y-70155500D02*
X78556700Y-70583900D01*
X78556700Y-70583900D02*
X80035600Y-70583900D01*
X80035600Y-70583900D02*
X87226200Y-77774500D01*
%TD*%
M02*
