M48
; DRILL file {KiCad 8.0.2} date 2024-05-14T20:05:05+0200
; FORMAT={-:-/ absolute / inch / decimal}
; #@! TF.CreationDate,2024-05-14T20:05:05+02:00
; #@! TF.GenerationSoftware,Kicad,Pcbnew,8.0.2
; #@! TF.FileFunction,Plated,1,4,PTH
FMAT,2
INCH
; #@! TA.AperFunction,Plated,PTH,ViaDrill
T1C0.0157
; #@! TA.AperFunction,Plated,PTH,ComponentDrill
T2C0.0315
; #@! TA.AperFunction,Plated,PTH,ComponentDrill
T3C0.0354
%
G90
G05
T1
X0.9593Y-2.0794
X0.9593Y-2.7094
X1.0434Y-2.4892
X1.0468Y-2.3045
X1.0498Y-2.9199
X1.0893Y-1.7494
X1.1593Y-1.7494
X1.1593Y-2.0794
X1.1693Y-2.7094
X1.2195Y-2.9236
X1.2365Y-2.8805
X1.2493Y-2.2294
X1.2654Y-2.3336
X1.3293Y-3.9794
X1.3593Y-1.9294
X1.3593Y-2.1394
X1.3593Y-2.8494
X1.3593Y-3.0494
X1.3593Y-3.4994
X1.3593Y-3.6994
X1.4093Y-1.4494
X1.4093Y-1.6494
X1.4093Y-2.3994
X1.4093Y-2.6094
X1.4231Y-3.4152
X1.4287Y-2.1924
X1.4725Y-1.4815
X1.4725Y-2.4104
X1.5471Y-3.6529
X1.5593Y-1.8772
X1.5742Y-2.7107
X1.5802Y-3.494
X1.6265Y-2.2006
X1.6476Y-2.8691
X1.6521Y-3.4981
X1.6766Y-2.5382
X1.6922Y-2.3347
X1.7028Y-2.7164
X1.7028Y-3.3583
X1.7093Y-2.1965
X1.7315Y-3.5007
X1.7736Y-2.5359
X1.7846Y-3.7347
X1.7906Y-2.3459
X1.7978Y-2.8691
X1.8003Y-3.3412
X1.8032Y-2.7292
X1.8093Y-1.3998
X1.812Y-3.5172
X1.8211Y-2.5223
X1.8419Y-3.0227
X1.8448Y-2.133
X1.8634Y-2.6973
X1.8696Y-2.3855
X1.8701Y-3.2336
X1.8948Y-1.6531
X1.9593Y-2.4294
X1.9593Y-2.6194
X1.9632Y-3.7366
X1.9993Y-1.8294
X2.0093Y-1.4594
X2.0093Y-1.6594
X2.0093Y-2.0494
X2.0393Y-1.8494
X2.0653Y-3.8069
X2.1223Y-2.6951
X2.1258Y-1.7973
X2.1323Y-3.2042
X2.1403Y-3.1331
X2.1405Y-2.3228
X2.1419Y-2.5976
X2.1661Y-3.0218
X2.1962Y-2.3217
X2.2182Y-1.7828
X2.2197Y-1.9825
X2.2249Y-2.829
X2.2461Y-3.1508
X2.2536Y-2.3217
X2.2677Y-2.8987
X2.2722Y-1.7953
X2.2816Y-1.7177
X2.2852Y-1.4064
X2.288Y-2.4499
X2.2896Y-2.6075
X2.2966Y-2.3139
X2.3193Y-1.3747
X2.3465Y-2.845
X2.3693Y-2.9294
X2.3696Y-2.324
X2.3942Y-1.3926
X2.3997Y-2.8316
X2.4095Y-2.3094
X2.4302Y-1.7409
X2.4457Y-2.0475
X2.4514Y-2.8275
X2.4559Y-1.7057
X2.4671Y-1.9582
X2.5145Y-4.0015
X2.5197Y-2.0455
X2.5333Y-2.8455
X2.5459Y-2.4444
X2.5627Y-2.3486
X2.5693Y-2.9394
X2.6098Y-3.8714
X2.6793Y-2.3105
X2.7031Y-2.8246
X2.7132Y-2.3707
X2.725Y-1.8187
X2.7268Y-2.8619
X2.7276Y-3.7735
X2.7423Y-1.3575
X2.75Y-3.9053
X2.7568Y-2.323
X2.7805Y-2.6601
X2.7817Y-1.2886
X2.7893Y-3.8594
X2.8115Y-2.6913
X2.83Y-1.9391
X2.833Y-3.935
X2.8431Y-3.9954
X2.8893Y-3.7094
X2.9021Y-3.3558
X2.9099Y-2.3687
X2.9393Y-3.8394
X2.968Y-3.3025
X2.9774Y-1.6073
X2.9993Y-3.1094
X3.0051Y-1.9376
X3.0081Y-1.0425
X3.0093Y-1.9994
X3.0093Y-2.1994
X3.0093Y-2.3994
X3.0093Y-2.5994
X3.0093Y-2.7894
X3.0093Y-2.9994
X3.0093Y-3.1994
X3.0093Y-3.4094
X3.0093Y-3.5994
X3.0093Y-3.7994
X3.0099Y-1.8213
X3.0486Y-3.6148
X3.0693Y-1.6094
X3.0693Y-1.8094
X3.0759Y-2.762
X3.0772Y-2.6726
X3.0894Y-2.3388
X3.1273Y-0.9392
X3.1394Y-3.2946
X3.1399Y-2.7487
X3.1433Y-3.1525
X3.1697Y-1.5573
X3.1848Y-2.3509
X3.1848Y-2.7544
X3.1848Y-3.1581
X3.1985Y-4.0085
X3.2049Y-1.2492
X3.2093Y-1.9525
X3.2093Y-3.5474
X3.2095Y-1.7179
X3.2193Y-3.7094
X3.23Y-2.3412
X3.2335Y-3.1579
X3.2337Y-2.5348
X3.2845Y-2.7541
X3.2845Y-3.1544
X3.2864Y-1.9551
X3.2962Y-2.5312
X3.3093Y-1.5575
X3.3131Y-3.3003
X3.3132Y-0.7768
X3.3148Y-2.3521
X3.3368Y-1.955
X3.3526Y-1.1114
X3.3538Y-2.5398
X3.3593Y-1.7524
X3.3616Y-3.3436
X3.3619Y-0.9392
X3.3629Y-1.0152
X3.3689Y-2.3429
X3.3722Y-0.8161
X3.3744Y-3.0677
X3.3777Y-1.9521
X3.4021Y-2.3188
X3.4093Y-2.1473
X3.4093Y-2.5474
X3.4341Y-3.062
X3.4613Y-0.9534
X3.495Y-3.8276
X3.5002Y-1.072
X3.5002Y-1.1114
X3.51Y-0.9441
X3.51Y-0.9933
X3.5973Y-3.2411
X3.6012Y-2.4562
X3.6021Y-2.6096
X3.6593Y-2.9094
X3.6693Y-2.3094
X3.6893Y-3.9094
X3.851Y-2.9727
X3.8593Y-2.3094
X3.8593Y-2.9094
X3.8994Y-2.7707
X3.9149Y-3.1333
X3.9199Y-3.2924
X3.9313Y-2.5996
T2
X1.6593Y-0.9594
X1.6593Y-1.2594
X2.2093Y-3.2094
X2.2093Y-3.3094
X2.2093Y-3.4094
X2.2093Y-3.5094
X2.2093Y-3.6094
X2.2593Y-0.9594
X2.2593Y-1.2594
X2.3093Y-3.1094
X2.3093Y-3.2094
X2.3093Y-3.3094
X2.3093Y-3.4094
X2.3093Y-3.5094
X2.3093Y-3.6094
X2.3093Y-3.7094
X2.4093Y-3.1094
X2.4093Y-3.2094
X2.4093Y-3.6094
X2.4093Y-3.7094
X2.5093Y-3.1094
X2.5093Y-3.2094
X2.5093Y-3.6094
X2.5093Y-3.7094
X2.6093Y-3.1094
X2.6093Y-3.2094
X2.6093Y-3.3094
X2.6093Y-3.4094
X2.6093Y-3.5094
X2.6093Y-3.6094
X2.6093Y-3.7094
X2.7093Y-3.2094
X2.7093Y-3.3094
X2.7093Y-3.4094
X2.7093Y-3.5094
X2.7093Y-3.6094
T3
X0.9743Y-1.1844
X0.9748Y-0.875
X1.0743Y-1.1844
X1.0748Y-0.875
X1.2743Y-1.1844
X1.2748Y-0.875
X1.3743Y-1.1844
X1.3748Y-0.875
M30
