%TF.GenerationSoftware,KiCad,Pcbnew,7.0.10*%
%TF.CreationDate,2024-03-10T15:16:21+01:00*%
%TF.ProjectId,port2-sdcard-interface,706f7274-322d-4736-9463-6172642d696e,rev1*%
%TF.SameCoordinates,Original*%
%TF.FileFunction,Copper,L1,Top*%
%TF.FilePolarity,Positive*%
%FSLAX46Y46*%
G04 Gerber Fmt 4.6, Leading zero omitted, Abs format (unit mm)*
G04 Created by KiCad (PCBNEW 7.0.10) date 2024-03-10 15:16:21*
%MOMM*%
%LPD*%
G01*
G04 APERTURE LIST*
%TA.AperFunction,ComponentPad*%
%ADD10R,1.800000X1.800000*%
%TD*%
%TA.AperFunction,ComponentPad*%
%ADD11C,1.800000*%
%TD*%
%TA.AperFunction,ComponentPad*%
%ADD12R,1.422400X1.422400*%
%TD*%
%TA.AperFunction,ComponentPad*%
%ADD13C,1.422400*%
%TD*%
%TA.AperFunction,ComponentPad*%
%ADD14R,1.700000X1.700000*%
%TD*%
%TA.AperFunction,ComponentPad*%
%ADD15O,1.700000X1.700000*%
%TD*%
%TA.AperFunction,SMDPad,CuDef*%
%ADD16R,2.000000X10.000000*%
%TD*%
%TA.AperFunction,ComponentPad*%
%ADD17R,1.600000X1.600000*%
%TD*%
%TA.AperFunction,ComponentPad*%
%ADD18C,1.600000*%
%TD*%
%TA.AperFunction,ViaPad*%
%ADD19C,0.800000*%
%TD*%
%TA.AperFunction,Conductor*%
%ADD20C,0.250000*%
%TD*%
%TA.AperFunction,Conductor*%
%ADD21C,1.000000*%
%TD*%
G04 APERTURE END LIST*
D10*
%TO.P,D1,1,K*%
%TO.N,Net-(D1-K)*%
X24760000Y-22225000D03*
D11*
%TO.P,D1,2,A*%
%TO.N,Net-(D1-A)*%
X27300000Y-22225000D03*
%TD*%
D10*
%TO.P,D4,1,K*%
%TO.N,GND*%
X32366000Y-30085000D03*
D11*
%TO.P,D4,2,A*%
%TO.N,Net-(D4-A)*%
X34906000Y-30085000D03*
%TD*%
D10*
%TO.P,D3,1,K*%
%TO.N,GND*%
X24746000Y-30085000D03*
D11*
%TO.P,D3,2,A*%
%TO.N,Net-(D3-A)*%
X27286000Y-30085000D03*
%TD*%
D10*
%TO.P,D2,1,K*%
%TO.N,Net-(D2-K)*%
X32380000Y-22225000D03*
D11*
%TO.P,D2,2,A*%
%TO.N,Net-(D2-A)*%
X34920000Y-22225000D03*
%TD*%
D12*
%TO.P,U15,1,NC*%
%TO.N,unconnected-(U15-NC-Pad1)*%
X61195000Y-81520000D03*
D13*
%TO.P,U15,2,A16*%
%TO.N,ROM16*%
X63735000Y-78980000D03*
%TO.P,U15,3,A15*%
%TO.N,CA15*%
X63735000Y-81520000D03*
%TO.P,U15,4,A12*%
%TO.N,CA12*%
X66275000Y-78980000D03*
%TO.P,U15,5,A7*%
%TO.N,CA7*%
X68815000Y-81520000D03*
%TO.P,U15,6,A6*%
%TO.N,CA6*%
X66275000Y-81520000D03*
%TO.P,U15,7,A5*%
%TO.N,CA5*%
X68815000Y-84060000D03*
%TO.P,U15,8,A4*%
%TO.N,CA4*%
X66275000Y-84060000D03*
%TO.P,U15,9,A3*%
%TO.N,CA3*%
X68815000Y-86600000D03*
%TO.P,U15,10,A2*%
%TO.N,CA2*%
X66275000Y-86600000D03*
%TO.P,U15,11,A1*%
%TO.N,CA1*%
X68815000Y-89140000D03*
%TO.P,U15,12,A0*%
%TO.N,CA0*%
X66275000Y-89140000D03*
%TO.P,U15,13,D0*%
%TO.N,D0*%
X68815000Y-91680000D03*
%TO.P,U15,14,D1*%
%TO.N,D1*%
X66275000Y-94220000D03*
%TO.P,U15,15,D2*%
%TO.N,D2*%
X66275000Y-91680000D03*
%TO.P,U15,16,GND*%
%TO.N,GND*%
X63735000Y-94220000D03*
%TO.P,U15,17,D3*%
%TO.N,D3*%
X63735000Y-91680000D03*
%TO.P,U15,18,D4*%
%TO.N,D4*%
X61195000Y-94220000D03*
%TO.P,U15,19,D5*%
%TO.N,D5*%
X61195000Y-91680000D03*
%TO.P,U15,20,D6*%
%TO.N,D6*%
X58655000Y-94220000D03*
%TO.P,U15,21,D7*%
%TO.N,D7*%
X56115000Y-91680000D03*
%TO.P,U15,22,CE*%
%TO.N,~{S13}*%
X58655000Y-91680000D03*
%TO.P,U15,23,A10*%
%TO.N,CA10*%
X56115000Y-89140000D03*
%TO.P,U15,24,OE*%
%TO.N,~{RD}*%
X58655000Y-89140000D03*
%TO.P,U15,25,A11*%
%TO.N,CA11*%
X56115000Y-86600000D03*
%TO.P,U15,26,A9*%
%TO.N,CA9*%
X58655000Y-86600000D03*
%TO.P,U15,27,A8*%
%TO.N,CA8*%
X56115000Y-84060000D03*
%TO.P,U15,28,A13*%
%TO.N,CA13*%
X58655000Y-84060000D03*
%TO.P,U15,29,A14*%
%TO.N,CA14*%
X56115000Y-81520000D03*
%TO.P,U15,30,NC*%
%TO.N,unconnected-(U15-NC-Pad30)*%
X58655000Y-78980000D03*
%TO.P,U15,31,PGM*%
%TO.N,~{WR}*%
X58655000Y-81520000D03*
%TO.P,U15,32,VCC*%
%TO.N,VCC*%
X61195000Y-78980000D03*
%TD*%
D14*
%TO.P,J3,1,Pin_1*%
%TO.N,~{CS}*%
X68561000Y-19671000D03*
D15*
%TO.P,J3,2,Pin_2*%
%TO.N,CLK*%
X68561000Y-22211000D03*
%TO.P,J3,3,Pin_3*%
%TO.N,MOSI*%
X68561000Y-24751000D03*
%TO.P,J3,4,Pin_4*%
%TO.N,MISO*%
X68561000Y-27291000D03*
%TO.P,J3,5,Pin_5*%
%TO.N,VCC*%
X68561000Y-29831000D03*
%TO.P,J3,6,Pin_6*%
%TO.N,GND*%
X68561000Y-32371000D03*
%TD*%
D16*
%TO.P,J2,1b,Pin_1b*%
%TO.N,VCC*%
X33875000Y-112776000D03*
%TO.P,J2,2b,Pin_2b*%
%TO.N,D1*%
X37835000Y-112776000D03*
%TO.P,J2,3b,Pin_3b*%
%TO.N,D3*%
X41795000Y-112776000D03*
%TO.P,J2,4b,Pin_4b*%
%TO.N,D5*%
X45755000Y-112776000D03*
%TO.P,J2,5b,Pin_5b*%
%TO.N,D7*%
X49715000Y-112776000D03*
%TO.P,J2,6b,Pin_6b*%
%TO.N,A1*%
X53675000Y-112776000D03*
%TO.P,J2,7b,Pin_7b*%
%TO.N,A3*%
X57635000Y-112776000D03*
%TO.P,J2,8b,Pin_8b*%
%TO.N,A5*%
X61595000Y-112776000D03*
%TO.P,J2,9b,Pin_9b*%
%TO.N,A7*%
X65555000Y-112776000D03*
%TO.P,J2,10b,Pin_10b*%
%TO.N,~{RES}*%
X69515000Y-112776000D03*
%TO.P,J2,11b,Pin_11b*%
%TO.N,unconnected-(J2-Pin_11b-Pad11b)*%
X73475000Y-112776000D03*
%TO.P,J2,12b,Pin_12b*%
%TO.N,GND*%
X77435000Y-112776000D03*
%TO.P,J2,14b,Pin_14b*%
%TO.N,~{WR}*%
X85369400Y-112776000D03*
%TO.P,J2,15b,Pin_15b*%
%TO.N,GND*%
X89315000Y-112776000D03*
%TD*%
D17*
%TO.P,X1,1,NC*%
%TO.N,unconnected-(X1-NC-Pad1)*%
X57385000Y-31990000D03*
D18*
%TO.P,X1,7,GND*%
%TO.N,GND*%
X42145000Y-31990000D03*
%TO.P,X1,8,OUT*%
%TO.N,16MHz*%
X42145000Y-24370000D03*
%TO.P,X1,14,Vcc*%
%TO.N,VCC*%
X57385000Y-24370000D03*
%TD*%
D19*
%TO.N,GND*%
X92437000Y-71360000D03*
X72752000Y-50786000D03*
X50400000Y-58914000D03*
%TO.N,~{S5}*%
X42216900Y-68787700D03*
X85458500Y-84351700D03*
%TO.N,LED_SEL*%
X42107300Y-63472900D03*
X83555700Y-47967100D03*
%TO.N,Net-(U3B-Q)*%
X34033600Y-39646600D03*
X84865400Y-43421000D03*
%TO.N,Net-(U3A-Q)*%
X34466200Y-37888300D03*
X85434900Y-39510400D03*
%TO.N,~{S9}*%
X99548800Y-78044400D03*
X81811500Y-78050100D03*
%TO.N,RAM16*%
X91379400Y-66650900D03*
X54595400Y-55281600D03*
%TO.N,ROM16*%
X95502800Y-77173000D03*
%TO.N,A3*%
X82125300Y-80214700D03*
X36973700Y-61446700D03*
%TO.N,~{SDCS_SET}*%
X26063300Y-61428100D03*
X62116100Y-51964500D03*
%TO.N,~{SER_WR}*%
X55933700Y-45648000D03*
X77823000Y-49799100D03*
%TO.N,~{SDOUT_RESET}*%
X51456100Y-43436300D03*
X31043600Y-58947200D03*
%TO.N,~{SDOUT_SET}*%
X61149100Y-40415600D03*
X31466900Y-54714100D03*
%TO.N,~{SER_RD}*%
X64761600Y-45671600D03*
X81661900Y-64535600D03*
%TO.N,~{S1}*%
X77611300Y-83685400D03*
X52658600Y-46840800D03*
X52658600Y-37594600D03*
%TO.N,~{S2}*%
X57325300Y-45647100D03*
X80427500Y-84556800D03*
X57325300Y-35596000D03*
%TO.N,~{S3}*%
X62108300Y-53517000D03*
X79568500Y-83685200D03*
%TO.N,~{S4}*%
X61666100Y-50173900D03*
X83229900Y-84110300D03*
%TO.N,Net-(U11-Cp)*%
X53953600Y-97027600D03*
X91319700Y-82196600D03*
%TO.N,Net-(U8-Cp)*%
X59909800Y-77665800D03*
X97770900Y-75255700D03*
%TO.N,Net-(U17-E3)*%
X86030600Y-69859100D03*
X87210700Y-80067900D03*
%TO.N,~{CLK}*%
X79624000Y-49748100D03*
X26664300Y-74164700D03*
X73853200Y-66990400D03*
%TO.N,~{CLKSTART_DB}*%
X30957900Y-75010900D03*
X41800300Y-55921500D03*
%TO.N,SD_SPI*%
X31191500Y-77341600D03*
X42050700Y-59546700D03*
X37400400Y-37594600D03*
%TO.N,Net-(U17-E1)*%
X37170300Y-60021200D03*
X68262200Y-64848400D03*
%TO.N,A0*%
X77645100Y-81189900D03*
X77612600Y-71527900D03*
X62486900Y-99487700D03*
%TO.N,A2*%
X80650900Y-78551600D03*
X80756600Y-69800000D03*
%TO.N,~{IORQ}*%
X83978500Y-80039900D03*
X83468900Y-69899700D03*
X75674000Y-101725100D03*
%TO.N,A7*%
X77530400Y-92019400D03*
%TO.N,A5*%
X70057100Y-101740900D03*
%TO.N,A1*%
X79135200Y-80057600D03*
X77867700Y-70302300D03*
%TO.N,~{CS}*%
X26615300Y-58535200D03*
%TO.N,Net-(D2-K)*%
X45707000Y-59587600D03*
%TO.N,Net-(D2-A)*%
X30057400Y-31865300D03*
%TO.N,Net-(D1-K)*%
X45238000Y-63347100D03*
%TO.N,~{WR}*%
X55636200Y-71724700D03*
X95294000Y-81448200D03*
X99554100Y-79210300D03*
X58265500Y-50344000D03*
%TO.N,~{RD}*%
X61918700Y-72147000D03*
X60979000Y-45122100D03*
X73263200Y-96638500D03*
%TO.N,CA15*%
X53635600Y-74374900D03*
X43630100Y-91364500D03*
%TO.N,CA14*%
X54880800Y-59756800D03*
%TO.N,CA13*%
X57358600Y-71767800D03*
%TO.N,CA12*%
X61883300Y-88396600D03*
X57968900Y-59462600D03*
%TO.N,CA11*%
X47614300Y-85385000D03*
X56276300Y-75837000D03*
%TO.N,CA9*%
X57710400Y-73753700D03*
%TO.N,CA8*%
X36427100Y-88552100D03*
X56259800Y-74238700D03*
%TO.N,CA7*%
X56404200Y-73008300D03*
X59042700Y-59409100D03*
%TO.N,D7*%
X65838700Y-71844400D03*
X86870100Y-59738200D03*
X50676800Y-82880000D03*
X43607700Y-98440300D03*
%TO.N,D6*%
X52715900Y-76865000D03*
X84392100Y-59719800D03*
X84493500Y-49570700D03*
%TO.N,CA6*%
X60620500Y-76175000D03*
X60425900Y-59650600D03*
%TO.N,CA5*%
X51422300Y-81816100D03*
X57540100Y-55297400D03*
%TO.N,D5*%
X83386900Y-49731600D03*
X83349100Y-59772300D03*
X73900000Y-72495900D03*
X45169900Y-98930400D03*
X43048000Y-82103200D03*
%TO.N,D4*%
X60944200Y-83621300D03*
X68809600Y-72322000D03*
X82928800Y-58764700D03*
X81991500Y-49576400D03*
X46590000Y-99125400D03*
%TO.N,CA4*%
X60444600Y-58625200D03*
X56442300Y-78766000D03*
%TO.N,D3*%
X71855600Y-68404400D03*
X81347900Y-59346800D03*
X46497800Y-85460200D03*
X46497800Y-69029100D03*
%TO.N,D2*%
X45287600Y-69449700D03*
X69194400Y-59902300D03*
X80215000Y-59059500D03*
X41651100Y-91164900D03*
%TO.N,CA2*%
X60623400Y-61104900D03*
%TO.N,CA1*%
X66659700Y-61285900D03*
%TO.N,D1*%
X68717600Y-61446900D03*
X77742300Y-61620400D03*
X41127900Y-85379100D03*
X40872000Y-69312700D03*
%TO.N,D0*%
X70557800Y-64448500D03*
X85019300Y-57710900D03*
X81782800Y-39544300D03*
X39837400Y-64120700D03*
X99616100Y-61327000D03*
%TO.N,CA0*%
X38211000Y-69285300D03*
X66407600Y-59888500D03*
%TO.N,~{RES}*%
X90281800Y-63360000D03*
X36139600Y-71444600D03*
X36139600Y-86963400D03*
X79956500Y-43835000D03*
%TO.N,GND*%
X65005000Y-74535000D03*
X92564000Y-99300000D03*
X49765000Y-61454000D03*
X34525000Y-88886000D03*
X98279000Y-73900000D03*
X76435000Y-91426000D03*
X76435000Y-81266000D03*
X76435000Y-70979000D03*
X76435000Y-60946000D03*
X98025000Y-58660000D03*
X76435000Y-50786000D03*
X77959000Y-40880000D03*
X51035000Y-46976000D03*
X51035000Y-37197000D03*
X35795000Y-36816000D03*
X34525000Y-72503000D03*
X29572000Y-68820000D03*
X35795000Y-60946000D03*
X34525000Y-49135000D03*
X29445000Y-52945000D03*
X86595000Y-98232700D03*
X77068900Y-101831000D03*
X80245000Y-95053100D03*
%TO.N,VCC*%
X60179000Y-74535000D03*
X31731000Y-99681000D03*
X49765000Y-66661000D03*
X34525000Y-93966000D03*
X93199000Y-73900000D03*
X76435000Y-96506000D03*
X76435000Y-86346000D03*
X76435000Y-76059000D03*
X76435000Y-66026000D03*
X93199000Y-58660000D03*
X76435000Y-55866000D03*
X77959000Y-46087000D03*
X51035000Y-52056000D03*
X33128000Y-55104000D03*
X51035000Y-42150000D03*
X33382000Y-36562000D03*
X35795000Y-41896000D03*
X34525000Y-77456000D03*
X24492000Y-68820000D03*
X35795000Y-66026000D03*
X33001000Y-53072000D03*
X24111000Y-52945000D03*
X45955000Y-35553200D03*
X83421300Y-98043200D03*
X46537800Y-40622300D03*
X85325000Y-47669000D03*
X86595000Y-64701300D03*
X86595000Y-54542000D03*
X84055000Y-39550900D03*
X94595300Y-66832200D03*
X99458800Y-65614900D03*
X39605000Y-47688100D03*
X81515000Y-90097500D03*
X43415000Y-55791100D03*
%TD*%
D20*
%TO.N,GND*%
X98279000Y-71868000D02*
X98279000Y-73900000D01*
X97771000Y-71360000D02*
X98279000Y-71868000D01*
X92437000Y-71360000D02*
X97771000Y-71360000D01*
%TO.N,VCC*%
X81515000Y-91426000D02*
X81515000Y-90097500D01*
X76435000Y-96506000D02*
X81515000Y-91426000D01*
X76308000Y-76186000D02*
X76435000Y-76059000D01*
X74530000Y-76186000D02*
X76308000Y-76186000D01*
X73175000Y-74831000D02*
X74530000Y-76186000D01*
X73175000Y-69286000D02*
X73175000Y-74831000D01*
X76435000Y-66026000D02*
X73175000Y-69286000D01*
%TO.N,GND*%
X72752000Y-50786000D02*
X76435000Y-50786000D01*
X34525000Y-70725000D02*
X34525000Y-72503000D01*
X29572000Y-68820000D02*
X32620000Y-68820000D01*
X32620000Y-68820000D02*
X34525000Y-70725000D01*
X50400000Y-60819000D02*
X49765000Y-61454000D01*
X50400000Y-58914000D02*
X50400000Y-60819000D01*
%TO.N,A3*%
X82125300Y-84680400D02*
X82125300Y-80214700D01*
X59355000Y-107450700D02*
X82125300Y-84680400D01*
X57635000Y-107450700D02*
X59355000Y-107450700D01*
X57635000Y-112776000D02*
X57635000Y-107450700D01*
%TO.N,~{S1}*%
X71117900Y-77192000D02*
X77611300Y-83685400D01*
X71117900Y-68093700D02*
X71117900Y-77192000D01*
X71305600Y-67906000D02*
X71117900Y-68093700D01*
X71305600Y-60937800D02*
X71305600Y-67906000D01*
X63059900Y-52692100D02*
X71305600Y-60937800D01*
X58509900Y-52692100D02*
X63059900Y-52692100D01*
X52658600Y-46840800D02*
X58509900Y-52692100D01*
%TO.N,~{S2}*%
X58165100Y-45647100D02*
X57325300Y-45647100D01*
X72629400Y-60111400D02*
X58165100Y-45647100D01*
X72629400Y-75058100D02*
X72629400Y-60111400D01*
X80427500Y-82856200D02*
X72629400Y-75058100D01*
X80427500Y-84556800D02*
X80427500Y-82856200D01*
%TO.N,~{CLK}*%
X73853200Y-55518900D02*
X73853200Y-66990400D01*
X79624000Y-49748100D02*
X73853200Y-55518900D01*
%TO.N,SD_SPI*%
X37400400Y-54896400D02*
X42050700Y-59546700D01*
X37400400Y-37594600D02*
X37400400Y-54896400D01*
%TO.N,A7*%
X74543500Y-95006300D02*
X77530400Y-92019400D01*
X74543500Y-98462200D02*
X74543500Y-95006300D01*
X65555000Y-107450700D02*
X74543500Y-98462200D01*
X65555000Y-112776000D02*
X65555000Y-107450700D01*
%TO.N,A5*%
X61595000Y-112776000D02*
X61595000Y-107450700D01*
X64347300Y-107450700D02*
X70057100Y-101740900D01*
X61595000Y-107450700D02*
X64347300Y-107450700D01*
%TO.N,A1*%
X53675000Y-112776000D02*
X53675000Y-107450700D01*
X56476300Y-107450700D02*
X53675000Y-107450700D01*
X78109900Y-85817100D02*
X56476300Y-107450700D01*
X80252800Y-85817100D02*
X78109900Y-85817100D01*
X81211600Y-84858300D02*
X80252800Y-85817100D01*
X81211600Y-82134000D02*
X81211600Y-84858300D01*
X79135200Y-80057600D02*
X81211600Y-82134000D01*
%TO.N,~{WR}*%
X85369400Y-112776000D02*
X85369400Y-107450700D01*
X85369400Y-91372800D02*
X95294000Y-81448200D01*
X85369400Y-107450700D02*
X85369400Y-91372800D01*
%TO.N,~{RD}*%
X61918700Y-76781400D02*
X61918700Y-72147000D01*
X60142000Y-78558100D02*
X61918700Y-76781400D01*
X60142000Y-87653000D02*
X60142000Y-78558100D01*
X58655000Y-89140000D02*
X60142000Y-87653000D01*
%TO.N,CA13*%
X57358600Y-82763600D02*
X58655000Y-84060000D01*
X57358600Y-74427600D02*
X57358600Y-82763600D01*
X56985100Y-74054100D02*
X57358600Y-74427600D01*
X56985100Y-73453300D02*
X56985100Y-74054100D01*
X57358600Y-73079800D02*
X56985100Y-73453300D01*
X57358600Y-71767800D02*
X57358600Y-73079800D01*
%TO.N,CA12*%
X65238400Y-85041500D02*
X61883300Y-88396600D01*
X65238400Y-80016600D02*
X65238400Y-85041500D01*
X66275000Y-78980000D02*
X65238400Y-80016600D01*
%TO.N,CA11*%
X53804100Y-76131900D02*
X54892800Y-77220500D01*
X52376300Y-76131900D02*
X53804100Y-76131900D01*
X47614300Y-80893900D02*
X52376300Y-76131900D01*
X47614300Y-85385000D02*
X47614300Y-80893900D01*
X55071200Y-85556200D02*
X56115000Y-86600000D01*
X55071200Y-77399000D02*
X55071200Y-85556200D01*
X54892800Y-77220500D02*
X55071200Y-77399000D01*
X54892800Y-77220500D02*
X56276300Y-75837000D01*
%TO.N,CA9*%
X57985100Y-74028400D02*
X57710400Y-73753700D01*
X57985100Y-76805400D02*
X57985100Y-74028400D01*
X59691600Y-78511900D02*
X57985100Y-76805400D01*
X59691600Y-85563400D02*
X59691600Y-78511900D01*
X58655000Y-86600000D02*
X59691600Y-85563400D01*
%TO.N,CA7*%
X56404300Y-73008300D02*
X56404200Y-73008300D01*
X56404300Y-71696400D02*
X56404300Y-73008300D01*
X59042700Y-69058000D02*
X56404300Y-71696400D01*
X59042700Y-59409100D02*
X59042700Y-69058000D01*
%TO.N,D7*%
X49715000Y-112776000D02*
X49715000Y-107450700D01*
X50676800Y-86241800D02*
X50676800Y-82880000D01*
X56115000Y-91680000D02*
X50676800Y-86241800D01*
X49590000Y-98205000D02*
X56115000Y-91680000D01*
X49715000Y-98330000D02*
X49590000Y-98205000D01*
X49715000Y-107450700D02*
X49715000Y-98330000D01*
X43843000Y-98205000D02*
X43607700Y-98440300D01*
X49590000Y-98205000D02*
X43843000Y-98205000D01*
%TO.N,D6*%
X52715900Y-84703300D02*
X52715900Y-76865000D01*
X55882600Y-87870000D02*
X52715900Y-84703300D01*
X56386000Y-87870000D02*
X55882600Y-87870000D01*
X57153300Y-88637300D02*
X56386000Y-87870000D01*
X57153300Y-92718300D02*
X57153300Y-88637300D01*
X58655000Y-94220000D02*
X57153300Y-92718300D01*
%TO.N,CA6*%
X61374000Y-60598700D02*
X60425900Y-59650600D01*
X61374000Y-61483900D02*
X61374000Y-60598700D01*
X60910700Y-61947200D02*
X61374000Y-61483900D01*
X60910700Y-75884800D02*
X60910700Y-61947200D01*
X60620500Y-76175000D02*
X60910700Y-75884800D01*
%TO.N,D5*%
X45755000Y-112776000D02*
X45755000Y-107450700D01*
X73900000Y-70883100D02*
X73900000Y-72495900D01*
X83349100Y-61434000D02*
X73900000Y-70883100D01*
X83349100Y-59772300D02*
X83349100Y-61434000D01*
X45755000Y-99515500D02*
X45169900Y-98930400D01*
X45755000Y-107450700D02*
X45755000Y-99515500D01*
%TO.N,D4*%
X65005000Y-76126600D02*
X68809600Y-72322000D01*
X65005000Y-79185900D02*
X65005000Y-76126600D01*
X63940900Y-80250000D02*
X65005000Y-79185900D01*
X63513400Y-80250000D02*
X63940900Y-80250000D01*
X62539100Y-81224300D02*
X63513400Y-80250000D01*
X62539100Y-82106900D02*
X62539100Y-81224300D01*
X61024700Y-83621300D02*
X62539100Y-82106900D01*
X60944200Y-83621300D02*
X61024700Y-83621300D01*
%TO.N,D3*%
X46497800Y-87432500D02*
X46497800Y-85460200D01*
X41795000Y-92135300D02*
X46497800Y-87432500D01*
X41795000Y-112776000D02*
X41795000Y-92135300D01*
%TO.N,D2*%
X67171300Y-57879200D02*
X69194400Y-59902300D01*
X55701000Y-57879200D02*
X67171300Y-57879200D01*
X45287600Y-68292600D02*
X55701000Y-57879200D01*
X45287600Y-69449700D02*
X45287600Y-68292600D01*
%TO.N,D1*%
X37835000Y-112776000D02*
X37835000Y-107450700D01*
X37835000Y-88672000D02*
X41127900Y-85379100D01*
X37835000Y-107450700D02*
X37835000Y-88672000D01*
X68717600Y-63785300D02*
X68717600Y-61446900D01*
X69852200Y-64919900D02*
X68717600Y-63785300D01*
X69852200Y-89632600D02*
X69852200Y-64919900D01*
X69074800Y-90410000D02*
X69852200Y-89632600D01*
X66069100Y-90410000D02*
X69074800Y-90410000D01*
X65226700Y-91252400D02*
X66069100Y-90410000D01*
X65226700Y-93171700D02*
X65226700Y-91252400D01*
X66275000Y-94220000D02*
X65226700Y-93171700D01*
%TO.N,D0*%
X70557800Y-89937200D02*
X70557800Y-64448500D01*
X68815000Y-91680000D02*
X70557800Y-89937200D01*
%TO.N,~{RES}*%
X69515000Y-112776000D02*
X69515000Y-107450700D01*
X90281800Y-83685000D02*
X90281800Y-63360000D01*
X69515000Y-104451800D02*
X90281800Y-83685000D01*
X69515000Y-107450700D02*
X69515000Y-104451800D01*
D21*
%TO.N,GND*%
X89315000Y-102549000D02*
X92564000Y-99300000D01*
X89315000Y-112776000D02*
X89315000Y-102549000D01*
D20*
X77435000Y-112776000D02*
X77435000Y-107450700D01*
X77068900Y-107084600D02*
X77435000Y-107450700D01*
X77068900Y-101831000D02*
X77068900Y-107084600D01*
D21*
%TO.N,VCC*%
X33875000Y-101825000D02*
X31731000Y-99681000D01*
X33875000Y-112776000D02*
X33875000Y-101825000D01*
%TD*%
M02*
