%TF.GenerationSoftware,KiCad,Pcbnew,7.0.10*%
%TF.CreationDate,2024-03-10T15:16:21+01:00*%
%TF.ProjectId,port2-sdcard-interface,706f7274-322d-4736-9463-6172642d696e,rev1*%
%TF.SameCoordinates,Original*%
%TF.FileFunction,Profile,NP*%
%FSLAX46Y46*%
G04 Gerber Fmt 4.6, Leading zero omitted, Abs format (unit mm)*
G04 Created by KiCad (PCBNEW 7.0.10) date 2024-03-10 15:16:21*
%MOMM*%
%LPD*%
G01*
G04 APERTURE LIST*
%TA.AperFunction,Profile*%
%ADD10C,0.050000*%
%TD*%
G04 APERTURE END LIST*
D10*
X21590000Y-37280000D02*
X21590000Y-32780000D01*
X93590000Y-107780000D02*
X101590000Y-107780000D01*
X21590000Y-107780000D02*
X21590000Y-100780000D01*
X101590000Y-29780000D02*
X101590000Y-31480000D01*
X101590000Y-29780000D02*
X101590000Y-17780000D01*
X21590000Y-39280000D02*
X21590000Y-37280000D01*
X61590000Y-17780000D02*
X21590000Y-17780000D01*
X101590000Y-89280000D02*
G75*
G03*
X101590000Y-98280000I0J-4500000D01*
G01*
X21590000Y-48280000D02*
G75*
G03*
X21590000Y-39280000I0J4500000D01*
G01*
X21590000Y-17780000D02*
X21590000Y-32780000D01*
X101590001Y-57080001D02*
X101590001Y-68480000D01*
X21590000Y-82780000D02*
X21590000Y-87280000D01*
X101590000Y-100780000D02*
X101590000Y-98280000D01*
X101590000Y-83680000D02*
X101590000Y-74092000D01*
X21590000Y-89280000D02*
X21590000Y-87780000D01*
X93251000Y-117780000D02*
X29878000Y-117780000D01*
X101590000Y-48380000D02*
X101590000Y-48280000D01*
X93251000Y-107780000D02*
X93590000Y-107780000D01*
X101590001Y-57080001D02*
X101590000Y-51480000D01*
X101590000Y-37080000D02*
X101590000Y-31480000D01*
X101590000Y-89280000D02*
X101590000Y-83680000D01*
X21590000Y-82780000D02*
X21590000Y-48280000D01*
X29878000Y-117780000D02*
X29878000Y-107780000D01*
X29590000Y-107780000D02*
X21590000Y-107780000D01*
X101590000Y-107780000D02*
X101590000Y-100780000D01*
X29878000Y-107780000D02*
X29590000Y-107780000D01*
X101590000Y-74092000D02*
X101590001Y-68480000D01*
X101590000Y-39280000D02*
X101590000Y-37080000D01*
X93251000Y-117780000D02*
X93251000Y-107780000D01*
X21590000Y-98280000D02*
G75*
G03*
X21590000Y-89280000I0J4500000D01*
G01*
X21590000Y-100780000D02*
X21590000Y-98280000D01*
X21590000Y-87780000D02*
X21590000Y-87280000D01*
X101590000Y-39280000D02*
G75*
G03*
X101590000Y-48280000I0J-4500000D01*
G01*
X101590000Y-48380000D02*
X101590000Y-51480000D01*
X61590000Y-17780000D02*
X101590000Y-17780000D01*
M02*
