%TF.GenerationSoftware,KiCad,Pcbnew,8.0.2*%
%TF.CreationDate,2025-01-02T22:32:26+01:00*%
%TF.ProjectId,port2-sdcard-interface,706f7274-322d-4736-9463-6172642d696e,rev6*%
%TF.SameCoordinates,Original*%
%TF.FileFunction,Copper,L4,Bot*%
%TF.FilePolarity,Positive*%
%FSLAX46Y46*%
G04 Gerber Fmt 4.6, Leading zero omitted, Abs format (unit mm)*
G04 Created by KiCad (PCBNEW 8.0.2) date 2025-01-02 22:32:26*
%MOMM*%
%LPD*%
G01*
G04 APERTURE LIST*
G04 Aperture macros list*
%AMRoundRect*
0 Rectangle with rounded corners*
0 $1 Rounding radius*
0 $2 $3 $4 $5 $6 $7 $8 $9 X,Y pos of 4 corners*
0 Add a 4 corners polygon primitive as box body*
4,1,4,$2,$3,$4,$5,$6,$7,$8,$9,$2,$3,0*
0 Add four circle primitives for the rounded corners*
1,1,$1+$1,$2,$3*
1,1,$1+$1,$4,$5*
1,1,$1+$1,$6,$7*
1,1,$1+$1,$8,$9*
0 Add four rect primitives between the rounded corners*
20,1,$1+$1,$2,$3,$4,$5,0*
20,1,$1+$1,$4,$5,$6,$7,0*
20,1,$1+$1,$6,$7,$8,$9,0*
20,1,$1+$1,$8,$9,$2,$3,0*%
G04 Aperture macros list end*
%TA.AperFunction,ComponentPad*%
%ADD10R,1.800000X1.800000*%
%TD*%
%TA.AperFunction,ComponentPad*%
%ADD11C,1.800000*%
%TD*%
%TA.AperFunction,SMDPad,CuDef*%
%ADD12RoundRect,0.250000X0.475000X-0.337500X0.475000X0.337500X-0.475000X0.337500X-0.475000X-0.337500X0*%
%TD*%
%TA.AperFunction,SMDPad,CuDef*%
%ADD13RoundRect,0.150000X-0.150000X0.875000X-0.150000X-0.875000X0.150000X-0.875000X0.150000X0.875000X0*%
%TD*%
%TA.AperFunction,SMDPad,CuDef*%
%ADD14RoundRect,0.250000X-0.337500X-0.475000X0.337500X-0.475000X0.337500X0.475000X-0.337500X0.475000X0*%
%TD*%
%TA.AperFunction,SMDPad,CuDef*%
%ADD15RoundRect,0.150000X-0.150000X0.825000X-0.150000X-0.825000X0.150000X-0.825000X0.150000X0.825000X0*%
%TD*%
%TA.AperFunction,ComponentPad*%
%ADD16R,1.422400X1.422400*%
%TD*%
%TA.AperFunction,ComponentPad*%
%ADD17C,1.422400*%
%TD*%
%TA.AperFunction,SMDPad,CuDef*%
%ADD18RoundRect,0.250000X0.450000X-0.350000X0.450000X0.350000X-0.450000X0.350000X-0.450000X-0.350000X0*%
%TD*%
%TA.AperFunction,SMDPad,CuDef*%
%ADD19RoundRect,0.150000X0.825000X0.150000X-0.825000X0.150000X-0.825000X-0.150000X0.825000X-0.150000X0*%
%TD*%
%TA.AperFunction,SMDPad,CuDef*%
%ADD20RoundRect,0.250000X-0.350000X-0.450000X0.350000X-0.450000X0.350000X0.450000X-0.350000X0.450000X0*%
%TD*%
%TA.AperFunction,SMDPad,CuDef*%
%ADD21RoundRect,0.250000X0.412500X0.650000X-0.412500X0.650000X-0.412500X-0.650000X0.412500X-0.650000X0*%
%TD*%
%TA.AperFunction,SMDPad,CuDef*%
%ADD22RoundRect,0.375000X0.625000X0.375000X-0.625000X0.375000X-0.625000X-0.375000X0.625000X-0.375000X0*%
%TD*%
%TA.AperFunction,SMDPad,CuDef*%
%ADD23RoundRect,0.500000X0.500000X1.400000X-0.500000X1.400000X-0.500000X-1.400000X0.500000X-1.400000X0*%
%TD*%
%TA.AperFunction,SMDPad,CuDef*%
%ADD24RoundRect,0.250000X-0.450000X0.350000X-0.450000X-0.350000X0.450000X-0.350000X0.450000X0.350000X0*%
%TD*%
%TA.AperFunction,SMDPad,CuDef*%
%ADD25R,2.000000X10.000000*%
%TD*%
%TA.AperFunction,SMDPad,CuDef*%
%ADD26RoundRect,0.100000X0.637500X0.100000X-0.637500X0.100000X-0.637500X-0.100000X0.637500X-0.100000X0*%
%TD*%
%TA.AperFunction,SMDPad,CuDef*%
%ADD27R,1.600200X0.711200*%
%TD*%
%TA.AperFunction,SMDPad,CuDef*%
%ADD28R,2.209800X1.193800*%
%TD*%
%TA.AperFunction,SMDPad,CuDef*%
%ADD29R,1.800000X1.193800*%
%TD*%
%TA.AperFunction,SMDPad,CuDef*%
%ADD30R,1.498600X1.600200*%
%TD*%
%TA.AperFunction,SMDPad,CuDef*%
%ADD31RoundRect,0.250000X0.337500X0.475000X-0.337500X0.475000X-0.337500X-0.475000X0.337500X-0.475000X0*%
%TD*%
%TA.AperFunction,ComponentPad*%
%ADD32R,1.600000X1.600000*%
%TD*%
%TA.AperFunction,ComponentPad*%
%ADD33C,1.600000*%
%TD*%
%TA.AperFunction,ViaPad*%
%ADD34C,0.800000*%
%TD*%
%TA.AperFunction,Conductor*%
%ADD35C,0.250000*%
%TD*%
%TA.AperFunction,Conductor*%
%ADD36C,0.500000*%
%TD*%
G04 APERTURE END LIST*
D10*
%TO.P,D1,1,K*%
%TO.N,Net-(D1-K)*%
X24760000Y-22225000D03*
D11*
%TO.P,D1,2,A*%
%TO.N,Net-(D1-A)*%
X27300000Y-22225000D03*
%TD*%
D10*
%TO.P,D4,1,K*%
%TO.N,GND*%
X32366000Y-30085000D03*
D11*
%TO.P,D4,2,A*%
%TO.N,Net-(D4-A)*%
X34906000Y-30085000D03*
%TD*%
D10*
%TO.P,D3,1,K*%
%TO.N,GND*%
X24746000Y-30085000D03*
D11*
%TO.P,D3,2,A*%
%TO.N,Net-(D3-A)*%
X27286000Y-30085000D03*
%TD*%
D10*
%TO.P,D2,1,K*%
%TO.N,Net-(D2-K)*%
X32380000Y-22225000D03*
D11*
%TO.P,D2,2,A*%
%TO.N,Net-(D2-A)*%
X34920000Y-22225000D03*
%TD*%
D12*
%TO.P,C4,1*%
%TO.N,VCC*%
X35795000Y-64545000D03*
%TO.P,C4,2*%
%TO.N,GND*%
X35795000Y-62470000D03*
%TD*%
D13*
%TO.P,U1,1,NC*%
%TO.N,unconnected-(U1-NC-Pad1)*%
X52305000Y-56990000D03*
%TO.P,U1,2,A16*%
%TO.N,RAM16*%
X53575000Y-56990000D03*
%TO.P,U1,3,A14*%
%TO.N,CA14*%
X54845000Y-56990000D03*
%TO.P,U1,4,A12*%
%TO.N,CA12*%
X56115000Y-56990000D03*
%TO.P,U1,5,A7*%
%TO.N,CA7*%
X57385000Y-56990000D03*
%TO.P,U1,6,A6*%
%TO.N,CA6*%
X58655000Y-56990000D03*
%TO.P,U1,7,A5*%
%TO.N,CA5*%
X59925000Y-56990000D03*
%TO.P,U1,8,A4*%
%TO.N,CA4*%
X61195000Y-56990000D03*
%TO.P,U1,9,A3*%
%TO.N,CA3*%
X62465000Y-56990000D03*
%TO.P,U1,10,A2*%
%TO.N,CA2*%
X63735000Y-56990000D03*
%TO.P,U1,11,A1*%
%TO.N,CA1*%
X65005000Y-56990000D03*
%TO.P,U1,12,A0*%
%TO.N,CA0*%
X66275000Y-56990000D03*
%TO.P,U1,13,Q0*%
%TO.N,D0*%
X67545000Y-56990000D03*
%TO.P,U1,14,Q1*%
%TO.N,D1*%
X68815000Y-56990000D03*
%TO.P,U1,15,Q2*%
%TO.N,D2*%
X70085000Y-56990000D03*
%TO.P,U1,16,GND*%
%TO.N,GND*%
X71355000Y-56990000D03*
%TO.P,U1,17,Q3*%
%TO.N,D3*%
X71355000Y-70090000D03*
%TO.P,U1,18,Q4*%
%TO.N,D4*%
X70085000Y-70090000D03*
%TO.P,U1,19,Q5*%
%TO.N,D5*%
X68815000Y-70090000D03*
%TO.P,U1,20,Q6*%
%TO.N,D6*%
X67545000Y-70090000D03*
%TO.P,U1,21,Q7*%
%TO.N,D7*%
X66275000Y-70090000D03*
%TO.P,U1,22,~{CS1}*%
%TO.N,~{S14}*%
X65005000Y-70090000D03*
%TO.P,U1,23,A10*%
%TO.N,CA10*%
X63735000Y-70090000D03*
%TO.P,U1,24,~{OE}*%
%TO.N,~{RD}*%
X62465000Y-70090000D03*
%TO.P,U1,25,A11*%
%TO.N,CA11*%
X61195000Y-70090000D03*
%TO.P,U1,26,A9*%
%TO.N,CA9*%
X59925000Y-70090000D03*
%TO.P,U1,27,A8*%
%TO.N,CA8*%
X58655000Y-70090000D03*
%TO.P,U1,28,A13*%
%TO.N,CA13*%
X57385000Y-70090000D03*
%TO.P,U1,29,~{WE}*%
%TO.N,~{WR}*%
X56115000Y-70090000D03*
%TO.P,U1,30,CS2*%
%TO.N,VCC*%
X54845000Y-70090000D03*
%TO.P,U1,31,A15*%
%TO.N,CA15*%
X53575000Y-70090000D03*
%TO.P,U1,32,VCC*%
%TO.N,VCC*%
X52305000Y-70090000D03*
%TD*%
D14*
%TO.P,C15,1*%
%TO.N,VCC*%
X61660000Y-74535000D03*
%TO.P,C15,2*%
%TO.N,GND*%
X63735000Y-74535000D03*
%TD*%
D12*
%TO.P,C11,1*%
%TO.N,VCC*%
X34525000Y-92485000D03*
%TO.P,C11,2*%
%TO.N,GND*%
X34525000Y-90410000D03*
%TD*%
D15*
%TO.P,U13,1,QB*%
%TO.N,D1*%
X78975000Y-61330000D03*
%TO.P,U13,2,QC*%
%TO.N,D2*%
X80245000Y-61330000D03*
%TO.P,U13,3,QD*%
%TO.N,D3*%
X81515000Y-61330000D03*
%TO.P,U13,4,QE*%
%TO.N,D4*%
X82785000Y-61330000D03*
%TO.P,U13,5,QF*%
%TO.N,D5*%
X84055000Y-61330000D03*
%TO.P,U13,6,QG*%
%TO.N,D6*%
X85325000Y-61330000D03*
%TO.P,U13,7,QH*%
%TO.N,D7*%
X86595000Y-61330000D03*
%TO.P,U13,8,GND*%
%TO.N,GND*%
X87865000Y-61330000D03*
%TO.P,U13,9,QH'*%
%TO.N,unconnected-(U13-QH'-Pad9)*%
X87865000Y-66280000D03*
%TO.P,U13,10,~{SRCLR}*%
%TO.N,VCC*%
X86595000Y-66280000D03*
%TO.P,U13,11,SRCLK*%
%TO.N,CLK*%
X85325000Y-66280000D03*
%TO.P,U13,12,RCLK*%
%TO.N,~{CLK}*%
X84055000Y-66280000D03*
%TO.P,U13,13,~{OE}*%
%TO.N,~{SER_RD}*%
X82785000Y-66280000D03*
%TO.P,U13,14,SER*%
%TO.N,MISO*%
X81515000Y-66280000D03*
%TO.P,U13,15,QA*%
%TO.N,D0*%
X80245000Y-66280000D03*
%TO.P,U13,16,VCC*%
%TO.N,VCC*%
X78975000Y-66280000D03*
%TD*%
D16*
%TO.P,U15,1,NC*%
%TO.N,GND*%
X61195000Y-81520000D03*
D17*
%TO.P,U15,2,A16*%
%TO.N,ROM16*%
X63735000Y-78980000D03*
%TO.P,U15,3,A15*%
%TO.N,CA15*%
X63735000Y-81520000D03*
%TO.P,U15,4,A12*%
%TO.N,CA12*%
X66275000Y-78980000D03*
%TO.P,U15,5,A7*%
%TO.N,CA7*%
X68815000Y-81520000D03*
%TO.P,U15,6,A6*%
%TO.N,CA6*%
X66275000Y-81520000D03*
%TO.P,U15,7,A5*%
%TO.N,CA5*%
X68815000Y-84060000D03*
%TO.P,U15,8,A4*%
%TO.N,CA4*%
X66275000Y-84060000D03*
%TO.P,U15,9,A3*%
%TO.N,CA3*%
X68815000Y-86600000D03*
%TO.P,U15,10,A2*%
%TO.N,CA2*%
X66275000Y-86600000D03*
%TO.P,U15,11,A1*%
%TO.N,CA1*%
X68815000Y-89140000D03*
%TO.P,U15,12,A0*%
%TO.N,CA0*%
X66275000Y-89140000D03*
%TO.P,U15,13,D0*%
%TO.N,D0*%
X68815000Y-91680000D03*
%TO.P,U15,14,D1*%
%TO.N,D1*%
X66275000Y-94220000D03*
%TO.P,U15,15,D2*%
%TO.N,D2*%
X66275000Y-91680000D03*
%TO.P,U15,16,GND*%
%TO.N,GND*%
X63735000Y-94220000D03*
%TO.P,U15,17,D3*%
%TO.N,D3*%
X63735000Y-91680000D03*
%TO.P,U15,18,D4*%
%TO.N,D4*%
X61195000Y-94220000D03*
%TO.P,U15,19,D5*%
%TO.N,D5*%
X61195000Y-91680000D03*
%TO.P,U15,20,D6*%
%TO.N,D6*%
X58655000Y-94220000D03*
%TO.P,U15,21,D7*%
%TO.N,D7*%
X56115000Y-91680000D03*
%TO.P,U15,22,CE*%
%TO.N,~{S13}*%
X58655000Y-91680000D03*
%TO.P,U15,23,A10*%
%TO.N,CA10*%
X56115000Y-89140000D03*
%TO.P,U15,24,OE*%
%TO.N,~{RD}*%
X58655000Y-89140000D03*
%TO.P,U15,25,A11*%
%TO.N,CA11*%
X56115000Y-86600000D03*
%TO.P,U15,26,A9*%
%TO.N,CA9*%
X58655000Y-86600000D03*
%TO.P,U15,27,A8*%
%TO.N,CA8*%
X56115000Y-84060000D03*
%TO.P,U15,28,A13*%
%TO.N,CA13*%
X58655000Y-84060000D03*
%TO.P,U15,29,A14*%
%TO.N,CA14*%
X56115000Y-81520000D03*
%TO.P,U15,30,NC*%
%TO.N,GND*%
X58655000Y-78980000D03*
%TO.P,U15,31,PGM*%
%TO.N,~{WR}*%
X58655000Y-81520000D03*
%TO.P,U15,32,VCC*%
%TO.N,VCC*%
X61195000Y-78980000D03*
%TD*%
D14*
%TO.P,C14,1*%
%TO.N,VCC*%
X25889000Y-52945000D03*
%TO.P,C14,2*%
%TO.N,GND*%
X27964000Y-52945000D03*
%TD*%
D18*
%TO.P,R6,1*%
%TO.N,Net-(U3A-Q)*%
X27413000Y-36562000D03*
%TO.P,R6,2*%
%TO.N,Net-(D3-A)*%
X27413000Y-34562000D03*
%TD*%
D15*
%TO.P,U20,1,B3*%
%TO.N,A7*%
X78975000Y-91680000D03*
%TO.P,U20,2,Ia<b*%
%TO.N,GND*%
X80245000Y-91680000D03*
%TO.P,U20,3,Ia=b*%
%TO.N,VCC*%
X81515000Y-91680000D03*
%TO.P,U20,4,Ia>b*%
%TO.N,GND*%
X82785000Y-91680000D03*
%TO.P,U20,5,Oa>b*%
%TO.N,unconnected-(U20-Oa>b-Pad5)*%
X84055000Y-91680000D03*
%TO.P,U20,6,Oa=b*%
%TO.N,Net-(U17-E3)*%
X85325000Y-91680000D03*
%TO.P,U20,7,Oa<b*%
%TO.N,unconnected-(U20-Oa<b-Pad7)*%
X86595000Y-91680000D03*
%TO.P,U20,8,GND*%
%TO.N,GND*%
X87865000Y-91680000D03*
%TO.P,U20,9,B0*%
%TO.N,A4*%
X87865000Y-96630000D03*
%TO.P,U20,10,A0*%
%TO.N,GND*%
X86595000Y-96630000D03*
%TO.P,U20,11,B1*%
%TO.N,A5*%
X85325000Y-96630000D03*
%TO.P,U20,12,A1*%
%TO.N,GND*%
X84055000Y-96630000D03*
%TO.P,U20,13,A2*%
%TO.N,VCC*%
X82785000Y-96630000D03*
%TO.P,U20,14,B2*%
%TO.N,A6*%
X81515000Y-96630000D03*
%TO.P,U20,15,A3*%
%TO.N,GND*%
X80245000Y-96630000D03*
%TO.P,U20,16,VCC*%
%TO.N,VCC*%
X78975000Y-96630000D03*
%TD*%
D12*
%TO.P,C16,1*%
%TO.N,VCC*%
X49765000Y-65053000D03*
%TO.P,C16,2*%
%TO.N,GND*%
X49765000Y-62978000D03*
%TD*%
D15*
%TO.P,U3,1,~{R}*%
%TO.N,~{RES}*%
X80245000Y-41137000D03*
%TO.P,U3,2,D*%
%TO.N,D0*%
X81515000Y-41137000D03*
%TO.P,U3,3,C*%
%TO.N,LED_SEL*%
X82785000Y-41137000D03*
%TO.P,U3,4,~{S}*%
%TO.N,VCC*%
X84055000Y-41137000D03*
%TO.P,U3,5,Q*%
%TO.N,Net-(U3A-Q)*%
X85325000Y-41137000D03*
%TO.P,U3,6,~{Q}*%
%TO.N,unconnected-(U3A-~{Q}-Pad6)*%
X86595000Y-41137000D03*
%TO.P,U3,7,GND*%
%TO.N,GND*%
X87865000Y-41137000D03*
%TO.P,U3,8,~{Q}*%
%TO.N,unconnected-(U3B-~{Q}-Pad8)*%
X87865000Y-46087000D03*
%TO.P,U3,9,Q*%
%TO.N,Net-(U3B-Q)*%
X86595000Y-46087000D03*
%TO.P,U3,10,~{S}*%
%TO.N,VCC*%
X85325000Y-46087000D03*
%TO.P,U3,11,C*%
%TO.N,LED_SEL*%
X84055000Y-46087000D03*
%TO.P,U3,12,D*%
%TO.N,D1*%
X82785000Y-46087000D03*
%TO.P,U3,13,~{R}*%
%TO.N,~{RES}*%
X81515000Y-46087000D03*
%TO.P,U3,14,VCC*%
%TO.N,VCC*%
X80245000Y-46087000D03*
%TD*%
D19*
%TO.P,U18,1,~{R}*%
%TO.N,~{RES}*%
X98025000Y-61200000D03*
%TO.P,U18,2,D*%
%TO.N,D0*%
X98025000Y-62470000D03*
%TO.P,U18,3,C*%
%TO.N,Net-(U18A-C)*%
X98025000Y-63740000D03*
%TO.P,U18,4,~{S}*%
%TO.N,VCC*%
X98025000Y-65010000D03*
%TO.P,U18,5,Q*%
%TO.N,ROM16*%
X98025000Y-66280000D03*
%TO.P,U18,6,~{Q}*%
%TO.N,unconnected-(U18A-~{Q}-Pad6)*%
X98025000Y-67550000D03*
%TO.P,U18,7,GND*%
%TO.N,GND*%
X98025000Y-68820000D03*
%TO.P,U18,8,~{Q}*%
%TO.N,unconnected-(U18B-~{Q}-Pad8)*%
X93075000Y-68820000D03*
%TO.P,U18,9,Q*%
%TO.N,RAM16*%
X93075000Y-67550000D03*
%TO.P,U18,10,~{S}*%
%TO.N,VCC*%
X93075000Y-66280000D03*
%TO.P,U18,11,C*%
%TO.N,Net-(U18B-C)*%
X93075000Y-65010000D03*
%TO.P,U18,12,D*%
%TO.N,D0*%
X93075000Y-63740000D03*
%TO.P,U18,13,~{R}*%
%TO.N,~{RES}*%
X93075000Y-62470000D03*
%TO.P,U18,14,VCC*%
%TO.N,VCC*%
X93075000Y-61200000D03*
%TD*%
D15*
%TO.P,U6,1,A0*%
%TO.N,A0*%
X78975000Y-81650000D03*
%TO.P,U6,2,A1*%
%TO.N,A1*%
X80245000Y-81650000D03*
%TO.P,U6,3,A2*%
%TO.N,A2*%
X81515000Y-81650000D03*
%TO.P,U6,4,E1*%
%TO.N,A3*%
X82785000Y-81650000D03*
%TO.P,U6,5,E2*%
%TO.N,~{IORQ}*%
X84055000Y-81650000D03*
%TO.P,U6,6,E3*%
%TO.N,Net-(U17-E3)*%
X85325000Y-81650000D03*
%TO.P,U6,7,O7*%
%TO.N,unconnected-(U6-O7-Pad7)*%
X86595000Y-81650000D03*
%TO.P,U6,8,GND*%
%TO.N,GND*%
X87865000Y-81650000D03*
%TO.P,U6,9,O6*%
%TO.N,unconnected-(U6-O6-Pad9)*%
X87865000Y-86600000D03*
%TO.P,U6,10,O5*%
%TO.N,unconnected-(U6-O5-Pad10)*%
X86595000Y-86600000D03*
%TO.P,U6,11,O4*%
%TO.N,~{S5}*%
X85325000Y-86600000D03*
%TO.P,U6,12,O3*%
%TO.N,~{S4}*%
X84055000Y-86600000D03*
%TO.P,U6,13,O2*%
%TO.N,~{S3}*%
X82785000Y-86600000D03*
%TO.P,U6,14,O1*%
%TO.N,~{S2}*%
X81515000Y-86600000D03*
%TO.P,U6,15,O0*%
%TO.N,~{S1}*%
X80245000Y-86600000D03*
%TO.P,U6,16,VCC*%
%TO.N,VCC*%
X78975000Y-86600000D03*
%TD*%
D12*
%TO.P,C9,1*%
%TO.N,VCC*%
X51035000Y-40647500D03*
%TO.P,C9,2*%
%TO.N,GND*%
X51035000Y-38572500D03*
%TD*%
D20*
%TO.P,R4,1*%
%TO.N,Net-(R4-Pad1)*%
X65259000Y-52564000D03*
%TO.P,R4,2*%
%TO.N,MISO*%
X67259000Y-52564000D03*
%TD*%
D12*
%TO.P,C6,1*%
%TO.N,VCC*%
X76435000Y-84865000D03*
%TO.P,C6,2*%
%TO.N,GND*%
X76435000Y-82790000D03*
%TD*%
D18*
%TO.P,R8,1*%
%TO.N,D0_LLS*%
X87155000Y-22730000D03*
%TO.P,R8,2*%
%TO.N,Net-(R8-Pad2)*%
X87155000Y-20730000D03*
%TD*%
D13*
%TO.P,U11,1,~{Mr}*%
%TO.N,~{RES}*%
X37065000Y-87030000D03*
%TO.P,U11,2,Q0*%
%TO.N,CA8*%
X38335000Y-87030000D03*
%TO.P,U11,3,D0*%
%TO.N,D0*%
X39605000Y-87030000D03*
%TO.P,U11,4,D1*%
%TO.N,D1*%
X40875000Y-87030000D03*
%TO.P,U11,5,Q1*%
%TO.N,CA9*%
X42145000Y-87030000D03*
%TO.P,U11,6,Q2*%
%TO.N,CA10*%
X43415000Y-87030000D03*
%TO.P,U11,7,D2*%
%TO.N,D2*%
X44685000Y-87030000D03*
%TO.P,U11,8,D3*%
%TO.N,D3*%
X45955000Y-87030000D03*
%TO.P,U11,9,Q3*%
%TO.N,CA11*%
X47225000Y-87030000D03*
%TO.P,U11,10,GND*%
%TO.N,GND*%
X48495000Y-87030000D03*
%TO.P,U11,11,Cp*%
%TO.N,Net-(U11-Cp)*%
X48495000Y-96330000D03*
%TO.P,U11,12,Q4*%
%TO.N,CA12*%
X47225000Y-96330000D03*
%TO.P,U11,13,D4*%
%TO.N,D4*%
X45955000Y-96330000D03*
%TO.P,U11,14,D5*%
%TO.N,D5*%
X44685000Y-96330000D03*
%TO.P,U11,15,Q5*%
%TO.N,CA13*%
X43415000Y-96330000D03*
%TO.P,U11,16,Q6*%
%TO.N,CA14*%
X42145000Y-96330000D03*
%TO.P,U11,17,D6*%
%TO.N,D6*%
X40875000Y-96330000D03*
%TO.P,U11,18,D7*%
%TO.N,D7*%
X39605000Y-96330000D03*
%TO.P,U11,19,Q7*%
%TO.N,CA15*%
X38335000Y-96330000D03*
%TO.P,U11,20,VCC*%
%TO.N,VCC*%
X37065000Y-96330000D03*
%TD*%
D21*
%TO.P,C23,1*%
%TO.N,+3V3*%
X70467500Y-30730000D03*
%TO.P,C23,2*%
%TO.N,GND*%
X67342500Y-30730000D03*
%TD*%
D18*
%TO.P,R7,1*%
%TO.N,Net-(U3B-Q)*%
X25254000Y-36562000D03*
%TO.P,R7,2*%
%TO.N,Net-(D4-A)*%
X25254000Y-34562000D03*
%TD*%
%TO.P,R9,1*%
%TO.N,MOSI*%
X87405000Y-31730000D03*
%TO.P,R9,2*%
%TO.N,Net-(R9-Pad2)*%
X87405000Y-29730000D03*
%TD*%
D22*
%TO.P,U16,1,GND*%
%TO.N,GND*%
X71805000Y-21930000D03*
%TO.P,U16,2,VO*%
%TO.N,+3V3*%
X71805000Y-24230000D03*
D23*
X65505000Y-24230000D03*
D22*
%TO.P,U16,3,VI*%
%TO.N,VCC*%
X71805000Y-26530000D03*
%TD*%
D15*
%TO.P,U12,1,~{PL}*%
%TO.N,~{SER_WR}*%
X78975000Y-51170000D03*
%TO.P,U12,2,CP*%
%TO.N,~{CLK}*%
X80245000Y-51170000D03*
%TO.P,U12,3,D4*%
%TO.N,D4*%
X81515000Y-51170000D03*
%TO.P,U12,4,D5*%
%TO.N,D5*%
X82785000Y-51170000D03*
%TO.P,U12,5,D6*%
%TO.N,D6*%
X84055000Y-51170000D03*
%TO.P,U12,6,D7*%
%TO.N,D7*%
X85325000Y-51170000D03*
%TO.P,U12,7,~{Q7}*%
%TO.N,unconnected-(U12-~{Q7}-Pad7)*%
X86595000Y-51170000D03*
%TO.P,U12,8,GND*%
%TO.N,GND*%
X87865000Y-51170000D03*
%TO.P,U12,9,Q7*%
%TO.N,MOSI*%
X87865000Y-56120000D03*
%TO.P,U12,10,DS*%
%TO.N,VCC*%
X86595000Y-56120000D03*
%TO.P,U12,11,D0*%
%TO.N,D0*%
X85325000Y-56120000D03*
%TO.P,U12,12,D1*%
%TO.N,D1*%
X84055000Y-56120000D03*
%TO.P,U12,13,D2*%
%TO.N,D2*%
X82785000Y-56120000D03*
%TO.P,U12,14,D3*%
%TO.N,D3*%
X81515000Y-56120000D03*
%TO.P,U12,15,~{CE}*%
%TO.N,GND*%
X80245000Y-56120000D03*
%TO.P,U12,16,VCC*%
%TO.N,VCC*%
X78975000Y-56120000D03*
%TD*%
D13*
%TO.P,U8,1,~{Mr}*%
%TO.N,~{RES}*%
X37065000Y-70950000D03*
%TO.P,U8,2,Q0*%
%TO.N,CA0*%
X38335000Y-70950000D03*
%TO.P,U8,3,D0*%
%TO.N,D0*%
X39605000Y-70950000D03*
%TO.P,U8,4,D1*%
%TO.N,D1*%
X40875000Y-70950000D03*
%TO.P,U8,5,Q1*%
%TO.N,CA1*%
X42145000Y-70950000D03*
%TO.P,U8,6,Q2*%
%TO.N,CA2*%
X43415000Y-70950000D03*
%TO.P,U8,7,D2*%
%TO.N,D2*%
X44685000Y-70950000D03*
%TO.P,U8,8,D3*%
%TO.N,D3*%
X45955000Y-70950000D03*
%TO.P,U8,9,Q3*%
%TO.N,CA3*%
X47225000Y-70950000D03*
%TO.P,U8,10,GND*%
%TO.N,GND*%
X48495000Y-70950000D03*
%TO.P,U8,11,Cp*%
%TO.N,Net-(U8-Cp)*%
X48495000Y-80250000D03*
%TO.P,U8,12,Q4*%
%TO.N,CA4*%
X47225000Y-80250000D03*
%TO.P,U8,13,D4*%
%TO.N,D4*%
X45955000Y-80250000D03*
%TO.P,U8,14,D5*%
%TO.N,D5*%
X44685000Y-80250000D03*
%TO.P,U8,15,Q5*%
%TO.N,CA5*%
X43415000Y-80250000D03*
%TO.P,U8,16,Q6*%
%TO.N,CA6*%
X42145000Y-80250000D03*
%TO.P,U8,17,D6*%
%TO.N,D6*%
X40875000Y-80250000D03*
%TO.P,U8,18,D7*%
%TO.N,D7*%
X39605000Y-80250000D03*
%TO.P,U8,19,Q7*%
%TO.N,CA7*%
X38335000Y-80250000D03*
%TO.P,U8,20,VCC*%
%TO.N,VCC*%
X37065000Y-80250000D03*
%TD*%
D20*
%TO.P,R5,1*%
%TO.N,Net-(U7B-RCext)*%
X47225000Y-46595000D03*
%TO.P,R5,2*%
%TO.N,VCC*%
X49225000Y-46595000D03*
%TD*%
D15*
%TO.P,U5,1,~{MR}*%
%TO.N,SD_SPI*%
X38335000Y-37135000D03*
%TO.P,U5,2,CP*%
%TO.N,16MHz*%
X39605000Y-37135000D03*
%TO.P,U5,3,D0*%
%TO.N,GND*%
X40875000Y-37135000D03*
%TO.P,U5,4,D1*%
X42145000Y-37135000D03*
%TO.P,U5,5,D2*%
X43415000Y-37135000D03*
%TO.P,U5,6,D3*%
X44685000Y-37135000D03*
%TO.P,U5,7,CEP*%
%TO.N,VCC*%
X45955000Y-37135000D03*
%TO.P,U5,8,GND*%
%TO.N,GND*%
X47225000Y-37135000D03*
%TO.P,U5,9,~{PE}*%
%TO.N,VCC*%
X47225000Y-42085000D03*
%TO.P,U5,10,CET*%
X45955000Y-42085000D03*
%TO.P,U5,11,Q3*%
%TO.N,unconnected-(U5-Q3-Pad11)*%
X44685000Y-42085000D03*
%TO.P,U5,12,Q2*%
%TO.N,unconnected-(U5-Q2-Pad12)*%
X43415000Y-42085000D03*
%TO.P,U5,13,Q1*%
%TO.N,unconnected-(U5-Q1-Pad13)*%
X42145000Y-42085000D03*
%TO.P,U5,14,Q0*%
%TO.N,CLK*%
X40875000Y-42085000D03*
%TO.P,U5,15,TC*%
%TO.N,CLKSTOP*%
X39605000Y-42085000D03*
%TO.P,U5,16,VCC*%
%TO.N,VCC*%
X38335000Y-42085000D03*
%TD*%
D12*
%TO.P,C13,1*%
%TO.N,VCC*%
X76435000Y-64545000D03*
%TO.P,C13,2*%
%TO.N,GND*%
X76435000Y-62470000D03*
%TD*%
D24*
%TO.P,R1,1*%
%TO.N,Net-(D1-A)*%
X31731000Y-34562000D03*
%TO.P,R1,2*%
%TO.N,VCC*%
X31731000Y-36562000D03*
%TD*%
D15*
%TO.P,U4,1*%
%TO.N,A3*%
X38335000Y-61200000D03*
%TO.P,U4,2*%
X39605000Y-61200000D03*
%TO.P,U4,3*%
%TO.N,Net-(U17-E1)*%
X40875000Y-61200000D03*
%TO.P,U4,4*%
%TO.N,CS*%
X42145000Y-61200000D03*
%TO.P,U4,5*%
%TO.N,SD_SPI*%
X43415000Y-61200000D03*
%TO.P,U4,6*%
%TO.N,Net-(D2-K)*%
X44685000Y-61200000D03*
%TO.P,U4,7,GND*%
%TO.N,GND*%
X45955000Y-61200000D03*
%TO.P,U4,8*%
%TO.N,Net-(D1-K)*%
X45955000Y-66150000D03*
%TO.P,U4,9*%
%TO.N,CS*%
X44685000Y-66150000D03*
%TO.P,U4,10*%
X43415000Y-66150000D03*
%TO.P,U4,11*%
%TO.N,LED_SEL*%
X42145000Y-66150000D03*
%TO.P,U4,12*%
%TO.N,Net-(U4-Pad12)*%
X40875000Y-66150000D03*
%TO.P,U4,13*%
X39605000Y-66150000D03*
%TO.P,U4,14,VCC*%
%TO.N,VCC*%
X38335000Y-66150000D03*
%TD*%
D19*
%TO.P,U19,1*%
%TO.N,Net-(U8-Cp)*%
X97960000Y-76440000D03*
%TO.P,U19,2*%
%TO.N,~{S9}*%
X97960000Y-77710000D03*
%TO.P,U19,3*%
%TO.N,~{WR}*%
X97960000Y-78980000D03*
%TO.P,U19,4*%
%TO.N,Net-(U18A-C)*%
X97960000Y-80250000D03*
%TO.P,U19,5*%
%TO.N,~{S11}*%
X97960000Y-81520000D03*
%TO.P,U19,6*%
%TO.N,~{WR}*%
X97960000Y-82790000D03*
%TO.P,U19,7,GND*%
%TO.N,GND*%
X97960000Y-84060000D03*
%TO.P,U19,8*%
%TO.N,~{S10}*%
X93010000Y-84060000D03*
%TO.P,U19,9*%
%TO.N,~{WR}*%
X93010000Y-82790000D03*
%TO.P,U19,10*%
%TO.N,Net-(U11-Cp)*%
X93010000Y-81520000D03*
%TO.P,U19,11*%
%TO.N,~{S12}*%
X93010000Y-80250000D03*
%TO.P,U19,12*%
%TO.N,~{WR}*%
X93010000Y-78980000D03*
%TO.P,U19,13*%
%TO.N,Net-(U18B-C)*%
X93010000Y-77710000D03*
%TO.P,U19,14,VCC*%
%TO.N,VCC*%
X93010000Y-76440000D03*
%TD*%
D24*
%TO.P,R2,1*%
%TO.N,Net-(D2-A)*%
X29572000Y-34562000D03*
%TO.P,R2,2*%
%TO.N,VCC*%
X29572000Y-36562000D03*
%TD*%
D12*
%TO.P,C17,1*%
%TO.N,VCC*%
X76435000Y-74570000D03*
%TO.P,C17,2*%
%TO.N,GND*%
X76435000Y-72495000D03*
%TD*%
D15*
%TO.P,U10,1*%
%TO.N,~{S1}*%
X53575000Y-47230000D03*
%TO.P,U10,2*%
%TO.N,~{WR}*%
X54845000Y-47230000D03*
%TO.P,U10,3*%
%TO.N,~{SER_WR}*%
X56115000Y-47230000D03*
%TO.P,U10,4*%
%TO.N,~{S2}*%
X57385000Y-47230000D03*
%TO.P,U10,5*%
%TO.N,~{WR}*%
X58655000Y-47230000D03*
%TO.P,U10,6*%
%TO.N,~{CLKSTART}*%
X59925000Y-47230000D03*
%TO.P,U10,7,GND*%
%TO.N,GND*%
X61195000Y-47230000D03*
%TO.P,U10,8*%
%TO.N,~{SDCS_SET}*%
X61195000Y-52180000D03*
%TO.P,U10,9*%
%TO.N,~{S3}*%
X59925000Y-52180000D03*
%TO.P,U10,10*%
%TO.N,~{WR}*%
X58655000Y-52180000D03*
%TO.P,U10,11*%
%TO.N,~{SDCS_RESET}*%
X57385000Y-52180000D03*
%TO.P,U10,12*%
%TO.N,~{S4}*%
X56115000Y-52180000D03*
%TO.P,U10,13*%
%TO.N,~{WR}*%
X54845000Y-52180000D03*
%TO.P,U10,14,VCC*%
%TO.N,VCC*%
X53575000Y-52180000D03*
%TD*%
D12*
%TO.P,C10,1*%
%TO.N,VCC*%
X51035000Y-50575000D03*
%TO.P,C10,2*%
%TO.N,GND*%
X51035000Y-48500000D03*
%TD*%
%TO.P,C1,1*%
%TO.N,VCC*%
X76435000Y-95025000D03*
%TO.P,C1,2*%
%TO.N,GND*%
X76435000Y-92950000D03*
%TD*%
D25*
%TO.P,J2,1a,Pin_1a*%
%TO.N,unconnected-(J2-Pin_1a-Pad1a)*%
X33875000Y-112776000D03*
%TO.P,J2,2a,Pin_2a*%
%TO.N,D0*%
X37835000Y-112776000D03*
%TO.P,J2,3a,Pin_3a*%
%TO.N,D2*%
X41795000Y-112776000D03*
%TO.P,J2,4a,Pin_4a*%
%TO.N,D4*%
X45755000Y-112776000D03*
%TO.P,J2,5a,Pin_5a*%
%TO.N,D6*%
X49715000Y-112776000D03*
%TO.P,J2,6a,Pin_6a*%
%TO.N,A0*%
X53675000Y-112776000D03*
%TO.P,J2,7a,Pin_7a*%
%TO.N,A2*%
X57635000Y-112776000D03*
%TO.P,J2,8a,Pin_8a*%
%TO.N,A4*%
X61595000Y-112776000D03*
%TO.P,J2,9a,Pin_9a*%
%TO.N,A6*%
X65555000Y-112776000D03*
%TO.P,J2,10a,Pin_10a*%
%TO.N,~{RD}*%
X69515000Y-112776000D03*
%TO.P,J2,11a,Pin_11a*%
%TO.N,~{IORQ}*%
X73475000Y-112776000D03*
%TO.P,J2,12a,Pin_12a*%
%TO.N,unconnected-(J2-Pin_12a-Pad12a)*%
X77435000Y-112776000D03*
%TO.P,J2,15a,Pin_15a*%
%TO.N,GND*%
X89315000Y-112776000D03*
%TD*%
D12*
%TO.P,C8,1*%
%TO.N,VCC*%
X34525000Y-75975000D03*
%TO.P,C8,2*%
%TO.N,GND*%
X34525000Y-73900000D03*
%TD*%
D14*
%TO.P,C19,1*%
%TO.N,VCC*%
X94680000Y-73900000D03*
%TO.P,C19,2*%
%TO.N,GND*%
X96755000Y-73900000D03*
%TD*%
D15*
%TO.P,U17,1,A0*%
%TO.N,A0*%
X78975000Y-71390000D03*
%TO.P,U17,2,A1*%
%TO.N,A1*%
X80245000Y-71390000D03*
%TO.P,U17,3,A2*%
%TO.N,A2*%
X81515000Y-71390000D03*
%TO.P,U17,4,E1*%
%TO.N,Net-(U17-E1)*%
X82785000Y-71390000D03*
%TO.P,U17,5,E2*%
%TO.N,~{IORQ}*%
X84055000Y-71390000D03*
%TO.P,U17,6,E3*%
%TO.N,Net-(U17-E3)*%
X85325000Y-71390000D03*
%TO.P,U17,7,O7*%
%TO.N,unconnected-(U17-O7-Pad7)*%
X86595000Y-71390000D03*
%TO.P,U17,8,GND*%
%TO.N,GND*%
X87865000Y-71390000D03*
%TO.P,U17,9,O6*%
%TO.N,unconnected-(U17-O6-Pad9)*%
X87865000Y-76340000D03*
%TO.P,U17,10,O5*%
%TO.N,~{S14}*%
X86595000Y-76340000D03*
%TO.P,U17,11,O4*%
%TO.N,~{S13}*%
X85325000Y-76340000D03*
%TO.P,U17,12,O3*%
%TO.N,~{S12}*%
X84055000Y-76340000D03*
%TO.P,U17,13,O2*%
%TO.N,~{S11}*%
X82785000Y-76340000D03*
%TO.P,U17,14,O1*%
%TO.N,~{S10}*%
X81515000Y-76340000D03*
%TO.P,U17,15,O0*%
%TO.N,~{S9}*%
X80245000Y-76340000D03*
%TO.P,U17,16,VCC*%
%TO.N,VCC*%
X78975000Y-76340000D03*
%TD*%
D19*
%TO.P,U14,1*%
%TO.N,~{SDOUT_SET}*%
X29315000Y-55485000D03*
%TO.P,U14,2*%
%TO.N,Net-(R4-Pad1)*%
X29315000Y-56755000D03*
%TO.P,U14,3*%
%TO.N,Net-(U14-Pad3)*%
X29315000Y-58025000D03*
%TO.P,U14,4*%
X29315000Y-59295000D03*
%TO.P,U14,5*%
%TO.N,~{SDOUT_RESET}*%
X29315000Y-60565000D03*
%TO.P,U14,6*%
%TO.N,Net-(R4-Pad1)*%
X29315000Y-61835000D03*
%TO.P,U14,7,GND*%
%TO.N,GND*%
X29315000Y-63105000D03*
%TO.P,U14,8*%
%TO.N,~{CS}*%
X24365000Y-63105000D03*
%TO.P,U14,9*%
%TO.N,~{SDCS_SET}*%
X24365000Y-61835000D03*
%TO.P,U14,10*%
%TO.N,CS*%
X24365000Y-60565000D03*
%TO.P,U14,11*%
X24365000Y-59295000D03*
%TO.P,U14,12*%
%TO.N,~{CS}*%
X24365000Y-58025000D03*
%TO.P,U14,13*%
%TO.N,~{SDCS_RESET}*%
X24365000Y-56755000D03*
%TO.P,U14,14,VCC*%
%TO.N,VCC*%
X24365000Y-55485000D03*
%TD*%
D12*
%TO.P,C5,1*%
%TO.N,VCC*%
X35795000Y-40415000D03*
%TO.P,C5,2*%
%TO.N,GND*%
X35795000Y-38340000D03*
%TD*%
D26*
%TO.P,U21,1*%
%TO.N,GND*%
X83905000Y-22480000D03*
%TO.P,U21,2*%
%TO.N,Net-(R9-Pad2)*%
X83905000Y-23130000D03*
%TO.P,U21,3*%
%TO.N,DI_LLS*%
X83905000Y-23780000D03*
%TO.P,U21,4*%
%TO.N,GND*%
X83905000Y-24430000D03*
%TO.P,U21,5*%
%TO.N,Net-(R10-Pad2)*%
X83905000Y-25080000D03*
%TO.P,U21,6*%
%TO.N,SCK_LLS*%
X83905000Y-25730000D03*
%TO.P,U21,7,GND*%
%TO.N,GND*%
X83905000Y-26380000D03*
%TO.P,U21,8*%
%TO.N,CS_LLS*%
X78180000Y-26380000D03*
%TO.P,U21,9*%
%TO.N,Net-(R11-Pad2)*%
X78180000Y-25730000D03*
%TO.P,U21,10*%
%TO.N,GND*%
X78180000Y-25080000D03*
%TO.P,U21,11*%
%TO.N,MISO*%
X78180000Y-24430000D03*
%TO.P,U21,12*%
%TO.N,Net-(R8-Pad2)*%
X78180000Y-23780000D03*
%TO.P,U21,13*%
%TO.N,GND*%
X78180000Y-23130000D03*
%TO.P,U21,14,VCC*%
%TO.N,+3V3*%
X78180000Y-22480000D03*
%TD*%
D14*
%TO.P,C21,1*%
%TO.N,Net-(U7B-Cext)*%
X42610000Y-46595000D03*
%TO.P,C21,2*%
%TO.N,Net-(U7B-RCext)*%
X44685000Y-46595000D03*
%TD*%
D24*
%TO.P,R10,1*%
%TO.N,CLK*%
X85155000Y-29730000D03*
%TO.P,R10,2*%
%TO.N,Net-(R10-Pad2)*%
X85155000Y-31730000D03*
%TD*%
D14*
%TO.P,C18,1*%
%TO.N,VCC*%
X94680000Y-58660000D03*
%TO.P,C18,2*%
%TO.N,GND*%
X96755000Y-58660000D03*
%TD*%
D20*
%TO.P,R3,1*%
%TO.N,VCC*%
X33160000Y-56755000D03*
%TO.P,R3,2*%
%TO.N,Net-(U7A-RCext)*%
X35160000Y-56755000D03*
%TD*%
D12*
%TO.P,C7,1*%
%TO.N,VCC*%
X34525000Y-52734000D03*
%TO.P,C7,2*%
%TO.N,GND*%
X34525000Y-50659000D03*
%TD*%
D27*
%TO.P,J1,1,DAT2*%
%TO.N,unconnected-(J1-DAT2-Pad1)*%
X90903301Y-29430001D03*
%TO.P,J1,2,DAT3/CD*%
%TO.N,CS_LLS*%
X90903301Y-28330000D03*
%TO.P,J1,3,CMD*%
%TO.N,DI_LLS*%
X90903301Y-27230000D03*
%TO.P,J1,4,VDD*%
%TO.N,+3V3*%
X90903301Y-26129999D03*
%TO.P,J1,5,CLK*%
%TO.N,SCK_LLS*%
X90903301Y-25029999D03*
%TO.P,J1,6,VSS*%
%TO.N,GND*%
X90903301Y-23929999D03*
%TO.P,J1,7,DAT0*%
%TO.N,D0_LLS*%
X90903301Y-22829998D03*
%TO.P,J1,8,DAT1*%
%TO.N,unconnected-(J1-DAT1-Pad8)*%
X90903301Y-21729998D03*
D28*
%TO.P,J1,10,SHIELD*%
%TO.N,unconnected-(J1-SHIELD-Pad10)*%
X101731854Y-19430008D03*
%TO.P,J1,11*%
%TO.N,N/C*%
X101731854Y-34930008D03*
D29*
%TO.P,J1,12*%
X92104696Y-19433106D03*
D30*
%TO.P,J1,13*%
X91954004Y-34030092D03*
D27*
%TO.P,J1,CD*%
X90903301Y-20629998D03*
%TD*%
D31*
%TO.P,C20,1*%
%TO.N,Net-(U7A-Cext)*%
X39605000Y-56755000D03*
%TO.P,C20,2*%
%TO.N,Net-(U7A-RCext)*%
X37530000Y-56755000D03*
%TD*%
%TO.P,C3,1*%
%TO.N,VCC*%
X50400000Y-19925000D03*
%TO.P,C3,2*%
%TO.N,GND*%
X48325000Y-19925000D03*
%TD*%
D15*
%TO.P,U9,1*%
%TO.N,~{S1}*%
X53575000Y-37200000D03*
%TO.P,U9,2*%
%TO.N,~{RD}*%
X54845000Y-37200000D03*
%TO.P,U9,3*%
%TO.N,~{SER_RD}*%
X56115000Y-37200000D03*
%TO.P,U9,4*%
%TO.N,~{S5}*%
X57385000Y-37200000D03*
%TO.P,U9,5*%
%TO.N,~{WR}*%
X58655000Y-37200000D03*
%TO.P,U9,6*%
%TO.N,Net-(U4-Pad12)*%
X59925000Y-37200000D03*
%TO.P,U9,7,GND*%
%TO.N,GND*%
X61195000Y-37200000D03*
%TO.P,U9,8*%
%TO.N,~{SDOUT_SET}*%
X61195000Y-42150000D03*
%TO.P,U9,9*%
%TO.N,~{S3}*%
X59925000Y-42150000D03*
%TO.P,U9,10*%
%TO.N,~{RD}*%
X58655000Y-42150000D03*
%TO.P,U9,11*%
%TO.N,~{SDOUT_RESET}*%
X57385000Y-42150000D03*
%TO.P,U9,12*%
%TO.N,~{S4}*%
X56115000Y-42150000D03*
%TO.P,U9,13*%
%TO.N,~{RD}*%
X54845000Y-42150000D03*
%TO.P,U9,14,VCC*%
%TO.N,VCC*%
X53575000Y-42150000D03*
%TD*%
%TO.P,U7,1,A*%
%TO.N,~{CLKSTART}*%
X37065000Y-49265000D03*
%TO.P,U7,2,B*%
%TO.N,VCC*%
X38335000Y-49265000D03*
%TO.P,U7,3,Clr*%
X39605000Y-49265000D03*
%TO.P,U7,4,~{Q}*%
%TO.N,unconnected-(U7A-~{Q}-Pad4)*%
X40875000Y-49265000D03*
%TO.P,U7,5,Q*%
%TO.N,unconnected-(U7B-Q-Pad5)*%
X42145000Y-49265000D03*
%TO.P,U7,6,Cext*%
%TO.N,Net-(U7B-Cext)*%
X43415000Y-49265000D03*
%TO.P,U7,7,RCext*%
%TO.N,Net-(U7B-RCext)*%
X44685000Y-49265000D03*
%TO.P,U7,8,GND*%
%TO.N,GND*%
X45955000Y-49265000D03*
%TO.P,U7,9,A*%
X45955000Y-54215000D03*
%TO.P,U7,10,B*%
%TO.N,Net-(U7A-Q)*%
X44685000Y-54215000D03*
%TO.P,U7,11,Clr*%
%TO.N,VCC*%
X43415000Y-54215000D03*
%TO.P,U7,12,~{Q}*%
%TO.N,~{CLKSTART_DB}*%
X42145000Y-54215000D03*
%TO.P,U7,13,Q*%
%TO.N,Net-(U7A-Q)*%
X40875000Y-54215000D03*
%TO.P,U7,14,Cext*%
%TO.N,Net-(U7A-Cext)*%
X39605000Y-54215000D03*
%TO.P,U7,15,RCext*%
%TO.N,Net-(U7A-RCext)*%
X38335000Y-54215000D03*
%TO.P,U7,16,VCC*%
%TO.N,VCC*%
X37065000Y-54215000D03*
%TD*%
D32*
%TO.P,X1,1,NC*%
%TO.N,unconnected-(X1-NC-Pad1)*%
X57385000Y-31990000D03*
D33*
%TO.P,X1,7,GND*%
%TO.N,GND*%
X42145000Y-31990000D03*
%TO.P,X1,8,OUT*%
%TO.N,16MHz*%
X42145000Y-24370000D03*
%TO.P,X1,14,Vcc*%
%TO.N,VCC*%
X57385000Y-24370000D03*
%TD*%
D18*
%TO.P,R11,1*%
%TO.N,~{CS}*%
X82905000Y-31730000D03*
%TO.P,R11,2*%
%TO.N,Net-(R11-Pad2)*%
X82905000Y-29730000D03*
%TD*%
D19*
%TO.P,U2,1*%
%TO.N,~{CLKSTOP}*%
X29380000Y-71360000D03*
%TO.P,U2,2*%
%TO.N,SD_SPI*%
X29380000Y-72630000D03*
%TO.P,U2,3*%
%TO.N,Net-(U2-Pad3)*%
X29380000Y-73900000D03*
%TO.P,U2,4*%
X29380000Y-75170000D03*
%TO.P,U2,5*%
%TO.N,~{CLKSTART_DB}*%
X29380000Y-76440000D03*
%TO.P,U2,6*%
%TO.N,SD_SPI*%
X29380000Y-77710000D03*
%TO.P,U2,7,GND*%
%TO.N,GND*%
X29380000Y-78980000D03*
%TO.P,U2,8*%
%TO.N,~{CLKSTOP}*%
X24430000Y-78980000D03*
%TO.P,U2,9*%
%TO.N,CLKSTOP*%
X24430000Y-77710000D03*
%TO.P,U2,10*%
X24430000Y-76440000D03*
%TO.P,U2,11*%
%TO.N,~{CLK}*%
X24430000Y-75170000D03*
%TO.P,U2,12*%
%TO.N,CLK*%
X24430000Y-73900000D03*
%TO.P,U2,13*%
X24430000Y-72630000D03*
%TO.P,U2,14,VCC*%
%TO.N,VCC*%
X24430000Y-71360000D03*
%TD*%
D14*
%TO.P,C2,1*%
%TO.N,VCC*%
X25973000Y-68820000D03*
%TO.P,C2,2*%
%TO.N,GND*%
X28048000Y-68820000D03*
%TD*%
D12*
%TO.P,C12,1*%
%TO.N,VCC*%
X76435000Y-54385000D03*
%TO.P,C12,2*%
%TO.N,GND*%
X76435000Y-52310000D03*
%TD*%
%TO.P,C22,1*%
%TO.N,VCC*%
X77959000Y-44563000D03*
%TO.P,C22,2*%
%TO.N,GND*%
X77959000Y-42488000D03*
%TD*%
D34*
%TO.N,VCC*%
X91492600Y-66283600D03*
X34525000Y-93966000D03*
X93199000Y-58660000D03*
X33763000Y-101078000D03*
X99855000Y-66030000D03*
X84055000Y-39560100D03*
X74657000Y-97522000D03*
X35795000Y-41896000D03*
X92945000Y-73900000D03*
X24365000Y-52818000D03*
X49765000Y-66534000D03*
X35795000Y-66280000D03*
X34525000Y-54342000D03*
X81515000Y-90103900D03*
X86595000Y-64703300D03*
X86595000Y-54542200D03*
X45955000Y-35555700D03*
X76435000Y-86600000D03*
X77959000Y-45960000D03*
X73387000Y-94220000D03*
X76435000Y-76186000D03*
X34525000Y-77456000D03*
X24365000Y-68820000D03*
X51035000Y-42150000D03*
X48128600Y-41989600D03*
X76435000Y-66026000D03*
X85325000Y-44510700D03*
X76435000Y-96506000D03*
X50781000Y-46468000D03*
X60179000Y-74408000D03*
X39605000Y-47681800D03*
X76435000Y-55866000D03*
X31731000Y-56628000D03*
X70847000Y-98030000D03*
X43415000Y-55790900D03*
X51035000Y-52056000D03*
%TO.N,~{RES}*%
X36146100Y-86744900D03*
X72214900Y-101483300D03*
X81520500Y-43634400D03*
X91470800Y-62386900D03*
%TO.N,CA0*%
X39983500Y-68851800D03*
X65093000Y-59654900D03*
%TO.N,D0*%
X68055300Y-58687900D03*
X80511500Y-39555700D03*
X78161400Y-67883900D03*
X40137200Y-88748000D03*
%TO.N,D1*%
X68916400Y-60216800D03*
X41964400Y-88851000D03*
X73912100Y-60164400D03*
X41850000Y-72875300D03*
%TO.N,CA1*%
X64666700Y-62087200D03*
X43251100Y-68997700D03*
%TO.N,CA2*%
X58114600Y-62226800D03*
%TO.N,D2*%
X45800500Y-69322300D03*
X45727600Y-84867300D03*
X70022200Y-59003000D03*
X78470800Y-59406600D03*
%TO.N,D3*%
X80893100Y-59713100D03*
X43980400Y-88917200D03*
X71411800Y-68359200D03*
X45664500Y-72875300D03*
%TO.N,CA3*%
X47330200Y-68512500D03*
%TO.N,GND*%
X46856700Y-54178400D03*
X51035000Y-37070000D03*
X98025000Y-58660000D03*
X47488503Y-60592503D03*
X84155000Y-19730000D03*
X76435000Y-70852000D03*
X34525000Y-88886000D03*
X35795000Y-36816000D03*
X77959000Y-40880000D03*
X34525000Y-49008000D03*
X93707000Y-99300000D03*
X35795000Y-60946000D03*
X81769000Y-94220000D03*
X98025000Y-73900000D03*
X51797000Y-46976000D03*
X34525000Y-72376000D03*
X29445000Y-52818000D03*
X76435000Y-50786000D03*
X76435000Y-81266000D03*
X76181000Y-78980000D03*
X89155000Y-23980000D03*
X49765000Y-61708000D03*
X58155000Y-66230000D03*
X29699000Y-68820000D03*
X81241200Y-101817000D03*
X76435000Y-60946000D03*
X54405000Y-65980000D03*
X65259000Y-74662000D03*
X76435000Y-91426000D03*
%TO.N,CA4*%
X54160600Y-81387500D03*
X61202300Y-58658000D03*
%TO.N,D4*%
X82042400Y-59466600D03*
X70624500Y-67566800D03*
X81515000Y-49593200D03*
%TO.N,D5*%
X45327900Y-94862600D03*
X84196000Y-59742300D03*
X68658900Y-71745000D03*
X83475700Y-49659000D03*
%TO.N,CA5*%
X60186700Y-59028700D03*
%TO.N,CA6*%
X58334400Y-58772600D03*
%TO.N,D6*%
X47499300Y-82134100D03*
X69260300Y-72691000D03*
X84755800Y-49657600D03*
X85570300Y-59509900D03*
%TO.N,D7*%
X85794200Y-49583200D03*
X86414000Y-58898300D03*
X46783400Y-76776100D03*
%TO.N,CA7*%
X57051800Y-80031300D03*
X57241700Y-58972000D03*
%TO.N,CA8*%
X55018700Y-76754500D03*
%TO.N,CA9*%
X59600600Y-72261900D03*
X43251800Y-85301100D03*
%TO.N,CA10*%
X46025200Y-89338100D03*
X64344800Y-72275200D03*
%TO.N,CA11*%
X60953300Y-71923200D03*
%TO.N,CA12*%
X49864700Y-94908400D03*
X55783800Y-58970600D03*
%TO.N,CA13*%
X57600300Y-73627000D03*
%TO.N,CA14*%
X54369700Y-58997900D03*
%TO.N,CA15*%
X53906500Y-68455100D03*
X39296100Y-92783000D03*
%TO.N,~{RD}*%
X62265600Y-71818100D03*
X69281800Y-95847900D03*
X61726100Y-44218400D03*
%TO.N,~{WR}*%
X56381000Y-50355400D03*
X56511300Y-71855400D03*
X99438900Y-79584600D03*
X99565500Y-83626100D03*
%TO.N,Net-(D1-K)*%
X45049100Y-64410800D03*
%TO.N,Net-(D2-K)*%
X45481900Y-59586900D03*
%TO.N,~{CS}*%
X81405000Y-31730000D03*
X26589800Y-58535200D03*
%TO.N,CLK*%
X69655000Y-34480000D03*
X85155000Y-28230000D03*
X85187500Y-64511000D03*
%TO.N,A1*%
X79753100Y-69817500D03*
X79839400Y-80073100D03*
%TO.N,A5*%
X69850000Y-99195700D03*
%TO.N,A7*%
X77435400Y-91815700D03*
%TO.N,~{IORQ}*%
X83426700Y-80121400D03*
X71957500Y-99947900D03*
X83426700Y-69954600D03*
%TO.N,A4*%
X63869400Y-101638700D03*
X88774200Y-97220600D03*
%TO.N,A2*%
X80894400Y-80216000D03*
X80894400Y-69962800D03*
X66289000Y-98332800D03*
%TO.N,SD_SPI*%
X37400400Y-37629000D03*
X31408000Y-73164800D03*
X42982300Y-59301200D03*
%TO.N,~{CLKSTART_DB}*%
X30976100Y-74259100D03*
X41312900Y-55894000D03*
%TO.N,~{CLK}*%
X76329600Y-49215100D03*
X83723500Y-64293500D03*
X26664300Y-74164700D03*
%TO.N,Net-(U8-Cp)*%
X97816300Y-75507000D03*
X54364800Y-79581200D03*
%TO.N,Net-(U11-Cp)*%
X91371900Y-82324700D03*
X52459300Y-96696300D03*
%TO.N,~{S4}*%
X84152000Y-83828100D03*
X62664200Y-49738500D03*
%TO.N,~{S3}*%
X79741100Y-83682900D03*
X64000000Y-51955000D03*
%TO.N,~{S2}*%
X75388400Y-83882700D03*
X57714300Y-45599600D03*
%TO.N,~{S1}*%
X53994900Y-45651100D03*
X73714500Y-85237700D03*
%TO.N,~{SER_RD}*%
X58909200Y-34917000D03*
X82137200Y-64383800D03*
%TO.N,Net-(U4-Pad12)*%
X60812800Y-35371100D03*
X46255200Y-64065900D03*
%TO.N,~{SDOUT_SET}*%
X36289000Y-55686300D03*
X62380100Y-43324000D03*
%TO.N,~{SDOUT_RESET}*%
X57951400Y-43629600D03*
X32141500Y-59273800D03*
%TO.N,~{SER_WR}*%
X56341900Y-45283600D03*
X71882700Y-49254200D03*
%TO.N,~{SDCS_SET}*%
X26502100Y-63226900D03*
X62120600Y-52007500D03*
%TO.N,A3*%
X82131000Y-80209500D03*
X37400400Y-61223200D03*
%TO.N,~{S13}*%
X85709700Y-77920500D03*
%TO.N,ROM16*%
X99043800Y-70376900D03*
%TO.N,~{S14}*%
X87226200Y-77774500D03*
X78128300Y-70155500D03*
%TO.N,Net-(U3A-Q)*%
X29445000Y-44436000D03*
X75626600Y-40826600D03*
%TO.N,Net-(U3B-Q)*%
X69215800Y-46193800D03*
X27667000Y-44436000D03*
%TO.N,LED_SEL*%
X42586600Y-64469100D03*
X76450700Y-46261600D03*
%TO.N,~{S5}*%
X58043600Y-35723000D03*
X85385200Y-84926200D03*
%TO.N,+3V3*%
X87917653Y-24217347D03*
X70655000Y-32730000D03*
%TO.N,DI_LLS*%
X85392347Y-23855000D03*
X88905000Y-27230000D03*
%TO.N,SCK_LLS*%
X89155000Y-25230000D03*
X85418023Y-25786434D03*
%TO.N,CS_LLS*%
X76405000Y-26480000D03*
X88905000Y-28230000D03*
%TO.N,Net-(R8-Pad2)*%
X85655000Y-20730000D03*
X79433846Y-23855000D03*
%TD*%
D35*
%TO.N,VCC*%
X36981000Y-52734000D02*
X37065000Y-52818000D01*
X78764000Y-54385000D02*
X78975000Y-54596000D01*
X51035000Y-50575000D02*
X51035000Y-52056000D01*
X25973000Y-68820000D02*
X24365000Y-68820000D01*
X31731000Y-36562000D02*
X29572000Y-36562000D01*
X49765000Y-65053000D02*
X51332000Y-65053000D01*
X33160000Y-56755000D02*
X31858000Y-56755000D01*
X61660000Y-76737000D02*
X61195000Y-77202000D01*
X39605000Y-49265000D02*
X39605000Y-47681800D01*
X80245000Y-44944000D02*
X80245000Y-46087000D01*
X78975000Y-74916000D02*
X78975000Y-76340000D01*
X52305000Y-70571700D02*
X53179600Y-71446300D01*
X93071400Y-66283600D02*
X93075000Y-66280000D01*
X37065000Y-93204000D02*
X37065000Y-96330000D01*
X43415000Y-54215000D02*
X43415000Y-55790900D01*
X61660000Y-74535000D02*
X60306000Y-74535000D01*
X85325000Y-44510700D02*
X85325000Y-46087000D01*
X94680000Y-60735000D02*
X94215000Y-61200000D01*
X75518900Y-98383900D02*
X74657000Y-97522000D01*
X78764000Y-95025000D02*
X78975000Y-95236000D01*
X79864000Y-44563000D02*
X80245000Y-44944000D01*
X25973000Y-71022000D02*
X25635000Y-71360000D01*
X24492000Y-52945000D02*
X24365000Y-52818000D01*
X35795000Y-64545000D02*
X38124000Y-64545000D01*
X33806000Y-40415000D02*
X35795000Y-40415000D01*
X76435000Y-84865000D02*
X78764000Y-84865000D01*
X34525000Y-52734000D02*
X36981000Y-52734000D01*
X76435000Y-64545000D02*
X78510000Y-64545000D01*
X31731000Y-38340000D02*
X33806000Y-40415000D01*
X50654000Y-46595000D02*
X50781000Y-46468000D01*
X78975000Y-65010000D02*
X78975000Y-66280000D01*
X76435000Y-64545000D02*
X76435000Y-66026000D01*
X78629000Y-74570000D02*
X78975000Y-74916000D01*
X53179600Y-71446300D02*
X53933900Y-71446300D01*
X94680000Y-76229000D02*
X94469000Y-76440000D01*
X94680000Y-58660000D02*
X93199000Y-58660000D01*
X71805000Y-26530000D02*
X59545000Y-26530000D01*
X77959000Y-44563000D02*
X79864000Y-44563000D01*
X60306000Y-74535000D02*
X60179000Y-74408000D01*
X34525000Y-52734000D02*
X34525000Y-54342000D01*
X53575000Y-50786000D02*
X53575000Y-52180000D01*
X76435000Y-54385000D02*
X76435000Y-55866000D01*
X94680000Y-73900000D02*
X94680000Y-76229000D01*
X82785000Y-97604999D02*
X82006099Y-98383900D01*
X51332000Y-65053000D02*
X52305000Y-66026000D01*
X51035000Y-50575000D02*
X53364000Y-50575000D01*
X86595000Y-56120000D02*
X86595000Y-54542200D01*
X99608100Y-65983100D02*
X99655000Y-66030000D01*
X51035000Y-40647500D02*
X51035000Y-42150000D01*
X49225000Y-46595000D02*
X50654000Y-46595000D01*
X45955000Y-37135000D02*
X45955000Y-35555700D01*
X53364000Y-50575000D02*
X53575000Y-50786000D01*
X78975000Y-54596000D02*
X78975000Y-56120000D01*
X76435000Y-74570000D02*
X76435000Y-76186000D01*
X61660000Y-74535000D02*
X61660000Y-76737000D01*
X36346000Y-92485000D02*
X37065000Y-93204000D01*
X25973000Y-68820000D02*
X25973000Y-71022000D01*
X78975000Y-85076000D02*
X78975000Y-86600000D01*
X34525000Y-92485000D02*
X34525000Y-93966000D01*
X98025000Y-65010000D02*
X98835000Y-65010000D01*
X25889000Y-52945000D02*
X25889000Y-55104000D01*
X34525000Y-75975000D02*
X34525000Y-77456000D01*
X53933900Y-71446300D02*
X54845000Y-70535200D01*
X52305000Y-70090000D02*
X52305000Y-70571700D01*
X50400000Y-23227000D02*
X51543000Y-24370000D01*
X38124000Y-64545000D02*
X38335000Y-64756000D01*
X78510000Y-64545000D02*
X78975000Y-65010000D01*
X35795000Y-64545000D02*
X35795000Y-66280000D01*
X50400000Y-19925000D02*
X50400000Y-23227000D01*
X70847000Y-98030000D02*
X74149000Y-98030000D01*
X53575000Y-40880000D02*
X53575000Y-42150000D01*
X34525000Y-92485000D02*
X36346000Y-92485000D01*
X25508000Y-55485000D02*
X24365000Y-55485000D01*
X38335000Y-40880000D02*
X38335000Y-42085000D01*
X82006099Y-98383900D02*
X75518900Y-98383900D01*
X78764000Y-84865000D02*
X78975000Y-85076000D01*
X37065000Y-76694000D02*
X37065000Y-80250000D01*
X61195000Y-77202000D02*
X61195000Y-78980000D01*
X36346000Y-75975000D02*
X37065000Y-76694000D01*
X76435000Y-95025000D02*
X78764000Y-95025000D01*
X35795000Y-40415000D02*
X37870000Y-40415000D01*
X49765000Y-65053000D02*
X49765000Y-66534000D01*
X86595000Y-66280000D02*
X86595000Y-64703300D01*
X35795000Y-40415000D02*
X35795000Y-41896000D01*
X48128600Y-41989600D02*
X47320400Y-41989600D01*
X47320400Y-41989600D02*
X47225000Y-42085000D01*
X39605000Y-49265000D02*
X38335000Y-49265000D01*
X94680000Y-58660000D02*
X94680000Y-60735000D01*
X37870000Y-40415000D02*
X38335000Y-40880000D01*
X76435000Y-95025000D02*
X76435000Y-96506000D01*
X54845000Y-70535200D02*
X54845000Y-70090000D01*
X76435000Y-54385000D02*
X78764000Y-54385000D01*
X84055000Y-39560100D02*
X84055000Y-41137000D01*
X78975000Y-95236000D02*
X78975000Y-96630000D01*
X74149000Y-98030000D02*
X74657000Y-97522000D01*
X25635000Y-71360000D02*
X24430000Y-71360000D01*
X51543000Y-24370000D02*
X57385000Y-24370000D01*
X51035000Y-40647500D02*
X53342500Y-40647500D01*
X31731000Y-36562000D02*
X31731000Y-38340000D01*
X31858000Y-56755000D02*
X31731000Y-56628000D01*
X94215000Y-61200000D02*
X93075000Y-61200000D01*
X94469000Y-76440000D02*
X93010000Y-76440000D01*
X94680000Y-73900000D02*
X92945000Y-73900000D01*
X25889000Y-55104000D02*
X25508000Y-55485000D01*
X81515000Y-90103900D02*
X81515000Y-91680000D01*
X34525000Y-75975000D02*
X36346000Y-75975000D01*
X77959000Y-44563000D02*
X77959000Y-45960000D01*
X37065000Y-52818000D02*
X37065000Y-54215000D01*
X91492600Y-66283600D02*
X93071400Y-66283600D01*
X47225000Y-42085000D02*
X45955000Y-42085000D01*
X52305000Y-66026000D02*
X52305000Y-70090000D01*
X53342500Y-40647500D02*
X53575000Y-40880000D01*
X59545000Y-26530000D02*
X57385000Y-24370000D01*
X38335000Y-64756000D02*
X38335000Y-66150000D01*
X82785000Y-96630000D02*
X82785000Y-97604999D01*
X76435000Y-74570000D02*
X78629000Y-74570000D01*
X98835000Y-65010000D02*
X99855000Y-66030000D01*
X76435000Y-84865000D02*
X76435000Y-86600000D01*
X25889000Y-52945000D02*
X24492000Y-52945000D01*
%TO.N,Net-(U7A-RCext)*%
X35160000Y-56755000D02*
X37530000Y-56755000D01*
X38335000Y-55950000D02*
X38335000Y-54215000D01*
X37530000Y-56755000D02*
X38335000Y-55950000D01*
%TO.N,~{RES}*%
X96178800Y-57600200D02*
X95741800Y-58037200D01*
X91470800Y-62386900D02*
X92991900Y-62386900D01*
X34272700Y-70950000D02*
X32988900Y-72233800D01*
X79226100Y-40118100D02*
X80245000Y-41137000D01*
X76893100Y-40905500D02*
X77680500Y-40118100D01*
X98793600Y-60431400D02*
X98793600Y-58360600D01*
X37065000Y-70950000D02*
X34272700Y-70950000D01*
X77415300Y-43639900D02*
X76893100Y-43117700D01*
X81515000Y-43639900D02*
X81515000Y-46087000D01*
X37065000Y-87030000D02*
X36779900Y-86744900D01*
X98025000Y-61200000D02*
X98793600Y-60431400D01*
X81515000Y-43639900D02*
X77415300Y-43639900D01*
X32988900Y-72233800D02*
X32988900Y-83587700D01*
X93601600Y-62470000D02*
X93075000Y-62470000D01*
X95741800Y-58037200D02*
X95741800Y-60329800D01*
X92991900Y-62386900D02*
X93075000Y-62470000D01*
X32988900Y-83587700D02*
X36146100Y-86744900D01*
X81520500Y-43634400D02*
X81515000Y-43639900D01*
X95741800Y-60329800D02*
X93601600Y-62470000D01*
X98793600Y-58360600D02*
X98033200Y-57600200D01*
X77680500Y-40118100D02*
X79226100Y-40118100D01*
X36779900Y-86744900D02*
X36146100Y-86744900D01*
X76893100Y-43117700D02*
X76893100Y-40905500D01*
X98033200Y-57600200D02*
X96178800Y-57600200D01*
%TO.N,CA0*%
X66275000Y-58472900D02*
X66275000Y-56990000D01*
X38335000Y-70950000D02*
X38335000Y-70500300D01*
X65093000Y-59654900D02*
X66275000Y-58472900D01*
X38335000Y-70500300D02*
X39983500Y-68851800D01*
%TO.N,D0*%
X86398100Y-57600200D02*
X90729700Y-57600200D01*
X35322700Y-88127300D02*
X34251600Y-88127300D01*
X35978900Y-71619100D02*
X34247200Y-71619100D01*
X35602100Y-88406700D02*
X35322700Y-88127300D01*
X85325000Y-56120000D02*
X85325000Y-56527100D01*
X37700000Y-82938600D02*
X37700000Y-88380800D01*
X81133800Y-67622100D02*
X88183500Y-67622100D01*
X39303100Y-87913900D02*
X40137200Y-88748000D01*
X39303100Y-87331900D02*
X39605000Y-87030000D01*
X79094400Y-67883900D02*
X78161400Y-67883900D01*
X37674100Y-88406700D02*
X35602100Y-88406700D01*
X80245000Y-66733300D02*
X79094400Y-67883900D01*
X33439300Y-78677900D02*
X37700000Y-82938600D01*
X80245000Y-66280000D02*
X80245000Y-66733300D01*
X36667800Y-72308000D02*
X35978900Y-71619100D01*
X85325000Y-56527100D02*
X86398100Y-57600200D01*
X90729700Y-62724000D02*
X90729700Y-57600200D01*
X91905700Y-63899900D02*
X92065600Y-63740000D01*
X37761400Y-88442200D02*
X38774800Y-88442200D01*
X99327700Y-61554400D02*
X99327700Y-58257800D01*
X33472200Y-97381000D02*
X37835000Y-101743800D01*
X39303100Y-87913900D02*
X39303100Y-87331900D01*
X34251600Y-88127300D02*
X33472200Y-88906700D01*
X98025000Y-62470000D02*
X98412100Y-62470000D01*
X37835000Y-101743800D02*
X37835000Y-112776000D01*
X99327700Y-58257800D02*
X98219800Y-57149900D01*
X92065600Y-63740000D02*
X93075000Y-63740000D01*
X98412100Y-62470000D02*
X99327700Y-61554400D01*
X81515000Y-41137000D02*
X81515000Y-40559200D01*
X33472200Y-88906700D02*
X33472200Y-97381000D01*
X80245000Y-66733300D02*
X81133800Y-67622100D01*
X33439300Y-72427000D02*
X33439300Y-78677900D01*
X98219800Y-57149900D02*
X91180000Y-57149900D01*
X39605000Y-70950000D02*
X39605000Y-71445100D01*
X38774800Y-88442200D02*
X39303100Y-87913900D01*
X38742100Y-72308000D02*
X36667800Y-72308000D01*
X81515000Y-40559200D02*
X80511500Y-39555700D01*
X91905700Y-63899900D02*
X90729700Y-62724000D01*
X67545000Y-58177600D02*
X67545000Y-56990000D01*
X68055300Y-58687900D02*
X67545000Y-58177600D01*
X37700000Y-88380800D02*
X37674100Y-88406700D01*
X91180000Y-57149900D02*
X90729700Y-57600200D01*
X88183500Y-67622100D02*
X91905700Y-63899900D01*
X39605000Y-71445100D02*
X38742100Y-72308000D01*
X34247200Y-71619100D02*
X33439300Y-72427000D01*
X37700000Y-88380800D02*
X37761400Y-88442200D01*
%TO.N,D1*%
X87230000Y-47367500D02*
X88508400Y-48645900D01*
X79405000Y-58626800D02*
X78224800Y-58626800D01*
X77725700Y-59125900D02*
X77725700Y-60164400D01*
X82785000Y-46087000D02*
X82785000Y-45695300D01*
X81605200Y-54324600D02*
X80880000Y-55049800D01*
X84055000Y-56120000D02*
X84055000Y-55057500D01*
X83322100Y-54324600D02*
X81605200Y-54324600D01*
X84711900Y-43768400D02*
X85956000Y-43768400D01*
X88508400Y-52316700D02*
X87726100Y-53099000D01*
X85956000Y-43768400D02*
X87230000Y-45042400D01*
X40875000Y-71900300D02*
X41850000Y-72875300D01*
X77809400Y-60164400D02*
X78975000Y-61330000D01*
X80880000Y-57151800D02*
X79405000Y-58626800D01*
X86013500Y-53099000D02*
X84055000Y-55057500D01*
X88508400Y-48645900D02*
X88508400Y-52316700D01*
X87230000Y-45042400D02*
X87230000Y-47367500D01*
X84055000Y-55057500D02*
X83322100Y-54324600D01*
X82785000Y-45695300D02*
X84711900Y-43768400D01*
X78224800Y-58626800D02*
X77725700Y-59125900D01*
X40875000Y-87761600D02*
X40875000Y-87030000D01*
X68916400Y-60216800D02*
X68916400Y-57091400D01*
X40875000Y-70950000D02*
X40875000Y-71900300D01*
X41964400Y-88851000D02*
X40875000Y-87761600D01*
X77725700Y-60164400D02*
X77809400Y-60164400D01*
X68916400Y-57091400D02*
X68815000Y-56990000D01*
X87726100Y-53099000D02*
X86013500Y-53099000D01*
X80880000Y-55049800D02*
X80880000Y-57151800D01*
X73912100Y-60164400D02*
X77725700Y-60164400D01*
%TO.N,CA1*%
X42145000Y-70103800D02*
X43251100Y-68997700D01*
X65005000Y-58600500D02*
X65005000Y-56990000D01*
X64666700Y-62087200D02*
X64315300Y-61735800D01*
X64315300Y-59290200D02*
X65005000Y-58600500D01*
X64315300Y-61735800D02*
X64315300Y-59290200D01*
X42145000Y-70950000D02*
X42145000Y-70103800D01*
%TO.N,CA2*%
X46590000Y-68992500D02*
X46590000Y-72017500D01*
X46897100Y-72324600D02*
X47549200Y-72324600D01*
X47869000Y-72004800D02*
X47869000Y-68999500D01*
X43415000Y-70950000D02*
X43415000Y-70503900D01*
X49399800Y-60982300D02*
X56870200Y-60982300D01*
X46140200Y-68542700D02*
X46590000Y-68992500D01*
X46590000Y-72017500D02*
X46897100Y-72324600D01*
X58114600Y-62226700D02*
X58114600Y-62226800D01*
X56870200Y-60982300D02*
X58114600Y-62226700D01*
X63735000Y-57967100D02*
X63735000Y-56990000D01*
X48055500Y-68813000D02*
X48055500Y-62326600D01*
X45376200Y-68542700D02*
X46140200Y-68542700D01*
X48055500Y-62326600D02*
X49399800Y-60982300D01*
X47549200Y-72324600D02*
X47869000Y-72004800D01*
X47869000Y-68999500D02*
X48055500Y-68813000D01*
X43415000Y-70503900D02*
X45376200Y-68542700D01*
X58114600Y-62226700D02*
X59475400Y-62226700D01*
X59475400Y-62226700D02*
X63735000Y-57967100D01*
%TO.N,D2*%
X70085000Y-58940200D02*
X70085000Y-56990000D01*
X48818800Y-85647800D02*
X48170400Y-85647800D01*
X38970000Y-104625700D02*
X38970000Y-95256300D01*
X47607900Y-88423300D02*
X46902000Y-88423300D01*
X82785000Y-56536700D02*
X79915100Y-59406600D01*
X46317900Y-85634800D02*
X45727600Y-85634800D01*
X49171000Y-86000000D02*
X48818800Y-85647800D01*
X42412200Y-91814100D02*
X47240400Y-91814100D01*
X45727600Y-85634800D02*
X45651600Y-85634800D01*
X41795000Y-112776000D02*
X41795000Y-107450700D01*
X82785000Y-56120000D02*
X82785000Y-56536700D01*
X45727600Y-85634800D02*
X45727600Y-84867300D01*
X70022200Y-59003000D02*
X70085000Y-58940200D01*
X46902000Y-88423300D02*
X46589900Y-88111200D01*
X46589900Y-85906800D02*
X46317900Y-85634800D01*
X44685000Y-70437800D02*
X44685000Y-70950000D01*
X46589900Y-88111200D02*
X46589900Y-85906800D01*
X47240400Y-91814100D02*
X49171000Y-89883500D01*
X47855500Y-88175700D02*
X47607900Y-88423300D01*
X45800500Y-69322300D02*
X44685000Y-70437800D01*
X49171000Y-89883500D02*
X49171000Y-86000000D01*
X41795000Y-107450700D02*
X38970000Y-104625700D01*
X38970000Y-95256300D02*
X42412200Y-91814100D01*
X44685000Y-86601400D02*
X44685000Y-87030000D01*
X79915100Y-59406600D02*
X78470800Y-59406600D01*
X48170400Y-85647800D02*
X47855500Y-85962700D01*
X79915100Y-59406600D02*
X79915100Y-61000100D01*
X79915100Y-61000100D02*
X80245000Y-61330000D01*
X47855500Y-85962700D02*
X47855500Y-88175700D01*
X45651600Y-85634800D02*
X44685000Y-86601400D01*
%TO.N,D3*%
X71355000Y-68416000D02*
X71355000Y-70090000D01*
X81515000Y-55735300D02*
X82453300Y-54797000D01*
X82453300Y-54797000D02*
X83157600Y-54797000D01*
X83157600Y-54797000D02*
X83420000Y-55059400D01*
X83420000Y-57152600D02*
X81894000Y-58678600D01*
X80893100Y-59511300D02*
X80893100Y-59713100D01*
X45955000Y-87459700D02*
X45955000Y-87030000D01*
X81515000Y-56120000D02*
X81515000Y-55735300D01*
X44497500Y-88917200D02*
X45955000Y-87459700D01*
X81894000Y-58678600D02*
X81725800Y-58678600D01*
X83420000Y-55059400D02*
X83420000Y-57152600D01*
X80893100Y-59713100D02*
X81515000Y-60335000D01*
X45664500Y-71240500D02*
X45664500Y-72875300D01*
X45955000Y-70950000D02*
X45664500Y-71240500D01*
X81515000Y-60335000D02*
X81515000Y-61330000D01*
X43980400Y-88917200D02*
X44497500Y-88917200D01*
X71411800Y-68359200D02*
X71355000Y-68416000D01*
X81725800Y-58678600D02*
X80893100Y-59511300D01*
%TO.N,CA3*%
X47330200Y-62415000D02*
X49387100Y-60358100D01*
X62465000Y-58495300D02*
X62465000Y-56990000D01*
X47225000Y-68617700D02*
X47330200Y-68512500D01*
X49387100Y-60358100D02*
X60602200Y-60358100D01*
X60602200Y-60358100D02*
X62465000Y-58495300D01*
X47225000Y-70950000D02*
X47225000Y-68617700D01*
X47330200Y-68512500D02*
X47330200Y-62415000D01*
%TO.N,GND*%
X63735000Y-74535000D02*
X65132000Y-74535000D01*
X58155000Y-66230000D02*
X54655000Y-66230000D01*
X44685000Y-38181000D02*
X44431000Y-38435000D01*
X71355000Y-62470000D02*
X71355000Y-56990000D01*
X78971312Y-21930000D02*
X79405000Y-22363688D01*
X49765000Y-62978000D02*
X70847000Y-62978000D01*
X45955000Y-61200000D02*
X46881006Y-61200000D01*
X82842500Y-24792500D02*
X83205000Y-24430000D01*
X96660000Y-83735000D02*
X96985000Y-84060000D01*
X96725000Y-58690000D02*
X96725000Y-68495000D01*
X84155000Y-22230000D02*
X84155000Y-19730000D01*
X47987000Y-90410000D02*
X48495000Y-89902000D01*
X46881006Y-61200000D02*
X47488503Y-60592503D01*
X68905000Y-19730000D02*
X54655000Y-19730000D01*
X82785000Y-91680000D02*
X82785000Y-92726000D01*
X35825000Y-62500000D02*
X45630000Y-62500000D01*
X76435000Y-92950000D02*
X76435000Y-91426000D01*
X51035000Y-38572500D02*
X51035000Y-37070000D01*
X28340000Y-63105000D02*
X29315000Y-63105000D01*
X46900000Y-38435000D02*
X47225000Y-38110000D01*
X96755000Y-58660000D02*
X96725000Y-58690000D01*
X35795000Y-62470000D02*
X35795000Y-60946000D01*
X54655000Y-66230000D02*
X54405000Y-65980000D01*
X84055000Y-97397100D02*
X84055000Y-96630000D01*
X34525000Y-50659000D02*
X45536000Y-50659000D01*
X62405000Y-30730000D02*
X60155000Y-28480000D01*
X87540000Y-62630000D02*
X87865000Y-62305000D01*
X45955000Y-62175000D02*
X45955000Y-61200000D01*
X87865000Y-72365000D02*
X87865000Y-71390000D01*
X60155000Y-28480000D02*
X48325000Y-28480000D01*
X76435000Y-62470000D02*
X76595000Y-62630000D01*
X82842500Y-26054999D02*
X82842500Y-24792500D01*
X54655000Y-19730000D02*
X53655000Y-18730000D01*
X76595000Y-62630000D02*
X87540000Y-62630000D01*
X81052200Y-52564000D02*
X80245000Y-53371200D01*
X82842500Y-24792500D02*
X82842500Y-23230000D01*
X82742500Y-23130000D02*
X82842500Y-23230000D01*
X65132000Y-74535000D02*
X65259000Y-74662000D01*
X79920000Y-92980000D02*
X80245000Y-92655000D01*
X61195000Y-48246000D02*
X61195000Y-47230000D01*
X96660000Y-73995000D02*
X96660000Y-83735000D01*
X35890000Y-38435000D02*
X40621000Y-38435000D01*
X87865000Y-52310000D02*
X87865000Y-51170000D01*
X81052200Y-52564000D02*
X87611000Y-52564000D01*
X86595000Y-93234000D02*
X86341000Y-92980000D01*
X79737000Y-92980000D02*
X79920000Y-92980000D01*
X83167501Y-22480000D02*
X83905000Y-22480000D01*
X96755000Y-58660000D02*
X98025000Y-58660000D01*
X79405000Y-22363688D02*
X79405000Y-22880000D01*
X34525000Y-50659000D02*
X34525000Y-49008000D01*
X51035000Y-48500000D02*
X51065000Y-48530000D01*
X80245000Y-92655000D02*
X80245000Y-91680000D01*
X45630000Y-62500000D02*
X45955000Y-62175000D01*
X82785000Y-92726000D02*
X82531000Y-92980000D01*
X70847000Y-62978000D02*
X71355000Y-62470000D01*
X51035000Y-48500000D02*
X51035000Y-47738000D01*
X76435000Y-62470000D02*
X76435000Y-60946000D01*
X28048000Y-68820000D02*
X28048000Y-78623000D01*
X80245000Y-94220000D02*
X81769000Y-94220000D01*
X87540000Y-72690000D02*
X87865000Y-72365000D01*
X82842500Y-24792500D02*
X82555000Y-25080000D01*
X80245000Y-93305000D02*
X79920000Y-92980000D01*
X90903301Y-23929999D02*
X89205001Y-23929999D01*
X71805000Y-21930000D02*
X71105000Y-21930000D01*
X43415000Y-38181000D02*
X43161000Y-38435000D01*
X43161000Y-38435000D02*
X44431000Y-38435000D01*
X29318000Y-52945000D02*
X29445000Y-52818000D01*
X47987000Y-73900000D02*
X48495000Y-73392000D01*
X60911000Y-48530000D02*
X61195000Y-48246000D01*
X77959000Y-42488000D02*
X87527000Y-42488000D01*
X79405000Y-22880000D02*
X79155000Y-23130000D01*
X76435000Y-52310000D02*
X76689000Y-52564000D01*
X76689000Y-52564000D02*
X81052200Y-52564000D01*
X87611000Y-52564000D02*
X87865000Y-52310000D01*
X84055000Y-96249092D02*
X82025908Y-94220000D01*
X67342500Y-30730000D02*
X62405000Y-30730000D01*
X34525000Y-73900000D02*
X47987000Y-73900000D01*
X47225000Y-38110000D02*
X47225000Y-37135000D01*
X53655000Y-18730000D02*
X49155000Y-18730000D01*
X45991600Y-54178400D02*
X45955000Y-54215000D01*
D36*
X89315000Y-112776000D02*
X89315000Y-103692000D01*
D35*
X49765000Y-62978000D02*
X49765000Y-61708000D01*
X40875000Y-37135000D02*
X40875000Y-38181000D01*
X82555000Y-25080000D02*
X78180000Y-25080000D01*
X87865000Y-92655000D02*
X87865000Y-91680000D01*
X48325000Y-28480000D02*
X48325000Y-30382000D01*
X42145000Y-37135000D02*
X42145000Y-38181000D01*
X48325000Y-19560000D02*
X48325000Y-19925000D01*
X51035000Y-47738000D02*
X51797000Y-46976000D01*
X76435000Y-72495000D02*
X76630000Y-72690000D01*
X62231200Y-76038800D02*
X62231200Y-92716200D01*
X76595000Y-82950000D02*
X87540000Y-82950000D01*
X60797500Y-38572500D02*
X61195000Y-38175000D01*
X27964000Y-62729000D02*
X28340000Y-63105000D01*
X87540000Y-82950000D02*
X87865000Y-82625000D01*
X42145000Y-38181000D02*
X41891000Y-38435000D01*
X79737000Y-92980000D02*
X79920000Y-92980000D01*
X28048000Y-78623000D02*
X28405000Y-78980000D01*
X34525000Y-73900000D02*
X34525000Y-72376000D01*
X40621000Y-38435000D02*
X41891000Y-38435000D01*
X76465000Y-92980000D02*
X79737000Y-92980000D01*
X96985000Y-84060000D02*
X97960000Y-84060000D01*
X87865000Y-82625000D02*
X87865000Y-81650000D01*
X76435000Y-52310000D02*
X76435000Y-50786000D01*
X49155000Y-18730000D02*
X48325000Y-19560000D01*
X79155000Y-23130000D02*
X82742500Y-23130000D01*
X96755000Y-73900000D02*
X98025000Y-73900000D01*
X28048000Y-68820000D02*
X29699000Y-68820000D01*
X86595000Y-96630000D02*
X86595000Y-93234000D01*
X45955000Y-50240000D02*
X45955000Y-49265000D01*
X83167501Y-26380000D02*
X82842500Y-26054999D01*
X80245000Y-94220000D02*
X80245000Y-93305000D01*
X44431000Y-38435000D02*
X46900000Y-38435000D01*
X80245000Y-96630000D02*
X80245000Y-94220000D01*
X87527000Y-42488000D02*
X87865000Y-42150000D01*
X87865000Y-62305000D02*
X87865000Y-61330000D01*
X76435000Y-72495000D02*
X76435000Y-70852000D01*
X27964000Y-52945000D02*
X27964000Y-62729000D01*
X48495000Y-89902000D02*
X48495000Y-87030000D01*
X76435000Y-82790000D02*
X76435000Y-81266000D01*
X96755000Y-73900000D02*
X96660000Y-73995000D01*
X28405000Y-78980000D02*
X29380000Y-78980000D01*
X43415000Y-37135000D02*
X43415000Y-38181000D01*
X78655000Y-21930000D02*
X78971312Y-21930000D01*
X96725000Y-68495000D02*
X97050000Y-68820000D01*
X48325000Y-19925000D02*
X48325000Y-28480000D01*
X35795000Y-62470000D02*
X35825000Y-62500000D01*
X34525000Y-90410000D02*
X34525000Y-88886000D01*
X35795000Y-38340000D02*
X35890000Y-38435000D01*
X61195000Y-38175000D02*
X61195000Y-37200000D01*
X82842500Y-22805001D02*
X83167501Y-22480000D01*
X76630000Y-72690000D02*
X87540000Y-72690000D01*
D36*
X89315000Y-103692000D02*
X93707000Y-99300000D01*
D35*
X62231200Y-92716200D02*
X63735000Y-94220000D01*
X89205001Y-23929999D02*
X89155000Y-23980000D01*
X97050000Y-68820000D02*
X98025000Y-68820000D01*
X35795000Y-38340000D02*
X35795000Y-36816000D01*
X87865000Y-42150000D02*
X87865000Y-41137000D01*
X71105000Y-21930000D02*
X68905000Y-19730000D01*
X51035000Y-38572500D02*
X60797500Y-38572500D01*
X77959000Y-42488000D02*
X77959000Y-40880000D01*
X46717000Y-31990000D02*
X42145000Y-31990000D01*
X41891000Y-38435000D02*
X43161000Y-38435000D01*
X44685000Y-37135000D02*
X44685000Y-38181000D01*
X83905000Y-22480000D02*
X84155000Y-22230000D01*
X82025908Y-94220000D02*
X81769000Y-94220000D01*
X34525000Y-90410000D02*
X47987000Y-90410000D01*
X83905000Y-26380000D02*
X83167501Y-26380000D01*
X46856700Y-54178400D02*
X45991600Y-54178400D01*
X84055000Y-96630000D02*
X84055000Y-96249092D01*
X79920000Y-92980000D02*
X82531000Y-92980000D01*
X78180000Y-23130000D02*
X79155000Y-23130000D01*
X87540000Y-92980000D02*
X87865000Y-92655000D01*
X45536000Y-50659000D02*
X45955000Y-50240000D01*
X83205000Y-24430000D02*
X83905000Y-24430000D01*
X82842500Y-23230000D02*
X82842500Y-22805001D01*
X48495000Y-73392000D02*
X48495000Y-70950000D01*
X82531000Y-92980000D02*
X86341000Y-92980000D01*
X40875000Y-38181000D02*
X40621000Y-38435000D01*
X76435000Y-82790000D02*
X76595000Y-82950000D01*
X71805000Y-21930000D02*
X78655000Y-21930000D01*
X27964000Y-52945000D02*
X29318000Y-52945000D01*
X80245000Y-53371200D02*
X80245000Y-56120000D01*
X86341000Y-92980000D02*
X87540000Y-92980000D01*
X48325000Y-30382000D02*
X46717000Y-31990000D01*
X63735000Y-74535000D02*
X62231200Y-76038800D01*
X51065000Y-48530000D02*
X60911000Y-48530000D01*
X76435000Y-92950000D02*
X76465000Y-92980000D01*
%TO.N,CA4*%
X47225000Y-80756000D02*
X48081300Y-81612300D01*
X61195000Y-56990000D02*
X61202300Y-56997300D01*
X48081300Y-81612300D02*
X53935800Y-81612300D01*
X61202300Y-56997300D02*
X61202300Y-58658000D01*
X53935800Y-81612300D02*
X54160600Y-81387500D01*
X47225000Y-80250000D02*
X47225000Y-80756000D01*
%TO.N,D4*%
X40240000Y-95260100D02*
X40552300Y-94947800D01*
X70085000Y-68106300D02*
X70085000Y-70090000D01*
X45098800Y-97687700D02*
X45955000Y-96831500D01*
X45755000Y-102961700D02*
X40240000Y-97446700D01*
X47698800Y-94045400D02*
X45955000Y-95789200D01*
X46836600Y-78854100D02*
X57063200Y-78854100D01*
X41510000Y-97393200D02*
X41804500Y-97687700D01*
X82785000Y-60209200D02*
X82042400Y-59466600D01*
X59691600Y-92716600D02*
X58667200Y-92716600D01*
X45955000Y-96831500D02*
X45955000Y-96330000D01*
X58921400Y-80250000D02*
X59691600Y-81020200D01*
X58667200Y-92716600D02*
X57338400Y-94045400D01*
X57063200Y-78854100D02*
X58459100Y-80250000D01*
X40240000Y-97446700D02*
X40240000Y-95260100D01*
X41207000Y-94947800D02*
X41510000Y-95250800D01*
X40552300Y-94947800D02*
X41207000Y-94947800D01*
X59691600Y-92716600D02*
X61195000Y-94220000D01*
X58459100Y-80250000D02*
X58921400Y-80250000D01*
X57338400Y-94045400D02*
X47698800Y-94045400D01*
X45955000Y-79735700D02*
X46836600Y-78854100D01*
X82785000Y-61330000D02*
X82785000Y-60209200D01*
X45955000Y-95789200D02*
X45955000Y-96330000D01*
X41510000Y-95250800D02*
X41510000Y-97393200D01*
X45755000Y-112776000D02*
X45755000Y-102961700D01*
X41804500Y-97687700D02*
X45098800Y-97687700D01*
X70624500Y-67566800D02*
X70085000Y-68106300D01*
X81515000Y-51170000D02*
X81515000Y-49593200D01*
X45955000Y-80250000D02*
X45955000Y-79735700D01*
X59691600Y-81020200D02*
X59691600Y-92716600D01*
%TO.N,D5*%
X84196000Y-59742300D02*
X84196000Y-61189000D01*
X57117600Y-78402100D02*
X57581600Y-77938100D01*
X60153700Y-79000800D02*
X60153700Y-90638700D01*
X57581600Y-77938100D02*
X59091000Y-77938100D01*
X60153700Y-90638700D02*
X61195000Y-91680000D01*
X44685000Y-95505500D02*
X45327900Y-94862600D01*
X82785000Y-50349700D02*
X83475700Y-49659000D01*
X46074000Y-78402100D02*
X57117600Y-78402100D01*
X82785000Y-51170000D02*
X82785000Y-50349700D01*
X44685000Y-96330000D02*
X44685000Y-95505500D01*
X68815000Y-71588900D02*
X68658900Y-71745000D01*
X59091000Y-77938100D02*
X60153700Y-79000800D01*
X44685000Y-80250000D02*
X44685000Y-79791100D01*
X44685000Y-79791100D02*
X46074000Y-78402100D01*
X84196000Y-61189000D02*
X84055000Y-61330000D01*
X68815000Y-70090000D02*
X68815000Y-71588900D01*
%TO.N,CA5*%
X66019200Y-74336100D02*
X65166700Y-73483600D01*
X65238400Y-76903000D02*
X66019200Y-76122200D01*
X68815000Y-84060000D02*
X67545000Y-82790000D01*
X59925000Y-58767000D02*
X59925000Y-56990000D01*
X55609500Y-77951800D02*
X45231500Y-77951800D01*
X65166700Y-73483600D02*
X60077700Y-73483600D01*
X60186700Y-59028700D02*
X59925000Y-58767000D01*
X66019200Y-76122200D02*
X66019200Y-74336100D01*
X45231500Y-77951800D02*
X43415000Y-79768300D01*
X43415000Y-79768300D02*
X43415000Y-80250000D01*
X66024600Y-82790000D02*
X65238400Y-82003800D01*
X67545000Y-82790000D02*
X66024600Y-82790000D01*
X65238400Y-82003800D02*
X65238400Y-76903000D01*
X60077700Y-73483600D02*
X55609500Y-77951800D01*
%TO.N,CA6*%
X59916100Y-73008300D02*
X55422900Y-77501500D01*
X42145000Y-79784500D02*
X42145000Y-80250000D01*
X67327900Y-74987800D02*
X65348400Y-73008300D01*
X66275000Y-81520000D02*
X67327900Y-80467100D01*
X44428000Y-77501500D02*
X42145000Y-79784500D01*
X65348400Y-73008300D02*
X59916100Y-73008300D01*
X58334400Y-58772600D02*
X58655000Y-58452000D01*
X58655000Y-58452000D02*
X58655000Y-56990000D01*
X55422900Y-77501500D02*
X44428000Y-77501500D01*
X67327900Y-80467100D02*
X67327900Y-74987800D01*
%TO.N,D6*%
X58655000Y-94220000D02*
X49309900Y-103565100D01*
X42279600Y-82134100D02*
X40875000Y-80729500D01*
X40875000Y-80729500D02*
X40875000Y-80250000D01*
X40875000Y-97444700D02*
X40875000Y-96330000D01*
X49309900Y-107045600D02*
X49715000Y-107450700D01*
X49715000Y-112776000D02*
X49715000Y-107450700D01*
X85570300Y-59509900D02*
X85570300Y-61084700D01*
X47499300Y-82134100D02*
X42279600Y-82134100D01*
X84055000Y-51170000D02*
X84055000Y-50358400D01*
X68530700Y-72691000D02*
X67545000Y-71705300D01*
X85570300Y-61084700D02*
X85325000Y-61330000D01*
X49309900Y-103565100D02*
X46995400Y-103565100D01*
X84055000Y-50358400D02*
X84755800Y-49657600D01*
X49309900Y-103565100D02*
X49309900Y-107045600D01*
X67545000Y-71705300D02*
X67545000Y-70090000D01*
X46995400Y-103565100D02*
X40875000Y-97444700D01*
X69260300Y-72691000D02*
X68530700Y-72691000D01*
%TO.N,D7*%
X66275000Y-69549600D02*
X66275000Y-70090000D01*
X55480000Y-69015900D02*
X55766600Y-68729300D01*
X56115000Y-91680000D02*
X55100600Y-92694400D01*
X42629600Y-76776100D02*
X46783400Y-76776100D01*
X65454700Y-68729300D02*
X66275000Y-69549600D01*
X85794100Y-49583200D02*
X85794200Y-49583200D01*
X42168800Y-92694400D02*
X39605000Y-95258200D01*
X86595000Y-59079300D02*
X86414000Y-58898300D01*
X55480000Y-71160200D02*
X55480000Y-69015900D01*
X55100600Y-92694400D02*
X42168800Y-92694400D01*
X49864100Y-76776100D02*
X55480000Y-71160200D01*
X85325000Y-51170000D02*
X85794100Y-50700900D01*
X86595000Y-61330000D02*
X86595000Y-59079300D01*
X55766600Y-68729300D02*
X65454700Y-68729300D01*
X85794100Y-50700900D02*
X85794100Y-49583200D01*
X46783400Y-76776100D02*
X49864100Y-76776100D01*
X39605000Y-79800700D02*
X42629600Y-76776100D01*
X39605000Y-95258200D02*
X39605000Y-96330000D01*
X39605000Y-80250000D02*
X39605000Y-79800700D01*
%TO.N,CA7*%
X56088600Y-80031300D02*
X57051800Y-80031300D01*
X54908200Y-81740200D02*
X54908200Y-81211700D01*
X57385000Y-58828700D02*
X57241700Y-58972000D01*
X54908200Y-81211700D02*
X56088600Y-80031300D01*
X53772300Y-82876100D02*
X54908200Y-81740200D01*
X57385000Y-56990000D02*
X57385000Y-58828700D01*
X38335000Y-80697000D02*
X40514100Y-82876100D01*
X40514100Y-82876100D02*
X53772300Y-82876100D01*
X38335000Y-80250000D02*
X38335000Y-80697000D01*
%TO.N,CA8*%
X56115000Y-84060000D02*
X40871100Y-84060000D01*
X55018700Y-76754400D02*
X55018700Y-76754500D01*
X58655000Y-73615300D02*
X55515900Y-76754400D01*
X40871100Y-84060000D02*
X38335000Y-86596100D01*
X38335000Y-86596100D02*
X38335000Y-87030000D01*
X55515900Y-76754400D02*
X55018700Y-76754400D01*
X58655000Y-70090000D02*
X58655000Y-73615300D01*
%TO.N,CA9*%
X42145000Y-87030000D02*
X42145000Y-86407900D01*
X59925000Y-71937500D02*
X59925000Y-70090000D01*
X42145000Y-86407900D02*
X43251800Y-85301100D01*
X59600600Y-72261900D02*
X59925000Y-71937500D01*
%TO.N,CA10*%
X64344800Y-72275200D02*
X63735000Y-71665400D01*
X63735000Y-71665400D02*
X63735000Y-70090000D01*
X43255000Y-89251800D02*
X43652000Y-89648800D01*
X45714500Y-89648800D02*
X46025200Y-89338100D01*
X43255000Y-87190000D02*
X43255000Y-89251800D01*
X43415000Y-87030000D02*
X43255000Y-87190000D01*
X43652000Y-89648800D02*
X45714500Y-89648800D01*
%TO.N,CA11*%
X61195000Y-71681500D02*
X61195000Y-70090000D01*
X47924000Y-85196400D02*
X54711400Y-85196400D01*
X47225000Y-85895400D02*
X47924000Y-85196400D01*
X54711400Y-85196400D02*
X56115000Y-86600000D01*
X47225000Y-87030000D02*
X47225000Y-85895400D01*
X60953300Y-71923200D02*
X61195000Y-71681500D01*
%TO.N,Net-(U7A-Cext)*%
X39605000Y-56755000D02*
X39605000Y-54215000D01*
%TO.N,CA12*%
X56115000Y-56990000D02*
X56115000Y-58639400D01*
X48164900Y-94908400D02*
X49864700Y-94908400D01*
X47225000Y-95848300D02*
X48164900Y-94908400D01*
X56115000Y-58639400D02*
X55783800Y-58970600D01*
X47225000Y-96330000D02*
X47225000Y-95848300D01*
%TO.N,CA13*%
X58655000Y-84060000D02*
X57618400Y-85096600D01*
X45553900Y-93595000D02*
X43415000Y-95733900D01*
X43415000Y-95733900D02*
X43415000Y-96330000D01*
X57618400Y-92289200D02*
X56312600Y-93595000D01*
X57600300Y-70305300D02*
X57600300Y-73627000D01*
X57385000Y-70090000D02*
X57600300Y-70305300D01*
X57618400Y-85096600D02*
X57618400Y-92289200D01*
X56312600Y-93595000D02*
X45553900Y-93595000D01*
%TO.N,CA14*%
X56115000Y-81520000D02*
X57151600Y-82556600D01*
X57151600Y-92119100D02*
X56126000Y-93144700D01*
X54845000Y-56990000D02*
X54369700Y-57465300D01*
X54369700Y-57465300D02*
X54369700Y-58997900D01*
X56126000Y-93144700D02*
X44901100Y-93144700D01*
X57151600Y-82556600D02*
X57151600Y-92119100D01*
X42145000Y-95900800D02*
X42145000Y-96330000D01*
X44901100Y-93144700D02*
X42145000Y-95900800D01*
%TO.N,CA15*%
X38335000Y-96330000D02*
X38335000Y-93744100D01*
X53575000Y-68786600D02*
X53906500Y-68455100D01*
X38335000Y-93744100D02*
X39296100Y-92783000D01*
X53575000Y-70090000D02*
X53575000Y-68786600D01*
%TO.N,Net-(U7B-RCext)*%
X44685000Y-46595000D02*
X47225000Y-46595000D01*
X44685000Y-46595000D02*
X44685000Y-49265000D01*
%TO.N,~{RD}*%
X61331800Y-43824100D02*
X61726100Y-44218400D01*
X62465000Y-71618700D02*
X62465000Y-70090000D01*
X69515000Y-107450700D02*
X69085900Y-107021600D01*
X55687200Y-40839700D02*
X58655000Y-40839700D01*
X69515000Y-112776000D02*
X69515000Y-107450700D01*
X57517900Y-34106100D02*
X54845000Y-36779000D01*
X62265600Y-71818100D02*
X62465000Y-71618700D01*
X69085900Y-107021600D02*
X69085900Y-96043800D01*
X58655000Y-42150000D02*
X58655000Y-42581700D01*
X62303000Y-35167700D02*
X61241400Y-34106100D01*
X61241400Y-34106100D02*
X57517900Y-34106100D01*
X59897400Y-43824100D02*
X61331800Y-43824100D01*
X58655000Y-42581700D02*
X59897400Y-43824100D01*
X58655000Y-40839700D02*
X59868100Y-40839700D01*
X58655000Y-40839700D02*
X58655000Y-42150000D01*
X54845000Y-41681900D02*
X55687200Y-40839700D01*
X59868100Y-40839700D02*
X62303000Y-38404800D01*
X54845000Y-36779000D02*
X54845000Y-37200000D01*
X62303000Y-38404800D02*
X62303000Y-35167700D01*
X54845000Y-42150000D02*
X54845000Y-41681900D01*
X69085900Y-96043800D02*
X69281800Y-95847900D01*
%TO.N,~{WR}*%
X93578500Y-82221500D02*
X93010000Y-82790000D01*
X58034600Y-44835900D02*
X57178700Y-44835900D01*
X54210000Y-43190500D02*
X55637900Y-44618300D01*
X60982200Y-39088700D02*
X56241600Y-39088700D01*
X57178700Y-44835900D02*
X56888600Y-44545800D01*
X58655000Y-37200000D02*
X58655000Y-36503200D01*
X60103200Y-49614100D02*
X58655000Y-51062300D01*
X58655000Y-47230000D02*
X58655000Y-45456300D01*
X61838300Y-35343100D02*
X61838300Y-38232600D01*
X99438900Y-79584600D02*
X98564600Y-79584600D01*
X61722800Y-45428600D02*
X62281000Y-45986800D01*
X58655000Y-45456300D02*
X58682700Y-45428600D01*
X58655000Y-51062300D02*
X58655000Y-52180000D01*
X94311000Y-82221500D02*
X93578500Y-82221500D01*
X62281000Y-48445000D02*
X61111900Y-49614100D01*
X98564600Y-79584600D02*
X97960000Y-78980000D01*
X58682700Y-45428600D02*
X61722800Y-45428600D01*
X94311000Y-79899300D02*
X94311000Y-82221500D01*
X99307000Y-83740300D02*
X99307000Y-84423700D01*
X56511300Y-71855400D02*
X56115000Y-71459100D01*
X99036200Y-84694500D02*
X96784000Y-84694500D01*
X55710400Y-44545800D02*
X55637900Y-44618300D01*
X61100500Y-34605300D02*
X61838300Y-35343100D01*
X99307000Y-84423700D02*
X99036200Y-84694500D01*
X58655000Y-36503200D02*
X60552900Y-34605300D01*
X56888600Y-44545800D02*
X55710400Y-44545800D01*
X93391700Y-78980000D02*
X94311000Y-79899300D01*
X60552900Y-34605300D02*
X61100500Y-34605300D01*
X98356700Y-82790000D02*
X99307000Y-83740300D01*
X99307000Y-83740300D02*
X99451300Y-83740300D01*
X58655000Y-45456300D02*
X58034600Y-44835900D01*
X96784000Y-84694500D02*
X94311000Y-82221500D01*
X54845000Y-45411200D02*
X54845000Y-47230000D01*
X56115000Y-71459100D02*
X56115000Y-70090000D01*
X61111900Y-49614100D02*
X60103200Y-49614100D01*
X54845000Y-52180000D02*
X54845000Y-51729300D01*
X61838300Y-38232600D02*
X60982200Y-39088700D01*
X55637900Y-44618300D02*
X54845000Y-45411200D01*
X97960000Y-82790000D02*
X98356700Y-82790000D01*
X57948100Y-50355400D02*
X58655000Y-51062300D01*
X99451300Y-83740300D02*
X99565500Y-83626100D01*
X93010000Y-78980000D02*
X93391700Y-78980000D01*
X54210000Y-41120300D02*
X54210000Y-43190500D01*
X62281000Y-45986800D02*
X62281000Y-48445000D01*
X56241600Y-39088700D02*
X54210000Y-41120300D01*
X54845000Y-51729300D02*
X56218900Y-50355400D01*
X56381000Y-50355400D02*
X57948100Y-50355400D01*
X56218900Y-50355400D02*
X56381000Y-50355400D01*
%TO.N,Net-(U7B-Cext)*%
X42610000Y-46595000D02*
X42610000Y-46679000D01*
X42610000Y-46679000D02*
X43415000Y-47484000D01*
X43415000Y-47484000D02*
X43415000Y-49265000D01*
%TO.N,16MHz*%
X39605000Y-26910000D02*
X39605000Y-37135000D01*
X42145000Y-24370000D02*
X39605000Y-26910000D01*
%TO.N,Net-(D1-A)*%
X28525400Y-20999600D02*
X27300000Y-22225000D01*
X36195300Y-30534100D02*
X36195300Y-21759900D01*
X36195300Y-21759900D02*
X35435000Y-20999600D01*
X35435000Y-20999600D02*
X28525400Y-20999600D01*
X31731000Y-34562000D02*
X32167400Y-34562000D01*
X32167400Y-34562000D02*
X36195300Y-30534100D01*
%TO.N,Net-(D1-K)*%
X45955000Y-65316700D02*
X45049100Y-64410800D01*
X45955000Y-66150000D02*
X45955000Y-65316700D01*
%TO.N,Net-(D2-A)*%
X29572000Y-27573000D02*
X34920000Y-22225000D01*
X29572000Y-34562000D02*
X29572000Y-27573000D01*
%TO.N,Net-(D2-K)*%
X44685000Y-61200000D02*
X44685000Y-60383800D01*
X44685000Y-60383800D02*
X45481900Y-59586900D01*
%TO.N,~{CS}*%
X23043800Y-62207100D02*
X23941700Y-63105000D01*
X81405000Y-31730000D02*
X82905000Y-31730000D01*
X26589800Y-58535200D02*
X24875200Y-58535200D01*
X23958300Y-58025000D02*
X23043800Y-58939500D01*
X23043800Y-58939500D02*
X23043800Y-62207100D01*
X23941700Y-63105000D02*
X24365000Y-63105000D01*
X24365000Y-58025000D02*
X23958300Y-58025000D01*
X24875200Y-58535200D02*
X24365000Y-58025000D01*
%TO.N,CLK*%
X53155000Y-30230000D02*
X54405000Y-30230000D01*
X85187500Y-64511000D02*
X85325000Y-64648500D01*
X61268604Y-30230000D02*
X65518604Y-34480000D01*
X41637000Y-38885000D02*
X40875000Y-39647000D01*
X22592900Y-71213100D02*
X24009800Y-72630000D01*
X40875000Y-42491700D02*
X36451800Y-46914900D01*
X50405000Y-32980000D02*
X53155000Y-30230000D01*
X24430000Y-72630000D02*
X24430000Y-73900000D01*
X85325000Y-64648500D02*
X85325000Y-66280000D01*
X24009800Y-72630000D02*
X24430000Y-72630000D01*
X65518604Y-34480000D02*
X69655000Y-34480000D01*
X22592900Y-53546100D02*
X22592900Y-71213100D01*
X40875000Y-42085000D02*
X40875000Y-42491700D01*
X50405000Y-35605900D02*
X50405000Y-32980000D01*
X85155000Y-29730000D02*
X85155000Y-28230000D01*
X54405000Y-30230000D02*
X61268604Y-30230000D01*
X40875000Y-39647000D02*
X40875000Y-42085000D01*
X47125900Y-38885000D02*
X41637000Y-38885000D01*
X29224100Y-46914900D02*
X22592900Y-53546100D01*
X47125900Y-38885000D02*
X50405000Y-35605900D01*
X36451800Y-46914900D02*
X29224100Y-46914900D01*
%TO.N,MOSI*%
X91421000Y-50278000D02*
X87865000Y-53834000D01*
X92691000Y-41266000D02*
X92691000Y-47230000D01*
X87405000Y-35980000D02*
X92691000Y-41266000D01*
X87405000Y-31730000D02*
X87405000Y-35980000D01*
X87865000Y-53834000D02*
X87865000Y-56120000D01*
X91421000Y-48500000D02*
X91421000Y-50278000D01*
X92691000Y-47230000D02*
X91421000Y-48500000D01*
%TO.N,MISO*%
X67259000Y-48722000D02*
X67259000Y-52511100D01*
X81515000Y-66280000D02*
X81515000Y-65860900D01*
X66275000Y-47738000D02*
X67259000Y-48722000D01*
X73186700Y-55788000D02*
X69909800Y-52511100D01*
X75155000Y-31480000D02*
X66275000Y-40360000D01*
X78180000Y-24430000D02*
X76955000Y-24430000D01*
X66275000Y-40360000D02*
X66275000Y-47738000D01*
X81515000Y-65860900D02*
X79137300Y-63483200D01*
X79137300Y-63483200D02*
X75755900Y-63483200D01*
X75155000Y-26230000D02*
X75155000Y-31480000D01*
X75755900Y-63483200D02*
X73186700Y-60914000D01*
X67259000Y-52511100D02*
X67259000Y-52564000D01*
X69909800Y-52511100D02*
X67259000Y-52511100D01*
X76955000Y-24430000D02*
X75155000Y-26230000D01*
X73186700Y-60914000D02*
X73186700Y-55788000D01*
%TO.N,A1*%
X79839400Y-81244400D02*
X80245000Y-81650000D01*
X80245000Y-71390000D02*
X79753100Y-70898100D01*
X79753100Y-70898100D02*
X79753100Y-69817500D01*
X79839400Y-80073100D02*
X79839400Y-81244400D01*
%TO.N,A5*%
X85325000Y-97159100D02*
X83288400Y-99195700D01*
X83288400Y-99195700D02*
X69850000Y-99195700D01*
X85325000Y-96630000D02*
X85325000Y-97159100D01*
%TO.N,A7*%
X78839300Y-91815700D02*
X77435400Y-91815700D01*
X78975000Y-91680000D02*
X78839300Y-91815700D01*
%TO.N,~{IORQ}*%
X71489600Y-100415800D02*
X71489600Y-105465300D01*
X84055000Y-81650000D02*
X84055000Y-80749700D01*
X84055000Y-80749700D02*
X83426700Y-80121400D01*
X84055000Y-71390000D02*
X84055000Y-70582900D01*
X71489600Y-105465300D02*
X73475000Y-107450700D01*
X84055000Y-70582900D02*
X83426700Y-69954600D01*
X71957500Y-99947900D02*
X71489600Y-100415800D01*
X73475000Y-112776000D02*
X73475000Y-107450700D01*
%TO.N,A6*%
X68966400Y-95102000D02*
X73874900Y-95102000D01*
X67014400Y-105991300D02*
X67014400Y-97054000D01*
X81515000Y-97012300D02*
X81515000Y-96630000D01*
X80593400Y-97933900D02*
X81515000Y-97012300D01*
X76706800Y-97933900D02*
X80593400Y-97933900D01*
X67014400Y-97054000D02*
X68966400Y-95102000D01*
X65555000Y-112776000D02*
X65555000Y-107450700D01*
X73874900Y-95102000D02*
X76706800Y-97933900D01*
X65555000Y-107450700D02*
X67014400Y-105991300D01*
%TO.N,A4*%
X63869400Y-105176300D02*
X63869400Y-101638700D01*
X61595000Y-107450700D02*
X63869400Y-105176300D01*
X61595000Y-112776000D02*
X61595000Y-107450700D01*
X88774200Y-97220500D02*
X88774200Y-97220600D01*
X87865000Y-96630000D02*
X88455500Y-97220500D01*
X88455500Y-97220500D02*
X88774200Y-97220500D01*
%TO.N,A2*%
X66149600Y-98332800D02*
X57635000Y-106847400D01*
X80894400Y-80216000D02*
X80894400Y-81029400D01*
X80894500Y-70769500D02*
X80894500Y-69962800D01*
X80894400Y-81029400D02*
X81515000Y-81650000D01*
X81515000Y-71390000D02*
X80894500Y-70769500D01*
X57635000Y-106847400D02*
X57635000Y-112776000D01*
X80894500Y-69962800D02*
X80894400Y-69962800D01*
X66289000Y-98332800D02*
X66149600Y-98332800D01*
%TO.N,A0*%
X53675000Y-112776000D02*
X53675000Y-107450700D01*
X54586100Y-107450700D02*
X72718100Y-89318700D01*
X77060700Y-70120100D02*
X76095000Y-70120100D01*
X77835000Y-80510000D02*
X78975000Y-81650000D01*
X72718100Y-83952300D02*
X76160400Y-80510000D01*
X75367600Y-70847500D02*
X75367600Y-79717200D01*
X75367600Y-79717200D02*
X76160400Y-80510000D01*
X78975000Y-71390000D02*
X78330600Y-71390000D01*
X76095000Y-70120100D02*
X75367600Y-70847500D01*
X78330600Y-71390000D02*
X77060700Y-70120100D01*
X72718100Y-89318700D02*
X72718100Y-83952300D01*
X53675000Y-107450700D02*
X54586100Y-107450700D01*
X76160400Y-80510000D02*
X77835000Y-80510000D01*
%TO.N,Net-(D3-A)*%
X27413000Y-34562000D02*
X27413000Y-30212000D01*
X27413000Y-30212000D02*
X27286000Y-30085000D01*
%TO.N,Net-(R4-Pad1)*%
X46717000Y-58406000D02*
X34049300Y-58406000D01*
X65259000Y-52564000D02*
X63481000Y-54342000D01*
X30620300Y-61835000D02*
X29315000Y-61835000D01*
X32239000Y-58406000D02*
X30588000Y-56755000D01*
X50781000Y-54342000D02*
X46717000Y-58406000D01*
X34049300Y-58406000D02*
X32239000Y-58406000D01*
X34049300Y-58406000D02*
X30620300Y-61835000D01*
X63481000Y-54342000D02*
X50781000Y-54342000D01*
X30588000Y-56755000D02*
X29315000Y-56755000D01*
%TO.N,Net-(U17-E1)*%
X81082500Y-69077500D02*
X82785000Y-70780000D01*
X77622000Y-69077500D02*
X81082500Y-69077500D01*
X49350200Y-59758100D02*
X58393700Y-59758100D01*
X40056400Y-59889600D02*
X35815200Y-59889600D01*
X35815200Y-59889600D02*
X34736200Y-60968600D01*
X39190700Y-63391700D02*
X39631900Y-62950500D01*
X34736200Y-60968600D02*
X34736200Y-63038800D01*
X72137200Y-63592700D02*
X77622000Y-69077500D01*
X35089100Y-63391700D02*
X39190700Y-63391700D01*
X59290000Y-55884300D02*
X59595500Y-55578800D01*
X34736200Y-63038800D02*
X35089100Y-63391700D01*
X58393700Y-59758100D02*
X59290000Y-58861800D01*
X82785000Y-70780000D02*
X82785000Y-71390000D01*
X72137200Y-56012300D02*
X72137200Y-63592700D01*
X59595500Y-55578800D02*
X71703700Y-55578800D01*
X40875000Y-60708200D02*
X40056400Y-59889600D01*
X46157800Y-62950500D02*
X49350200Y-59758100D01*
X40875000Y-61200000D02*
X40875000Y-60708200D01*
X39631900Y-62950500D02*
X46157800Y-62950500D01*
X71703700Y-55578800D02*
X72137200Y-56012300D01*
X59290000Y-58861800D02*
X59290000Y-55884300D01*
%TO.N,Net-(D4-A)*%
X30651500Y-35118000D02*
X30651500Y-34009300D01*
X30261900Y-35507600D02*
X30651500Y-35118000D01*
X26199600Y-35507600D02*
X30261900Y-35507600D01*
X30651500Y-34009300D02*
X33223900Y-31436900D01*
X25254000Y-34562000D02*
X26199600Y-35507600D01*
X33554100Y-31436900D02*
X34906000Y-30085000D01*
X33223900Y-31436900D02*
X33554100Y-31436900D01*
%TO.N,~{CLKSTOP}*%
X25109100Y-79659100D02*
X30381100Y-79659100D01*
X32190400Y-77849800D02*
X32190400Y-72906700D01*
X30381100Y-79659100D02*
X32190400Y-77849800D01*
X30643700Y-71360000D02*
X29380000Y-71360000D01*
X32190400Y-72906700D02*
X30643700Y-71360000D01*
X24430000Y-78980000D02*
X25109100Y-79659100D01*
%TO.N,SD_SPI*%
X31721600Y-75770800D02*
X31721600Y-73478400D01*
X38335000Y-37135000D02*
X37894400Y-37135000D01*
X29380000Y-77710000D02*
X29782400Y-77710000D01*
X29782400Y-77710000D02*
X31721600Y-75770800D01*
X43415000Y-59733900D02*
X42982300Y-59301200D01*
X37894400Y-37135000D02*
X37400400Y-37629000D01*
X31408000Y-73164800D02*
X29914800Y-73164800D01*
X31721600Y-73478400D02*
X31408000Y-73164800D01*
X29914800Y-73164800D02*
X29380000Y-72630000D01*
X43415000Y-61200000D02*
X43415000Y-59733900D01*
%TO.N,Net-(U2-Pad3)*%
X29380000Y-75170000D02*
X29380000Y-73900000D01*
%TO.N,~{CLKSTART_DB}*%
X41312900Y-55894000D02*
X42145000Y-55061900D01*
X29882800Y-76440000D02*
X30976100Y-75346700D01*
X30976100Y-75346700D02*
X30976100Y-74259100D01*
X29380000Y-76440000D02*
X29882800Y-76440000D01*
X42145000Y-55061900D02*
X42145000Y-54215000D01*
%TO.N,CLKSTOP*%
X24430000Y-76440000D02*
X24006900Y-76440000D01*
X31814300Y-43663300D02*
X38493800Y-43663300D01*
X38493800Y-43663300D02*
X39605000Y-42552100D01*
X24006900Y-76440000D02*
X22106300Y-74539400D01*
X22106300Y-74539400D02*
X22106300Y-53371300D01*
X22106300Y-53371300D02*
X31814300Y-43663300D01*
X24430000Y-76440000D02*
X24430000Y-77710000D01*
X39605000Y-42552100D02*
X39605000Y-42085000D01*
%TO.N,~{CLK}*%
X80245000Y-50773800D02*
X80245000Y-51170000D01*
X76329600Y-49215100D02*
X78686300Y-49215100D01*
X78686300Y-49215100D02*
X80245000Y-50773800D01*
X25659000Y-75170000D02*
X26664300Y-74164700D01*
X84055000Y-64625000D02*
X84055000Y-66280000D01*
X83723500Y-64293500D02*
X84055000Y-64625000D01*
X24430000Y-75170000D02*
X25659000Y-75170000D01*
%TO.N,Net-(U17-E3)*%
X85325000Y-80881200D02*
X82794800Y-78351000D01*
X79610000Y-77391500D02*
X79610000Y-75311400D01*
X85864200Y-80342000D02*
X85325000Y-80881200D01*
X80749300Y-74172100D02*
X86754600Y-74172100D01*
X85325000Y-90059900D02*
X87230000Y-88154900D01*
X86754600Y-74172100D02*
X88533000Y-72393700D01*
X88533000Y-70376700D02*
X88216800Y-70060500D01*
X86247800Y-70060500D02*
X85325000Y-70983300D01*
X88216800Y-70060500D02*
X86247800Y-70060500D01*
X88214900Y-80342000D02*
X85864200Y-80342000D01*
X85325000Y-91680000D02*
X85325000Y-90059900D01*
X85325000Y-70983300D02*
X85325000Y-71390000D01*
X88533000Y-72393700D02*
X88533000Y-70376700D01*
X82794800Y-78351000D02*
X80569500Y-78351000D01*
X80569500Y-78351000D02*
X79610000Y-77391500D01*
X87230000Y-85386000D02*
X88502900Y-84113100D01*
X79610000Y-75311400D02*
X80749300Y-74172100D01*
X88502900Y-80630000D02*
X88214900Y-80342000D01*
X85325000Y-81650000D02*
X85325000Y-80881200D01*
X88502900Y-84113100D02*
X88502900Y-80630000D01*
X87230000Y-88154900D02*
X87230000Y-85386000D01*
%TO.N,Net-(U7A-Q)*%
X40875000Y-53797600D02*
X41776700Y-52895900D01*
X41776700Y-52895900D02*
X43746600Y-52895900D01*
X40875000Y-54215000D02*
X40875000Y-53797600D01*
X43746600Y-52895900D02*
X44685000Y-53834300D01*
X44685000Y-53834300D02*
X44685000Y-54215000D01*
%TO.N,CS*%
X43415000Y-66150000D02*
X43415000Y-66566700D01*
X31272000Y-63745300D02*
X31737900Y-63279400D01*
X43415000Y-66566700D02*
X42498600Y-67483100D01*
X28125100Y-63745300D02*
X31272000Y-63745300D01*
X24365000Y-60565000D02*
X24944800Y-60565000D01*
X42145000Y-60803000D02*
X42145000Y-61200000D01*
X24944800Y-60565000D02*
X28125100Y-63745300D01*
X35648900Y-59368400D02*
X40710400Y-59368400D01*
X42498600Y-67483100D02*
X35941600Y-67483100D01*
X24365000Y-59295000D02*
X24365000Y-60565000D01*
X31737900Y-63279400D02*
X35648900Y-59368400D01*
X40710400Y-59368400D02*
X42145000Y-60803000D01*
X35941600Y-67483100D02*
X31737900Y-63279400D01*
X43415000Y-66150000D02*
X44685000Y-66150000D01*
%TO.N,Net-(U8-Cp)*%
X97960000Y-75650700D02*
X97816300Y-75507000D01*
X48495000Y-80250000D02*
X53696000Y-80250000D01*
X97960000Y-76440000D02*
X97960000Y-75650700D01*
X53696000Y-80250000D02*
X54364800Y-79581200D01*
%TO.N,Net-(U11-Cp)*%
X92176600Y-81520000D02*
X93010000Y-81520000D01*
X48495000Y-96330000D02*
X52093000Y-96330000D01*
X52093000Y-96330000D02*
X52459300Y-96696300D01*
X91371900Y-82324700D02*
X92176600Y-81520000D01*
%TO.N,~{S4}*%
X61767300Y-50400800D02*
X62546900Y-49621200D01*
X60867600Y-44385600D02*
X61425700Y-44943700D01*
X58254300Y-53481000D02*
X59031100Y-53481000D01*
X84055000Y-83925100D02*
X84055000Y-86600000D01*
X84152000Y-83828100D02*
X84055000Y-83925100D01*
X61425700Y-44943700D02*
X61918800Y-44943700D01*
X59290000Y-51117400D02*
X60006600Y-50400800D01*
X58020100Y-51127600D02*
X58020100Y-53246800D01*
X56115000Y-42858900D02*
X57641700Y-44385600D01*
X62546900Y-49621200D02*
X62664200Y-49738500D01*
X57006600Y-50858600D02*
X57751100Y-50858600D01*
X62743000Y-49425100D02*
X62546900Y-49621200D01*
X59290000Y-53222100D02*
X59290000Y-51117400D01*
X62743000Y-45767900D02*
X62743000Y-49425100D01*
X56115000Y-51750200D02*
X57006600Y-50858600D01*
X56115000Y-42150000D02*
X56115000Y-42858900D01*
X60006600Y-50400800D02*
X61767300Y-50400800D01*
X59031100Y-53481000D02*
X59290000Y-53222100D01*
X58020100Y-53246800D02*
X58254300Y-53481000D01*
X61918800Y-44943700D02*
X62743000Y-45767900D01*
X56115000Y-52180000D02*
X56115000Y-51750200D01*
X57751100Y-50858600D02*
X58020100Y-51127600D01*
X57641700Y-44385600D02*
X60867600Y-44385600D01*
%TO.N,~{S3}*%
X59925000Y-41723000D02*
X60835200Y-40812800D01*
X63389500Y-42652300D02*
X63389500Y-50261900D01*
X62848200Y-50803200D02*
X62800300Y-50851100D01*
X82785000Y-86154800D02*
X82785000Y-86600000D01*
X61550000Y-40812800D02*
X63389500Y-42652300D01*
X60869900Y-50851100D02*
X59925000Y-51796000D01*
X79741100Y-83682900D02*
X80313100Y-83682900D01*
X62800300Y-50851100D02*
X60869900Y-50851100D01*
X59925000Y-42150000D02*
X59925000Y-41723000D01*
X60835200Y-40812800D02*
X61550000Y-40812800D01*
X62848200Y-50803200D02*
X64000000Y-51955000D01*
X59925000Y-51796000D02*
X59925000Y-52180000D01*
X63389500Y-50261900D02*
X62848200Y-50803200D01*
X80313100Y-83682900D02*
X82785000Y-86154800D01*
%TO.N,~{S2}*%
X78418600Y-83882700D02*
X79538300Y-85002400D01*
X79538300Y-85002400D02*
X80394200Y-85002400D01*
X81515000Y-86123200D02*
X81515000Y-86600000D01*
X57385000Y-45928900D02*
X57714300Y-45599600D01*
X75388400Y-83882700D02*
X78418600Y-83882700D01*
X57385000Y-47230000D02*
X57385000Y-45928900D01*
X80394200Y-85002400D02*
X81515000Y-86123200D01*
%TO.N,~{S1}*%
X80245000Y-87074100D02*
X80245000Y-86600000D01*
X76384100Y-87907300D02*
X79411800Y-87907300D01*
X53575000Y-45716100D02*
X53640000Y-45651100D01*
X53575000Y-47230000D02*
X53575000Y-45716100D01*
X79411800Y-87907300D02*
X80245000Y-87074100D01*
X53640000Y-45651100D02*
X53994900Y-45651100D01*
X49960100Y-42101200D02*
X49960100Y-37100400D01*
X52718700Y-36343700D02*
X53575000Y-37200000D01*
X49960100Y-37100400D02*
X50716800Y-36343700D01*
X73714500Y-85237700D02*
X76384100Y-87907300D01*
X50716800Y-36343700D02*
X52718700Y-36343700D01*
X53575000Y-45716100D02*
X49960100Y-42101200D01*
%TO.N,~{CLKSTART}*%
X61830600Y-48258500D02*
X61108700Y-48980400D01*
X48225000Y-47391500D02*
X48225000Y-45940900D01*
X61830600Y-46173300D02*
X61830600Y-48258500D01*
X56730200Y-48980400D02*
X56246900Y-49463700D01*
X60880400Y-45891900D02*
X61549200Y-45891900D01*
X61549200Y-45891900D02*
X61830600Y-46173300D01*
X37065000Y-48872600D02*
X37065000Y-49265000D01*
X50297200Y-49463700D02*
X48225000Y-47391500D01*
X40395900Y-45541700D02*
X37065000Y-48872600D01*
X48225000Y-45940900D02*
X47825800Y-45541700D01*
X47825800Y-45541700D02*
X40395900Y-45541700D01*
X56246900Y-49463700D02*
X50297200Y-49463700D01*
X61108700Y-48980400D02*
X56730200Y-48980400D01*
X59925000Y-47230000D02*
X59925000Y-46847300D01*
X59925000Y-46847300D02*
X60880400Y-45891900D01*
%TO.N,~{SER_RD}*%
X82785000Y-65031600D02*
X82785000Y-66280000D01*
X82137200Y-64383800D02*
X82785000Y-65031600D01*
X56115000Y-36625900D02*
X56115000Y-37200000D01*
X57823900Y-34917000D02*
X56115000Y-36625900D01*
X58909200Y-34917000D02*
X57823900Y-34917000D01*
%TO.N,Net-(U4-Pad12)*%
X59925000Y-36258900D02*
X60812800Y-35371100D01*
X40875000Y-66150000D02*
X39605000Y-66150000D01*
X59925000Y-37200000D02*
X59925000Y-36258900D01*
X42360300Y-63650300D02*
X40875000Y-65135600D01*
X45839600Y-63650300D02*
X42360300Y-63650300D01*
X46255200Y-64065900D02*
X45839600Y-63650300D01*
X40875000Y-65135600D02*
X40875000Y-66150000D01*
%TO.N,~{SDOUT_SET}*%
X61195000Y-42150000D02*
X61206100Y-42150000D01*
X36289000Y-55686300D02*
X29516300Y-55686300D01*
X61206100Y-42150000D02*
X62380100Y-43324000D01*
X29516300Y-55686300D02*
X29315000Y-55485000D01*
%TO.N,~{SDOUT_RESET}*%
X30850300Y-60565000D02*
X29315000Y-60565000D01*
X57385000Y-43063200D02*
X57951400Y-43629600D01*
X57385000Y-42150000D02*
X57385000Y-43063200D01*
X32141500Y-59273800D02*
X30850300Y-60565000D01*
%TO.N,~{SER_WR}*%
X71882700Y-49254200D02*
X72576400Y-49947900D01*
X56115000Y-47230000D02*
X56115000Y-45510500D01*
X56115000Y-45510500D02*
X56341900Y-45283600D01*
X72576400Y-49947900D02*
X77752900Y-49947900D01*
X77752900Y-49947900D02*
X78975000Y-51170000D01*
%TO.N,~{SDCS_SET}*%
X25110200Y-61835000D02*
X26502100Y-63226900D01*
X61367500Y-52007500D02*
X62120600Y-52007500D01*
X61195000Y-52180000D02*
X61367500Y-52007500D01*
X24365000Y-61835000D02*
X25110200Y-61835000D01*
%TO.N,~{SDCS_RESET}*%
X49308400Y-51814900D02*
X51017100Y-53523600D01*
X56424500Y-53523600D02*
X57385000Y-52563100D01*
X24365000Y-56755000D02*
X24921200Y-56755000D01*
X51017100Y-53523600D02*
X56424500Y-53523600D01*
X27466600Y-51814900D02*
X49308400Y-51814900D01*
X27050100Y-54626100D02*
X27050100Y-52231400D01*
X24921200Y-56755000D02*
X27050100Y-54626100D01*
X57385000Y-52563100D02*
X57385000Y-52180000D01*
X27050100Y-52231400D02*
X27466600Y-51814900D01*
%TO.N,Net-(U14-Pad3)*%
X29315000Y-59295000D02*
X29315000Y-58025000D01*
%TO.N,A3*%
X37423600Y-61200000D02*
X37400400Y-61223200D01*
X82785000Y-81650000D02*
X82785000Y-80863500D01*
X39605000Y-61200000D02*
X38335000Y-61200000D01*
X82785000Y-80863500D02*
X82131000Y-80209500D01*
X38335000Y-61200000D02*
X37423600Y-61200000D01*
%TO.N,~{S13}*%
X85325000Y-77535800D02*
X85709700Y-77920500D01*
X85325000Y-76340000D02*
X85325000Y-77535800D01*
%TO.N,ROM16*%
X99329100Y-70091600D02*
X99043800Y-70376900D01*
X98429900Y-66280000D02*
X99329100Y-67179200D01*
X99329100Y-67179200D02*
X99329100Y-70091600D01*
X98025000Y-66280000D02*
X98429900Y-66280000D01*
%TO.N,~{S14}*%
X65005000Y-70531700D02*
X67889600Y-73416300D01*
X71418400Y-73416300D02*
X75171400Y-69663300D01*
X77636100Y-69663300D02*
X78128300Y-70155500D01*
X86595000Y-77143300D02*
X87226200Y-77774500D01*
X75171400Y-69663300D02*
X77636100Y-69663300D01*
X67889600Y-73416300D02*
X71418400Y-73416300D01*
X65005000Y-70090000D02*
X65005000Y-70531700D01*
X86595000Y-76340000D02*
X86595000Y-77143300D01*
%TO.N,RAM16*%
X72736300Y-63484600D02*
X72736300Y-55974500D01*
X53575000Y-56493300D02*
X53575000Y-56990000D01*
X89873300Y-68627100D02*
X77878800Y-68627100D01*
X72736300Y-55974500D02*
X71875600Y-55113800D01*
X54954500Y-55113800D02*
X53575000Y-56493300D01*
X77878800Y-68627100D02*
X72736300Y-63484600D01*
X93075000Y-67550000D02*
X90950400Y-67550000D01*
X71875600Y-55113800D02*
X54954500Y-55113800D01*
X90950400Y-67550000D02*
X89873300Y-68627100D01*
%TO.N,~{S12}*%
X85372100Y-78669400D02*
X84055000Y-77352300D01*
X93010000Y-80250000D02*
X92399900Y-80250000D01*
X92399900Y-80250000D02*
X90819300Y-78669400D01*
X84055000Y-77352300D02*
X84055000Y-76340000D01*
X90819300Y-78669400D02*
X85372100Y-78669400D01*
%TO.N,~{S11}*%
X88306800Y-79160000D02*
X90372000Y-81225200D01*
X94356600Y-83425000D02*
X96076500Y-85144900D01*
X100304700Y-84127900D02*
X100304700Y-83336700D01*
X85143600Y-79160000D02*
X88306800Y-79160000D01*
X100304700Y-83336700D02*
X98488000Y-81520000D01*
X99287700Y-85144900D02*
X100304700Y-84127900D01*
X96076500Y-85144900D02*
X99287700Y-85144900D01*
X90372000Y-81225200D02*
X90372000Y-82396800D01*
X90372000Y-82396800D02*
X91400200Y-83425000D01*
X82785000Y-76340000D02*
X82785000Y-76801400D01*
X82785000Y-76801400D02*
X85143600Y-79160000D01*
X91400200Y-83425000D02*
X94356600Y-83425000D01*
X98488000Y-81520000D02*
X97960000Y-81520000D01*
%TO.N,~{S10}*%
X88955200Y-81616900D02*
X88955200Y-80445400D01*
X88955200Y-80445400D02*
X88265400Y-79755600D01*
X91398300Y-84060000D02*
X88955200Y-81616900D01*
X93010000Y-84060000D02*
X91398300Y-84060000D01*
X82669800Y-77900700D02*
X81515000Y-76745900D01*
X88265400Y-79755600D02*
X84836300Y-79755600D01*
X84836300Y-79755600D02*
X82981400Y-77900700D01*
X82981400Y-77900700D02*
X82669800Y-77900700D01*
X81515000Y-76745900D02*
X81515000Y-76340000D01*
%TO.N,~{S9}*%
X88590700Y-74991200D02*
X81208700Y-74991200D01*
X94038600Y-78345000D02*
X91944500Y-78345000D01*
X95839700Y-76543900D02*
X94038600Y-78345000D01*
X98030000Y-72835700D02*
X96126500Y-72835700D01*
X98354700Y-77710000D02*
X99300800Y-76763900D01*
X91944500Y-78345000D02*
X88590700Y-74991200D01*
X96126500Y-72835700D02*
X95839700Y-73122500D01*
X80245000Y-75954900D02*
X80245000Y-76340000D01*
X81208700Y-74991200D02*
X80245000Y-75954900D01*
X95839700Y-73122500D02*
X95839700Y-76543900D01*
X99300800Y-74106500D02*
X98030000Y-72835700D01*
X99300800Y-76763900D02*
X99300800Y-74106500D01*
X97960000Y-77710000D02*
X98354700Y-77710000D01*
%TO.N,Net-(U18A-C)*%
X98019900Y-80309900D02*
X97960000Y-80250000D01*
X100580000Y-65320100D02*
X100580000Y-79474200D01*
X100580000Y-79474200D02*
X99744300Y-80309900D01*
X99744300Y-80309900D02*
X98019900Y-80309900D01*
X98999900Y-63740000D02*
X100580000Y-65320100D01*
X98025000Y-63740000D02*
X98999900Y-63740000D01*
%TO.N,Net-(U18B-C)*%
X93458300Y-65010000D02*
X93075000Y-65010000D01*
X94389700Y-65941400D02*
X93458300Y-65010000D01*
X91708700Y-76815400D02*
X91708700Y-73512200D01*
X92603300Y-77710000D02*
X91708700Y-76815400D01*
X93010000Y-77710000D02*
X92603300Y-77710000D01*
X94389700Y-70831200D02*
X94389700Y-65941400D01*
X91708700Y-73512200D02*
X94389700Y-70831200D01*
%TO.N,Net-(U3A-Q)*%
X85325000Y-41137000D02*
X85325000Y-39737100D01*
X78111700Y-38341500D02*
X75626600Y-40826600D01*
X27413000Y-36562000D02*
X27413000Y-40626000D01*
X27415300Y-36562000D02*
X27413000Y-36562000D01*
X27413000Y-40626000D02*
X29445000Y-42658000D01*
X29445000Y-42658000D02*
X29445000Y-44436000D01*
X83929400Y-38341500D02*
X78111700Y-38341500D01*
X85325000Y-39737100D02*
X83929400Y-38341500D01*
%TO.N,Net-(U3B-Q)*%
X25254000Y-36562000D02*
X25254000Y-39737000D01*
X27667000Y-42150000D02*
X27667000Y-44436000D01*
X85206400Y-47881800D02*
X70903800Y-47881800D01*
X86595000Y-46087000D02*
X86595000Y-46493200D01*
X86595000Y-46493200D02*
X85206400Y-47881800D01*
X70903800Y-47881800D02*
X69215800Y-46193800D01*
X25254000Y-39737000D02*
X27667000Y-42150000D01*
%TO.N,LED_SEL*%
X83157700Y-47406500D02*
X84055000Y-46509200D01*
X78355100Y-38791900D02*
X80869800Y-38791900D01*
X84055000Y-46509200D02*
X84055000Y-46087000D01*
X76450700Y-46261600D02*
X76420700Y-46231600D01*
X76420700Y-46231600D02*
X76420700Y-40726300D01*
X77595600Y-47406500D02*
X83157700Y-47406500D01*
X42145000Y-66150000D02*
X42145000Y-64910700D01*
X42145000Y-64910700D02*
X42586600Y-64469100D01*
X82785000Y-40707100D02*
X82785000Y-41137000D01*
X76450700Y-46261600D02*
X77595600Y-47406500D01*
X80869800Y-38791900D02*
X82785000Y-40707100D01*
X76420700Y-40726300D02*
X78355100Y-38791900D01*
%TO.N,~{S5}*%
X85385200Y-84926200D02*
X85325000Y-84986400D01*
X85325000Y-84986400D02*
X85325000Y-86600000D01*
X57385000Y-37200000D02*
X57385000Y-36381600D01*
X57385000Y-36381600D02*
X58043600Y-35723000D01*
%TO.N,+3V3*%
X87917653Y-25017958D02*
X87917653Y-24217347D01*
X73905000Y-24230000D02*
X74030000Y-24105000D01*
X70655000Y-30917500D02*
X70467500Y-30730000D01*
X75655000Y-22480000D02*
X78180000Y-22480000D01*
X74030000Y-24105000D02*
X75655000Y-22480000D01*
X65505000Y-24230000D02*
X71805000Y-24230000D01*
X71805000Y-24230000D02*
X73905000Y-24230000D01*
X70655000Y-32730000D02*
X70655000Y-30917500D01*
X72655000Y-24230000D02*
X71805000Y-24230000D01*
X90903301Y-26129999D02*
X89029694Y-26129999D01*
X74030000Y-29855000D02*
X73155000Y-30730000D01*
X89029694Y-26129999D02*
X87917653Y-25017958D01*
X74030000Y-24105000D02*
X74030000Y-29855000D01*
X73155000Y-30730000D02*
X70467500Y-30730000D01*
%TO.N,DI_LLS*%
X85317347Y-23780000D02*
X85392347Y-23855000D01*
X90903301Y-27230000D02*
X88905000Y-27230000D01*
X83905000Y-23780000D02*
X85317347Y-23780000D01*
%TO.N,SCK_LLS*%
X90903301Y-25029999D02*
X89355001Y-25029999D01*
X85361589Y-25730000D02*
X85418023Y-25786434D01*
X83905000Y-25730000D02*
X85361589Y-25730000D01*
X89355001Y-25029999D02*
X89155000Y-25230000D01*
%TO.N,D0_LLS*%
X89754998Y-22829998D02*
X90903301Y-22829998D01*
X89655000Y-22730000D02*
X89754998Y-22829998D01*
X87155000Y-22730000D02*
X89655000Y-22730000D01*
%TO.N,CS_LLS*%
X78180000Y-26380000D02*
X76505000Y-26380000D01*
X76505000Y-26380000D02*
X76405000Y-26480000D01*
X89005000Y-28330000D02*
X88905000Y-28230000D01*
X90903301Y-28330000D02*
X89005000Y-28330000D01*
%TO.N,Net-(R8-Pad2)*%
X79358846Y-23780000D02*
X79433846Y-23855000D01*
X87155000Y-20730000D02*
X85655000Y-20730000D01*
X78180000Y-23780000D02*
X79358846Y-23780000D01*
%TO.N,Net-(R9-Pad2)*%
X83905000Y-23130000D02*
X85805000Y-23130000D01*
X87405000Y-24730000D02*
X87405000Y-29730000D01*
X85805000Y-23130000D02*
X87405000Y-24730000D01*
%TO.N,Net-(R10-Pad2)*%
X85155000Y-24730000D02*
X85655000Y-24730000D01*
X83923566Y-25061434D02*
X84823566Y-25061434D01*
X86155000Y-26730000D02*
X85405000Y-26730000D01*
X84823566Y-25061434D02*
X85155000Y-24730000D01*
X83930000Y-28205000D02*
X83930000Y-30505000D01*
X83905000Y-25080000D02*
X83923566Y-25061434D01*
X86655000Y-26230000D02*
X86155000Y-26730000D01*
X86655000Y-25730000D02*
X86655000Y-26230000D01*
X83930000Y-30505000D02*
X85155000Y-31730000D01*
X85405000Y-26730000D02*
X83930000Y-28205000D01*
X85655000Y-24730000D02*
X86655000Y-25730000D01*
%TO.N,Net-(R11-Pad2)*%
X82905000Y-28730000D02*
X79905000Y-25730000D01*
X79905000Y-25730000D02*
X78180000Y-25730000D01*
X82905000Y-29730000D02*
X82905000Y-28730000D01*
%TD*%
M02*
