M48
; DRILL file {KiCad 7.0.10} date Sun Mar 10 15:16:23 2024
; FORMAT={-:-/ absolute / inch / decimal}
; #@! TF.CreationDate,2024-03-10T15:16:23+01:00
; #@! TF.GenerationSoftware,Kicad,Pcbnew,7.0.10
; #@! TF.FileFunction,Plated,1,4,PTH
FMAT,2
INCH
; #@! TA.AperFunction,Plated,PTH,ViaDrill
T1C0.0157
; #@! TA.AperFunction,Plated,PTH,ComponentDrill
T2C0.0315
; #@! TA.AperFunction,Plated,PTH,ComponentDrill
T3C0.0354
; #@! TA.AperFunction,Plated,PTH,ComponentDrill
T4C0.0394
%
G90
G05
T1
X0.9493Y-2.0844
X0.9643Y-2.7094
X1.0261Y-2.4184
X1.0478Y-2.3045
X1.0498Y-2.9199
X1.1593Y-2.0844
X1.1643Y-2.7094
X1.1834Y-1.2545
X1.2188Y-2.9532
X1.2222Y-2.3208
X1.228Y-3.0449
X1.2389Y-2.1541
X1.2493Y-3.9244
X1.2993Y-2.0894
X1.3043Y-2.1694
X1.3143Y-1.4394
X1.3399Y-1.5609
X1.3569Y-1.4917
X1.3593Y-1.9344
X1.3593Y-2.8544
X1.3593Y-3.0494
X1.3593Y-3.4994
X1.3593Y-3.6994
X1.4093Y-1.4494
X1.4093Y-1.6494
X1.4093Y-2.3994
X1.4093Y-2.5994
X1.4228Y-2.8128
X1.4228Y-3.4238
X1.4341Y-3.4863
X1.4557Y-2.4192
X1.4634Y-2.363
X1.4725Y-1.4801
X1.5044Y-2.7278
X1.5593Y-1.8775
X1.5684Y-2.5244
X1.6091Y-2.7288
X1.6192Y-3.3614
X1.6398Y-3.5892
X1.6457Y-2.2016
X1.6555Y-2.3444
X1.6578Y-2.4989
X1.6621Y-2.7082
X1.6948Y-3.2324
X1.7093Y-2.1965
X1.7168Y-3.8756
X1.7177Y-3.597
X1.7783Y-3.8949
X1.781Y-2.494
X1.783Y-2.7342
X1.7995Y-2.346
X1.8093Y-1.3997
X1.8306Y-2.7177
X1.8306Y-3.3646
X1.8322Y-1.5993
X1.8343Y-3.9026
X1.8746Y-3.3616
X1.9593Y-2.4194
X1.9593Y-2.6244
X1.9843Y-2.3194
X1.9951Y-3.263
X2.0093Y-1.4644
X2.0093Y-1.6594
X2.0093Y-1.8494
X2.0093Y-2.0494
X2.0245Y-3.2211
X2.0258Y-1.7101
X2.0732Y-1.4801
X2.0732Y-1.8441
X2.0754Y-3.0262
X2.1116Y-2.9281
X2.1242Y-3.82
X2.1494Y-2.1764
X2.1607Y-2.3526
X2.1904Y-2.8238
X2.2021Y-1.7972
X2.215Y-2.9228
X2.2156Y-2.9857
X2.2206Y-2.8743
X2.2221Y-3.101
X2.2569Y-1.4014
X2.2569Y-1.7971
X2.2582Y-2.8255
X2.2654Y-2.1771
X2.2721Y-2.9037
X2.2822Y-2.341
X2.2939Y-1.982
X2.3245Y-2.3389
X2.3587Y-3.0577
X2.3693Y-2.9344
X2.379Y-2.3484
X2.3797Y-2.3081
X2.3866Y-2.999
X2.3867Y-2.4057
X2.3994Y-3.2922
X2.4007Y-1.7765
X2.4074Y-1.5912
X2.4278Y-1.9754
X2.4364Y-3.4802
X2.4377Y-2.8404
X2.4452Y-2.107
X2.4455Y-2.0458
X2.4601Y-3.9168
X2.5497Y-1.7981
X2.5593Y-2.9344
X2.5921Y-2.8285
X2.6145Y-2.3578
X2.6244Y-2.4128
X2.6875Y-2.5531
X2.7054Y-2.4192
X2.709Y-2.8473
X2.7242Y-2.3584
X2.7582Y-4.0055
X2.7779Y-2.5373
X2.829Y-2.6931
X2.8643Y-1.9994
X2.8844Y-3.8047
X2.9076Y-2.6374
X2.9094Y-2.8542
X2.9793Y-4.0049
X3.0093Y-1.9994
X3.0093Y-2.1994
X3.0093Y-2.3994
X3.0093Y-2.5994
X3.0093Y-2.7944
X3.0093Y-2.9944
X3.0093Y-3.1994
X3.0093Y-3.3994
X3.0093Y-3.5994
X3.0093Y-3.7994
X3.0342Y-4.0091
X3.0524Y-3.6228
X3.0556Y-3.2947
X3.0556Y-2.8161
X3.0569Y-3.1965
X3.0607Y-2.426
X3.0639Y-1.9606
X3.0657Y-2.7678
X3.0693Y-1.6094
X3.0693Y-1.8144
X3.1156Y-3.1519
X3.1326Y-3.2947
X3.1348Y-1.9586
X3.1479Y-1.7258
X3.1581Y-2.3252
X3.1593Y-3.7422
X3.1664Y-3.329
X3.1752Y-3.0926
X3.1794Y-2.748
X3.2027Y-2.3365
X3.2093Y-3.5471
X3.215Y-2.5408
X3.2198Y-1.5569
X3.2209Y-3.0728
X3.228Y-1.9518
X3.2333Y-3.1581
X3.2649Y-2.3136
X3.2768Y-3.3114
X3.2815Y-2.3532
X3.2829Y-1.9579
X3.2843Y-3.86
X3.2862Y-2.752
X3.2896Y-1.8885
X3.3062Y-3.1512
X3.3093Y-1.5571
X3.3225Y-2.3512
X3.3265Y-1.9516
X3.3412Y-1.7095
X3.3472Y-2.2721
X3.3593Y-1.8767
X3.3636Y-1.5555
X3.3645Y-3.3209
X3.387Y-2.7504
X3.4093Y-2.1473
X3.4093Y-2.5473
X3.4093Y-3.8674
X3.4201Y-2.3519
X3.4335Y-3.1523
X3.5544Y-2.4945
X3.5953Y-3.2361
X3.5976Y-2.6241
X3.6393Y-2.8094
X3.6443Y-3.9094
X3.6693Y-2.3094
X3.6693Y-2.9094
X3.7242Y-2.6312
X3.7517Y-3.2066
X3.76Y-3.0383
X3.8492Y-2.9628
X3.8593Y-2.3094
X3.8693Y-2.9094
X3.9157Y-2.5833
X3.9192Y-3.0726
X3.9195Y-3.1185
X3.9219Y-2.4144
T2
X1.6593Y-0.9594
X1.6593Y-1.2594
X2.2093Y-3.2094
X2.2093Y-3.3094
X2.2093Y-3.4094
X2.2093Y-3.5094
X2.2093Y-3.6094
X2.2593Y-0.9594
X2.2593Y-1.2594
X2.3093Y-3.1094
X2.3093Y-3.2094
X2.3093Y-3.3094
X2.3093Y-3.4094
X2.3093Y-3.5094
X2.3093Y-3.6094
X2.3093Y-3.7094
X2.4093Y-3.1094
X2.4093Y-3.2094
X2.4093Y-3.6094
X2.4093Y-3.7094
X2.5093Y-3.1094
X2.5093Y-3.2094
X2.5093Y-3.6094
X2.5093Y-3.7094
X2.6093Y-3.1094
X2.6093Y-3.2094
X2.6093Y-3.3094
X2.6093Y-3.4094
X2.6093Y-3.5094
X2.6093Y-3.6094
X2.6093Y-3.7094
X2.7093Y-3.2094
X2.7093Y-3.3094
X2.7093Y-3.4094
X2.7093Y-3.5094
X2.7093Y-3.6094
T3
X0.9743Y-1.1844
X0.9748Y-0.875
X1.0743Y-1.1844
X1.0748Y-0.875
X1.2743Y-1.1844
X1.2748Y-0.875
X1.3743Y-1.1844
X1.3748Y-0.875
T4
X2.6993Y-0.7744
X2.6993Y-0.8744
X2.6993Y-0.9744
X2.6993Y-1.0744
X2.6993Y-1.1744
X2.6993Y-1.2744
M30
