%TF.GenerationSoftware,KiCad,Pcbnew,8.0.2*%
%TF.CreationDate,2025-01-02T22:32:26+01:00*%
%TF.ProjectId,port2-sdcard-interface,706f7274-322d-4736-9463-6172642d696e,rev6*%
%TF.SameCoordinates,Original*%
%TF.FileFunction,Paste,Bot*%
%TF.FilePolarity,Positive*%
%FSLAX46Y46*%
G04 Gerber Fmt 4.6, Leading zero omitted, Abs format (unit mm)*
G04 Created by KiCad (PCBNEW 8.0.2) date 2025-01-02 22:32:26*
%MOMM*%
%LPD*%
G01*
G04 APERTURE LIST*
G04 Aperture macros list*
%AMRoundRect*
0 Rectangle with rounded corners*
0 $1 Rounding radius*
0 $2 $3 $4 $5 $6 $7 $8 $9 X,Y pos of 4 corners*
0 Add a 4 corners polygon primitive as box body*
4,1,4,$2,$3,$4,$5,$6,$7,$8,$9,$2,$3,0*
0 Add four circle primitives for the rounded corners*
1,1,$1+$1,$2,$3*
1,1,$1+$1,$4,$5*
1,1,$1+$1,$6,$7*
1,1,$1+$1,$8,$9*
0 Add four rect primitives between the rounded corners*
20,1,$1+$1,$2,$3,$4,$5,0*
20,1,$1+$1,$4,$5,$6,$7,0*
20,1,$1+$1,$6,$7,$8,$9,0*
20,1,$1+$1,$8,$9,$2,$3,0*%
G04 Aperture macros list end*
%ADD10RoundRect,0.250000X0.475000X-0.337500X0.475000X0.337500X-0.475000X0.337500X-0.475000X-0.337500X0*%
%ADD11RoundRect,0.150000X-0.150000X0.875000X-0.150000X-0.875000X0.150000X-0.875000X0.150000X0.875000X0*%
%ADD12RoundRect,0.250000X-0.337500X-0.475000X0.337500X-0.475000X0.337500X0.475000X-0.337500X0.475000X0*%
%ADD13RoundRect,0.150000X-0.150000X0.825000X-0.150000X-0.825000X0.150000X-0.825000X0.150000X0.825000X0*%
%ADD14RoundRect,0.250000X0.450000X-0.350000X0.450000X0.350000X-0.450000X0.350000X-0.450000X-0.350000X0*%
%ADD15RoundRect,0.150000X0.825000X0.150000X-0.825000X0.150000X-0.825000X-0.150000X0.825000X-0.150000X0*%
%ADD16RoundRect,0.250000X-0.350000X-0.450000X0.350000X-0.450000X0.350000X0.450000X-0.350000X0.450000X0*%
%ADD17RoundRect,0.250000X0.412500X0.650000X-0.412500X0.650000X-0.412500X-0.650000X0.412500X-0.650000X0*%
%ADD18RoundRect,0.375000X0.625000X0.375000X-0.625000X0.375000X-0.625000X-0.375000X0.625000X-0.375000X0*%
%ADD19RoundRect,0.500000X0.500000X1.400000X-0.500000X1.400000X-0.500000X-1.400000X0.500000X-1.400000X0*%
%ADD20RoundRect,0.250000X-0.450000X0.350000X-0.450000X-0.350000X0.450000X-0.350000X0.450000X0.350000X0*%
%ADD21R,2.000000X10.000000*%
%ADD22RoundRect,0.100000X0.637500X0.100000X-0.637500X0.100000X-0.637500X-0.100000X0.637500X-0.100000X0*%
%ADD23R,1.600200X0.711200*%
%ADD24R,2.209800X1.193800*%
%ADD25R,1.800000X1.193800*%
%ADD26R,1.498600X1.600200*%
%ADD27RoundRect,0.250000X0.337500X0.475000X-0.337500X0.475000X-0.337500X-0.475000X0.337500X-0.475000X0*%
G04 APERTURE END LIST*
D10*
%TO.C,C4*%
X35795000Y-64545000D03*
X35795000Y-62470000D03*
%TD*%
D11*
%TO.C,U1*%
X52305000Y-56990000D03*
X53575000Y-56990000D03*
X54845000Y-56990000D03*
X56115000Y-56990000D03*
X57385000Y-56990000D03*
X58655000Y-56990000D03*
X59925000Y-56990000D03*
X61195000Y-56990000D03*
X62465000Y-56990000D03*
X63735000Y-56990000D03*
X65005000Y-56990000D03*
X66275000Y-56990000D03*
X67545000Y-56990000D03*
X68815000Y-56990000D03*
X70085000Y-56990000D03*
X71355000Y-56990000D03*
X71355000Y-70090000D03*
X70085000Y-70090000D03*
X68815000Y-70090000D03*
X67545000Y-70090000D03*
X66275000Y-70090000D03*
X65005000Y-70090000D03*
X63735000Y-70090000D03*
X62465000Y-70090000D03*
X61195000Y-70090000D03*
X59925000Y-70090000D03*
X58655000Y-70090000D03*
X57385000Y-70090000D03*
X56115000Y-70090000D03*
X54845000Y-70090000D03*
X53575000Y-70090000D03*
X52305000Y-70090000D03*
%TD*%
D12*
%TO.C,C15*%
X61660000Y-74535000D03*
X63735000Y-74535000D03*
%TD*%
D10*
%TO.C,C11*%
X34525000Y-92485000D03*
X34525000Y-90410000D03*
%TD*%
D13*
%TO.C,U13*%
X78975000Y-61330000D03*
X80245000Y-61330000D03*
X81515000Y-61330000D03*
X82785000Y-61330000D03*
X84055000Y-61330000D03*
X85325000Y-61330000D03*
X86595000Y-61330000D03*
X87865000Y-61330000D03*
X87865000Y-66280000D03*
X86595000Y-66280000D03*
X85325000Y-66280000D03*
X84055000Y-66280000D03*
X82785000Y-66280000D03*
X81515000Y-66280000D03*
X80245000Y-66280000D03*
X78975000Y-66280000D03*
%TD*%
D12*
%TO.C,C14*%
X25889000Y-52945000D03*
X27964000Y-52945000D03*
%TD*%
D14*
%TO.C,R6*%
X27413000Y-36562000D03*
X27413000Y-34562000D03*
%TD*%
D13*
%TO.C,U20*%
X78975000Y-91680000D03*
X80245000Y-91680000D03*
X81515000Y-91680000D03*
X82785000Y-91680000D03*
X84055000Y-91680000D03*
X85325000Y-91680000D03*
X86595000Y-91680000D03*
X87865000Y-91680000D03*
X87865000Y-96630000D03*
X86595000Y-96630000D03*
X85325000Y-96630000D03*
X84055000Y-96630000D03*
X82785000Y-96630000D03*
X81515000Y-96630000D03*
X80245000Y-96630000D03*
X78975000Y-96630000D03*
%TD*%
D10*
%TO.C,C16*%
X49765000Y-65053000D03*
X49765000Y-62978000D03*
%TD*%
D13*
%TO.C,U3*%
X80245000Y-41137000D03*
X81515000Y-41137000D03*
X82785000Y-41137000D03*
X84055000Y-41137000D03*
X85325000Y-41137000D03*
X86595000Y-41137000D03*
X87865000Y-41137000D03*
X87865000Y-46087000D03*
X86595000Y-46087000D03*
X85325000Y-46087000D03*
X84055000Y-46087000D03*
X82785000Y-46087000D03*
X81515000Y-46087000D03*
X80245000Y-46087000D03*
%TD*%
D15*
%TO.C,U18*%
X98025000Y-61200000D03*
X98025000Y-62470000D03*
X98025000Y-63740000D03*
X98025000Y-65010000D03*
X98025000Y-66280000D03*
X98025000Y-67550000D03*
X98025000Y-68820000D03*
X93075000Y-68820000D03*
X93075000Y-67550000D03*
X93075000Y-66280000D03*
X93075000Y-65010000D03*
X93075000Y-63740000D03*
X93075000Y-62470000D03*
X93075000Y-61200000D03*
%TD*%
D13*
%TO.C,U6*%
X78975000Y-81650000D03*
X80245000Y-81650000D03*
X81515000Y-81650000D03*
X82785000Y-81650000D03*
X84055000Y-81650000D03*
X85325000Y-81650000D03*
X86595000Y-81650000D03*
X87865000Y-81650000D03*
X87865000Y-86600000D03*
X86595000Y-86600000D03*
X85325000Y-86600000D03*
X84055000Y-86600000D03*
X82785000Y-86600000D03*
X81515000Y-86600000D03*
X80245000Y-86600000D03*
X78975000Y-86600000D03*
%TD*%
D10*
%TO.C,C9*%
X51035000Y-40647500D03*
X51035000Y-38572500D03*
%TD*%
D16*
%TO.C,R4*%
X65259000Y-52564000D03*
X67259000Y-52564000D03*
%TD*%
D10*
%TO.C,C6*%
X76435000Y-84865000D03*
X76435000Y-82790000D03*
%TD*%
D14*
%TO.C,R8*%
X87155000Y-22730000D03*
X87155000Y-20730000D03*
%TD*%
D11*
%TO.C,U11*%
X37065000Y-87030000D03*
X38335000Y-87030000D03*
X39605000Y-87030000D03*
X40875000Y-87030000D03*
X42145000Y-87030000D03*
X43415000Y-87030000D03*
X44685000Y-87030000D03*
X45955000Y-87030000D03*
X47225000Y-87030000D03*
X48495000Y-87030000D03*
X48495000Y-96330000D03*
X47225000Y-96330000D03*
X45955000Y-96330000D03*
X44685000Y-96330000D03*
X43415000Y-96330000D03*
X42145000Y-96330000D03*
X40875000Y-96330000D03*
X39605000Y-96330000D03*
X38335000Y-96330000D03*
X37065000Y-96330000D03*
%TD*%
D17*
%TO.C,C23*%
X70467500Y-30730000D03*
X67342500Y-30730000D03*
%TD*%
D14*
%TO.C,R7*%
X25254000Y-36562000D03*
X25254000Y-34562000D03*
%TD*%
%TO.C,R9*%
X87405000Y-31730000D03*
X87405000Y-29730000D03*
%TD*%
D18*
%TO.C,U16*%
X71805000Y-21930000D03*
X71805000Y-24230000D03*
D19*
X65505000Y-24230000D03*
D18*
X71805000Y-26530000D03*
%TD*%
D13*
%TO.C,U12*%
X78975000Y-51170000D03*
X80245000Y-51170000D03*
X81515000Y-51170000D03*
X82785000Y-51170000D03*
X84055000Y-51170000D03*
X85325000Y-51170000D03*
X86595000Y-51170000D03*
X87865000Y-51170000D03*
X87865000Y-56120000D03*
X86595000Y-56120000D03*
X85325000Y-56120000D03*
X84055000Y-56120000D03*
X82785000Y-56120000D03*
X81515000Y-56120000D03*
X80245000Y-56120000D03*
X78975000Y-56120000D03*
%TD*%
D11*
%TO.C,U8*%
X37065000Y-70950000D03*
X38335000Y-70950000D03*
X39605000Y-70950000D03*
X40875000Y-70950000D03*
X42145000Y-70950000D03*
X43415000Y-70950000D03*
X44685000Y-70950000D03*
X45955000Y-70950000D03*
X47225000Y-70950000D03*
X48495000Y-70950000D03*
X48495000Y-80250000D03*
X47225000Y-80250000D03*
X45955000Y-80250000D03*
X44685000Y-80250000D03*
X43415000Y-80250000D03*
X42145000Y-80250000D03*
X40875000Y-80250000D03*
X39605000Y-80250000D03*
X38335000Y-80250000D03*
X37065000Y-80250000D03*
%TD*%
D16*
%TO.C,R5*%
X47225000Y-46595000D03*
X49225000Y-46595000D03*
%TD*%
D13*
%TO.C,U5*%
X38335000Y-37135000D03*
X39605000Y-37135000D03*
X40875000Y-37135000D03*
X42145000Y-37135000D03*
X43415000Y-37135000D03*
X44685000Y-37135000D03*
X45955000Y-37135000D03*
X47225000Y-37135000D03*
X47225000Y-42085000D03*
X45955000Y-42085000D03*
X44685000Y-42085000D03*
X43415000Y-42085000D03*
X42145000Y-42085000D03*
X40875000Y-42085000D03*
X39605000Y-42085000D03*
X38335000Y-42085000D03*
%TD*%
D10*
%TO.C,C13*%
X76435000Y-64545000D03*
X76435000Y-62470000D03*
%TD*%
D20*
%TO.C,R1*%
X31731000Y-34562000D03*
X31731000Y-36562000D03*
%TD*%
D13*
%TO.C,U4*%
X38335000Y-61200000D03*
X39605000Y-61200000D03*
X40875000Y-61200000D03*
X42145000Y-61200000D03*
X43415000Y-61200000D03*
X44685000Y-61200000D03*
X45955000Y-61200000D03*
X45955000Y-66150000D03*
X44685000Y-66150000D03*
X43415000Y-66150000D03*
X42145000Y-66150000D03*
X40875000Y-66150000D03*
X39605000Y-66150000D03*
X38335000Y-66150000D03*
%TD*%
D15*
%TO.C,U19*%
X97960000Y-76440000D03*
X97960000Y-77710000D03*
X97960000Y-78980000D03*
X97960000Y-80250000D03*
X97960000Y-81520000D03*
X97960000Y-82790000D03*
X97960000Y-84060000D03*
X93010000Y-84060000D03*
X93010000Y-82790000D03*
X93010000Y-81520000D03*
X93010000Y-80250000D03*
X93010000Y-78980000D03*
X93010000Y-77710000D03*
X93010000Y-76440000D03*
%TD*%
D20*
%TO.C,R2*%
X29572000Y-34562000D03*
X29572000Y-36562000D03*
%TD*%
D10*
%TO.C,C17*%
X76435000Y-74570000D03*
X76435000Y-72495000D03*
%TD*%
D13*
%TO.C,U10*%
X53575000Y-47230000D03*
X54845000Y-47230000D03*
X56115000Y-47230000D03*
X57385000Y-47230000D03*
X58655000Y-47230000D03*
X59925000Y-47230000D03*
X61195000Y-47230000D03*
X61195000Y-52180000D03*
X59925000Y-52180000D03*
X58655000Y-52180000D03*
X57385000Y-52180000D03*
X56115000Y-52180000D03*
X54845000Y-52180000D03*
X53575000Y-52180000D03*
%TD*%
D10*
%TO.C,C10*%
X51035000Y-50575000D03*
X51035000Y-48500000D03*
%TD*%
%TO.C,C1*%
X76435000Y-95025000D03*
X76435000Y-92950000D03*
%TD*%
D21*
%TO.C,J2*%
X33875000Y-112776000D03*
X37835000Y-112776000D03*
X41795000Y-112776000D03*
X45755000Y-112776000D03*
X49715000Y-112776000D03*
X53675000Y-112776000D03*
X57635000Y-112776000D03*
X61595000Y-112776000D03*
X65555000Y-112776000D03*
X69515000Y-112776000D03*
X73475000Y-112776000D03*
X77435000Y-112776000D03*
X89315000Y-112776000D03*
%TD*%
D10*
%TO.C,C8*%
X34525000Y-75975000D03*
X34525000Y-73900000D03*
%TD*%
D12*
%TO.C,C19*%
X94680000Y-73900000D03*
X96755000Y-73900000D03*
%TD*%
D13*
%TO.C,U17*%
X78975000Y-71390000D03*
X80245000Y-71390000D03*
X81515000Y-71390000D03*
X82785000Y-71390000D03*
X84055000Y-71390000D03*
X85325000Y-71390000D03*
X86595000Y-71390000D03*
X87865000Y-71390000D03*
X87865000Y-76340000D03*
X86595000Y-76340000D03*
X85325000Y-76340000D03*
X84055000Y-76340000D03*
X82785000Y-76340000D03*
X81515000Y-76340000D03*
X80245000Y-76340000D03*
X78975000Y-76340000D03*
%TD*%
D15*
%TO.C,U14*%
X29315000Y-55485000D03*
X29315000Y-56755000D03*
X29315000Y-58025000D03*
X29315000Y-59295000D03*
X29315000Y-60565000D03*
X29315000Y-61835000D03*
X29315000Y-63105000D03*
X24365000Y-63105000D03*
X24365000Y-61835000D03*
X24365000Y-60565000D03*
X24365000Y-59295000D03*
X24365000Y-58025000D03*
X24365000Y-56755000D03*
X24365000Y-55485000D03*
%TD*%
D10*
%TO.C,C5*%
X35795000Y-40415000D03*
X35795000Y-38340000D03*
%TD*%
D22*
%TO.C,U21*%
X83905000Y-22480000D03*
X83905000Y-23130000D03*
X83905000Y-23780000D03*
X83905000Y-24430000D03*
X83905000Y-25080000D03*
X83905000Y-25730000D03*
X83905000Y-26380000D03*
X78180000Y-26380000D03*
X78180000Y-25730000D03*
X78180000Y-25080000D03*
X78180000Y-24430000D03*
X78180000Y-23780000D03*
X78180000Y-23130000D03*
X78180000Y-22480000D03*
%TD*%
D12*
%TO.C,C21*%
X42610000Y-46595000D03*
X44685000Y-46595000D03*
%TD*%
D20*
%TO.C,R10*%
X85155000Y-29730000D03*
X85155000Y-31730000D03*
%TD*%
D12*
%TO.C,C18*%
X94680000Y-58660000D03*
X96755000Y-58660000D03*
%TD*%
D16*
%TO.C,R3*%
X33160000Y-56755000D03*
X35160000Y-56755000D03*
%TD*%
D10*
%TO.C,C7*%
X34525000Y-52734000D03*
X34525000Y-50659000D03*
%TD*%
D23*
%TO.C,J1*%
X90903301Y-29430001D03*
X90903301Y-28330000D03*
X90903301Y-27230000D03*
X90903301Y-26129999D03*
X90903301Y-25029999D03*
X90903301Y-23929999D03*
X90903301Y-22829998D03*
X90903301Y-21729998D03*
D24*
X101731854Y-19430008D03*
X101731854Y-34930008D03*
D25*
X92104696Y-19433106D03*
D26*
X91954004Y-34030092D03*
D23*
X90903301Y-20629998D03*
%TD*%
D27*
%TO.C,C20*%
X39605000Y-56755000D03*
X37530000Y-56755000D03*
%TD*%
%TO.C,C3*%
X50400000Y-19925000D03*
X48325000Y-19925000D03*
%TD*%
D13*
%TO.C,U9*%
X53575000Y-37200000D03*
X54845000Y-37200000D03*
X56115000Y-37200000D03*
X57385000Y-37200000D03*
X58655000Y-37200000D03*
X59925000Y-37200000D03*
X61195000Y-37200000D03*
X61195000Y-42150000D03*
X59925000Y-42150000D03*
X58655000Y-42150000D03*
X57385000Y-42150000D03*
X56115000Y-42150000D03*
X54845000Y-42150000D03*
X53575000Y-42150000D03*
%TD*%
%TO.C,U7*%
X37065000Y-49265000D03*
X38335000Y-49265000D03*
X39605000Y-49265000D03*
X40875000Y-49265000D03*
X42145000Y-49265000D03*
X43415000Y-49265000D03*
X44685000Y-49265000D03*
X45955000Y-49265000D03*
X45955000Y-54215000D03*
X44685000Y-54215000D03*
X43415000Y-54215000D03*
X42145000Y-54215000D03*
X40875000Y-54215000D03*
X39605000Y-54215000D03*
X38335000Y-54215000D03*
X37065000Y-54215000D03*
%TD*%
D14*
%TO.C,R11*%
X82905000Y-31730000D03*
X82905000Y-29730000D03*
%TD*%
D15*
%TO.C,U2*%
X29380000Y-71360000D03*
X29380000Y-72630000D03*
X29380000Y-73900000D03*
X29380000Y-75170000D03*
X29380000Y-76440000D03*
X29380000Y-77710000D03*
X29380000Y-78980000D03*
X24430000Y-78980000D03*
X24430000Y-77710000D03*
X24430000Y-76440000D03*
X24430000Y-75170000D03*
X24430000Y-73900000D03*
X24430000Y-72630000D03*
X24430000Y-71360000D03*
%TD*%
D12*
%TO.C,C2*%
X25973000Y-68820000D03*
X28048000Y-68820000D03*
%TD*%
D10*
%TO.C,C12*%
X76435000Y-54385000D03*
X76435000Y-52310000D03*
%TD*%
%TO.C,C22*%
X77959000Y-44563000D03*
X77959000Y-42488000D03*
%TD*%
M02*
