%TF.GenerationSoftware,KiCad,Pcbnew,8.0.2*%
%TF.CreationDate,2024-05-14T20:05:03+02:00*%
%TF.ProjectId,port2-sdcard-interface,706f7274-322d-4736-9463-6172642d696e,rev5*%
%TF.SameCoordinates,Original*%
%TF.FileFunction,Soldermask,Top*%
%TF.FilePolarity,Negative*%
%FSLAX46Y46*%
G04 Gerber Fmt 4.6, Leading zero omitted, Abs format (unit mm)*
G04 Created by KiCad (PCBNEW 8.0.2) date 2024-05-14 20:05:03*
%MOMM*%
%LPD*%
G01*
G04 APERTURE LIST*
%ADD10C,0.990600*%
%ADD11R,1.800000X1.800000*%
%ADD12C,1.800000*%
%ADD13R,1.422400X1.422400*%
%ADD14C,1.422400*%
%ADD15R,2.000000X10.000000*%
%ADD16R,1.600000X1.600000*%
%ADD17C,1.600000*%
G04 APERTURE END LIST*
D10*
%TO.C,J1*%
X101903302Y-30230000D03*
X101903302Y-22230000D03*
%TD*%
D11*
%TO.C,D1*%
X24760000Y-22225000D03*
D12*
X27300000Y-22225000D03*
%TD*%
D11*
%TO.C,D4*%
X32366000Y-30085000D03*
D12*
X34906000Y-30085000D03*
%TD*%
D11*
%TO.C,D3*%
X24746000Y-30085000D03*
D12*
X27286000Y-30085000D03*
%TD*%
D11*
%TO.C,D2*%
X32380000Y-22225000D03*
D12*
X34920000Y-22225000D03*
%TD*%
D13*
%TO.C,U15*%
X61195000Y-81520000D03*
D14*
X63735000Y-78980000D03*
X63735000Y-81520000D03*
X66275000Y-78980000D03*
X68815000Y-81520000D03*
X66275000Y-81520000D03*
X68815000Y-84060000D03*
X66275000Y-84060000D03*
X68815000Y-86600000D03*
X66275000Y-86600000D03*
X68815000Y-89140000D03*
X66275000Y-89140000D03*
X68815000Y-91680000D03*
X66275000Y-94220000D03*
X66275000Y-91680000D03*
X63735000Y-94220000D03*
X63735000Y-91680000D03*
X61195000Y-94220000D03*
X61195000Y-91680000D03*
X58655000Y-94220000D03*
X56115000Y-91680000D03*
X58655000Y-91680000D03*
X56115000Y-89140000D03*
X58655000Y-89140000D03*
X56115000Y-86600000D03*
X58655000Y-86600000D03*
X56115000Y-84060000D03*
X58655000Y-84060000D03*
X56115000Y-81520000D03*
X58655000Y-78980000D03*
X58655000Y-81520000D03*
X61195000Y-78980000D03*
%TD*%
D15*
%TO.C,J2*%
X33875000Y-112776000D03*
X37835000Y-112776000D03*
X41795000Y-112776000D03*
X45755000Y-112776000D03*
X49715000Y-112776000D03*
X53675000Y-112776000D03*
X57635000Y-112776000D03*
X61595000Y-112776000D03*
X65555000Y-112776000D03*
X69515000Y-112776000D03*
X73475000Y-112776000D03*
X77435000Y-112776000D03*
X85369400Y-112776000D03*
X89315000Y-112776000D03*
%TD*%
D16*
%TO.C,X1*%
X57385000Y-31990000D03*
D17*
X42145000Y-31990000D03*
X42145000Y-24370000D03*
X57385000Y-24370000D03*
%TD*%
M02*
