M48
; DRILL file {KiCad 8.0.2} date 2024-08-04T17:16:16+0200
; FORMAT={-:-/ absolute / inch / decimal}
; #@! TF.CreationDate,2024-08-04T17:16:16+02:00
; #@! TF.GenerationSoftware,Kicad,Pcbnew,8.0.2
; #@! TF.FileFunction,Plated,1,2,PTH
FMAT,2
INCH
; #@! TA.AperFunction,Plated,PTH,ViaDrill
T1C0.0157
; #@! TA.AperFunction,Plated,PTH,ComponentDrill
T2C0.0315
; #@! TA.AperFunction,Plated,PTH,ComponentDrill
T3C0.0354
; #@! TA.AperFunction,Plated,PTH,ComponentDrill
T4C0.0394
; #@! TA.AperFunction,Plated,PTH,ComponentDrill
T5C0.0598
%
G90
G05
T1
X2.1513Y-3.7807
X2.1604Y-3.1381
X2.1617Y-3.2409
X2.2043Y-3.252
X2.2065Y-3.293
X2.2817Y-3.0577
X2.2919Y-2.9908
X2.3057Y-2.4874
X2.3345Y-2.65
X2.3474Y-2.4249
X2.3641Y-2.8719
X2.3765Y-2.5132
X2.3926Y-2.9773
X2.3926Y-3.0794
X2.3947Y-4.0611
X2.4285Y-2.6989
X2.486Y-4.0543
X2.5586Y-2.7252
X2.559Y-2.6757
X2.5622Y-2.7702
X2.5643Y-2.6176
X2.574Y-3.0043
X2.5931Y-2.85
X2.614Y-2.5677
X2.6203Y-3.0964
X2.6386Y-4.1112
X2.6664Y-3.6261
X2.6972Y-2.5055
X2.7938Y-4.5661
X2.9038Y-4.6398
X2.9188Y-4.4202
X2.9288Y-3.5057
X2.9382Y-4.5209
X3.0013Y-3.2055
X3.0795Y-2.425
X3.1114Y-4.2553
X3.1143Y-3.0998
X3.1549Y-4.2852
X3.1954Y-3.2478
X3.2193Y-4.3933
X3.2298Y-4.3495
X3.2741Y-4.4886
X3.3566Y-2.4652
X3.43Y-2.71
X3.466Y-4.721
X3.4732Y-4.1267
X3.4853Y-2.6799
X3.5018Y-2.6199
X3.5072Y-4.6982
X3.5726Y-5.0168
X3.6608Y-4.5525
X3.7431Y-3.7378
X3.7602Y-4.4091
X3.7918Y-4.4582
X3.8307Y-2.9621
X3.8395Y-4.6056
X3.89Y-2.18
X3.904Y-5.0
X3.9428Y-4.6675
X3.9838Y-4.6381
X4.08Y-2.34
X4.121Y-4.6593
X4.1231Y-4.7371
X4.1772Y-4.4029
X4.3582Y-4.7388
X4.4327Y-3.8034
X4.4552Y-3.5535
X4.4575Y-3.6943
X4.4824Y-2.7708
X4.4925Y-2.2979
X4.4964Y-2.5127
X4.5091Y-2.3457
X4.5479Y-4.5685
X4.61Y-2.25
X4.6109Y-2.3215
X4.6319Y-4.421
X4.6561Y-4.5973
X4.7319Y-4.5623
X4.7447Y-5.0078
X4.7749Y-4.1843
X4.795Y-4.9983
X4.913Y-4.5888
X4.9615Y-2.55
X4.9777Y-4.1773
X4.99Y-2.13
X5.0Y-2.1715
X5.0Y-2.23
X5.0153Y-3.3617
X5.0164Y-4.1943
X5.0298Y-2.2998
X5.04Y-2.83
X5.0423Y-4.3223
X5.0436Y-3.1361
X5.0463Y-4.1005
X5.0469Y-3.018
X5.0471Y-3.891
X5.0476Y-2.67
X5.05Y-2.1715
X5.0766Y-2.3417
X5.0801Y-4.2945
X5.0909Y-2.89
X5.2128Y-2.902
X5.2459Y-3.135
X5.2473Y-5.0717
X5.25Y-2.599
X5.25Y-2.66
X5.2681Y-4.0699
X5.4272Y-4.4472
X5.5057Y-5.1643
X5.5476Y-3.0557
X6.1202Y-4.9441
X6.3114Y-2.8092
X6.3155Y-4.1224
X6.34Y-2.1462
X6.34Y-2.2285
X6.3402Y-4.3555
X6.3448Y-3.7323
X6.3469Y-5.0499
X6.3674Y-2.8022
X6.4346Y-2.4218
X6.4435Y-3.0895
X6.5135Y-5.2073
X6.5239Y-3.5235
X6.5868Y-3.2207
X6.6076Y-3.6854
X6.6131Y-4.2006
X6.7291Y-3.3545
X6.7732Y-4.4547
X6.901Y-5.2657
X7.0182Y-4.6799
X7.1356Y-5.2359
X7.1797Y-5.287
X7.1946Y-4.676
X7.4261Y-4.6762
X7.5128Y-3.6382
X7.5653Y-3.6882
X7.5822Y-4.1993
X7.6464Y-4.1904
X7.6641Y-4.8036
X7.6831Y-3.8065
X7.7555Y-3.733
X7.8052Y-5.0071
X7.8163Y-4.6775
X7.8231Y-4.4887
X7.8234Y-4.2198
X7.8515Y-3.9601
X7.8874Y-2.1647
X7.9223Y-3.9584
X7.9339Y-4.3555
X8.041Y-3.3934
X8.074Y-4.4592
X8.1478Y-5.3161
X8.1747Y-2.8765
X8.2886Y-4.1555
X8.3049Y-4.9852
X8.3534Y-4.1788
X8.4412Y-3.8228
X8.4423Y-3.3048
X8.4873Y-2.0994
X8.6031Y-3.8018
X8.6309Y-3.8304
X8.7541Y-3.6053
X8.7866Y-4.0627
X8.8434Y-2.5339
X8.8964Y-4.098
X8.9729Y-3.6501
X8.9736Y-2.6331
X9.0026Y-2.8462
X9.1279Y-3.447
X9.219Y-4.3565
X9.3536Y-3.8558
X9.3626Y-4.7049
X9.4543Y-4.6585
X9.6347Y-2.8765
X9.7569Y-3.3372
X9.8031Y-4.4754
X9.8833Y-2.36
T2
X1.7Y-4.7516
X1.7Y-4.9484
X1.95Y-3.6
X1.95Y-3.7
X1.95Y-3.8
X1.95Y-3.9
X1.95Y-4.0
X1.95Y-4.55
X1.95Y-5.15
X2.05Y-3.5
X2.05Y-3.6
X2.05Y-3.7
X2.05Y-3.8
X2.05Y-3.9
X2.05Y-4.0
X2.05Y-4.1
X2.1016Y-3.25
X2.15Y-2.15
X2.15Y-3.5
X2.15Y-3.6
X2.15Y-4.0
X2.15Y-4.1
X2.25Y-3.5
X2.25Y-3.6
X2.25Y-4.0
X2.25Y-4.1
X2.25Y-4.55
X2.25Y-5.15
X2.2984Y-3.25
X2.3469Y-2.15
X2.35Y-3.5
X2.35Y-3.6
X2.35Y-3.7
X2.35Y-3.8
X2.35Y-3.9
X2.35Y-4.0
X2.35Y-4.1
X2.45Y-3.6
X2.45Y-3.7
X2.45Y-3.8
X2.45Y-3.9
X2.45Y-4.0
X2.5734Y-4.95
X2.6719Y-4.95
X2.75Y-3.55
X2.75Y-3.65
X2.75Y-3.75
X2.75Y-3.85
X2.75Y-3.95
X2.75Y-4.05
X2.75Y-4.15
X2.7504Y-2.5498
X2.7504Y-2.6498
X2.7504Y-2.7498
X2.7504Y-2.8498
X2.7504Y-2.9498
X2.7504Y-3.0498
X2.7504Y-3.1498
X2.8031Y-2.35
X2.8031Y-3.35
X3.0Y-2.35
X3.0Y-3.35
X3.05Y-3.55
X3.05Y-3.65
X3.05Y-3.75
X3.05Y-3.85
X3.05Y-3.95
X3.05Y-4.05
X3.05Y-4.15
X3.0504Y-2.5498
X3.0504Y-2.6498
X3.0504Y-2.7498
X3.0504Y-2.8498
X3.0504Y-2.9498
X3.0504Y-3.0498
X3.0504Y-3.1498
X3.3998Y-3.0494
X3.3998Y-3.1494
X3.3998Y-3.2494
X3.3998Y-3.3494
X3.3998Y-3.4494
X3.3998Y-3.5494
X3.3998Y-3.6494
X3.3998Y-3.7494
X3.3998Y-3.8494
X3.3998Y-3.9494
X3.3998Y-4.0494
X3.3998Y-4.1494
X3.3998Y-4.2494
X3.3998Y-4.3494
X3.6016Y-2.85
X3.7984Y-2.85
X3.9998Y-3.0494
X3.9998Y-3.1494
X3.9998Y-3.2494
X3.9998Y-3.3494
X3.9998Y-3.4494
X3.9998Y-3.5494
X3.9998Y-3.6494
X3.9998Y-3.7494
X3.9998Y-3.8494
X3.9998Y-3.9494
X3.9998Y-4.0494
X3.9998Y-4.1494
X3.9998Y-4.2494
X3.9998Y-4.3494
X4.2498Y-3.0494
X4.2498Y-3.1494
X4.2498Y-3.2494
X4.2498Y-3.3494
X4.2498Y-3.4494
X4.2498Y-3.5494
X4.2498Y-3.6494
X4.2498Y-3.7494
X4.2498Y-3.8494
X4.2498Y-3.9494
X4.2498Y-4.0494
X4.2498Y-4.1494
X4.2498Y-4.2494
X4.2498Y-4.3494
X4.4516Y-2.85
X4.6484Y-2.85
X4.8498Y-3.0494
X4.8498Y-3.1494
X4.8498Y-3.2494
X4.8498Y-3.3494
X4.8498Y-3.4494
X4.8498Y-3.5494
X4.8498Y-3.6494
X4.8498Y-3.7494
X4.8498Y-3.8494
X4.8498Y-3.9494
X4.8498Y-4.0494
X4.8498Y-4.1494
X4.8498Y-4.2494
X4.8498Y-4.3494
X5.15Y-2.5516
X5.15Y-2.7484
X5.15Y-3.3016
X5.15Y-3.4984
X5.15Y-3.8016
X5.15Y-3.9984
X5.15Y-4.3031
X5.15Y-4.5
X5.2Y-3.0
X5.34Y-5.24
X5.3496Y-2.5
X5.3496Y-2.8
X5.35Y-3.25
X5.35Y-3.55
X5.35Y-3.7496
X5.35Y-4.0496
X5.35Y-4.75
X5.35Y-5.05
X5.3502Y-4.2496
X5.3502Y-4.5496
X5.4496Y-2.5
X5.4496Y-2.8
X5.45Y-3.25
X5.45Y-3.55
X5.45Y-3.7496
X5.45Y-4.0496
X5.45Y-4.75
X5.45Y-5.05
X5.4502Y-4.2496
X5.4502Y-4.5496
X5.4531Y-2.3
X5.5Y-3.0
X5.5369Y-5.24
X5.5496Y-2.5
X5.5496Y-2.8
X5.55Y-3.25
X5.55Y-3.55
X5.55Y-3.7496
X5.55Y-4.0496
X5.55Y-4.75
X5.55Y-5.05
X5.5502Y-4.2496
X5.5502Y-4.5496
X5.6031Y-3.0
X5.6496Y-2.5
X5.6496Y-2.8
X5.65Y-2.3
X5.65Y-3.25
X5.65Y-3.55
X5.65Y-3.7496
X5.65Y-4.0496
X5.65Y-4.75
X5.65Y-5.05
X5.6502Y-4.2496
X5.6502Y-4.5496
X5.7496Y-2.5
X5.7496Y-2.8
X5.75Y-2.3
X5.75Y-3.25
X5.75Y-3.55
X5.75Y-3.7496
X5.75Y-4.0496
X5.75Y-4.75
X5.75Y-5.05
X5.7502Y-4.2496
X5.7502Y-4.5496
X5.8Y-3.0
X5.8496Y-2.5
X5.8496Y-2.8
X5.85Y-3.25
X5.85Y-3.55
X5.85Y-3.7496
X5.85Y-4.0496
X5.85Y-4.75
X5.85Y-5.05
X5.8502Y-4.2496
X5.8502Y-4.5496
X5.9Y-3.0
X5.9496Y-2.5
X5.9496Y-2.8
X5.95Y-3.25
X5.95Y-3.55
X5.95Y-3.7496
X5.95Y-4.0496
X5.95Y-4.75
X5.95Y-5.05
X5.9502Y-4.2496
X5.9502Y-4.5496
X6.0496Y-2.5
X6.0496Y-2.8
X6.05Y-2.3
X6.05Y-3.25
X6.05Y-3.55
X6.05Y-3.7496
X6.05Y-4.0496
X6.05Y-4.75
X6.05Y-5.05
X6.0502Y-4.2496
X6.0502Y-4.5496
X6.15Y-4.75
X6.15Y-5.05
X6.1502Y-4.2496
X6.1502Y-4.5496
X6.2Y-3.0
X6.25Y-4.75
X6.25Y-5.05
X6.2502Y-4.2496
X6.2502Y-4.5496
X6.45Y-2.3031
X6.45Y-2.5
X6.45Y-2.8016
X6.45Y-2.9984
X6.45Y-3.3016
X6.45Y-3.4984
X6.45Y-3.8016
X6.45Y-3.9984
X6.45Y-4.3031
X6.45Y-4.5
X6.45Y-4.8
X6.45Y-4.9969
X6.6498Y-2.2496
X6.6498Y-2.5496
X6.65Y-2.75
X6.65Y-3.05
X6.65Y-3.25
X6.65Y-3.55
X6.65Y-3.75
X6.65Y-4.05
X6.65Y-4.25
X6.65Y-4.55
X6.65Y-4.75
X6.65Y-5.05
X6.7498Y-2.2496
X6.7498Y-2.5496
X6.75Y-2.75
X6.75Y-3.05
X6.75Y-3.25
X6.75Y-3.55
X6.75Y-3.75
X6.75Y-4.05
X6.75Y-4.25
X6.75Y-4.55
X6.75Y-4.75
X6.75Y-5.05
X6.8498Y-2.2496
X6.8498Y-2.5496
X6.85Y-2.75
X6.85Y-3.05
X6.85Y-3.25
X6.85Y-3.55
X6.85Y-3.75
X6.85Y-4.05
X6.85Y-4.25
X6.85Y-4.55
X6.85Y-4.75
X6.85Y-5.05
X6.9498Y-2.2496
X6.9498Y-2.5496
X6.95Y-2.75
X6.95Y-3.05
X6.95Y-3.25
X6.95Y-3.55
X6.95Y-3.75
X6.95Y-4.05
X6.95Y-4.25
X6.95Y-4.55
X6.95Y-4.75
X6.95Y-5.05
X7.0498Y-2.2496
X7.0498Y-2.5496
X7.05Y-2.75
X7.05Y-3.05
X7.05Y-3.25
X7.05Y-3.55
X7.05Y-3.75
X7.05Y-4.05
X7.05Y-4.25
X7.05Y-4.55
X7.05Y-4.75
X7.05Y-5.05
X7.1498Y-2.2496
X7.1498Y-2.5496
X7.15Y-2.75
X7.15Y-3.05
X7.15Y-3.25
X7.15Y-3.55
X7.15Y-3.75
X7.15Y-4.05
X7.15Y-4.25
X7.15Y-4.55
X7.15Y-4.75
X7.15Y-5.05
X7.2498Y-2.2496
X7.2498Y-2.5496
X7.25Y-2.75
X7.25Y-3.05
X7.25Y-3.25
X7.25Y-3.55
X7.25Y-3.75
X7.25Y-4.05
X7.25Y-4.25
X7.25Y-4.55
X7.25Y-4.75
X7.25Y-5.05
X7.35Y-3.25
X7.35Y-3.55
X7.35Y-3.75
X7.35Y-4.05
X7.35Y-4.25
X7.35Y-4.55
X7.35Y-4.75
X7.35Y-5.05
X7.45Y-3.75
X7.45Y-4.05
X7.45Y-4.75
X7.45Y-5.05
X7.55Y-3.75
X7.55Y-4.05
X7.55Y-4.75
X7.55Y-5.05
X7.75Y-2.3016
X7.75Y-2.4984
X7.75Y-2.8016
X7.75Y-2.9984
X7.75Y-3.3016
X7.75Y-3.4984
X7.75Y-3.8016
X7.75Y-3.9984
X7.75Y-4.3016
X7.75Y-4.4984
X7.75Y-4.8016
X7.75Y-4.9984
X7.9496Y-3.2496
X7.9496Y-3.5496
X7.9496Y-3.7496
X7.9496Y-4.0496
X7.9498Y-2.7496
X7.9498Y-3.0496
X7.95Y-2.25
X7.95Y-2.55
X7.95Y-4.25
X7.95Y-4.55
X7.95Y-4.75
X7.95Y-5.05
X8.0496Y-3.2496
X8.0496Y-3.5496
X8.0496Y-3.7496
X8.0496Y-4.0496
X8.0498Y-2.7496
X8.0498Y-3.0496
X8.05Y-2.25
X8.05Y-2.55
X8.05Y-4.25
X8.05Y-4.55
X8.05Y-4.75
X8.05Y-5.05
X8.1496Y-3.2496
X8.1496Y-3.5496
X8.1496Y-3.7496
X8.1496Y-4.0496
X8.1498Y-2.7496
X8.1498Y-3.0496
X8.15Y-2.25
X8.15Y-2.55
X8.15Y-4.25
X8.15Y-4.55
X8.15Y-4.75
X8.15Y-5.05
X8.2496Y-3.2496
X8.2496Y-3.5496
X8.2496Y-3.7496
X8.2496Y-4.0496
X8.2498Y-2.7496
X8.2498Y-3.0496
X8.25Y-2.25
X8.25Y-2.55
X8.25Y-4.25
X8.25Y-4.55
X8.25Y-4.75
X8.25Y-5.05
X8.3496Y-3.2496
X8.3496Y-3.5496
X8.3496Y-3.7496
X8.3496Y-4.0496
X8.3498Y-2.7496
X8.3498Y-3.0496
X8.35Y-2.25
X8.35Y-2.55
X8.35Y-4.25
X8.35Y-4.55
X8.35Y-4.75
X8.35Y-5.05
X8.4496Y-3.2496
X8.4496Y-3.5496
X8.4496Y-3.7496
X8.4496Y-4.0496
X8.4498Y-2.7496
X8.4498Y-3.0496
X8.45Y-2.25
X8.45Y-2.55
X8.45Y-4.25
X8.45Y-4.55
X8.45Y-4.75
X8.45Y-5.05
X8.5496Y-3.2496
X8.5496Y-3.5496
X8.5496Y-3.7496
X8.5496Y-4.0496
X8.5498Y-2.7496
X8.5498Y-3.0496
X8.55Y-2.25
X8.55Y-2.55
X8.55Y-4.25
X8.55Y-4.55
X8.55Y-4.75
X8.55Y-5.05
X8.6496Y-3.2496
X8.6496Y-3.5496
X8.6496Y-3.7496
X8.6496Y-4.0496
X8.65Y-4.25
X8.65Y-4.55
X8.65Y-4.75
X8.65Y-5.05
X8.8Y-2.45
X8.8Y-2.6
X8.9Y-2.8016
X8.9Y-2.9984
X8.9Y-3.3016
X8.9Y-3.4984
X8.9Y-3.8016
X8.9Y-3.9984
X8.9Y-4.3016
X8.9Y-4.4984
X8.9Y-4.8016
X8.9Y-4.9984
X9.0998Y-3.7488
X9.0998Y-4.0488
X9.1Y-2.45
X9.1Y-2.6
X9.1Y-2.75
X9.1Y-3.05
X9.1Y-3.2492
X9.1Y-3.5492
X9.1Y-4.25
X9.1Y-4.55
X9.1Y-4.7492
X9.1Y-5.0492
X9.1998Y-3.7488
X9.1998Y-4.0488
X9.2Y-2.75
X9.2Y-3.05
X9.2Y-3.2492
X9.2Y-3.5492
X9.2Y-4.25
X9.2Y-4.55
X9.2Y-4.7492
X9.2Y-5.0492
X9.25Y-2.45
X9.25Y-2.6
X9.2998Y-3.7488
X9.2998Y-4.0488
X9.3Y-2.75
X9.3Y-3.05
X9.3Y-3.2492
X9.3Y-3.5492
X9.3Y-4.25
X9.3Y-4.55
X9.3Y-4.7492
X9.3Y-5.0492
X9.3998Y-3.7488
X9.3998Y-4.0488
X9.4Y-2.75
X9.4Y-3.05
X9.4Y-3.2492
X9.4Y-3.5492
X9.4Y-4.25
X9.4Y-4.55
X9.4Y-4.7492
X9.4Y-5.0492
X9.4998Y-3.7488
X9.4998Y-4.0488
X9.5Y-2.75
X9.5Y-3.05
X9.5Y-3.2492
X9.5Y-3.5492
X9.5Y-4.25
X9.5Y-4.55
X9.5Y-4.7492
X9.5Y-5.0492
X9.55Y-2.45
X9.55Y-2.6
X9.5998Y-3.7488
X9.5998Y-4.0488
X9.6Y-2.75
X9.6Y-3.05
X9.6Y-3.2492
X9.6Y-3.5492
X9.6Y-4.25
X9.6Y-4.55
X9.6Y-4.7492
X9.6Y-5.0492
X9.6998Y-3.7488
X9.6998Y-4.0488
X9.7Y-2.55
X9.7Y-2.75
X9.7Y-3.05
X9.7Y-3.2492
X9.7Y-3.5492
X9.7Y-4.25
X9.7Y-4.55
X9.7Y-4.7492
X9.7Y-5.0492
X10.0Y-2.55
T3
X9.0547Y-2.2
X9.1547Y-2.2
X9.35Y-2.2
X9.45Y-2.2
X9.6453Y-2.2
X9.7453Y-2.2
X9.9406Y-2.2
X10.0406Y-2.2
T4
X3.07Y-4.8
X3.07Y-4.9
X3.17Y-4.8
X3.17Y-4.9
X3.27Y-4.8
X3.27Y-4.9
X3.37Y-4.8
X3.37Y-4.9
X3.47Y-4.8
X3.47Y-4.9
X3.57Y-4.8
X3.57Y-4.9
X3.67Y-4.8
X3.67Y-4.9
X3.77Y-4.8
X3.77Y-4.9
X3.87Y-4.8
X3.87Y-4.9
X3.97Y-4.8
X3.97Y-4.9
X4.07Y-4.8
X4.07Y-4.9
X4.17Y-4.8
X4.17Y-4.9
X4.27Y-4.8
X4.27Y-4.9
X4.37Y-4.8
X4.37Y-4.9
X4.47Y-4.8
X4.47Y-4.9
X4.57Y-4.8
X4.57Y-4.9
X4.67Y-4.8
X4.67Y-4.9
X4.77Y-4.8
X4.77Y-4.9
X4.801Y-2.2
X4.801Y-2.3
X4.801Y-2.4
X4.801Y-2.5
X4.801Y-2.6
X4.801Y-2.7
X4.87Y-4.8
X4.87Y-4.9
X4.97Y-4.8
X4.97Y-4.9
X10.0Y-3.35
X10.0Y-3.45
T5
X10.0Y-2.8
X10.0Y-3.0
M30
