%TF.GenerationSoftware,KiCad,Pcbnew,8.0.2*%
%TF.CreationDate,2024-08-18T09:22:13+02:00*%
%TF.ProjectId,internal-sdcard-interface,696e7465-726e-4616-9c2d-736463617264,P2000T Multifunctiebord*%
%TF.SameCoordinates,Original*%
%TF.FileFunction,Soldermask,Top*%
%TF.FilePolarity,Negative*%
%FSLAX46Y46*%
G04 Gerber Fmt 4.6, Leading zero omitted, Abs format (unit mm)*
G04 Created by KiCad (PCBNEW 8.0.2) date 2024-08-18 09:22:13*
%MOMM*%
%LPD*%
G01*
G04 APERTURE LIST*
G04 Aperture macros list*
%AMRoundRect*
0 Rectangle with rounded corners*
0 $1 Rounding radius*
0 $2 $3 $4 $5 $6 $7 $8 $9 X,Y pos of 4 corners*
0 Add a 4 corners polygon primitive as box body*
4,1,4,$2,$3,$4,$5,$6,$7,$8,$9,$2,$3,0*
0 Add four circle primitives for the rounded corners*
1,1,$1+$1,$2,$3*
1,1,$1+$1,$4,$5*
1,1,$1+$1,$6,$7*
1,1,$1+$1,$8,$9*
0 Add four rect primitives between the rounded corners*
20,1,$1+$1,$2,$3,$4,$5,0*
20,1,$1+$1,$4,$5,$6,$7,0*
20,1,$1+$1,$6,$7,$8,$9,0*
20,1,$1+$1,$8,$9,$2,$3,0*%
G04 Aperture macros list end*
%ADD10C,0.000000*%
%ADD11R,1.600000X1.600000*%
%ADD12O,1.600000X1.600000*%
%ADD13R,1.422400X1.422400*%
%ADD14C,1.422400*%
%ADD15C,1.600000*%
%ADD16R,1.700000X1.700000*%
%ADD17O,1.700000X1.700000*%
%ADD18R,1.800000X1.800000*%
%ADD19C,1.800000*%
%ADD20RoundRect,0.150000X-0.875000X-0.150000X0.875000X-0.150000X0.875000X0.150000X-0.875000X0.150000X0*%
%ADD21R,3.000000X3.000000*%
%ADD22C,3.000000*%
%ADD23RoundRect,0.250000X0.600000X-0.600000X0.600000X0.600000X-0.600000X0.600000X-0.600000X-0.600000X0*%
%ADD24C,1.700000*%
G04 APERTURE END LIST*
D10*
%TO.C,G001*%
G36*
X253293941Y-132248701D02*
G01*
X253330945Y-132248867D01*
X253364187Y-132249329D01*
X253392637Y-132250055D01*
X253415268Y-132251011D01*
X253431053Y-132252165D01*
X253438327Y-132253280D01*
X253451454Y-132259179D01*
X253460322Y-132269156D01*
X253465540Y-132284516D01*
X253467714Y-132306560D01*
X253467869Y-132316617D01*
X253467608Y-132333997D01*
X253466340Y-132345256D01*
X253463337Y-132353022D01*
X253457871Y-132359920D01*
X253455079Y-132362777D01*
X253442289Y-132375567D01*
X253304123Y-132375567D01*
X253165957Y-132375567D01*
X253165957Y-132312122D01*
X253165957Y-132248677D01*
X253293941Y-132248701D01*
G37*
G36*
X256140229Y-132248701D02*
G01*
X256179086Y-132248853D01*
X256213977Y-132249278D01*
X256243960Y-132249947D01*
X256268093Y-132250833D01*
X256285433Y-132251908D01*
X256295038Y-132253145D01*
X256295432Y-132253246D01*
X256308814Y-132258585D01*
X256317627Y-132266822D01*
X256322697Y-132279576D01*
X256324852Y-132298464D01*
X256325096Y-132311244D01*
X256324856Y-132328882D01*
X256323675Y-132340331D01*
X256320858Y-132348147D01*
X256315713Y-132354889D01*
X256312306Y-132358402D01*
X256299516Y-132371192D01*
X256150411Y-132371192D01*
X256001306Y-132371192D01*
X256001306Y-132309934D01*
X256001306Y-132248677D01*
X256140229Y-132248701D01*
G37*
G36*
X251589527Y-132246050D02*
G01*
X251623280Y-132246717D01*
X251654867Y-132247994D01*
X251682955Y-132249881D01*
X251706211Y-132252376D01*
X251723303Y-132255478D01*
X251732477Y-132258891D01*
X251742673Y-132267758D01*
X251750298Y-132280043D01*
X251755867Y-132297181D01*
X251759889Y-132320603D01*
X251762071Y-132341631D01*
X251763650Y-132371089D01*
X251763514Y-132400378D01*
X251761817Y-132427696D01*
X251758713Y-132451241D01*
X251754356Y-132469212D01*
X251750456Y-132477800D01*
X251741992Y-132486269D01*
X251729412Y-132494351D01*
X251725051Y-132496418D01*
X251718719Y-132498735D01*
X251711083Y-132500575D01*
X251701071Y-132502003D01*
X251687612Y-132503084D01*
X251669637Y-132503883D01*
X251646073Y-132504464D01*
X251615851Y-132504893D01*
X251579824Y-132505219D01*
X251546174Y-132505340D01*
X251514346Y-132505199D01*
X251485688Y-132504821D01*
X251461548Y-132504232D01*
X251443275Y-132503457D01*
X251432218Y-132502523D01*
X251431335Y-132502383D01*
X251416030Y-132498398D01*
X251402577Y-132492780D01*
X251398519Y-132490278D01*
X251390304Y-132483441D01*
X251384157Y-132475868D01*
X251379785Y-132466227D01*
X251376894Y-132453188D01*
X251375190Y-132435418D01*
X251374382Y-132411587D01*
X251374174Y-132380363D01*
X251374174Y-132379795D01*
X251374565Y-132345226D01*
X251375927Y-132318241D01*
X251378546Y-132297702D01*
X251382708Y-132282468D01*
X251388697Y-132271399D01*
X251396798Y-132263357D01*
X251404509Y-132258586D01*
X251416122Y-132254943D01*
X251434895Y-132251920D01*
X251459496Y-132249514D01*
X251488592Y-132247726D01*
X251520850Y-132246553D01*
X251554940Y-132245995D01*
X251589527Y-132246050D01*
G37*
G36*
X251652408Y-131313389D02*
G01*
X251690453Y-131314194D01*
X251720783Y-131315281D01*
X251744432Y-131316897D01*
X251762437Y-131319293D01*
X251775833Y-131322715D01*
X251785654Y-131327412D01*
X251792938Y-131333633D01*
X251798718Y-131341625D01*
X251802977Y-131349503D01*
X251806156Y-131356711D01*
X251808467Y-131364685D01*
X251810043Y-131374911D01*
X251811020Y-131388873D01*
X251811533Y-131408056D01*
X251811716Y-131433944D01*
X251811728Y-131445765D01*
X251811515Y-131478377D01*
X251810620Y-131503477D01*
X251808660Y-131522300D01*
X251805250Y-131536082D01*
X251800008Y-131546057D01*
X251792548Y-131553461D01*
X251782489Y-131559526D01*
X251775319Y-131562915D01*
X251768602Y-131565682D01*
X251761482Y-131567851D01*
X251752804Y-131569508D01*
X251741415Y-131570737D01*
X251726158Y-131571625D01*
X251705880Y-131572257D01*
X251679426Y-131572718D01*
X251645641Y-131573094D01*
X251636706Y-131573178D01*
X251603701Y-131573324D01*
X251572054Y-131573174D01*
X251543281Y-131572757D01*
X251518899Y-131572103D01*
X251500424Y-131571241D01*
X251490295Y-131570340D01*
X251466589Y-131565178D01*
X251449421Y-131556582D01*
X251436882Y-131543399D01*
X251431973Y-131535153D01*
X251429133Y-131528717D01*
X251427116Y-131521038D01*
X251425824Y-131510687D01*
X251425155Y-131496234D01*
X251425009Y-131476249D01*
X251425287Y-131449301D01*
X251425409Y-131441390D01*
X251426114Y-131409625D01*
X251427270Y-131385299D01*
X251429180Y-131367100D01*
X251432145Y-131353715D01*
X251436467Y-131343835D01*
X251442449Y-131336147D01*
X251450392Y-131329339D01*
X251451379Y-131328603D01*
X251462225Y-131323345D01*
X251479318Y-131319190D01*
X251503095Y-131316107D01*
X251533990Y-131314061D01*
X251572442Y-131313020D01*
X251618886Y-131312950D01*
X251652408Y-131313389D01*
G37*
G36*
X256977051Y-133294430D02*
G01*
X256977051Y-136794861D01*
X253476620Y-136794861D01*
X249976190Y-136794861D01*
X249976190Y-136309176D01*
X250466250Y-136309176D01*
X253476620Y-136309176D01*
X256486991Y-136309176D01*
X256486991Y-136175722D01*
X256486991Y-136042268D01*
X253476620Y-136042268D01*
X250466250Y-136042268D01*
X250466250Y-136175722D01*
X250466250Y-136309176D01*
X249976190Y-136309176D01*
X249976190Y-136175722D01*
X249976190Y-135784111D01*
X250466250Y-135784111D01*
X253476620Y-135784111D01*
X256486991Y-135784111D01*
X256486991Y-135650658D01*
X256486991Y-135517204D01*
X253476620Y-135517204D01*
X250466250Y-135517204D01*
X250466250Y-135650658D01*
X250466250Y-135784111D01*
X249976190Y-135784111D01*
X249976190Y-135650658D01*
X249976190Y-135259047D01*
X250466250Y-135259047D01*
X253476620Y-135259047D01*
X256486991Y-135259047D01*
X256486991Y-135125593D01*
X256486991Y-134992139D01*
X253476620Y-134992139D01*
X250466250Y-134992139D01*
X250466250Y-135125593D01*
X250466250Y-135259047D01*
X249976190Y-135259047D01*
X249976190Y-135125593D01*
X249976190Y-134733982D01*
X250466250Y-134733982D01*
X253476620Y-134733982D01*
X256486991Y-134733982D01*
X256486991Y-134600528D01*
X256486991Y-134467074D01*
X253476620Y-134467074D01*
X250466250Y-134467074D01*
X250466250Y-134600528D01*
X250466250Y-134733982D01*
X249976190Y-134733982D01*
X249976190Y-134600528D01*
X249976190Y-134208918D01*
X250466250Y-134208918D01*
X253476620Y-134208918D01*
X256486991Y-134208918D01*
X256486991Y-134075464D01*
X256486991Y-133942010D01*
X253476620Y-133942010D01*
X250466250Y-133942010D01*
X250466250Y-134075464D01*
X250466250Y-134208918D01*
X249976190Y-134208918D01*
X249976190Y-134075464D01*
X249976190Y-133294430D01*
X249976190Y-133049400D01*
X250475001Y-133049400D01*
X250475001Y-133309745D01*
X250475001Y-133570089D01*
X250554854Y-133570091D01*
X250634708Y-133570093D01*
X250633441Y-133377567D01*
X250632173Y-133185042D01*
X250644419Y-133185042D01*
X250647342Y-133185315D01*
X250650294Y-133186564D01*
X250653639Y-133189431D01*
X250657739Y-133194563D01*
X250662956Y-133202601D01*
X250669654Y-133214190D01*
X250678194Y-133229973D01*
X250688940Y-133250595D01*
X250702253Y-133276699D01*
X250718498Y-133308929D01*
X250738035Y-133347929D01*
X250752848Y-133377565D01*
X250849030Y-133570089D01*
X250917975Y-133570089D01*
X250986919Y-133570089D01*
X251083201Y-133377565D01*
X251105175Y-133333673D01*
X251123622Y-133296981D01*
X251138900Y-133266849D01*
X251151366Y-133242636D01*
X251161380Y-133223702D01*
X251169299Y-133209406D01*
X251175481Y-133199107D01*
X251180285Y-133192165D01*
X251184070Y-133187939D01*
X251187192Y-133185788D01*
X251190011Y-133185072D01*
X251190862Y-133185042D01*
X251202242Y-133185042D01*
X251200697Y-133377566D01*
X251199152Y-133570090D01*
X251279006Y-133570090D01*
X251358860Y-133570089D01*
X251358860Y-133309686D01*
X251358860Y-133049400D01*
X251458805Y-133049400D01*
X251460647Y-133249581D01*
X251461136Y-133298288D01*
X251461649Y-133339054D01*
X251462218Y-133372690D01*
X251462876Y-133400005D01*
X251463656Y-133421811D01*
X251464590Y-133438917D01*
X251465710Y-133452133D01*
X251467048Y-133462271D01*
X251468638Y-133470139D01*
X251469608Y-133473719D01*
X251480293Y-133500785D01*
X251495219Y-133522941D01*
X251515148Y-133540649D01*
X251540839Y-133554371D01*
X251573054Y-133564569D01*
X251612554Y-133571704D01*
X251635150Y-133574257D01*
X251651875Y-133575341D01*
X251675331Y-133576143D01*
X251704210Y-133576674D01*
X251737202Y-133576949D01*
X251773000Y-133576982D01*
X251810295Y-133576787D01*
X251847778Y-133576376D01*
X251884141Y-133575765D01*
X251918075Y-133574966D01*
X251948271Y-133573993D01*
X251973422Y-133572859D01*
X251992219Y-133571580D01*
X252002064Y-133570415D01*
X252029394Y-133563469D01*
X252055835Y-133552817D01*
X252078905Y-133539685D01*
X252096123Y-133525299D01*
X252098259Y-133522855D01*
X252108279Y-133509255D01*
X252116096Y-133494760D01*
X252122061Y-133477942D01*
X252126524Y-133457374D01*
X252129839Y-133431630D01*
X252132355Y-133399283D01*
X252132591Y-133395068D01*
X252215214Y-133395068D01*
X252218229Y-133438845D01*
X252220219Y-133459945D01*
X252223033Y-133479929D01*
X252226204Y-133495746D01*
X252227776Y-133501134D01*
X252237935Y-133521886D01*
X252252800Y-133538703D01*
X252273143Y-133551972D01*
X252299733Y-133562083D01*
X252333338Y-133569425D01*
X252372459Y-133574187D01*
X252392879Y-133575500D01*
X252420412Y-133576544D01*
X252453424Y-133577318D01*
X252490280Y-133577822D01*
X252529348Y-133578057D01*
X252568992Y-133578020D01*
X252607579Y-133577711D01*
X252643474Y-133577131D01*
X252675044Y-133576279D01*
X252700655Y-133575153D01*
X252713089Y-133574295D01*
X252745811Y-133570089D01*
X252942804Y-133570089D01*
X253231590Y-133570089D01*
X253520376Y-133570089D01*
X253520376Y-133506644D01*
X253520376Y-133443198D01*
X253310350Y-133443198D01*
X253100324Y-133443198D01*
X253100324Y-133403819D01*
X253100324Y-133364439D01*
X253299411Y-133364439D01*
X253498498Y-133364439D01*
X253498498Y-133305369D01*
X253498498Y-133246299D01*
X253299411Y-133246299D01*
X253100324Y-133246299D01*
X253100324Y-133211295D01*
X253100324Y-133176291D01*
X253310350Y-133176291D01*
X253520376Y-133176291D01*
X253520376Y-133112845D01*
X253520376Y-133049400D01*
X253602819Y-133049400D01*
X253604763Y-133249581D01*
X253605286Y-133300090D01*
X253605847Y-133342669D01*
X253606529Y-133378137D01*
X253607414Y-133407317D01*
X253608585Y-133431029D01*
X253610126Y-133450092D01*
X253612118Y-133465328D01*
X253614645Y-133477558D01*
X253617789Y-133487601D01*
X253621633Y-133496280D01*
X253626259Y-133504413D01*
X253631224Y-133512039D01*
X253647179Y-133530905D01*
X253667595Y-133546017D01*
X253693408Y-133557767D01*
X253725555Y-133566549D01*
X253764974Y-133572760D01*
X253779164Y-133574257D01*
X253795889Y-133575341D01*
X253819345Y-133576143D01*
X253848223Y-133576674D01*
X253881216Y-133576949D01*
X253917014Y-133576982D01*
X253954309Y-133576787D01*
X253991792Y-133576376D01*
X254028154Y-133575765D01*
X254062089Y-133574966D01*
X254092285Y-133573993D01*
X254117436Y-133572859D01*
X254136232Y-133571580D01*
X254146078Y-133570415D01*
X254147299Y-133570089D01*
X254377981Y-133570089D01*
X254459503Y-133570089D01*
X254541026Y-133570089D01*
X254537787Y-133377565D01*
X254534549Y-133185042D01*
X254547272Y-133185042D01*
X254550271Y-133185261D01*
X254553235Y-133186346D01*
X254556532Y-133188939D01*
X254560527Y-133193681D01*
X254565590Y-133201215D01*
X254572086Y-133212181D01*
X254580383Y-133227221D01*
X254590848Y-133246977D01*
X254603849Y-133272091D01*
X254619753Y-133303204D01*
X254638926Y-133340957D01*
X254657526Y-133377675D01*
X254755057Y-133570307D01*
X254823410Y-133569104D01*
X254891763Y-133567901D01*
X254988197Y-133376565D01*
X255010251Y-133332855D01*
X255028756Y-133296332D01*
X255044075Y-133266354D01*
X255056568Y-133242279D01*
X255066597Y-133223468D01*
X255074525Y-133209276D01*
X255080713Y-133199064D01*
X255085523Y-133192188D01*
X255089317Y-133188009D01*
X255092455Y-133185883D01*
X255095301Y-133185170D01*
X255096129Y-133185136D01*
X255107627Y-133185042D01*
X255105327Y-133377565D01*
X255103028Y-133570089D01*
X255182434Y-133570089D01*
X255261840Y-133570089D01*
X255261840Y-133309745D01*
X255261840Y-133049400D01*
X255117955Y-133049400D01*
X254974071Y-133049400D01*
X254902926Y-133203638D01*
X254886941Y-133238335D01*
X254871975Y-133270908D01*
X254858457Y-133300415D01*
X254846816Y-133325913D01*
X254837482Y-133346462D01*
X254830885Y-133361121D01*
X254827454Y-133368947D01*
X254827207Y-133369557D01*
X254825848Y-133371925D01*
X254824010Y-133372297D01*
X254821356Y-133370024D01*
X254817545Y-133364457D01*
X254812239Y-133354946D01*
X254805099Y-133340841D01*
X254795785Y-133321494D01*
X254783959Y-133296254D01*
X254769281Y-133264473D01*
X254751412Y-133225500D01*
X254747256Y-133216413D01*
X254671878Y-133051588D01*
X254524930Y-133050436D01*
X254377981Y-133049284D01*
X254377981Y-133309686D01*
X254377981Y-133570089D01*
X254147299Y-133570089D01*
X254183400Y-133560447D01*
X254214825Y-133544715D01*
X254239919Y-133523556D01*
X254258251Y-133497307D01*
X254266720Y-133476443D01*
X254269844Y-133461513D01*
X254272670Y-133438510D01*
X254275164Y-133408109D01*
X254277295Y-133370984D01*
X254279029Y-133327810D01*
X254279517Y-133309686D01*
X254280335Y-133279261D01*
X254281180Y-133226012D01*
X254281531Y-133168736D01*
X254281532Y-133168633D01*
X254281719Y-133049400D01*
X254200772Y-133049400D01*
X254119824Y-133049400D01*
X254119662Y-133166446D01*
X254119462Y-133201400D01*
X254118988Y-133236915D01*
X254118287Y-133270999D01*
X254117404Y-133301662D01*
X254116385Y-133326914D01*
X254115640Y-133339950D01*
X254113410Y-133367156D01*
X254110550Y-133387190D01*
X254106385Y-133401633D01*
X254100237Y-133412064D01*
X254091429Y-133420064D01*
X254079285Y-133427211D01*
X254077974Y-133427882D01*
X254071569Y-133430754D01*
X254064263Y-133432967D01*
X254054801Y-133434630D01*
X254041927Y-133435855D01*
X254024385Y-133436752D01*
X254000918Y-133437430D01*
X253970272Y-133438002D01*
X253961322Y-133438141D01*
X253915557Y-133438473D01*
X253877730Y-133437808D01*
X253847063Y-133435936D01*
X253822776Y-133432647D01*
X253804094Y-133427729D01*
X253790236Y-133420971D01*
X253780426Y-133412164D01*
X253773884Y-133401096D01*
X253769834Y-133387556D01*
X253769562Y-133386192D01*
X253768681Y-133377327D01*
X253767863Y-133360851D01*
X253767133Y-133337902D01*
X253766515Y-133309621D01*
X253766036Y-133277147D01*
X253765720Y-133241620D01*
X253765596Y-133208013D01*
X253765406Y-133049400D01*
X253684112Y-133049400D01*
X253602819Y-133049400D01*
X253520376Y-133049400D01*
X253231590Y-133049400D01*
X252942804Y-133049400D01*
X252942804Y-133309745D01*
X252942804Y-133570089D01*
X252745811Y-133570089D01*
X252751521Y-133569355D01*
X252782823Y-133561209D01*
X252807608Y-133549129D01*
X252826491Y-133532389D01*
X252840087Y-133510261D01*
X252849009Y-133482016D01*
X252853873Y-133446928D01*
X252855294Y-133405881D01*
X252854327Y-133371158D01*
X252851195Y-133343544D01*
X252845554Y-133321588D01*
X252839884Y-133309745D01*
X252837057Y-133303840D01*
X252828173Y-133291923D01*
X252820028Y-133283256D01*
X252811479Y-133275837D01*
X252801772Y-133269538D01*
X252790149Y-133264230D01*
X252775855Y-133259781D01*
X252758134Y-133256064D01*
X252736228Y-133252949D01*
X252709383Y-133250306D01*
X252676843Y-133248006D01*
X252637850Y-133245920D01*
X252591648Y-133243917D01*
X252537483Y-133241869D01*
X252535259Y-133241789D01*
X252502889Y-133240470D01*
X252472791Y-133238958D01*
X252446252Y-133237342D01*
X252424559Y-133235707D01*
X252408998Y-133234141D01*
X252400855Y-133232731D01*
X252400727Y-133232687D01*
X252388886Y-133224565D01*
X252382396Y-133212007D01*
X252381356Y-133197576D01*
X252385869Y-133183840D01*
X252396036Y-133173363D01*
X252398333Y-133172092D01*
X252406983Y-133169932D01*
X252422868Y-133167985D01*
X252444473Y-133166296D01*
X252470283Y-133164911D01*
X252498783Y-133163875D01*
X252528459Y-133163232D01*
X252557795Y-133163029D01*
X252585277Y-133163310D01*
X252609390Y-133164121D01*
X252626372Y-133165285D01*
X252650680Y-133169281D01*
X252667301Y-133176266D01*
X252676928Y-133186718D01*
X252680257Y-133201116D01*
X252680272Y-133202345D01*
X252680272Y-133215670D01*
X252759617Y-133215670D01*
X252838962Y-133215670D01*
X252836814Y-133173009D01*
X252833381Y-133138765D01*
X252826321Y-133111685D01*
X252814723Y-133090614D01*
X252797674Y-133074399D01*
X252774262Y-133061883D01*
X252743575Y-133051912D01*
X252740574Y-133051138D01*
X252727205Y-133048908D01*
X252706382Y-133046909D01*
X252679397Y-133045164D01*
X252647545Y-133043698D01*
X252612119Y-133042533D01*
X252574413Y-133041694D01*
X252535720Y-133041204D01*
X252497335Y-133041086D01*
X252460551Y-133041365D01*
X252426661Y-133042064D01*
X252396960Y-133043207D01*
X252376675Y-133044489D01*
X252338246Y-133048778D01*
X252307352Y-133055262D01*
X252282937Y-133064473D01*
X252263942Y-133076943D01*
X252249311Y-133093206D01*
X252237988Y-133113793D01*
X252237669Y-133114527D01*
X252231521Y-133134362D01*
X252226975Y-133160301D01*
X252224267Y-133189803D01*
X252223631Y-133220329D01*
X252225228Y-133248601D01*
X252230396Y-133279457D01*
X252239247Y-133303726D01*
X252252545Y-133323072D01*
X252264596Y-133334326D01*
X252271237Y-133339339D01*
X252278190Y-133343704D01*
X252286133Y-133347500D01*
X252295744Y-133350805D01*
X252307701Y-133353697D01*
X252322683Y-133356253D01*
X252341368Y-133358552D01*
X252364432Y-133360672D01*
X252392555Y-133362691D01*
X252426414Y-133364687D01*
X252466688Y-133366737D01*
X252514054Y-133368920D01*
X252569191Y-133371315D01*
X252595927Y-133372448D01*
X252628495Y-133373929D01*
X252653334Y-133375565D01*
X252671461Y-133377802D01*
X252683894Y-133381084D01*
X252691650Y-133385859D01*
X252695746Y-133392571D01*
X252697201Y-133401666D01*
X252697030Y-133413589D01*
X252696873Y-133416666D01*
X252696220Y-133426555D01*
X252694842Y-133434529D01*
X252691881Y-133440796D01*
X252686474Y-133445560D01*
X252677761Y-133449028D01*
X252664882Y-133451406D01*
X252646975Y-133452899D01*
X252623180Y-133453714D01*
X252592636Y-133454056D01*
X252554482Y-133454131D01*
X252540255Y-133454133D01*
X252503089Y-133454105D01*
X252473628Y-133453977D01*
X252450825Y-133453682D01*
X252433634Y-133453156D01*
X252421009Y-133452334D01*
X252411904Y-133451149D01*
X252405272Y-133449538D01*
X252400066Y-133447435D01*
X252395862Y-133445142D01*
X252385617Y-133437592D01*
X252379900Y-133428119D01*
X252376793Y-133415607D01*
X252373038Y-133395068D01*
X252294126Y-133395068D01*
X252215214Y-133395068D01*
X252132591Y-133395068D01*
X252133428Y-133380087D01*
X252134540Y-133353498D01*
X252135544Y-133320389D01*
X252136395Y-133282989D01*
X252137049Y-133243528D01*
X252137459Y-133204237D01*
X252137581Y-133175197D01*
X252137705Y-133049400D01*
X252056758Y-133049400D01*
X251975811Y-133049400D01*
X251975558Y-133173009D01*
X251975357Y-133208180D01*
X251974922Y-133243296D01*
X251974293Y-133276581D01*
X251973508Y-133306257D01*
X251972607Y-133330548D01*
X251971735Y-133346247D01*
X251969333Y-133372392D01*
X251965953Y-133391486D01*
X251960811Y-133405227D01*
X251953121Y-133415314D01*
X251942096Y-133423443D01*
X251933961Y-133427882D01*
X251927555Y-133430754D01*
X251920249Y-133432967D01*
X251910787Y-133434630D01*
X251897913Y-133435855D01*
X251880371Y-133436752D01*
X251856905Y-133437430D01*
X251826258Y-133438002D01*
X251817308Y-133438141D01*
X251771956Y-133438499D01*
X251734524Y-133437923D01*
X251704209Y-133436192D01*
X251680209Y-133433088D01*
X251661723Y-133428394D01*
X251647948Y-133421889D01*
X251638083Y-133413356D01*
X251631324Y-133402575D01*
X251626871Y-133389327D01*
X251626108Y-133385999D01*
X251624806Y-133375290D01*
X251623684Y-133356592D01*
X251622763Y-133330664D01*
X251622061Y-133298266D01*
X251621600Y-133260158D01*
X251621399Y-133217101D01*
X251621392Y-133206704D01*
X251621392Y-133049400D01*
X251540099Y-133049400D01*
X251458805Y-133049400D01*
X251358860Y-133049400D01*
X251358860Y-133049282D01*
X251213483Y-133050435D01*
X251068105Y-133051588D01*
X250993612Y-133214067D01*
X250977474Y-133249106D01*
X250962421Y-133281482D01*
X250948846Y-133310371D01*
X250937145Y-133334947D01*
X250927712Y-133354384D01*
X250920941Y-133367858D01*
X250917226Y-133374542D01*
X250916667Y-133375124D01*
X250914378Y-133370963D01*
X250908866Y-133359681D01*
X250900526Y-133342123D01*
X250889755Y-133319134D01*
X250876947Y-133291561D01*
X250862499Y-133260249D01*
X250846805Y-133226044D01*
X250840180Y-133211550D01*
X250766143Y-133049400D01*
X250620572Y-133049400D01*
X250475001Y-133049400D01*
X249976190Y-133049400D01*
X249976190Y-132375503D01*
X250466065Y-132375503D01*
X250466214Y-132409605D01*
X250466617Y-132442373D01*
X250467271Y-132472385D01*
X250468174Y-132498218D01*
X250469325Y-132518450D01*
X250470721Y-132531658D01*
X250471047Y-132533419D01*
X250480570Y-132564647D01*
X250494966Y-132589507D01*
X250515018Y-132608731D01*
X250541509Y-132623053D01*
X250575224Y-132633205D01*
X250578506Y-132633911D01*
X250598099Y-132636969D01*
X250625029Y-132639651D01*
X250657888Y-132641924D01*
X250695271Y-132643756D01*
X250735769Y-132645114D01*
X250777976Y-132645968D01*
X250820485Y-132646285D01*
X250861887Y-132646032D01*
X250900777Y-132645177D01*
X250935747Y-132643689D01*
X250954231Y-132642481D01*
X250995839Y-132638387D01*
X251029763Y-132632810D01*
X251057005Y-132625332D01*
X251078566Y-132615536D01*
X251095449Y-132603003D01*
X251108654Y-132587315D01*
X251115841Y-132575030D01*
X251121220Y-132563960D01*
X251124959Y-132554085D01*
X251127422Y-132543332D01*
X251128974Y-132529630D01*
X251129980Y-132510905D01*
X251130636Y-132490947D01*
X251132345Y-132432449D01*
X251048703Y-132432449D01*
X250965061Y-132432449D01*
X250965061Y-132456271D01*
X250964322Y-132470389D01*
X250961592Y-132481951D01*
X250956107Y-132491189D01*
X250947100Y-132498334D01*
X250933804Y-132503618D01*
X250915454Y-132507270D01*
X250891283Y-132509524D01*
X250860526Y-132510609D01*
X250822415Y-132510758D01*
X250785892Y-132510355D01*
X250744936Y-132509712D01*
X250711879Y-132508664D01*
X250685875Y-132506489D01*
X250666081Y-132502467D01*
X250651648Y-132495877D01*
X250641732Y-132485997D01*
X250635488Y-132472108D01*
X250632069Y-132453488D01*
X250630629Y-132429416D01*
X250630323Y-132399172D01*
X250630332Y-132377755D01*
X251212281Y-132377755D01*
X251212415Y-132420407D01*
X251212899Y-132455435D01*
X251213858Y-132483964D01*
X251215419Y-132507117D01*
X251217706Y-132526020D01*
X251220845Y-132541796D01*
X251224962Y-132555571D01*
X251230182Y-132568467D01*
X251234605Y-132577664D01*
X251247272Y-132596885D01*
X251264366Y-132612287D01*
X251286734Y-132624235D01*
X251315225Y-132633095D01*
X251350685Y-132639231D01*
X251385113Y-132642455D01*
X251404768Y-132643412D01*
X251430849Y-132644117D01*
X251462138Y-132644584D01*
X251497416Y-132644826D01*
X251535465Y-132644853D01*
X251575065Y-132644679D01*
X251614998Y-132644316D01*
X251654046Y-132643777D01*
X251690990Y-132643073D01*
X251724610Y-132642217D01*
X251753689Y-132641222D01*
X251777007Y-132640100D01*
X251793347Y-132638863D01*
X251798129Y-132638267D01*
X251798867Y-132638099D01*
X252019566Y-132638099D01*
X252098326Y-132638099D01*
X252177085Y-132638099D01*
X252177085Y-132443388D01*
X252177085Y-132248677D01*
X252188031Y-132248677D01*
X252190761Y-132249163D01*
X252193784Y-132251047D01*
X252197452Y-132254962D01*
X252202119Y-132261541D01*
X252208136Y-132271420D01*
X252215857Y-132285233D01*
X252225635Y-132303614D01*
X252237821Y-132327197D01*
X252252769Y-132356616D01*
X252270831Y-132392507D01*
X252292360Y-132435502D01*
X252296302Y-132443388D01*
X252393629Y-132638099D01*
X252461472Y-132637990D01*
X252529316Y-132637881D01*
X252627698Y-132443279D01*
X252650119Y-132398993D01*
X252668984Y-132361910D01*
X252684645Y-132331401D01*
X252697453Y-132306840D01*
X252707761Y-132287597D01*
X252715919Y-132273046D01*
X252722278Y-132262557D01*
X252727191Y-132255504D01*
X252731009Y-132251259D01*
X252734083Y-132249192D01*
X252736620Y-132248677D01*
X252747160Y-132248677D01*
X252744957Y-132443388D01*
X252742755Y-132638099D01*
X252823090Y-132638099D01*
X252903425Y-132638099D01*
X253004062Y-132638099D01*
X253085009Y-132638099D01*
X253165957Y-132638099D01*
X253165957Y-132575043D01*
X253165957Y-132511987D01*
X253337697Y-132509946D01*
X253384498Y-132509345D01*
X253423470Y-132508687D01*
X253455537Y-132507867D01*
X253481621Y-132506784D01*
X253502644Y-132505334D01*
X253519529Y-132503413D01*
X253533199Y-132500920D01*
X253544577Y-132497750D01*
X253554584Y-132493801D01*
X253564144Y-132488969D01*
X253573415Y-132483609D01*
X253590583Y-132471184D01*
X253604149Y-132456045D01*
X253614448Y-132437180D01*
X253621815Y-132413575D01*
X253626585Y-132384218D01*
X253629093Y-132348095D01*
X253629696Y-132313431D01*
X253629091Y-132273524D01*
X253626970Y-132241071D01*
X253623007Y-132214857D01*
X253616876Y-132193667D01*
X253608249Y-132176286D01*
X253596801Y-132161497D01*
X253586142Y-132151356D01*
X253578768Y-132145086D01*
X253571926Y-132139706D01*
X253564911Y-132135144D01*
X253557021Y-132131330D01*
X253547552Y-132128190D01*
X253535800Y-132125652D01*
X253521063Y-132123646D01*
X253502637Y-132122100D01*
X253479819Y-132120940D01*
X253451906Y-132120096D01*
X253418193Y-132119496D01*
X253377979Y-132119068D01*
X253330559Y-132118739D01*
X253275230Y-132118439D01*
X253263313Y-132118377D01*
X253078298Y-132117410D01*
X253712070Y-132117410D01*
X253714090Y-132313216D01*
X253714699Y-132366246D01*
X253715428Y-132411311D01*
X253716404Y-132449198D01*
X253717754Y-132480693D01*
X253719603Y-132506581D01*
X253722080Y-132527650D01*
X253725309Y-132544686D01*
X253729418Y-132558475D01*
X253734533Y-132569802D01*
X253740781Y-132579455D01*
X253748287Y-132588220D01*
X253757180Y-132596883D01*
X253760174Y-132599614D01*
X253778887Y-132613122D01*
X253802611Y-132624009D01*
X253832177Y-132632499D01*
X253868417Y-132638811D01*
X253912161Y-132643168D01*
X253927301Y-132644152D01*
X253942691Y-132644694D01*
X253964596Y-132644977D01*
X253991664Y-132645027D01*
X254022542Y-132644865D01*
X254055878Y-132644517D01*
X254090322Y-132644005D01*
X254124521Y-132643353D01*
X254157123Y-132642586D01*
X254186776Y-132641727D01*
X254212128Y-132640800D01*
X254231828Y-132639827D01*
X254244524Y-132638834D01*
X254246715Y-132638544D01*
X254283418Y-132630727D01*
X254312889Y-132619797D01*
X254336295Y-132605103D01*
X254354801Y-132585991D01*
X254363295Y-132573393D01*
X254368659Y-132563834D01*
X254373181Y-132554078D01*
X254376945Y-132543291D01*
X254380033Y-132530637D01*
X254382530Y-132515280D01*
X254384517Y-132496385D01*
X254386080Y-132473115D01*
X254387300Y-132444636D01*
X254388262Y-132410112D01*
X254389049Y-132368707D01*
X254389744Y-132319586D01*
X254389905Y-132306652D01*
X254390561Y-132253052D01*
X254465492Y-132253052D01*
X254581444Y-132253052D01*
X254697395Y-132253052D01*
X254697395Y-132445576D01*
X254697395Y-132638099D01*
X254780531Y-132638099D01*
X254863666Y-132638099D01*
X255169953Y-132638099D01*
X255460927Y-132638099D01*
X255751900Y-132638099D01*
X255839411Y-132638099D01*
X255920358Y-132638099D01*
X256001306Y-132638099D01*
X256001306Y-132572466D01*
X256001306Y-132506833D01*
X256140670Y-132506833D01*
X256180655Y-132506978D01*
X256215855Y-132507396D01*
X256245479Y-132508064D01*
X256268731Y-132508959D01*
X256284819Y-132510058D01*
X256292944Y-132511334D01*
X256303997Y-132517133D01*
X256312113Y-132526528D01*
X256317789Y-132540784D01*
X256321524Y-132561167D01*
X256323812Y-132588942D01*
X256323873Y-132590074D01*
X256326407Y-132638099D01*
X256404944Y-132638099D01*
X256483481Y-132638099D01*
X256481838Y-132562621D01*
X256480738Y-132528714D01*
X256478734Y-132502371D01*
X256475282Y-132482410D01*
X256469837Y-132467653D01*
X256461854Y-132456918D01*
X256450789Y-132449025D01*
X256436098Y-132442794D01*
X256424923Y-132439246D01*
X256406380Y-132433770D01*
X256421908Y-132430857D01*
X256434339Y-132426247D01*
X256448617Y-132417770D01*
X256455619Y-132412380D01*
X256466092Y-132402157D01*
X256474064Y-132390871D01*
X256479817Y-132377247D01*
X256483631Y-132360011D01*
X256485789Y-132337890D01*
X256486572Y-132309611D01*
X256486260Y-132273899D01*
X256486256Y-132273669D01*
X256485639Y-132245865D01*
X256484884Y-132225199D01*
X256483783Y-132210057D01*
X256482133Y-132198828D01*
X256479726Y-132189897D01*
X256476357Y-132181652D01*
X256473864Y-132176512D01*
X256459245Y-132155266D01*
X256439320Y-132137170D01*
X256416885Y-132124582D01*
X256409214Y-132121985D01*
X256401007Y-132120967D01*
X256384315Y-132120069D01*
X256359406Y-132119296D01*
X256326545Y-132118650D01*
X256286000Y-132118138D01*
X256238037Y-132117761D01*
X256182921Y-132117526D01*
X256120920Y-132117436D01*
X256116164Y-132117435D01*
X255839411Y-132117410D01*
X255839411Y-132377755D01*
X255839411Y-132638099D01*
X255751900Y-132638099D01*
X255751900Y-132574654D01*
X255751900Y-132511209D01*
X255541874Y-132511209D01*
X255331848Y-132511209D01*
X255331848Y-132471829D01*
X255331848Y-132432449D01*
X255530935Y-132432449D01*
X255730022Y-132432449D01*
X255730022Y-132377755D01*
X255730022Y-132373379D01*
X255730022Y-132314310D01*
X255530935Y-132314310D01*
X255331848Y-132314310D01*
X255331848Y-132277118D01*
X255331848Y-132239925D01*
X255541874Y-132239925D01*
X255751900Y-132239925D01*
X255751900Y-132178668D01*
X255751900Y-132117410D01*
X255460927Y-132117410D01*
X255169953Y-132117410D01*
X255169953Y-132377755D01*
X255169953Y-132638099D01*
X254863666Y-132638099D01*
X254863666Y-132445576D01*
X254863666Y-132377755D01*
X254863666Y-132253052D01*
X254979618Y-132253052D01*
X255095569Y-132253052D01*
X255095569Y-132185231D01*
X255095569Y-132117410D01*
X254780531Y-132117410D01*
X254465492Y-132117410D01*
X254465492Y-132185231D01*
X254465492Y-132253052D01*
X254390561Y-132253052D01*
X254391392Y-132185231D01*
X254392222Y-132117410D01*
X254310717Y-132117410D01*
X254229213Y-132117410D01*
X254228937Y-132254146D01*
X254228754Y-132304092D01*
X254228331Y-132346067D01*
X254227537Y-132380846D01*
X254226235Y-132409210D01*
X254224294Y-132431936D01*
X254221578Y-132449802D01*
X254217954Y-132463585D01*
X254213288Y-132474066D01*
X254207446Y-132482020D01*
X254200293Y-132488227D01*
X254191697Y-132493464D01*
X254187363Y-132495692D01*
X254180431Y-132498660D01*
X254172280Y-132500929D01*
X254161570Y-132502630D01*
X254146966Y-132503892D01*
X254127129Y-132504843D01*
X254100722Y-132505614D01*
X254080092Y-132506066D01*
X254028852Y-132506421D01*
X253986068Y-132505226D01*
X253951581Y-132502469D01*
X253925232Y-132498136D01*
X253906862Y-132492214D01*
X253905029Y-132491315D01*
X253898378Y-132487580D01*
X253892874Y-132483339D01*
X253888399Y-132477770D01*
X253884837Y-132470054D01*
X253882070Y-132459369D01*
X253879982Y-132444893D01*
X253878457Y-132425807D01*
X253877376Y-132401290D01*
X253876623Y-132370519D01*
X253876081Y-132332675D01*
X253875634Y-132286936D01*
X253875615Y-132284775D01*
X253874151Y-132117410D01*
X253793111Y-132117410D01*
X253712070Y-132117410D01*
X253078298Y-132117410D01*
X253004062Y-132117022D01*
X253004062Y-132377560D01*
X253004062Y-132638099D01*
X252903425Y-132638099D01*
X252903425Y-132377755D01*
X252903425Y-132377560D01*
X252903425Y-132117410D01*
X252757938Y-132117455D01*
X252612451Y-132117499D01*
X252538284Y-132279350D01*
X252522164Y-132314384D01*
X252507116Y-132346810D01*
X252493537Y-132375793D01*
X252481827Y-132400496D01*
X252472381Y-132420081D01*
X252465599Y-132433712D01*
X252461879Y-132440553D01*
X252461333Y-132441200D01*
X252458974Y-132437354D01*
X252453402Y-132426373D01*
X252445014Y-132409094D01*
X252434207Y-132386356D01*
X252421377Y-132358995D01*
X252406922Y-132327849D01*
X252391237Y-132293755D01*
X252384628Y-132279305D01*
X252310708Y-132117410D01*
X252165137Y-132117410D01*
X252019566Y-132117410D01*
X252019566Y-132377755D01*
X252019566Y-132638099D01*
X251798867Y-132638099D01*
X251833674Y-132630174D01*
X251862189Y-132617605D01*
X251884427Y-132599812D01*
X251901139Y-132576044D01*
X251913078Y-132545552D01*
X251919419Y-132517438D01*
X251921503Y-132499976D01*
X251923071Y-132475621D01*
X251924135Y-132446030D01*
X251924707Y-132412861D01*
X251924799Y-132377769D01*
X251924799Y-132377755D01*
X251924421Y-132342411D01*
X251923585Y-132308444D01*
X251922304Y-132277524D01*
X251920587Y-132251308D01*
X251918448Y-132231451D01*
X251917382Y-132225186D01*
X251908354Y-132192340D01*
X251895573Y-132166619D01*
X251878112Y-132146865D01*
X251855044Y-132131920D01*
X251836456Y-132124186D01*
X251822611Y-132120225D01*
X251805108Y-132116924D01*
X251783302Y-132114252D01*
X251756549Y-132112178D01*
X251724204Y-132110672D01*
X251685624Y-132109702D01*
X251640164Y-132109237D01*
X251587179Y-132109247D01*
X251533292Y-132109628D01*
X251481884Y-132110197D01*
X251438405Y-132110900D01*
X251402032Y-132111835D01*
X251371941Y-132113097D01*
X251347309Y-132114783D01*
X251327315Y-132116989D01*
X251311135Y-132119811D01*
X251297947Y-132123347D01*
X251286927Y-132127692D01*
X251277253Y-132132942D01*
X251268102Y-132139194D01*
X251265759Y-132140956D01*
X251252704Y-132151848D01*
X251241917Y-132163390D01*
X251233190Y-132176502D01*
X251226315Y-132192107D01*
X251221084Y-132211128D01*
X251217288Y-132234485D01*
X251214719Y-132263102D01*
X251213169Y-132297899D01*
X251212429Y-132339800D01*
X251212281Y-132377755D01*
X250630332Y-132377755D01*
X250630518Y-132341031D01*
X250631545Y-132312068D01*
X250634117Y-132289878D01*
X250638939Y-132273471D01*
X250646715Y-132261860D01*
X250658151Y-132254054D01*
X250673951Y-132249066D01*
X250694820Y-132245906D01*
X250721461Y-132243585D01*
X250726188Y-132243235D01*
X250752044Y-132241923D01*
X250781124Y-132241429D01*
X250811847Y-132241679D01*
X250842627Y-132242599D01*
X250871882Y-132244114D01*
X250898027Y-132246150D01*
X250919479Y-132248634D01*
X250934654Y-132251491D01*
X250939818Y-132253226D01*
X250947138Y-132257303D01*
X250951791Y-132262722D01*
X250954991Y-132271843D01*
X250957954Y-132287027D01*
X250958314Y-132289150D01*
X250961082Y-132305559D01*
X251042491Y-132305559D01*
X251123899Y-132305559D01*
X251121255Y-132260709D01*
X251118295Y-132226997D01*
X251113541Y-132200399D01*
X251106497Y-132179378D01*
X251096667Y-132162395D01*
X251085487Y-132149731D01*
X251074705Y-132140385D01*
X251062834Y-132132484D01*
X251049109Y-132125930D01*
X251032768Y-132120622D01*
X251013047Y-132116462D01*
X250989180Y-132113351D01*
X250960405Y-132111189D01*
X250925958Y-132109877D01*
X250885074Y-132109316D01*
X250836990Y-132109406D01*
X250780941Y-132110049D01*
X250780059Y-132110062D01*
X250742053Y-132110735D01*
X250705887Y-132111588D01*
X250672719Y-132112577D01*
X250643705Y-132113660D01*
X250620003Y-132114793D01*
X250602770Y-132115933D01*
X250593317Y-132117008D01*
X250556983Y-132125652D01*
X250528286Y-132136751D01*
X250506267Y-132151130D01*
X250489964Y-132169615D01*
X250478417Y-132193033D01*
X250470666Y-132222209D01*
X250470602Y-132222544D01*
X250469189Y-132234775D01*
X250468041Y-132254208D01*
X250467157Y-132279420D01*
X250466534Y-132308988D01*
X250466171Y-132341490D01*
X250466065Y-132375503D01*
X249976190Y-132375503D01*
X249976190Y-131706110D01*
X250475001Y-131706110D01*
X250560324Y-131706110D01*
X250645647Y-131706110D01*
X250645647Y-131612036D01*
X250645647Y-131517962D01*
X250820668Y-131517962D01*
X250995690Y-131517962D01*
X250995690Y-131612036D01*
X250995690Y-131706110D01*
X251081013Y-131706110D01*
X251166336Y-131706110D01*
X251166336Y-131443577D01*
X251166336Y-131428758D01*
X251260951Y-131428758D01*
X251261150Y-131470996D01*
X251262580Y-131513085D01*
X251262836Y-131518021D01*
X251265316Y-131555264D01*
X251268486Y-131585131D01*
X251272626Y-131608991D01*
X251278017Y-131628210D01*
X251284940Y-131644155D01*
X251290803Y-131654032D01*
X251302443Y-131668854D01*
X251316415Y-131680855D01*
X251333744Y-131690360D01*
X251355450Y-131697695D01*
X251382557Y-131703184D01*
X251416086Y-131707152D01*
X251457060Y-131709926D01*
X251468248Y-131710455D01*
X251497385Y-131711440D01*
X251531588Y-131712095D01*
X251569489Y-131712438D01*
X251609715Y-131712485D01*
X251650895Y-131712254D01*
X251691660Y-131711761D01*
X251730638Y-131711023D01*
X251766459Y-131710057D01*
X251797751Y-131708881D01*
X251823145Y-131707510D01*
X251839546Y-131706110D01*
X252067697Y-131706110D01*
X252149322Y-131706110D01*
X252230948Y-131706110D01*
X252227819Y-131511398D01*
X252224691Y-131316687D01*
X252237009Y-131316687D01*
X252239928Y-131316949D01*
X252242867Y-131318163D01*
X252246187Y-131320969D01*
X252250249Y-131326007D01*
X252255413Y-131333917D01*
X252262039Y-131345340D01*
X252270488Y-131360915D01*
X252281121Y-131381284D01*
X252294298Y-131407085D01*
X252310379Y-131438960D01*
X252329725Y-131477548D01*
X252346654Y-131511398D01*
X252443980Y-131706110D01*
X252511481Y-131706110D01*
X252578983Y-131706110D01*
X252676887Y-131512492D01*
X252699207Y-131468408D01*
X252717973Y-131431512D01*
X252733543Y-131401166D01*
X252746276Y-131376731D01*
X252756533Y-131357569D01*
X252764671Y-131343040D01*
X252771050Y-131332506D01*
X252776029Y-131325328D01*
X252779968Y-131320868D01*
X252783224Y-131318487D01*
X252786158Y-131317546D01*
X252786513Y-131317499D01*
X252798234Y-131316123D01*
X252795423Y-131511116D01*
X252792613Y-131706110D01*
X252872084Y-131706110D01*
X252951556Y-131706110D01*
X253056568Y-131706110D01*
X253347542Y-131706110D01*
X253638515Y-131706110D01*
X253638515Y-131640477D01*
X253638515Y-131574844D01*
X253426301Y-131574844D01*
X253214088Y-131574844D01*
X253214088Y-131537652D01*
X253214088Y-131500459D01*
X253413175Y-131500459D01*
X253612262Y-131500459D01*
X253612262Y-131439202D01*
X253612262Y-131377944D01*
X253413175Y-131377944D01*
X253214088Y-131377944D01*
X253214088Y-131342940D01*
X253214088Y-131307936D01*
X253424114Y-131307936D01*
X253634140Y-131307936D01*
X253634140Y-131244490D01*
X253634140Y-131181045D01*
X253345354Y-131181045D01*
X253056568Y-131181045D01*
X253056568Y-131443577D01*
X253056568Y-131706110D01*
X252951556Y-131706110D01*
X252951556Y-131443577D01*
X252951556Y-131181045D01*
X252808217Y-131181045D01*
X252664878Y-131181045D01*
X252588604Y-131347467D01*
X252571414Y-131384696D01*
X252555638Y-131418321D01*
X252541615Y-131447651D01*
X252529686Y-131471996D01*
X252520189Y-131490667D01*
X252513465Y-131502975D01*
X252509853Y-131508231D01*
X252509382Y-131508268D01*
X252506973Y-131503172D01*
X252501337Y-131490991D01*
X252492876Y-131472605D01*
X252481994Y-131448890D01*
X252469094Y-131420726D01*
X252454579Y-131388991D01*
X252438850Y-131354562D01*
X252433046Y-131341846D01*
X252359658Y-131181045D01*
X252213678Y-131181045D01*
X252067697Y-131181045D01*
X252067697Y-131443577D01*
X252067697Y-131706110D01*
X251839546Y-131706110D01*
X251841268Y-131705963D01*
X251842357Y-131705833D01*
X251879596Y-131698261D01*
X251910218Y-131685609D01*
X251933944Y-131668024D01*
X251947970Y-131650172D01*
X251954835Y-131637624D01*
X251960386Y-131624588D01*
X251964756Y-131609994D01*
X251968077Y-131592774D01*
X251970484Y-131571858D01*
X251972108Y-131546176D01*
X251973082Y-131514659D01*
X251973539Y-131476238D01*
X251973623Y-131443577D01*
X251973458Y-131399652D01*
X251972880Y-131363398D01*
X251971759Y-131333738D01*
X251969968Y-131309598D01*
X251967378Y-131289902D01*
X251963860Y-131273575D01*
X251959288Y-131259540D01*
X251953532Y-131246722D01*
X251949198Y-131238714D01*
X251932629Y-131217442D01*
X251909631Y-131200877D01*
X251879530Y-131188562D01*
X251871443Y-131186260D01*
X251861027Y-131184661D01*
X251842953Y-131183176D01*
X251818316Y-131181818D01*
X251788209Y-131180599D01*
X251753725Y-131179533D01*
X251715958Y-131178633D01*
X251676001Y-131177913D01*
X251634947Y-131177385D01*
X251593890Y-131177063D01*
X251553924Y-131176961D01*
X251516141Y-131177090D01*
X251481635Y-131177466D01*
X251451500Y-131178100D01*
X251426829Y-131179006D01*
X251408716Y-131180197D01*
X251404717Y-131180613D01*
X251367449Y-131186741D01*
X251337646Y-131195821D01*
X251314328Y-131208509D01*
X251296516Y-131225461D01*
X251283229Y-131247334D01*
X251275745Y-131267041D01*
X251270935Y-131287862D01*
X251266974Y-131315922D01*
X251263939Y-131349743D01*
X251261906Y-131387847D01*
X251260951Y-131428758D01*
X251166336Y-131428758D01*
X251166336Y-131181045D01*
X251081013Y-131181045D01*
X250995690Y-131181045D01*
X250995690Y-131275119D01*
X250995690Y-131369193D01*
X250820668Y-131369193D01*
X250645647Y-131369193D01*
X250645647Y-131275119D01*
X250645647Y-131181045D01*
X250560324Y-131181045D01*
X250475001Y-131181045D01*
X250475001Y-131443577D01*
X250475001Y-131706110D01*
X249976190Y-131706110D01*
X249976190Y-131443577D01*
X249976190Y-129794000D01*
X253476620Y-129794000D01*
X256977051Y-129794000D01*
X256977051Y-133294430D01*
G37*
%TD*%
D11*
%TO.C,U25*%
X201930000Y-128270000D03*
D12*
X204470000Y-128270000D03*
X207010000Y-128270000D03*
X209550000Y-128270000D03*
X212090000Y-128270000D03*
X214630000Y-128270000D03*
X217170000Y-128270000D03*
X219710000Y-128270000D03*
X219710000Y-120650000D03*
X217170000Y-120650000D03*
X214630000Y-120650000D03*
X212090000Y-120650000D03*
X209550000Y-120650000D03*
X207010000Y-120650000D03*
X204470000Y-120650000D03*
X201930000Y-120650000D03*
%TD*%
D11*
%TO.C,U20*%
X231135000Y-102840000D03*
D12*
X233675000Y-102840000D03*
X236215000Y-102840000D03*
X238755000Y-102840000D03*
X241295000Y-102840000D03*
X243835000Y-102840000D03*
X246375000Y-102840000D03*
X246375000Y-95220000D03*
X243835000Y-95220000D03*
X241295000Y-95220000D03*
X238755000Y-95220000D03*
X236215000Y-95220000D03*
X233675000Y-95220000D03*
X231135000Y-95220000D03*
%TD*%
D13*
%TO.C,U33*%
X57150000Y-91440000D03*
D14*
X54610000Y-88900000D03*
X54610000Y-91440000D03*
X52070000Y-88900000D03*
X49530000Y-91440000D03*
X52070000Y-91440000D03*
X49530000Y-93980000D03*
X52070000Y-93980000D03*
X49530000Y-96520000D03*
X52070000Y-96520000D03*
X49530000Y-99060000D03*
X52070000Y-99060000D03*
X49530000Y-101600000D03*
X52070000Y-104140000D03*
X52070000Y-101600000D03*
X54610000Y-104140000D03*
X54610000Y-101600000D03*
X57150000Y-104140000D03*
X57150000Y-101600000D03*
X59690000Y-104140000D03*
X62230000Y-101600000D03*
X59690000Y-101600000D03*
X62230000Y-99060000D03*
X59690000Y-99060000D03*
X62230000Y-96520000D03*
X59690000Y-96520000D03*
X62230000Y-93980000D03*
X59690000Y-93980000D03*
X62230000Y-91440000D03*
X59690000Y-88900000D03*
X59690000Y-91440000D03*
X57150000Y-88900000D03*
%TD*%
D11*
%TO.C,U6*%
X69860000Y-64765000D03*
D12*
X69860000Y-67305000D03*
X69860000Y-69845000D03*
X69860000Y-72385000D03*
X69860000Y-74925000D03*
X69860000Y-77465000D03*
X69860000Y-80005000D03*
X77480000Y-80005000D03*
X77480000Y-77465000D03*
X77480000Y-74925000D03*
X77480000Y-72385000D03*
X77480000Y-69845000D03*
X77480000Y-67305000D03*
X77480000Y-64765000D03*
%TD*%
D15*
%TO.C,C24*%
X196850000Y-121960000D03*
X196850000Y-126960000D03*
%TD*%
D11*
%TO.C,U27*%
X168905000Y-64760000D03*
D12*
X171445000Y-64760000D03*
X173985000Y-64760000D03*
X176525000Y-64760000D03*
X179065000Y-64760000D03*
X181605000Y-64760000D03*
X184145000Y-64760000D03*
X184145000Y-57140000D03*
X181605000Y-57140000D03*
X179065000Y-57140000D03*
X176525000Y-57140000D03*
X173985000Y-57140000D03*
X171445000Y-57140000D03*
X168905000Y-57140000D03*
%TD*%
D15*
%TO.C,C10*%
X135636000Y-133096000D03*
X140636000Y-133096000D03*
%TD*%
%TO.C,C12*%
X163830000Y-109300000D03*
X163830000Y-114300000D03*
%TD*%
%TO.C,C1*%
X53380000Y-82550000D03*
X58380000Y-82550000D03*
%TD*%
D11*
%TO.C,U7*%
X231140000Y-115570000D03*
D12*
X233680000Y-115570000D03*
X236220000Y-115570000D03*
X238760000Y-115570000D03*
X241300000Y-115570000D03*
X243840000Y-115570000D03*
X246380000Y-115570000D03*
X246380000Y-107950000D03*
X243840000Y-107950000D03*
X241300000Y-107950000D03*
X238760000Y-107950000D03*
X236220000Y-107950000D03*
X233680000Y-107950000D03*
X231140000Y-107950000D03*
%TD*%
D15*
%TO.C,R8*%
X231140000Y-62230000D03*
D12*
X223520000Y-62230000D03*
%TD*%
D11*
%TO.C,U11*%
X168910000Y-102870000D03*
D12*
X171450000Y-102870000D03*
X173990000Y-102870000D03*
X176530000Y-102870000D03*
X179070000Y-102870000D03*
X181610000Y-102870000D03*
X184150000Y-102870000D03*
X186690000Y-102870000D03*
X189230000Y-102870000D03*
X191770000Y-102870000D03*
X191770000Y-95250000D03*
X189230000Y-95250000D03*
X186690000Y-95250000D03*
X184150000Y-95250000D03*
X181610000Y-95250000D03*
X179070000Y-95250000D03*
X176530000Y-95250000D03*
X173990000Y-95250000D03*
X171450000Y-95250000D03*
X168910000Y-95250000D03*
%TD*%
D15*
%TO.C,C19*%
X163830000Y-83860000D03*
X163830000Y-88860000D03*
%TD*%
%TO.C,C4*%
X76200000Y-59690000D03*
X71200000Y-59690000D03*
%TD*%
D11*
%TO.C,U32*%
X168910000Y-128270000D03*
D12*
X171450000Y-128270000D03*
X173990000Y-128270000D03*
X176530000Y-128270000D03*
X179070000Y-128270000D03*
X181610000Y-128270000D03*
X184150000Y-128270000D03*
X186690000Y-128270000D03*
X189230000Y-128270000D03*
X191770000Y-128270000D03*
X191770000Y-120650000D03*
X189230000Y-120650000D03*
X186690000Y-120650000D03*
X184150000Y-120650000D03*
X181610000Y-120650000D03*
X179070000Y-120650000D03*
X176530000Y-120650000D03*
X173990000Y-120650000D03*
X171450000Y-120650000D03*
X168910000Y-120650000D03*
%TD*%
D15*
%TO.C,C7*%
X118070000Y-72390000D03*
X113070000Y-72390000D03*
%TD*%
D16*
%TO.C,J2*%
X254000000Y-85090000D03*
D17*
X254000000Y-87630000D03*
%TD*%
D18*
%TO.C,D4*%
X237490000Y-55880000D03*
D19*
X240030000Y-55880000D03*
%TD*%
D15*
%TO.C,C29*%
X196850000Y-58460000D03*
X196850000Y-63460000D03*
%TD*%
%TO.C,C22*%
X226060000Y-83860000D03*
X226060000Y-88860000D03*
%TD*%
D11*
%TO.C,D1*%
X246380000Y-64770000D03*
D12*
X254000000Y-64770000D03*
%TD*%
D11*
%TO.C,U24*%
X201930000Y-115570000D03*
D12*
X204470000Y-115570000D03*
X207010000Y-115570000D03*
X209550000Y-115570000D03*
X212090000Y-115570000D03*
X214630000Y-115570000D03*
X217170000Y-115570000D03*
X219710000Y-115570000D03*
X219710000Y-107950000D03*
X217170000Y-107950000D03*
X214630000Y-107950000D03*
X212090000Y-107950000D03*
X209550000Y-107950000D03*
X207010000Y-107950000D03*
X204470000Y-107950000D03*
X201930000Y-107950000D03*
%TD*%
D20*
%TO.C,U34*%
X50400000Y-58420000D03*
X50400000Y-59690000D03*
X50400000Y-60960000D03*
X50400000Y-62230000D03*
X50400000Y-63500000D03*
X50400000Y-64770000D03*
X50400000Y-66040000D03*
X50400000Y-67310000D03*
X50400000Y-68580000D03*
X50400000Y-69850000D03*
X50400000Y-71120000D03*
X50400000Y-72390000D03*
X50400000Y-73660000D03*
X50400000Y-74930000D03*
X50400000Y-76200000D03*
X50400000Y-77470000D03*
X63500000Y-77470000D03*
X63500000Y-76200000D03*
X63500000Y-74930000D03*
X63500000Y-73660000D03*
X63500000Y-72390000D03*
X63500000Y-71120000D03*
X63500000Y-69850000D03*
X63500000Y-68580000D03*
X63500000Y-67310000D03*
X63500000Y-66040000D03*
X63500000Y-64770000D03*
X63500000Y-63500000D03*
X63500000Y-62230000D03*
X63500000Y-60960000D03*
X63500000Y-59690000D03*
X63500000Y-58420000D03*
%TD*%
D11*
%TO.C,U26*%
X168910000Y-77470000D03*
D12*
X171450000Y-77470000D03*
X173990000Y-77470000D03*
X176530000Y-77470000D03*
X179070000Y-77470000D03*
X181610000Y-77470000D03*
X184150000Y-77470000D03*
X184150000Y-69850000D03*
X181610000Y-69850000D03*
X179070000Y-69850000D03*
X176530000Y-69850000D03*
X173990000Y-69850000D03*
X171450000Y-69850000D03*
X168910000Y-69850000D03*
%TD*%
D11*
%TO.C,X1*%
X57150000Y-130810000D03*
D15*
X57150000Y-115570000D03*
X49530000Y-115570000D03*
X49530000Y-130810000D03*
%TD*%
%TO.C,C27*%
X196850000Y-83860000D03*
X196850000Y-88860000D03*
%TD*%
D11*
%TO.C,U5*%
X231140000Y-90150000D03*
D12*
X233680000Y-90150000D03*
X236220000Y-90150000D03*
X238760000Y-90150000D03*
X241300000Y-90150000D03*
X243840000Y-90150000D03*
X246380000Y-90150000D03*
X246380000Y-82530000D03*
X243840000Y-82530000D03*
X241300000Y-82530000D03*
X238760000Y-82530000D03*
X236220000Y-82530000D03*
X233680000Y-82530000D03*
X231140000Y-82530000D03*
%TD*%
D15*
%TO.C,C25*%
X196850000Y-109260000D03*
X196850000Y-114260000D03*
%TD*%
D11*
%TO.C,U9*%
X231140000Y-77470000D03*
D12*
X233680000Y-77470000D03*
X236220000Y-77470000D03*
X238760000Y-77470000D03*
X241300000Y-77470000D03*
X243840000Y-77470000D03*
X246380000Y-77470000D03*
X246380000Y-69850000D03*
X243840000Y-69850000D03*
X241300000Y-69850000D03*
X238760000Y-69850000D03*
X236220000Y-69850000D03*
X233680000Y-69850000D03*
X231140000Y-69850000D03*
%TD*%
D11*
%TO.C,U8*%
X135890000Y-128270000D03*
D12*
X138430000Y-128270000D03*
X140970000Y-128270000D03*
X143510000Y-128270000D03*
X146050000Y-128270000D03*
X148590000Y-128270000D03*
X151130000Y-128270000D03*
X153670000Y-128270000D03*
X156210000Y-128270000D03*
X158750000Y-128270000D03*
X158750000Y-120650000D03*
X156210000Y-120650000D03*
X153670000Y-120650000D03*
X151130000Y-120650000D03*
X148590000Y-120650000D03*
X146050000Y-120650000D03*
X143510000Y-120650000D03*
X140970000Y-120650000D03*
X138430000Y-120650000D03*
X135890000Y-120650000D03*
%TD*%
D11*
%TO.C,U19*%
X231140000Y-128250000D03*
D12*
X233680000Y-128250000D03*
X236220000Y-128250000D03*
X238760000Y-128250000D03*
X241300000Y-128250000D03*
X243840000Y-128250000D03*
X246380000Y-128250000D03*
X246380000Y-120630000D03*
X243840000Y-120630000D03*
X241300000Y-120630000D03*
X238760000Y-120630000D03*
X236220000Y-120630000D03*
X233680000Y-120630000D03*
X231140000Y-120630000D03*
%TD*%
D15*
%TO.C,C18*%
X163830000Y-96560000D03*
X163830000Y-101560000D03*
%TD*%
%TO.C,R6*%
X234950000Y-62230000D03*
D12*
X242570000Y-62230000D03*
%TD*%
D15*
%TO.C,C34*%
X130810000Y-96560000D03*
X130810000Y-101560000D03*
%TD*%
%TO.C,C26*%
X196850000Y-96560000D03*
X196850000Y-101560000D03*
%TD*%
%TO.C,C32*%
X130810000Y-64810000D03*
X130810000Y-69810000D03*
%TD*%
%TO.C,R11*%
X149860000Y-76200000D03*
D12*
X157480000Y-76200000D03*
%TD*%
D11*
%TO.C,U17*%
X201920000Y-102860000D03*
D12*
X204460000Y-102860000D03*
X207000000Y-102860000D03*
X209540000Y-102860000D03*
X212080000Y-102860000D03*
X214620000Y-102860000D03*
X217160000Y-102860000D03*
X219700000Y-102860000D03*
X219700000Y-95240000D03*
X217160000Y-95240000D03*
X214620000Y-95240000D03*
X212080000Y-95240000D03*
X209540000Y-95240000D03*
X207000000Y-95240000D03*
X204460000Y-95240000D03*
X201920000Y-95240000D03*
%TD*%
D15*
%TO.C,C33*%
X130810000Y-83860000D03*
X130810000Y-88860000D03*
%TD*%
D18*
%TO.C,D6*%
X252490000Y-55880000D03*
D19*
X255030000Y-55880000D03*
%TD*%
D21*
%TO.C,J3*%
X254000000Y-76200000D03*
D22*
X254000000Y-71120000D03*
%TD*%
%TO.C,J5*%
X85945000Y-52230000D03*
X85945000Y-72230000D03*
X123945000Y-52230000D03*
X123945000Y-72230000D03*
D16*
X121945000Y-55880000D03*
D17*
X121945000Y-58420000D03*
X121945000Y-60960000D03*
X121945000Y-63500000D03*
X121945000Y-66040000D03*
X121945000Y-68580000D03*
%TD*%
D15*
%TO.C,C37*%
X143510000Y-58420000D03*
X138510000Y-58420000D03*
%TD*%
D11*
%TO.C,U12*%
X201920000Y-90160000D03*
D12*
X204460000Y-90160000D03*
X207000000Y-90160000D03*
X209540000Y-90160000D03*
X212080000Y-90160000D03*
X214620000Y-90160000D03*
X217160000Y-90160000D03*
X219700000Y-90160000D03*
X219700000Y-82540000D03*
X217160000Y-82540000D03*
X214620000Y-82540000D03*
X212080000Y-82540000D03*
X209540000Y-82540000D03*
X207000000Y-82540000D03*
X204460000Y-82540000D03*
X201920000Y-82540000D03*
%TD*%
D15*
%TO.C,C30*%
X226060000Y-71160000D03*
X226060000Y-76160000D03*
%TD*%
D11*
%TO.C,U1*%
X201925000Y-77460000D03*
D12*
X204465000Y-77460000D03*
X207005000Y-77460000D03*
X209545000Y-77460000D03*
X212085000Y-77460000D03*
X214625000Y-77460000D03*
X217165000Y-77460000D03*
X217165000Y-69840000D03*
X214625000Y-69840000D03*
X212085000Y-69840000D03*
X209545000Y-69840000D03*
X207005000Y-69840000D03*
X204465000Y-69840000D03*
X201925000Y-69840000D03*
%TD*%
D15*
%TO.C,C21*%
X226060000Y-96560000D03*
X226060000Y-101560000D03*
%TD*%
D11*
%TO.C,U18*%
X69850000Y-90170000D03*
D12*
X69850000Y-92710000D03*
X69850000Y-95250000D03*
X69850000Y-97790000D03*
X69850000Y-100330000D03*
X69850000Y-102870000D03*
X69850000Y-105410000D03*
X77470000Y-105410000D03*
X77470000Y-102870000D03*
X77470000Y-100330000D03*
X77470000Y-97790000D03*
X77470000Y-95250000D03*
X77470000Y-92710000D03*
X77470000Y-90170000D03*
%TD*%
D11*
%TO.C,U21*%
X135880000Y-71120000D03*
D12*
X138420000Y-71120000D03*
X140960000Y-71120000D03*
X143500000Y-71120000D03*
X146040000Y-71120000D03*
X148580000Y-71120000D03*
X151120000Y-71120000D03*
X153660000Y-71120000D03*
X153660000Y-63500000D03*
X151120000Y-63500000D03*
X148580000Y-63500000D03*
X146040000Y-63500000D03*
X143500000Y-63500000D03*
X140960000Y-63500000D03*
X138420000Y-63500000D03*
X135880000Y-63500000D03*
%TD*%
D18*
%TO.C,D3*%
X229990000Y-55880000D03*
D19*
X232530000Y-55880000D03*
%TD*%
D11*
%TO.C,U23*%
X135890000Y-102860000D03*
D12*
X138430000Y-102860000D03*
X140970000Y-102860000D03*
X143510000Y-102860000D03*
X146050000Y-102860000D03*
X148590000Y-102860000D03*
X151130000Y-102860000D03*
X153670000Y-102860000D03*
X153670000Y-95240000D03*
X151130000Y-95240000D03*
X148590000Y-95240000D03*
X146050000Y-95240000D03*
X143510000Y-95240000D03*
X140970000Y-95240000D03*
X138430000Y-95240000D03*
X135890000Y-95240000D03*
%TD*%
D15*
%TO.C,C5*%
X76200000Y-85090000D03*
X71200000Y-85090000D03*
%TD*%
D11*
%TO.C,U10*%
X168910000Y-115570000D03*
D12*
X171450000Y-115570000D03*
X173990000Y-115570000D03*
X176530000Y-115570000D03*
X179070000Y-115570000D03*
X181610000Y-115570000D03*
X184150000Y-115570000D03*
X186690000Y-115570000D03*
X186690000Y-107950000D03*
X184150000Y-107950000D03*
X181610000Y-107950000D03*
X179070000Y-107950000D03*
X176530000Y-107950000D03*
X173990000Y-107950000D03*
X171450000Y-107950000D03*
X168910000Y-107950000D03*
%TD*%
D18*
%TO.C,D5*%
X244990000Y-55880000D03*
D19*
X247530000Y-55880000D03*
%TD*%
D15*
%TO.C,C9*%
X226060000Y-121960000D03*
X226060000Y-126960000D03*
%TD*%
%TO.C,C6*%
X96480000Y-72390000D03*
X91480000Y-72390000D03*
%TD*%
%TO.C,R10*%
X139700000Y-76200000D03*
D12*
X132080000Y-76200000D03*
%TD*%
D15*
%TO.C,C2*%
X59610000Y-54610000D03*
X54610000Y-54610000D03*
%TD*%
%TO.C,R7*%
X231140000Y-66040000D03*
D12*
X223520000Y-66040000D03*
%TD*%
D15*
%TO.C,C35*%
X130810000Y-109300000D03*
X130810000Y-114300000D03*
%TD*%
%TO.C,C11*%
X163830000Y-121920000D03*
X163830000Y-126920000D03*
%TD*%
D11*
%TO.C,C3*%
X65365621Y-125730000D03*
D15*
X67865621Y-125730000D03*
%TD*%
%TO.C,C8*%
X226060000Y-109260000D03*
X226060000Y-114260000D03*
%TD*%
%TO.C,R9*%
X153670000Y-58420000D03*
D12*
X146050000Y-58420000D03*
%TD*%
D11*
%TO.C,U3*%
X201930000Y-64770000D03*
D12*
X204470000Y-64770000D03*
X207010000Y-64770000D03*
X209550000Y-64770000D03*
X212090000Y-64770000D03*
X214630000Y-64770000D03*
X217170000Y-64770000D03*
X217170000Y-57150000D03*
X214630000Y-57150000D03*
X212090000Y-57150000D03*
X209550000Y-57150000D03*
X207010000Y-57150000D03*
X204470000Y-57150000D03*
X201930000Y-57150000D03*
%TD*%
D11*
%TO.C,U4*%
X86355000Y-77455000D03*
D12*
X86355000Y-79995000D03*
X86355000Y-82535000D03*
X86355000Y-85075000D03*
X86355000Y-87615000D03*
X86355000Y-90155000D03*
X86355000Y-92695000D03*
X86355000Y-95235000D03*
X86355000Y-97775000D03*
X86355000Y-100315000D03*
X86355000Y-102855000D03*
X86355000Y-105395000D03*
X86355000Y-107935000D03*
X86355000Y-110475000D03*
X101595000Y-110475000D03*
X101595000Y-107935000D03*
X101595000Y-105395000D03*
X101595000Y-102855000D03*
X101595000Y-100315000D03*
X101595000Y-97775000D03*
X101595000Y-95235000D03*
X101595000Y-92695000D03*
X101595000Y-90155000D03*
X101595000Y-87615000D03*
X101595000Y-85075000D03*
X101595000Y-82535000D03*
X101595000Y-79995000D03*
X101595000Y-77455000D03*
%TD*%
D11*
%TO.C,U2*%
X107945000Y-77455000D03*
D12*
X107945000Y-79995000D03*
X107945000Y-82535000D03*
X107945000Y-85075000D03*
X107945000Y-87615000D03*
X107945000Y-90155000D03*
X107945000Y-92695000D03*
X107945000Y-95235000D03*
X107945000Y-97775000D03*
X107945000Y-100315000D03*
X107945000Y-102855000D03*
X107945000Y-105395000D03*
X107945000Y-107935000D03*
X107945000Y-110475000D03*
X123185000Y-110475000D03*
X123185000Y-107935000D03*
X123185000Y-105395000D03*
X123185000Y-102855000D03*
X123185000Y-100315000D03*
X123185000Y-97775000D03*
X123185000Y-95235000D03*
X123185000Y-92695000D03*
X123185000Y-90155000D03*
X123185000Y-87615000D03*
X123185000Y-85075000D03*
X123185000Y-82535000D03*
X123185000Y-79995000D03*
X123185000Y-77455000D03*
%TD*%
D23*
%TO.C,J1*%
X77978000Y-124460000D03*
D24*
X77978000Y-121920000D03*
X80518000Y-124460000D03*
X80518000Y-121920000D03*
X83058000Y-124460000D03*
X83058000Y-121920000D03*
X85598000Y-124460000D03*
X85598000Y-121920000D03*
X88138000Y-124460000D03*
X88138000Y-121920000D03*
X90678000Y-124460000D03*
X90678000Y-121920000D03*
X93218000Y-124460000D03*
X93218000Y-121920000D03*
X95758000Y-124460000D03*
X95758000Y-121920000D03*
X98298000Y-124460000D03*
X98298000Y-121920000D03*
X100838000Y-124460000D03*
X100838000Y-121920000D03*
X103378000Y-124460000D03*
X103378000Y-121920000D03*
X105918000Y-124460000D03*
X105918000Y-121920000D03*
X108458000Y-124460000D03*
X108458000Y-121920000D03*
X110998000Y-124460000D03*
X110998000Y-121920000D03*
X113538000Y-124460000D03*
X113538000Y-121920000D03*
X116078000Y-124460000D03*
X116078000Y-121920000D03*
X118618000Y-124460000D03*
X118618000Y-121920000D03*
X121158000Y-124460000D03*
X121158000Y-121920000D03*
X123698000Y-124460000D03*
X123698000Y-121920000D03*
X126238000Y-124460000D03*
X126238000Y-121920000D03*
%TD*%
D15*
%TO.C,C28*%
X196850000Y-71160000D03*
X196850000Y-76160000D03*
%TD*%
%TO.C,C31*%
X43180000Y-125690000D03*
X43180000Y-120690000D03*
%TD*%
%TO.C,C20*%
X163830000Y-71160000D03*
X163830000Y-76160000D03*
%TD*%
D11*
%TO.C,U30*%
X135890000Y-90170000D03*
D12*
X138430000Y-90170000D03*
X140970000Y-90170000D03*
X143510000Y-90170000D03*
X146050000Y-90170000D03*
X148590000Y-90170000D03*
X151130000Y-90170000D03*
X153670000Y-90170000D03*
X153670000Y-82550000D03*
X151130000Y-82550000D03*
X148590000Y-82550000D03*
X146050000Y-82550000D03*
X143510000Y-82550000D03*
X140970000Y-82550000D03*
X138430000Y-82550000D03*
X135890000Y-82550000D03*
%TD*%
D11*
%TO.C,U29*%
X168910000Y-90170000D03*
D12*
X171450000Y-90170000D03*
X173990000Y-90170000D03*
X176530000Y-90170000D03*
X179070000Y-90170000D03*
X181610000Y-90170000D03*
X184150000Y-90170000D03*
X186690000Y-90170000D03*
X186690000Y-82550000D03*
X184150000Y-82550000D03*
X181610000Y-82550000D03*
X179070000Y-82550000D03*
X176530000Y-82550000D03*
X173990000Y-82550000D03*
X171450000Y-82550000D03*
X168910000Y-82550000D03*
%TD*%
D15*
%TO.C,C38*%
X142320000Y-76200000D03*
X147320000Y-76200000D03*
%TD*%
D11*
%TO.C,U31*%
X135895000Y-115560000D03*
D12*
X138435000Y-115560000D03*
X140975000Y-115560000D03*
X143515000Y-115560000D03*
X146055000Y-115560000D03*
X148595000Y-115560000D03*
X151135000Y-115560000D03*
X153675000Y-115560000D03*
X156215000Y-115560000D03*
X158755000Y-115560000D03*
X158755000Y-107940000D03*
X156215000Y-107940000D03*
X153675000Y-107940000D03*
X151135000Y-107940000D03*
X148595000Y-107940000D03*
X146055000Y-107940000D03*
X143515000Y-107940000D03*
X140975000Y-107940000D03*
X138435000Y-107940000D03*
X135895000Y-107940000D03*
%TD*%
D15*
%TO.C,C23*%
X163830000Y-58500000D03*
X163830000Y-63500000D03*
%TD*%
%TO.C,R5*%
X234950000Y-66040000D03*
D12*
X242570000Y-66040000D03*
%TD*%
M02*
