M48
; DRILL file {KiCad 8.0.2} date 2024-06-15T19:56:32+0200
; FORMAT={-:-/ absolute / inch / decimal}
; #@! TF.CreationDate,2024-06-15T19:56:32+02:00
; #@! TF.GenerationSoftware,Kicad,Pcbnew,8.0.2
; #@! TF.FileFunction,Plated,1,2,PTH
FMAT,2
INCH
; #@! TA.AperFunction,Plated,PTH,ViaDrill
T1C0.0157
; #@! TA.AperFunction,Plated,PTH,ComponentDrill
T2C0.0315
; #@! TA.AperFunction,Plated,PTH,ComponentDrill
T3C0.0394
; #@! TA.AperFunction,Plated,PTH,ComponentDrill
T4C0.0598
%
G90
G05
T1
X2.6298Y-3.9296
X2.7756Y-2.126
X2.9773Y-4.9532
X3.1225Y-4.0354
X3.1736Y-4.308
X3.445Y-2.8028
X3.7068Y-5.0419
X3.8447Y-3.7062
X3.8597Y-3.5314
X3.8919Y-5.227
X3.983Y-3.3335
X4.0095Y-4.6253
X4.0273Y-4.5054
X4.1485Y-3.3984
X4.2171Y-4.7142
X4.365Y-2.6525
X4.5841Y-3.6857
X4.6599Y-4.5118
X4.7833Y-2.6375
X4.9814Y-4.5118
X5.0526Y-2.6164
X5.1404Y-3.9143
X5.1417Y-4.1177
X5.1608Y-4.2194
X5.1804Y-4.3081
X5.1964Y-5.1337
X5.1977Y-4.3541
X5.2598Y-2.9445
X5.2647Y-4.9959
X5.2734Y-2.9985
X5.3102Y-4.955
X5.5412Y-3.3015
X5.5652Y-3.8726
X5.645Y-4.04
X5.9921Y-4.6443
X6.0116Y-3.99
X6.0935Y-3.2775
X6.1713Y-2.0669
X6.2563Y-3.1152
X6.2697Y-2.2638
X6.3105Y-3.6074
X6.3399Y-3.7343
X6.3553Y-3.5911
X6.3856Y-3.6236
X6.4212Y-3.2193
X6.4418Y-2.2878
X6.4557Y-2.3294
X6.5046Y-2.2764
X6.5083Y-3.322
X6.5086Y-2.382
X6.5091Y-3.2821
X6.5093Y-3.2396
X6.51Y-3.1974
X6.5358Y-3.7162
X6.5656Y-2.1609
X6.5665Y-2.292
X6.6144Y-3.7536
X6.6239Y-2.9594
X6.6535Y-2.2165
X6.6548Y-2.3034
X6.6548Y-3.8919
X6.745Y-2.3334
X6.7525Y-4.0019
X6.7698Y-2.2526
X6.8125Y-2.2101
X6.8134Y-4.7931
X6.8242Y-4.8502
X6.8392Y-2.2408
X6.8613Y-2.1806
X6.8813Y-4.8679
X6.928Y-2.7812
X6.9492Y-4.8476
X6.9518Y-4.7824
X6.9586Y-2.5263
X6.9862Y-2.79
X6.9941Y-4.8191
X6.9981Y-3.2466
X7.0575Y-2.5991
X7.0876Y-2.536
X7.0927Y-2.5754
X7.2215Y-4.7427
X7.2433Y-2.9609
X7.2525Y-2.552
X7.2637Y-2.4297
X7.2647Y-4.0492
X7.3641Y-2.6464
X7.3658Y-4.3542
X7.3875Y-2.5368
X7.3926Y-4.5981
X7.4067Y-3.7611
X7.4095Y-2.6059
X7.4254Y-3.8027
X7.4484Y-2.5851
X7.46Y-4.9815
X7.4776Y-4.2655
X7.5229Y-3.1188
X7.5257Y-3.2771
X7.5353Y-3.8783
X7.5602Y-4.453
X7.6092Y-4.8016
X7.6286Y-2.7399
X7.7337Y-3.7079
X7.746Y-4.6423
X7.7473Y-3.4979
X7.7714Y-3.5304
X7.843Y-4.8609
X7.8582Y-4.8198
X7.863Y-2.9773
X7.8927Y-2.5683
X7.9035Y-3.3093
X7.9051Y-4.0121
X7.9224Y-3.4255
X7.9734Y-4.2854
X7.9911Y-4.4095
X7.9934Y-4.3358
X8.0089Y-4.6018
X8.0125Y-4.5289
X8.1447Y-3.7552
X8.1534Y-3.665
X8.334Y-3.2492
X8.4511Y-3.3486
X8.5218Y-4.1492
X8.622Y-4.4336
X8.6741Y-5.2429
X9.0764Y-4.7231
X9.1308Y-4.6021
T2
X1.7416Y-5.18
X1.84Y-5.18
X1.86Y-2.88
X1.86Y-2.98
X1.86Y-3.08
X1.86Y-3.18
X1.86Y-3.28
X1.86Y-3.38
X1.86Y-3.48
X1.86Y-3.58
X1.86Y-3.68
X1.86Y-3.78
X1.86Y-3.88
X1.86Y-3.98
X1.86Y-4.08
X1.86Y-4.18
X1.86Y-4.28
X1.86Y-4.38
X2.0622Y-2.7264
X2.259Y-2.7264
X2.46Y-2.88
X2.46Y-2.98
X2.46Y-3.08
X2.46Y-3.18
X2.46Y-3.28
X2.46Y-3.38
X2.46Y-3.48
X2.46Y-3.58
X2.46Y-3.68
X2.46Y-3.78
X2.46Y-3.88
X2.46Y-3.98
X2.46Y-4.08
X2.46Y-4.18
X2.46Y-4.28
X2.46Y-4.38
X2.6602Y-2.88
X2.6602Y-2.98
X2.6602Y-3.08
X2.6602Y-3.18
X2.6602Y-3.28
X2.6602Y-3.38
X2.6602Y-3.48
X2.6602Y-3.58
X2.6602Y-3.68
X2.6602Y-3.78
X2.6602Y-3.88
X2.6602Y-3.98
X2.6602Y-4.08
X2.6602Y-4.18
X2.6602Y-4.28
X2.6602Y-4.38
X2.8642Y-2.7264
X3.061Y-2.7264
X3.2602Y-2.88
X3.2602Y-2.98
X3.2602Y-3.08
X3.2602Y-3.18
X3.2602Y-3.28
X3.2602Y-3.38
X3.2602Y-3.48
X3.2602Y-3.58
X3.2602Y-3.68
X3.2602Y-3.78
X3.2602Y-3.88
X3.2602Y-3.98
X3.2602Y-4.08
X3.2602Y-4.18
X3.2602Y-4.28
X3.2602Y-4.38
X3.47Y-2.88
X3.47Y-2.98
X3.47Y-3.08
X3.47Y-3.18
X3.47Y-3.28
X3.47Y-3.38
X3.47Y-3.48
X3.47Y-3.58
X3.47Y-3.68
X3.47Y-3.78
X3.47Y-3.88
X3.47Y-3.98
X3.47Y-4.08
X3.47Y-4.18
X3.47Y-4.28
X3.47Y-4.38
X3.6713Y-2.7264
X3.8681Y-2.7264
X4.07Y-2.88
X4.07Y-2.98
X4.07Y-3.08
X4.07Y-3.18
X4.07Y-3.28
X4.07Y-3.38
X4.07Y-3.48
X4.07Y-3.58
X4.07Y-3.68
X4.07Y-3.78
X4.07Y-3.88
X4.07Y-3.98
X4.07Y-4.08
X4.07Y-4.18
X4.07Y-4.28
X4.07Y-4.38
X4.27Y-2.88
X4.27Y-2.98
X4.27Y-3.08
X4.27Y-3.18
X4.27Y-3.28
X4.27Y-3.38
X4.27Y-3.48
X4.27Y-3.58
X4.27Y-3.68
X4.27Y-3.78
X4.27Y-3.88
X4.27Y-3.98
X4.27Y-4.08
X4.27Y-4.18
X4.27Y-4.28
X4.27Y-4.38
X4.4685Y-2.7264
X4.6654Y-2.7264
X4.87Y-2.88
X4.87Y-2.98
X4.87Y-3.08
X4.87Y-3.18
X4.87Y-3.28
X4.87Y-3.38
X4.87Y-3.48
X4.87Y-3.58
X4.87Y-3.68
X4.87Y-3.78
X4.87Y-3.88
X4.87Y-3.98
X4.87Y-4.08
X4.87Y-4.18
X4.87Y-4.28
X4.87Y-4.38
X5.08Y-2.89
X5.08Y-2.99
X5.08Y-3.09
X5.08Y-3.19
X5.08Y-3.29
X5.08Y-3.39
X5.08Y-3.49
X5.08Y-3.59
X5.08Y-3.69
X5.08Y-3.79
X5.08Y-3.89
X5.08Y-3.99
X5.08Y-4.09
X5.08Y-4.19
X5.2756Y-2.7264
X5.4724Y-2.7264
X5.68Y-2.89
X5.68Y-2.99
X5.68Y-3.09
X5.68Y-3.19
X5.68Y-3.29
X5.68Y-3.39
X5.68Y-3.49
X5.68Y-3.59
X5.68Y-3.69
X5.68Y-3.79
X5.68Y-3.89
X5.68Y-3.99
X5.68Y-4.09
X5.68Y-4.19
X6.465Y-3.7457
X6.465Y-3.8457
X6.465Y-3.9457
X6.465Y-4.0457
X6.465Y-4.1457
X6.465Y-4.2457
X6.465Y-4.3457
X6.465Y-4.4457
X6.465Y-4.5457
X7.2984Y-2.8449
X7.2984Y-2.9449
X7.2984Y-3.0449
X7.2984Y-3.1449
X7.2984Y-3.2449
X7.2984Y-3.3449
X7.2984Y-3.4449
X7.2984Y-3.7992
X7.2984Y-3.8992
X7.2984Y-3.9992
X7.2984Y-4.0992
X7.2984Y-4.1992
X7.2984Y-4.2992
X7.2984Y-4.3992
X7.2984Y-4.4992
X7.2984Y-4.5992
X7.2984Y-4.6992
X7.3524Y-2.7067
X7.3524Y-3.6516
X7.5492Y-2.7067
X7.5492Y-3.6516
X7.5984Y-2.8449
X7.5984Y-2.9449
X7.5984Y-3.0449
X7.5984Y-3.1449
X7.5984Y-3.2449
X7.5984Y-3.3449
X7.5984Y-3.4449
X7.5984Y-3.7992
X7.5984Y-3.8992
X7.5984Y-3.9992
X7.5984Y-4.0992
X7.5984Y-4.1992
X7.5984Y-4.2992
X7.5984Y-4.3992
X7.5984Y-4.4992
X7.5984Y-4.5992
X7.5984Y-4.6992
X7.7854Y-2.8449
X7.7854Y-2.9449
X7.7854Y-3.0449
X7.7854Y-3.1449
X7.7854Y-3.2449
X7.7854Y-3.3449
X7.7854Y-3.4449
X7.7854Y-3.7992
X7.7854Y-3.8992
X7.7854Y-3.9992
X7.7854Y-4.0992
X7.7854Y-4.1992
X7.7854Y-4.2992
X7.7854Y-4.3992
X7.7854Y-4.4992
X7.7854Y-4.5992
X7.7854Y-4.6992
X7.8346Y-2.7067
X7.8346Y-3.6516
X8.0315Y-2.7067
X8.0315Y-3.6516
X8.0854Y-2.8449
X8.0854Y-2.9449
X8.0854Y-3.0449
X8.0854Y-3.1449
X8.0854Y-3.2449
X8.0854Y-3.3449
X8.0854Y-3.4449
X8.0854Y-3.7992
X8.0854Y-3.8992
X8.0854Y-3.9992
X8.0854Y-4.0992
X8.0854Y-4.1992
X8.0854Y-4.2992
X8.0854Y-4.3992
X8.0854Y-4.4992
X8.0854Y-4.5992
X8.0854Y-4.6992
X8.2756Y-2.8449
X8.2756Y-2.9449
X8.2756Y-3.0449
X8.2756Y-3.1449
X8.2756Y-3.2449
X8.2756Y-3.3449
X8.2756Y-3.4449
X8.2776Y-3.7992
X8.2776Y-3.8992
X8.2776Y-3.9992
X8.2776Y-4.0992
X8.2776Y-4.1992
X8.2776Y-4.2992
X8.2776Y-4.3992
X8.2776Y-4.4992
X8.2776Y-4.5992
X8.2776Y-4.6992
X8.3268Y-2.7067
X8.3268Y-3.6516
X8.5236Y-2.7067
X8.5236Y-3.6516
X8.5756Y-2.8449
X8.5756Y-2.9449
X8.5756Y-3.0449
X8.5756Y-3.1449
X8.5756Y-3.2449
X8.5756Y-3.3449
X8.5756Y-3.4449
X8.5776Y-3.7992
X8.5776Y-3.8992
X8.5776Y-3.9992
X8.5776Y-4.0992
X8.5776Y-4.1992
X8.5776Y-4.2992
X8.5776Y-4.3992
X8.5776Y-4.4992
X8.5776Y-4.5992
X8.5776Y-4.6992
X8.7795Y-2.8465
X8.7795Y-2.9465
X8.7795Y-3.0465
X8.7795Y-3.1465
X8.7795Y-3.2465
X8.7795Y-3.3465
X8.7795Y-3.4465
X8.7795Y-3.7992
X8.7795Y-3.8992
X8.7795Y-3.9992
X8.7795Y-4.0992
X8.7795Y-4.1992
X8.7795Y-4.2992
X8.7795Y-4.3992
X8.7795Y-4.4992
X8.8287Y-2.7067
X8.8287Y-3.6516
X9.0256Y-2.7067
X9.0256Y-3.6516
X9.0795Y-2.8465
X9.0795Y-2.9465
X9.0795Y-3.0465
X9.0795Y-3.1465
X9.0795Y-3.2465
X9.0795Y-3.3465
X9.0795Y-3.4465
X9.0795Y-3.7992
X9.0795Y-3.8992
X9.0795Y-3.9992
X9.0795Y-4.0992
X9.0795Y-4.1992
X9.0795Y-4.2992
X9.0795Y-4.3992
X9.0795Y-4.4992
X9.3816Y-2.26
X9.4291Y-3.2949
X9.4291Y-3.5949
X9.4291Y-3.7795
X9.4291Y-4.0795
X9.48Y-2.26
T3
X3.0Y-2.38
X3.0Y-2.48
X3.0709Y-4.7976
X3.0709Y-4.8976
X3.1Y-2.38
X3.1Y-2.48
X3.1709Y-4.7976
X3.1709Y-4.8976
X3.2Y-2.38
X3.2Y-2.48
X3.2709Y-4.7976
X3.2709Y-4.8976
X3.3709Y-4.7976
X3.3709Y-4.8976
X3.4Y-2.38
X3.4Y-2.48
X3.4709Y-4.7976
X3.4709Y-4.8976
X3.5Y-2.38
X3.5Y-2.48
X3.5709Y-4.7976
X3.5709Y-4.8976
X3.6Y-2.38
X3.6Y-2.48
X3.6709Y-4.7976
X3.6709Y-4.8976
X3.7Y-2.38
X3.7Y-2.48
X3.7709Y-4.7976
X3.7709Y-4.8976
X3.8Y-2.38
X3.8Y-2.48
X3.8709Y-4.7976
X3.8709Y-4.8976
X3.9Y-2.38
X3.9Y-2.48
X3.9709Y-4.7976
X3.9709Y-4.8976
X4.0Y-2.38
X4.0Y-2.48
X4.0709Y-4.7976
X4.0709Y-4.8976
X4.1Y-2.38
X4.1Y-2.48
X4.1709Y-4.7976
X4.1709Y-4.8976
X4.2Y-2.38
X4.2Y-2.48
X4.2709Y-4.7976
X4.2709Y-4.8976
X4.3Y-2.38
X4.3Y-2.48
X4.3709Y-4.7976
X4.3709Y-4.8976
X4.4Y-2.38
X4.4Y-2.48
X4.4709Y-4.7976
X4.4709Y-4.8976
X4.5Y-2.38
X4.5Y-2.48
X4.5709Y-4.7976
X4.5709Y-4.8976
X4.6Y-2.38
X4.6Y-2.48
X4.6709Y-4.7976
X4.6709Y-4.8976
X4.7Y-2.38
X4.7Y-2.48
X4.7709Y-4.7976
X4.7709Y-4.8976
X4.8Y-2.38
X4.8Y-2.48
X4.8709Y-4.7976
X4.8709Y-4.8976
X4.9Y-2.38
X4.9Y-2.48
X4.9709Y-4.7976
X4.9709Y-4.8976
X5.0Y-2.38
X5.0Y-2.48
X5.1Y-2.38
X5.1Y-2.48
X5.2Y-2.38
X5.2Y-2.48
X5.3Y-2.38
X5.3Y-2.48
X6.61Y-2.38
X6.61Y-2.48
X6.71Y-2.38
X6.71Y-2.48
X6.8094Y-3.8457
X6.8094Y-3.9457
X6.8094Y-4.0457
X6.8094Y-4.1457
X6.8094Y-4.2457
X6.8094Y-4.3457
X6.8094Y-4.4457
X6.8094Y-4.5457
X6.81Y-2.38
X6.81Y-2.48
X6.9094Y-3.8457
X6.9094Y-3.9457
X6.9094Y-4.0457
X6.9094Y-4.1457
X6.9094Y-4.2457
X6.9094Y-4.3457
X6.9094Y-4.4457
X6.9094Y-4.5457
X7.0128Y-2.38
X7.0128Y-2.48
X7.02Y-4.93
X7.02Y-5.03
X7.1128Y-2.38
X7.1128Y-2.48
X7.12Y-4.93
X7.12Y-5.03
X7.2128Y-2.38
X7.2128Y-2.48
X7.22Y-4.93
X7.22Y-5.03
X7.3128Y-2.38
X7.3128Y-2.48
X7.32Y-4.93
X7.32Y-5.03
X7.4128Y-2.38
X7.4128Y-2.48
X7.42Y-4.93
X7.42Y-5.03
X7.5128Y-2.38
X7.5128Y-2.48
X7.52Y-4.93
X7.52Y-5.03
X7.6128Y-2.38
X7.6128Y-2.48
X7.62Y-4.93
X7.62Y-5.03
X7.7128Y-2.38
X7.7128Y-2.48
X7.72Y-4.93
X7.72Y-5.03
X7.8128Y-2.38
X7.8128Y-2.48
X7.82Y-4.93
X7.82Y-5.03
X7.9128Y-2.38
X7.9128Y-2.48
X7.92Y-4.93
X7.92Y-5.03
X8.0128Y-2.38
X8.0128Y-2.48
X8.02Y-4.93
X8.02Y-5.03
X8.1128Y-2.38
X8.1128Y-2.48
X8.12Y-4.93
X8.12Y-5.03
X8.2128Y-2.38
X8.2128Y-2.48
X8.22Y-4.93
X8.22Y-5.03
X8.3128Y-2.38
X8.3128Y-2.48
X8.32Y-4.93
X8.32Y-5.03
X8.4128Y-2.38
X8.4128Y-2.48
X8.42Y-4.93
X8.42Y-5.03
X8.5128Y-2.38
X8.5128Y-2.48
X8.52Y-4.93
X8.52Y-5.03
X8.6128Y-2.38
X8.6128Y-2.48
X8.62Y-4.93
X8.62Y-5.03
X8.7128Y-2.38
X8.7128Y-2.48
X8.72Y-4.93
X8.72Y-5.03
X8.8128Y-2.38
X8.8128Y-2.48
X8.82Y-4.93
X8.82Y-5.03
X8.9128Y-2.38
X8.9128Y-2.48
X8.92Y-4.93
X8.92Y-5.03
X9.12Y-4.93
X9.12Y-5.03
X9.22Y-4.93
X9.22Y-5.03
X9.32Y-4.93
X9.32Y-5.03
X9.88Y-2.68
X9.88Y-2.78
X9.88Y-2.88
X9.88Y-2.98
X9.88Y-3.08
X9.88Y-3.44
X9.88Y-3.54
T4
X9.9606Y-2.1622
X9.9606Y-2.3622
M30
