%TF.GenerationSoftware,KiCad,Pcbnew,8.0.2*%
%TF.CreationDate,2024-06-15T19:56:31+02:00*%
%TF.ProjectId,p2000t-multifunctiebord,70323030-3074-42d6-9d75-6c746966756e,P2000T Multifunctiebord*%
%TF.SameCoordinates,Original*%
%TF.FileFunction,Soldermask,Top*%
%TF.FilePolarity,Negative*%
%FSLAX46Y46*%
G04 Gerber Fmt 4.6, Leading zero omitted, Abs format (unit mm)*
G04 Created by KiCad (PCBNEW 8.0.2) date 2024-06-15 19:56:31*
%MOMM*%
%LPD*%
G01*
G04 APERTURE LIST*
G04 Aperture macros list*
%AMRoundRect*
0 Rectangle with rounded corners*
0 $1 Rounding radius*
0 $2 $3 $4 $5 $6 $7 $8 $9 X,Y pos of 4 corners*
0 Add a 4 corners polygon primitive as box body*
4,1,4,$2,$3,$4,$5,$6,$7,$8,$9,$2,$3,0*
0 Add four circle primitives for the rounded corners*
1,1,$1+$1,$2,$3*
1,1,$1+$1,$4,$5*
1,1,$1+$1,$6,$7*
1,1,$1+$1,$8,$9*
0 Add four rect primitives between the rounded corners*
20,1,$1+$1,$2,$3,$4,$5,0*
20,1,$1+$1,$4,$5,$6,$7,0*
20,1,$1+$1,$6,$7,$8,$9,0*
20,1,$1+$1,$8,$9,$2,$3,0*%
G04 Aperture macros list end*
%ADD10R,1.600000X1.600000*%
%ADD11O,1.600000X1.600000*%
%ADD12C,1.600000*%
%ADD13R,1.700000X1.700000*%
%ADD14O,1.700000X1.700000*%
%ADD15RoundRect,0.250000X0.600000X-0.600000X0.600000X0.600000X-0.600000X0.600000X-0.600000X-0.600000X0*%
%ADD16C,1.700000*%
%ADD17R,3.000000X3.000000*%
%ADD18C,3.000000*%
G04 APERTURE END LIST*
D10*
%TO.C,U11*%
X108458000Y-73152000D03*
D11*
X108458000Y-75692000D03*
X108458000Y-78232000D03*
X108458000Y-80772000D03*
X108458000Y-83312000D03*
X108458000Y-85852000D03*
X108458000Y-88392000D03*
X108458000Y-90932000D03*
X108458000Y-93472000D03*
X108458000Y-96012000D03*
X108458000Y-98552000D03*
X108458000Y-101092000D03*
X108458000Y-103632000D03*
X108458000Y-106172000D03*
X108458000Y-108712000D03*
X108458000Y-111252000D03*
X123698000Y-111252000D03*
X123698000Y-108712000D03*
X123698000Y-106172000D03*
X123698000Y-103632000D03*
X123698000Y-101092000D03*
X123698000Y-98552000D03*
X123698000Y-96012000D03*
X123698000Y-93472000D03*
X123698000Y-90932000D03*
X123698000Y-88392000D03*
X123698000Y-85852000D03*
X123698000Y-83312000D03*
X123698000Y-80772000D03*
X123698000Y-78232000D03*
X123698000Y-75692000D03*
X123698000Y-73152000D03*
%TD*%
D10*
%TO.C,U10*%
X88138000Y-73152000D03*
D11*
X88138000Y-75692000D03*
X88138000Y-78232000D03*
X88138000Y-80772000D03*
X88138000Y-83312000D03*
X88138000Y-85852000D03*
X88138000Y-88392000D03*
X88138000Y-90932000D03*
X88138000Y-93472000D03*
X88138000Y-96012000D03*
X88138000Y-98552000D03*
X88138000Y-101092000D03*
X88138000Y-103632000D03*
X88138000Y-106172000D03*
X88138000Y-108712000D03*
X88138000Y-111252000D03*
X103378000Y-111252000D03*
X103378000Y-108712000D03*
X103378000Y-106172000D03*
X103378000Y-103632000D03*
X103378000Y-101092000D03*
X103378000Y-98552000D03*
X103378000Y-96012000D03*
X103378000Y-93472000D03*
X103378000Y-90932000D03*
X103378000Y-88392000D03*
X103378000Y-85852000D03*
X103378000Y-83312000D03*
X103378000Y-80772000D03*
X103378000Y-78232000D03*
X103378000Y-75692000D03*
X103378000Y-73152000D03*
%TD*%
D10*
%TO.C,U9*%
X67569000Y-73152000D03*
D11*
X67569000Y-75692000D03*
X67569000Y-78232000D03*
X67569000Y-80772000D03*
X67569000Y-83312000D03*
X67569000Y-85852000D03*
X67569000Y-88392000D03*
X67569000Y-90932000D03*
X67569000Y-93472000D03*
X67569000Y-96012000D03*
X67569000Y-98552000D03*
X67569000Y-101092000D03*
X67569000Y-103632000D03*
X67569000Y-106172000D03*
X67569000Y-108712000D03*
X67569000Y-111252000D03*
X82809000Y-111252000D03*
X82809000Y-108712000D03*
X82809000Y-106172000D03*
X82809000Y-103632000D03*
X82809000Y-101092000D03*
X82809000Y-98552000D03*
X82809000Y-96012000D03*
X82809000Y-93472000D03*
X82809000Y-90932000D03*
X82809000Y-88392000D03*
X82809000Y-85852000D03*
X82809000Y-83312000D03*
X82809000Y-80772000D03*
X82809000Y-78232000D03*
X82809000Y-75692000D03*
X82809000Y-73152000D03*
%TD*%
D10*
%TO.C,U4*%
X129032000Y-73406000D03*
D11*
X129032000Y-75946000D03*
X129032000Y-78486000D03*
X129032000Y-81026000D03*
X129032000Y-83566000D03*
X129032000Y-86106000D03*
X129032000Y-88646000D03*
X129032000Y-91186000D03*
X129032000Y-93726000D03*
X129032000Y-96266000D03*
X129032000Y-98806000D03*
X129032000Y-101346000D03*
X129032000Y-103886000D03*
X129032000Y-106426000D03*
X144272000Y-106426000D03*
X144272000Y-103886000D03*
X144272000Y-101346000D03*
X144272000Y-98806000D03*
X144272000Y-96266000D03*
X144272000Y-93726000D03*
X144272000Y-91186000D03*
X144272000Y-88646000D03*
X144272000Y-86106000D03*
X144272000Y-83566000D03*
X144272000Y-81026000D03*
X144272000Y-78486000D03*
X144272000Y-75946000D03*
X144272000Y-73406000D03*
%TD*%
D10*
%TO.C,U2*%
X47244000Y-73152000D03*
D11*
X47244000Y-75692000D03*
X47244000Y-78232000D03*
X47244000Y-80772000D03*
X47244000Y-83312000D03*
X47244000Y-85852000D03*
X47244000Y-88392000D03*
X47244000Y-90932000D03*
X47244000Y-93472000D03*
X47244000Y-96012000D03*
X47244000Y-98552000D03*
X47244000Y-101092000D03*
X47244000Y-103632000D03*
X47244000Y-106172000D03*
X47244000Y-108712000D03*
X47244000Y-111252000D03*
X62484000Y-111252000D03*
X62484000Y-108712000D03*
X62484000Y-106172000D03*
X62484000Y-103632000D03*
X62484000Y-101092000D03*
X62484000Y-98552000D03*
X62484000Y-96012000D03*
X62484000Y-93472000D03*
X62484000Y-90932000D03*
X62484000Y-88392000D03*
X62484000Y-85852000D03*
X62484000Y-83312000D03*
X62484000Y-80772000D03*
X62484000Y-78232000D03*
X62484000Y-75692000D03*
X62484000Y-73152000D03*
%TD*%
D12*
%TO.C,C9*%
X118500000Y-69250000D03*
X113500000Y-69250000D03*
%TD*%
D10*
%TO.C,U8*%
X197750000Y-96500000D03*
D11*
X197750000Y-99040000D03*
X197750000Y-101580000D03*
X197750000Y-104120000D03*
X197750000Y-106660000D03*
X197750000Y-109200000D03*
X197750000Y-111740000D03*
X197750000Y-114280000D03*
X197750000Y-116820000D03*
X197750000Y-119360000D03*
X205370000Y-119360000D03*
X205370000Y-116820000D03*
X205370000Y-114280000D03*
X205370000Y-111740000D03*
X205370000Y-109200000D03*
X205370000Y-106660000D03*
X205370000Y-104120000D03*
X205370000Y-101580000D03*
X205370000Y-99040000D03*
X205370000Y-96500000D03*
%TD*%
D12*
%TO.C,C1*%
X139000000Y-69250000D03*
X134000000Y-69250000D03*
%TD*%
%TO.C,C14*%
X229250000Y-92750000D03*
X224250000Y-92750000D03*
%TD*%
D10*
%TO.C,C16*%
X44236000Y-131572000D03*
D12*
X46736000Y-131572000D03*
%TD*%
%TO.C,C17*%
X216500000Y-68750000D03*
X211500000Y-68750000D03*
%TD*%
D13*
%TO.C,J8*%
X167894000Y-62992000D03*
D14*
X167894000Y-60452000D03*
X170434000Y-62992000D03*
X170434000Y-60452000D03*
X172974000Y-62992000D03*
X172974000Y-60452000D03*
%TD*%
D12*
%TO.C,C11*%
X191750000Y-68750000D03*
X186750000Y-68750000D03*
%TD*%
%TO.C,C13*%
X216500000Y-92750000D03*
X211500000Y-92750000D03*
%TD*%
%TO.C,C2*%
X204000000Y-68750000D03*
X199000000Y-68750000D03*
%TD*%
D10*
%TO.C,D1*%
X239500000Y-91310000D03*
D11*
X239500000Y-83690000D03*
%TD*%
D12*
%TO.C,C5*%
X77750000Y-69250000D03*
X72750000Y-69250000D03*
%TD*%
D10*
%TO.C,RN1*%
X164210000Y-95140000D03*
D11*
X164210000Y-97680000D03*
X164210000Y-100220000D03*
X164210000Y-102760000D03*
X164210000Y-105300000D03*
X164210000Y-107840000D03*
X164210000Y-110380000D03*
X164210000Y-112920000D03*
X164210000Y-115460000D03*
%TD*%
D10*
%TO.C,U15*%
X223000000Y-72300000D03*
D11*
X223000000Y-74840000D03*
X223000000Y-77380000D03*
X223000000Y-79920000D03*
X223000000Y-82460000D03*
X223000000Y-85000000D03*
X223000000Y-87540000D03*
X230620000Y-87540000D03*
X230620000Y-85000000D03*
X230620000Y-82460000D03*
X230620000Y-79920000D03*
X230620000Y-77380000D03*
X230620000Y-74840000D03*
X230620000Y-72300000D03*
%TD*%
D12*
%TO.C,C12*%
X191750000Y-92750000D03*
X186750000Y-92750000D03*
%TD*%
D10*
%TO.C,D2*%
X239500000Y-103620000D03*
D11*
X239500000Y-96000000D03*
%TD*%
D10*
%TO.C,U13*%
X210200000Y-72260000D03*
D11*
X210200000Y-74800000D03*
X210200000Y-77340000D03*
X210200000Y-79880000D03*
X210200000Y-82420000D03*
X210200000Y-84960000D03*
X210200000Y-87500000D03*
X217820000Y-87500000D03*
X217820000Y-84960000D03*
X217820000Y-82420000D03*
X217820000Y-79880000D03*
X217820000Y-77340000D03*
X217820000Y-74800000D03*
X217820000Y-72260000D03*
%TD*%
D12*
%TO.C,C6*%
X57379800Y-69250000D03*
X52379800Y-69250000D03*
%TD*%
D13*
%TO.C,J5*%
X178125000Y-62992000D03*
D14*
X178125000Y-60452000D03*
X180665000Y-62992000D03*
X180665000Y-60452000D03*
X183205000Y-62992000D03*
X183205000Y-60452000D03*
X185745000Y-62992000D03*
X185745000Y-60452000D03*
X188285000Y-62992000D03*
X188285000Y-60452000D03*
X190825000Y-62992000D03*
X190825000Y-60452000D03*
X193365000Y-62992000D03*
X193365000Y-60452000D03*
X195905000Y-62992000D03*
X195905000Y-60452000D03*
X198445000Y-62992000D03*
X198445000Y-60452000D03*
X200985000Y-62992000D03*
X200985000Y-60452000D03*
X203525000Y-62992000D03*
X203525000Y-60452000D03*
X206065000Y-62992000D03*
X206065000Y-60452000D03*
X208605000Y-62992000D03*
X208605000Y-60452000D03*
X211145000Y-62992000D03*
X211145000Y-60452000D03*
X213685000Y-62992000D03*
X213685000Y-60452000D03*
X216225000Y-62992000D03*
X216225000Y-60452000D03*
X218765000Y-62992000D03*
X218765000Y-60452000D03*
X221305000Y-62992000D03*
X221305000Y-60452000D03*
X223845000Y-62992000D03*
X223845000Y-60452000D03*
X226385000Y-62992000D03*
X226385000Y-60452000D03*
%TD*%
D12*
%TO.C,C15*%
X229250000Y-68750000D03*
X224250000Y-68750000D03*
%TD*%
D13*
%TO.C,J6*%
X226568000Y-125222000D03*
D14*
X226568000Y-127762000D03*
X224028000Y-125222000D03*
X224028000Y-127762000D03*
X221488000Y-125222000D03*
X221488000Y-127762000D03*
X218948000Y-125222000D03*
X218948000Y-127762000D03*
X216408000Y-125222000D03*
X216408000Y-127762000D03*
X213868000Y-125222000D03*
X213868000Y-127762000D03*
X211328000Y-125222000D03*
X211328000Y-127762000D03*
X208788000Y-125222000D03*
X208788000Y-127762000D03*
X206248000Y-125222000D03*
X206248000Y-127762000D03*
X203708000Y-125222000D03*
X203708000Y-127762000D03*
X201168000Y-125222000D03*
X201168000Y-127762000D03*
X198628000Y-125222000D03*
X198628000Y-127762000D03*
X196088000Y-125222000D03*
X196088000Y-127762000D03*
X193548000Y-125222000D03*
X193548000Y-127762000D03*
X191008000Y-125222000D03*
X191008000Y-127762000D03*
X188468000Y-125222000D03*
X188468000Y-127762000D03*
X185928000Y-125222000D03*
X185928000Y-127762000D03*
X183388000Y-125222000D03*
X183388000Y-127762000D03*
X180848000Y-125222000D03*
X180848000Y-127762000D03*
X178308000Y-125222000D03*
X178308000Y-127762000D03*
%TD*%
D12*
%TO.C,C7*%
X98250000Y-69250000D03*
X93250000Y-69250000D03*
%TD*%
D13*
%TO.C,J9*%
X250952000Y-68072000D03*
D14*
X250952000Y-70612000D03*
X250952000Y-73152000D03*
X250952000Y-75692000D03*
X250952000Y-78232000D03*
%TD*%
D10*
%TO.C,C3*%
X238292000Y-57404000D03*
D12*
X240792000Y-57404000D03*
%TD*%
D13*
%TO.C,J11*%
X76200000Y-62992000D03*
D14*
X76200000Y-60452000D03*
X78740000Y-62992000D03*
X78740000Y-60452000D03*
X81280000Y-62992000D03*
X81280000Y-60452000D03*
%TD*%
D10*
%TO.C,U3*%
X197750000Y-72260000D03*
D11*
X197750000Y-74800000D03*
X197750000Y-77340000D03*
X197750000Y-79880000D03*
X197750000Y-82420000D03*
X197750000Y-84960000D03*
X197750000Y-87500000D03*
X205370000Y-87500000D03*
X205370000Y-84960000D03*
X205370000Y-82420000D03*
X205370000Y-79880000D03*
X205370000Y-77340000D03*
X205370000Y-74800000D03*
X205370000Y-72260000D03*
%TD*%
D10*
%TO.C,U1*%
X185380000Y-72260000D03*
D11*
X185380000Y-74800000D03*
X185380000Y-77340000D03*
X185380000Y-79880000D03*
X185380000Y-82420000D03*
X185380000Y-84960000D03*
X185380000Y-87500000D03*
X193000000Y-87500000D03*
X193000000Y-84960000D03*
X193000000Y-82420000D03*
X193000000Y-79880000D03*
X193000000Y-77340000D03*
X193000000Y-74800000D03*
X193000000Y-72260000D03*
%TD*%
D13*
%TO.C,J2*%
X250952000Y-87376000D03*
D14*
X250952000Y-89916000D03*
%TD*%
D12*
%TO.C,C10*%
X204000000Y-92750000D03*
X199000000Y-92750000D03*
%TD*%
D10*
%TO.C,U12*%
X223000000Y-96500000D03*
D11*
X223000000Y-99040000D03*
X223000000Y-101580000D03*
X223000000Y-104120000D03*
X223000000Y-106660000D03*
X223000000Y-109200000D03*
X223000000Y-111740000D03*
X223000000Y-114280000D03*
X230620000Y-114280000D03*
X230620000Y-111740000D03*
X230620000Y-109200000D03*
X230620000Y-106660000D03*
X230620000Y-104120000D03*
X230620000Y-101580000D03*
X230620000Y-99040000D03*
X230620000Y-96500000D03*
%TD*%
D13*
%TO.C,J10*%
X236728000Y-125222000D03*
D14*
X236728000Y-127762000D03*
X234188000Y-125222000D03*
X234188000Y-127762000D03*
X231648000Y-125222000D03*
X231648000Y-127762000D03*
%TD*%
D15*
%TO.C,J1*%
X78000000Y-124400000D03*
D16*
X78000000Y-121860000D03*
X80540000Y-124400000D03*
X80540000Y-121860000D03*
X83080000Y-124400000D03*
X83080000Y-121860000D03*
X85620000Y-124400000D03*
X85620000Y-121860000D03*
X88160000Y-124400000D03*
X88160000Y-121860000D03*
X90700000Y-124400000D03*
X90700000Y-121860000D03*
X93240000Y-124400000D03*
X93240000Y-121860000D03*
X95780000Y-124400000D03*
X95780000Y-121860000D03*
X98320000Y-124400000D03*
X98320000Y-121860000D03*
X100860000Y-124400000D03*
X100860000Y-121860000D03*
X103400000Y-124400000D03*
X103400000Y-121860000D03*
X105940000Y-124400000D03*
X105940000Y-121860000D03*
X108480000Y-124400000D03*
X108480000Y-121860000D03*
X111020000Y-124400000D03*
X111020000Y-121860000D03*
X113560000Y-124400000D03*
X113560000Y-121860000D03*
X116100000Y-124400000D03*
X116100000Y-121860000D03*
X118640000Y-124400000D03*
X118640000Y-121860000D03*
X121180000Y-124400000D03*
X121180000Y-121860000D03*
X123720000Y-124400000D03*
X123720000Y-121860000D03*
X126260000Y-124400000D03*
X126260000Y-121860000D03*
%TD*%
D17*
%TO.C,J3*%
X253000000Y-60000000D03*
D18*
X253000000Y-54920000D03*
%TD*%
D10*
%TO.C,U14*%
X185380000Y-96500000D03*
D11*
X185380000Y-99040000D03*
X185380000Y-101580000D03*
X185380000Y-104120000D03*
X185380000Y-106660000D03*
X185380000Y-109200000D03*
X185380000Y-111740000D03*
X185380000Y-114280000D03*
X185380000Y-116820000D03*
X185380000Y-119360000D03*
X193000000Y-119360000D03*
X193000000Y-116820000D03*
X193000000Y-114280000D03*
X193000000Y-111740000D03*
X193000000Y-109200000D03*
X193000000Y-106660000D03*
X193000000Y-104120000D03*
X193000000Y-101580000D03*
X193000000Y-99040000D03*
X193000000Y-96500000D03*
%TD*%
D13*
%TO.C,J4*%
X86360000Y-62992000D03*
D14*
X86360000Y-60452000D03*
X88900000Y-62992000D03*
X88900000Y-60452000D03*
X91440000Y-62992000D03*
X91440000Y-60452000D03*
X93980000Y-62992000D03*
X93980000Y-60452000D03*
X96520000Y-62992000D03*
X96520000Y-60452000D03*
X99060000Y-62992000D03*
X99060000Y-60452000D03*
X101600000Y-62992000D03*
X101600000Y-60452000D03*
X104140000Y-62992000D03*
X104140000Y-60452000D03*
X106680000Y-62992000D03*
X106680000Y-60452000D03*
X109220000Y-62992000D03*
X109220000Y-60452000D03*
X111760000Y-62992000D03*
X111760000Y-60452000D03*
X114300000Y-62992000D03*
X114300000Y-60452000D03*
X116840000Y-62992000D03*
X116840000Y-60452000D03*
X119380000Y-62992000D03*
X119380000Y-60452000D03*
X121920000Y-62992000D03*
X121920000Y-60452000D03*
X124460000Y-62992000D03*
X124460000Y-60452000D03*
X127000000Y-62992000D03*
X127000000Y-60452000D03*
X129540000Y-62992000D03*
X129540000Y-60452000D03*
X132080000Y-62992000D03*
X132080000Y-60452000D03*
X134620000Y-62992000D03*
X134620000Y-60452000D03*
%TD*%
D10*
%TO.C,U16*%
X210250000Y-96500000D03*
D11*
X210250000Y-99040000D03*
X210250000Y-101580000D03*
X210250000Y-104120000D03*
X210250000Y-106660000D03*
X210250000Y-109200000D03*
X210250000Y-111740000D03*
X210250000Y-114280000D03*
X210250000Y-116820000D03*
X210250000Y-119360000D03*
X217870000Y-119360000D03*
X217870000Y-116820000D03*
X217870000Y-114280000D03*
X217870000Y-111740000D03*
X217870000Y-109200000D03*
X217870000Y-106660000D03*
X217870000Y-104120000D03*
X217870000Y-101580000D03*
X217870000Y-99040000D03*
X217870000Y-96500000D03*
%TD*%
D13*
%TO.C,J12*%
X175500000Y-97680000D03*
D14*
X172960000Y-97680000D03*
X175500000Y-100220000D03*
X172960000Y-100220000D03*
X175500000Y-102760000D03*
X172960000Y-102760000D03*
X175500000Y-105300000D03*
X172960000Y-105300000D03*
X175500000Y-107840000D03*
X172960000Y-107840000D03*
X175500000Y-110380000D03*
X172960000Y-110380000D03*
X175500000Y-112920000D03*
X172960000Y-112920000D03*
X175500000Y-115460000D03*
X172960000Y-115460000D03*
%TD*%
M02*
