%TF.GenerationSoftware,KiCad,Pcbnew,(6.0.9)*%
%TF.CreationDate,2023-08-16T20:18:10+02:00*%
%TF.ProjectId,sdcard-prototype,73646361-7264-42d7-9072-6f746f747970,rev?*%
%TF.SameCoordinates,Original*%
%TF.FileFunction,Legend,Top*%
%TF.FilePolarity,Positive*%
%FSLAX46Y46*%
G04 Gerber Fmt 4.6, Leading zero omitted, Abs format (unit mm)*
G04 Created by KiCad (PCBNEW (6.0.9)) date 2023-08-16 20:18:10*
%MOMM*%
%LPD*%
G01*
G04 APERTURE LIST*
%ADD10C,0.150000*%
%ADD11C,0.010000*%
%ADD12C,0.120000*%
G04 APERTURE END LIST*
D10*
X59977976Y-98151761D02*
X60120833Y-98199380D01*
X60358928Y-98199380D01*
X60454166Y-98151761D01*
X60501785Y-98104142D01*
X60549404Y-98008904D01*
X60549404Y-97913666D01*
X60501785Y-97818428D01*
X60454166Y-97770809D01*
X60358928Y-97723190D01*
X60168452Y-97675571D01*
X60073214Y-97627952D01*
X60025595Y-97580333D01*
X59977976Y-97485095D01*
X59977976Y-97389857D01*
X60025595Y-97294619D01*
X60073214Y-97247000D01*
X60168452Y-97199380D01*
X60406547Y-97199380D01*
X60549404Y-97247000D01*
X60977976Y-98199380D02*
X60977976Y-97199380D01*
X61216071Y-97199380D01*
X61358928Y-97247000D01*
X61454166Y-97342238D01*
X61501785Y-97437476D01*
X61549404Y-97627952D01*
X61549404Y-97770809D01*
X61501785Y-97961285D01*
X61454166Y-98056523D01*
X61358928Y-98151761D01*
X61216071Y-98199380D01*
X60977976Y-98199380D01*
X63311309Y-98104142D02*
X63263690Y-98151761D01*
X63120833Y-98199380D01*
X63025595Y-98199380D01*
X62882738Y-98151761D01*
X62787500Y-98056523D01*
X62739880Y-97961285D01*
X62692261Y-97770809D01*
X62692261Y-97627952D01*
X62739880Y-97437476D01*
X62787500Y-97342238D01*
X62882738Y-97247000D01*
X63025595Y-97199380D01*
X63120833Y-97199380D01*
X63263690Y-97247000D01*
X63311309Y-97294619D01*
X63692261Y-97913666D02*
X64168452Y-97913666D01*
X63597023Y-98199380D02*
X63930357Y-97199380D01*
X64263690Y-98199380D01*
X65168452Y-98199380D02*
X64835119Y-97723190D01*
X64597023Y-98199380D02*
X64597023Y-97199380D01*
X64977976Y-97199380D01*
X65073214Y-97247000D01*
X65120833Y-97294619D01*
X65168452Y-97389857D01*
X65168452Y-97532714D01*
X65120833Y-97627952D01*
X65073214Y-97675571D01*
X64977976Y-97723190D01*
X64597023Y-97723190D01*
X65597023Y-98199380D02*
X65597023Y-97199380D01*
X65835119Y-97199380D01*
X65977976Y-97247000D01*
X66073214Y-97342238D01*
X66120833Y-97437476D01*
X66168452Y-97627952D01*
X66168452Y-97770809D01*
X66120833Y-97961285D01*
X66073214Y-98056523D01*
X65977976Y-98151761D01*
X65835119Y-98199380D01*
X65597023Y-98199380D01*
X67358928Y-98199380D02*
X67358928Y-97199380D01*
X67835119Y-98199380D02*
X67835119Y-97199380D01*
X68406547Y-98199380D01*
X68406547Y-97199380D01*
X68739880Y-97199380D02*
X69311309Y-97199380D01*
X69025595Y-98199380D02*
X69025595Y-97199380D01*
X69644642Y-97675571D02*
X69977976Y-97675571D01*
X70120833Y-98199380D02*
X69644642Y-98199380D01*
X69644642Y-97199380D01*
X70120833Y-97199380D01*
X71120833Y-98199380D02*
X70787500Y-97723190D01*
X70549404Y-98199380D02*
X70549404Y-97199380D01*
X70930357Y-97199380D01*
X71025595Y-97247000D01*
X71073214Y-97294619D01*
X71120833Y-97389857D01*
X71120833Y-97532714D01*
X71073214Y-97627952D01*
X71025595Y-97675571D01*
X70930357Y-97723190D01*
X70549404Y-97723190D01*
X71882738Y-97675571D02*
X71549404Y-97675571D01*
X71549404Y-98199380D02*
X71549404Y-97199380D01*
X72025595Y-97199380D01*
X72358928Y-97913666D02*
X72835119Y-97913666D01*
X72263690Y-98199380D02*
X72597023Y-97199380D01*
X72930357Y-98199380D01*
X73835119Y-98104142D02*
X73787500Y-98151761D01*
X73644642Y-98199380D01*
X73549404Y-98199380D01*
X73406547Y-98151761D01*
X73311309Y-98056523D01*
X73263690Y-97961285D01*
X73216071Y-97770809D01*
X73216071Y-97627952D01*
X73263690Y-97437476D01*
X73311309Y-97342238D01*
X73406547Y-97247000D01*
X73549404Y-97199380D01*
X73644642Y-97199380D01*
X73787500Y-97247000D01*
X73835119Y-97294619D01*
X74263690Y-97675571D02*
X74597023Y-97675571D01*
X74739880Y-98199380D02*
X74263690Y-98199380D01*
X74263690Y-97199380D01*
X74739880Y-97199380D01*
X76263690Y-97675571D02*
X76406547Y-97723190D01*
X76454166Y-97770809D01*
X76501785Y-97866047D01*
X76501785Y-98008904D01*
X76454166Y-98104142D01*
X76406547Y-98151761D01*
X76311309Y-98199380D01*
X75930357Y-98199380D01*
X75930357Y-97199380D01*
X76263690Y-97199380D01*
X76358928Y-97247000D01*
X76406547Y-97294619D01*
X76454166Y-97389857D01*
X76454166Y-97485095D01*
X76406547Y-97580333D01*
X76358928Y-97627952D01*
X76263690Y-97675571D01*
X75930357Y-97675571D01*
X77120833Y-97199380D02*
X77311309Y-97199380D01*
X77406547Y-97247000D01*
X77501785Y-97342238D01*
X77549404Y-97532714D01*
X77549404Y-97866047D01*
X77501785Y-98056523D01*
X77406547Y-98151761D01*
X77311309Y-98199380D01*
X77120833Y-98199380D01*
X77025595Y-98151761D01*
X76930357Y-98056523D01*
X76882738Y-97866047D01*
X76882738Y-97532714D01*
X76930357Y-97342238D01*
X77025595Y-97247000D01*
X77120833Y-97199380D01*
X77930357Y-97913666D02*
X78406547Y-97913666D01*
X77835119Y-98199380D02*
X78168452Y-97199380D01*
X78501785Y-98199380D01*
X79406547Y-98199380D02*
X79073214Y-97723190D01*
X78835119Y-98199380D02*
X78835119Y-97199380D01*
X79216071Y-97199380D01*
X79311309Y-97247000D01*
X79358928Y-97294619D01*
X79406547Y-97389857D01*
X79406547Y-97532714D01*
X79358928Y-97627952D01*
X79311309Y-97675571D01*
X79216071Y-97723190D01*
X78835119Y-97723190D01*
X79835119Y-98199380D02*
X79835119Y-97199380D01*
X80073214Y-97199380D01*
X80216071Y-97247000D01*
X80311309Y-97342238D01*
X80358928Y-97437476D01*
X80406547Y-97627952D01*
X80406547Y-97770809D01*
X80358928Y-97961285D01*
X80311309Y-98056523D01*
X80216071Y-98151761D01*
X80073214Y-98199380D01*
X79835119Y-98199380D01*
X60597023Y-99809380D02*
X60263690Y-99333190D01*
X60025595Y-99809380D02*
X60025595Y-98809380D01*
X60406547Y-98809380D01*
X60501785Y-98857000D01*
X60549404Y-98904619D01*
X60597023Y-98999857D01*
X60597023Y-99142714D01*
X60549404Y-99237952D01*
X60501785Y-99285571D01*
X60406547Y-99333190D01*
X60025595Y-99333190D01*
X61025595Y-99285571D02*
X61358928Y-99285571D01*
X61501785Y-99809380D02*
X61025595Y-99809380D01*
X61025595Y-98809380D01*
X61501785Y-98809380D01*
X61787500Y-98809380D02*
X62120833Y-99809380D01*
X62454166Y-98809380D01*
X62977976Y-98809380D02*
X63073214Y-98809380D01*
X63168452Y-98857000D01*
X63216071Y-98904619D01*
X63263690Y-98999857D01*
X63311309Y-99190333D01*
X63311309Y-99428428D01*
X63263690Y-99618904D01*
X63216071Y-99714142D01*
X63168452Y-99761761D01*
X63073214Y-99809380D01*
X62977976Y-99809380D01*
X62882738Y-99761761D01*
X62835119Y-99714142D01*
X62787500Y-99618904D01*
X62739880Y-99428428D01*
X62739880Y-99190333D01*
X62787500Y-98999857D01*
X62835119Y-98904619D01*
X62882738Y-98857000D01*
X62977976Y-98809380D01*
X96432666Y-95202285D02*
X96432666Y-94726095D01*
X96718380Y-95297523D02*
X95718380Y-94964190D01*
X96718380Y-94630857D01*
X96718380Y-93773714D02*
X96718380Y-94345142D01*
X96718380Y-94059428D02*
X95718380Y-94059428D01*
X95861238Y-94154666D01*
X95956476Y-94249904D01*
X96004095Y-94345142D01*
X78938380Y-95226095D02*
X77938380Y-95226095D01*
X77938380Y-94988000D01*
X77986000Y-94845142D01*
X78081238Y-94749904D01*
X78176476Y-94702285D01*
X78366952Y-94654666D01*
X78509809Y-94654666D01*
X78700285Y-94702285D01*
X78795523Y-94749904D01*
X78890761Y-94845142D01*
X78938380Y-94988000D01*
X78938380Y-95226095D01*
X77938380Y-94035619D02*
X77938380Y-93940380D01*
X77986000Y-93845142D01*
X78033619Y-93797523D01*
X78128857Y-93749904D01*
X78319333Y-93702285D01*
X78557428Y-93702285D01*
X78747904Y-93749904D01*
X78843142Y-93797523D01*
X78890761Y-93845142D01*
X78938380Y-93940380D01*
X78938380Y-94035619D01*
X78890761Y-94130857D01*
X78843142Y-94178476D01*
X78747904Y-94226095D01*
X78557428Y-94273714D01*
X78319333Y-94273714D01*
X78128857Y-94226095D01*
X78033619Y-94178476D01*
X77986000Y-94130857D01*
X77938380Y-94035619D01*
X61158380Y-95226095D02*
X60158380Y-95226095D01*
X60158380Y-94988000D01*
X60206000Y-94845142D01*
X60301238Y-94749904D01*
X60396476Y-94702285D01*
X60586952Y-94654666D01*
X60729809Y-94654666D01*
X60920285Y-94702285D01*
X61015523Y-94749904D01*
X61110761Y-94845142D01*
X61158380Y-94988000D01*
X61158380Y-95226095D01*
X60158380Y-94321333D02*
X60158380Y-93654666D01*
X61158380Y-94083238D01*
X66238380Y-95226095D02*
X65238380Y-95226095D01*
X65238380Y-94988000D01*
X65286000Y-94845142D01*
X65381238Y-94749904D01*
X65476476Y-94702285D01*
X65666952Y-94654666D01*
X65809809Y-94654666D01*
X66000285Y-94702285D01*
X66095523Y-94749904D01*
X66190761Y-94845142D01*
X66238380Y-94988000D01*
X66238380Y-95226095D01*
X65238380Y-93749904D02*
X65238380Y-94226095D01*
X65714571Y-94273714D01*
X65666952Y-94226095D01*
X65619333Y-94130857D01*
X65619333Y-93892761D01*
X65666952Y-93797523D01*
X65714571Y-93749904D01*
X65809809Y-93702285D01*
X66047904Y-93702285D01*
X66143142Y-93749904D01*
X66190761Y-93797523D01*
X66238380Y-93892761D01*
X66238380Y-94130857D01*
X66190761Y-94226095D01*
X66143142Y-94273714D01*
X76398380Y-95226095D02*
X75398380Y-95226095D01*
X75398380Y-94988000D01*
X75446000Y-94845142D01*
X75541238Y-94749904D01*
X75636476Y-94702285D01*
X75826952Y-94654666D01*
X75969809Y-94654666D01*
X76160285Y-94702285D01*
X76255523Y-94749904D01*
X76350761Y-94845142D01*
X76398380Y-94988000D01*
X76398380Y-95226095D01*
X76398380Y-93702285D02*
X76398380Y-94273714D01*
X76398380Y-93988000D02*
X75398380Y-93988000D01*
X75541238Y-94083238D01*
X75636476Y-94178476D01*
X75684095Y-94273714D01*
X96960000Y-42378190D02*
X96960000Y-41378190D01*
X98147142Y-41568666D02*
X98194761Y-41616285D01*
X98242380Y-41759142D01*
X98242380Y-41854380D01*
X98194761Y-41997238D01*
X98099523Y-42092476D01*
X98004285Y-42140095D01*
X97813809Y-42187714D01*
X97670952Y-42187714D01*
X97480476Y-42140095D01*
X97385238Y-42092476D01*
X97290000Y-41997238D01*
X97242380Y-41854380D01*
X97242380Y-41759142D01*
X97290000Y-41616285D01*
X97337619Y-41568666D01*
X96960000Y-41378190D02*
X96960000Y-40425809D01*
X98194761Y-41187714D02*
X98242380Y-41044857D01*
X98242380Y-40806761D01*
X98194761Y-40711523D01*
X98147142Y-40663904D01*
X98051904Y-40616285D01*
X97956666Y-40616285D01*
X97861428Y-40663904D01*
X97813809Y-40711523D01*
X97766190Y-40806761D01*
X97718571Y-40997238D01*
X97670952Y-41092476D01*
X97623333Y-41140095D01*
X97528095Y-41187714D01*
X97432857Y-41187714D01*
X97337619Y-41140095D01*
X97290000Y-41092476D01*
X97242380Y-40997238D01*
X97242380Y-40759142D01*
X97290000Y-40616285D01*
X73858380Y-95226095D02*
X72858380Y-95226095D01*
X72858380Y-94988000D01*
X72906000Y-94845142D01*
X73001238Y-94749904D01*
X73096476Y-94702285D01*
X73286952Y-94654666D01*
X73429809Y-94654666D01*
X73620285Y-94702285D01*
X73715523Y-94749904D01*
X73810761Y-94845142D01*
X73858380Y-94988000D01*
X73858380Y-95226095D01*
X72953619Y-94273714D02*
X72906000Y-94226095D01*
X72858380Y-94130857D01*
X72858380Y-93892761D01*
X72906000Y-93797523D01*
X72953619Y-93749904D01*
X73048857Y-93702285D01*
X73144095Y-93702285D01*
X73286952Y-93749904D01*
X73858380Y-94321333D01*
X73858380Y-93702285D01*
X71318380Y-95226095D02*
X70318380Y-95226095D01*
X70318380Y-94988000D01*
X70366000Y-94845142D01*
X70461238Y-94749904D01*
X70556476Y-94702285D01*
X70746952Y-94654666D01*
X70889809Y-94654666D01*
X71080285Y-94702285D01*
X71175523Y-94749904D01*
X71270761Y-94845142D01*
X71318380Y-94988000D01*
X71318380Y-95226095D01*
X70318380Y-94321333D02*
X70318380Y-93702285D01*
X70699333Y-94035619D01*
X70699333Y-93892761D01*
X70746952Y-93797523D01*
X70794571Y-93749904D01*
X70889809Y-93702285D01*
X71127904Y-93702285D01*
X71223142Y-93749904D01*
X71270761Y-93797523D01*
X71318380Y-93892761D01*
X71318380Y-94178476D01*
X71270761Y-94273714D01*
X71223142Y-94321333D01*
X98972666Y-95202285D02*
X98972666Y-94726095D01*
X99258380Y-95297523D02*
X98258380Y-94964190D01*
X99258380Y-94630857D01*
X98258380Y-94107047D02*
X98258380Y-94011809D01*
X98306000Y-93916571D01*
X98353619Y-93868952D01*
X98448857Y-93821333D01*
X98639333Y-93773714D01*
X98877428Y-93773714D01*
X99067904Y-93821333D01*
X99163142Y-93868952D01*
X99210761Y-93916571D01*
X99258380Y-94011809D01*
X99258380Y-94107047D01*
X99210761Y-94202285D01*
X99163142Y-94249904D01*
X99067904Y-94297523D01*
X98877428Y-94345142D01*
X98639333Y-94345142D01*
X98448857Y-94297523D01*
X98353619Y-94249904D01*
X98306000Y-94202285D01*
X98258380Y-94107047D01*
X90356000Y-95813428D02*
X90356000Y-94670571D01*
X90638380Y-95670571D02*
X91638380Y-95432476D01*
X90924095Y-95242000D01*
X91638380Y-95051523D01*
X90638380Y-94813428D01*
X90356000Y-94670571D02*
X90356000Y-93670571D01*
X91638380Y-93861047D02*
X91162190Y-94194380D01*
X91638380Y-94432476D02*
X90638380Y-94432476D01*
X90638380Y-94051523D01*
X90686000Y-93956285D01*
X90733619Y-93908666D01*
X90828857Y-93861047D01*
X90971714Y-93861047D01*
X91066952Y-93908666D01*
X91114571Y-93956285D01*
X91162190Y-94051523D01*
X91162190Y-94432476D01*
X68778380Y-95226095D02*
X67778380Y-95226095D01*
X67778380Y-94988000D01*
X67826000Y-94845142D01*
X67921238Y-94749904D01*
X68016476Y-94702285D01*
X68206952Y-94654666D01*
X68349809Y-94654666D01*
X68540285Y-94702285D01*
X68635523Y-94749904D01*
X68730761Y-94845142D01*
X68778380Y-94988000D01*
X68778380Y-95226095D01*
X68111714Y-93797523D02*
X68778380Y-93797523D01*
X67730761Y-94035619D02*
X68445047Y-94273714D01*
X68445047Y-93654666D01*
X92896000Y-95742000D02*
X92896000Y-94742000D01*
X94178380Y-94932476D02*
X93702190Y-95265809D01*
X94178380Y-95503904D02*
X93178380Y-95503904D01*
X93178380Y-95122952D01*
X93226000Y-95027714D01*
X93273619Y-94980095D01*
X93368857Y-94932476D01*
X93511714Y-94932476D01*
X93606952Y-94980095D01*
X93654571Y-95027714D01*
X93702190Y-95122952D01*
X93702190Y-95503904D01*
X92896000Y-94742000D02*
X92896000Y-93742000D01*
X94178380Y-94503904D02*
X93178380Y-94503904D01*
X93178380Y-94265809D01*
X93226000Y-94122952D01*
X93321238Y-94027714D01*
X93416476Y-93980095D01*
X93606952Y-93932476D01*
X93749809Y-93932476D01*
X93940285Y-93980095D01*
X94035523Y-94027714D01*
X94130761Y-94122952D01*
X94178380Y-94265809D01*
X94178380Y-94503904D01*
X93162380Y-43735428D02*
X92162380Y-43735428D01*
X92876666Y-43402095D01*
X92162380Y-43068761D01*
X93162380Y-43068761D01*
X92162380Y-42402095D02*
X92162380Y-42211619D01*
X92210000Y-42116380D01*
X92305238Y-42021142D01*
X92495714Y-41973523D01*
X92829047Y-41973523D01*
X93019523Y-42021142D01*
X93114761Y-42116380D01*
X93162380Y-42211619D01*
X93162380Y-42402095D01*
X93114761Y-42497333D01*
X93019523Y-42592571D01*
X92829047Y-42640190D01*
X92495714Y-42640190D01*
X92305238Y-42592571D01*
X92210000Y-42497333D01*
X92162380Y-42402095D01*
X93114761Y-41592571D02*
X93162380Y-41449714D01*
X93162380Y-41211619D01*
X93114761Y-41116380D01*
X93067142Y-41068761D01*
X92971904Y-41021142D01*
X92876666Y-41021142D01*
X92781428Y-41068761D01*
X92733809Y-41116380D01*
X92686190Y-41211619D01*
X92638571Y-41402095D01*
X92590952Y-41497333D01*
X92543333Y-41544952D01*
X92448095Y-41592571D01*
X92352857Y-41592571D01*
X92257619Y-41544952D01*
X92210000Y-41497333D01*
X92162380Y-41402095D01*
X92162380Y-41164000D01*
X92210000Y-41021142D01*
X93162380Y-40592571D02*
X92162380Y-40592571D01*
X63698380Y-95226095D02*
X62698380Y-95226095D01*
X62698380Y-94988000D01*
X62746000Y-94845142D01*
X62841238Y-94749904D01*
X62936476Y-94702285D01*
X63126952Y-94654666D01*
X63269809Y-94654666D01*
X63460285Y-94702285D01*
X63555523Y-94749904D01*
X63650761Y-94845142D01*
X63698380Y-94988000D01*
X63698380Y-95226095D01*
X62698380Y-93797523D02*
X62698380Y-93988000D01*
X62746000Y-94083238D01*
X62793619Y-94130857D01*
X62936476Y-94226095D01*
X63126952Y-94273714D01*
X63507904Y-94273714D01*
X63603142Y-94226095D01*
X63650761Y-94178476D01*
X63698380Y-94083238D01*
X63698380Y-93892761D01*
X63650761Y-93797523D01*
X63603142Y-93749904D01*
X63507904Y-93702285D01*
X63269809Y-93702285D01*
X63174571Y-93749904D01*
X63126952Y-93797523D01*
X63079333Y-93892761D01*
X63079333Y-94083238D01*
X63126952Y-94178476D01*
X63174571Y-94226095D01*
X63269809Y-94273714D01*
X95607142Y-42251238D02*
X95654761Y-42298857D01*
X95702380Y-42441714D01*
X95702380Y-42536952D01*
X95654761Y-42679809D01*
X95559523Y-42775047D01*
X95464285Y-42822666D01*
X95273809Y-42870285D01*
X95130952Y-42870285D01*
X94940476Y-42822666D01*
X94845238Y-42775047D01*
X94750000Y-42679809D01*
X94702380Y-42536952D01*
X94702380Y-42441714D01*
X94750000Y-42298857D01*
X94797619Y-42251238D01*
X95702380Y-41346476D02*
X95702380Y-41822666D01*
X94702380Y-41822666D01*
X95702380Y-41013142D02*
X94702380Y-41013142D01*
X95702380Y-40441714D02*
X95130952Y-40870285D01*
X94702380Y-40441714D02*
X95273809Y-41013142D01*
X90622380Y-43735428D02*
X89622380Y-43735428D01*
X90336666Y-43402095D01*
X89622380Y-43068761D01*
X90622380Y-43068761D01*
X90622380Y-42592571D02*
X89622380Y-42592571D01*
X90574761Y-42164000D02*
X90622380Y-42021142D01*
X90622380Y-41783047D01*
X90574761Y-41687809D01*
X90527142Y-41640190D01*
X90431904Y-41592571D01*
X90336666Y-41592571D01*
X90241428Y-41640190D01*
X90193809Y-41687809D01*
X90146190Y-41783047D01*
X90098571Y-41973523D01*
X90050952Y-42068761D01*
X90003333Y-42116380D01*
X89908095Y-42164000D01*
X89812857Y-42164000D01*
X89717619Y-42116380D01*
X89670000Y-42068761D01*
X89622380Y-41973523D01*
X89622380Y-41735428D01*
X89670000Y-41592571D01*
X89622380Y-40973523D02*
X89622380Y-40783047D01*
X89670000Y-40687809D01*
X89765238Y-40592571D01*
X89955714Y-40544952D01*
X90289047Y-40544952D01*
X90479523Y-40592571D01*
X90574761Y-40687809D01*
X90622380Y-40783047D01*
X90622380Y-40973523D01*
X90574761Y-41068761D01*
X90479523Y-41164000D01*
X90289047Y-41211619D01*
X89955714Y-41211619D01*
X89765238Y-41164000D01*
X89670000Y-41068761D01*
X89622380Y-40973523D01*
X84590000Y-42671904D02*
X84542380Y-42767142D01*
X84542380Y-42910000D01*
X84590000Y-43052857D01*
X84685238Y-43148095D01*
X84780476Y-43195714D01*
X84970952Y-43243333D01*
X85113809Y-43243333D01*
X85304285Y-43195714D01*
X85399523Y-43148095D01*
X85494761Y-43052857D01*
X85542380Y-42910000D01*
X85542380Y-42814761D01*
X85494761Y-42671904D01*
X85447142Y-42624285D01*
X85113809Y-42624285D01*
X85113809Y-42814761D01*
X85542380Y-42195714D02*
X84542380Y-42195714D01*
X85542380Y-41624285D01*
X84542380Y-41624285D01*
X85542380Y-41148095D02*
X84542380Y-41148095D01*
X84542380Y-40910000D01*
X84590000Y-40767142D01*
X84685238Y-40671904D01*
X84780476Y-40624285D01*
X84970952Y-40576666D01*
X85113809Y-40576666D01*
X85304285Y-40624285D01*
X85399523Y-40671904D01*
X85494761Y-40767142D01*
X85542380Y-40910000D01*
X85542380Y-41148095D01*
X87082380Y-43243333D02*
X88082380Y-42910000D01*
X87082380Y-42576666D01*
X87987142Y-41671904D02*
X88034761Y-41719523D01*
X88082380Y-41862380D01*
X88082380Y-41957619D01*
X88034761Y-42100476D01*
X87939523Y-42195714D01*
X87844285Y-42243333D01*
X87653809Y-42290952D01*
X87510952Y-42290952D01*
X87320476Y-42243333D01*
X87225238Y-42195714D01*
X87130000Y-42100476D01*
X87082380Y-41957619D01*
X87082380Y-41862380D01*
X87130000Y-41719523D01*
X87177619Y-41671904D01*
X87987142Y-40671904D02*
X88034761Y-40719523D01*
X88082380Y-40862380D01*
X88082380Y-40957619D01*
X88034761Y-41100476D01*
X87939523Y-41195714D01*
X87844285Y-41243333D01*
X87653809Y-41290952D01*
X87510952Y-41290952D01*
X87320476Y-41243333D01*
X87225238Y-41195714D01*
X87130000Y-41100476D01*
X87082380Y-40957619D01*
X87082380Y-40862380D01*
X87130000Y-40719523D01*
X87177619Y-40671904D01*
X83018380Y-96329333D02*
X84018380Y-95996000D01*
X83018380Y-95662666D01*
X83923142Y-94757904D02*
X83970761Y-94805523D01*
X84018380Y-94948380D01*
X84018380Y-95043619D01*
X83970761Y-95186476D01*
X83875523Y-95281714D01*
X83780285Y-95329333D01*
X83589809Y-95376952D01*
X83446952Y-95376952D01*
X83256476Y-95329333D01*
X83161238Y-95281714D01*
X83066000Y-95186476D01*
X83018380Y-95043619D01*
X83018380Y-94948380D01*
X83066000Y-94805523D01*
X83113619Y-94757904D01*
X83923142Y-93757904D02*
X83970761Y-93805523D01*
X84018380Y-93948380D01*
X84018380Y-94043619D01*
X83970761Y-94186476D01*
X83875523Y-94281714D01*
X83780285Y-94329333D01*
X83589809Y-94376952D01*
X83446952Y-94376952D01*
X83256476Y-94329333D01*
X83161238Y-94281714D01*
X83066000Y-94186476D01*
X83018380Y-94043619D01*
X83018380Y-93948380D01*
X83066000Y-93805523D01*
X83113619Y-93757904D01*
X100846000Y-96011904D02*
X100798380Y-96107142D01*
X100798380Y-96250000D01*
X100846000Y-96392857D01*
X100941238Y-96488095D01*
X101036476Y-96535714D01*
X101226952Y-96583333D01*
X101369809Y-96583333D01*
X101560285Y-96535714D01*
X101655523Y-96488095D01*
X101750761Y-96392857D01*
X101798380Y-96250000D01*
X101798380Y-96154761D01*
X101750761Y-96011904D01*
X101703142Y-95964285D01*
X101369809Y-95964285D01*
X101369809Y-96154761D01*
X101798380Y-95535714D02*
X100798380Y-95535714D01*
X101798380Y-94964285D01*
X100798380Y-94964285D01*
X101798380Y-94488095D02*
X100798380Y-94488095D01*
X100798380Y-94250000D01*
X100846000Y-94107142D01*
X100941238Y-94011904D01*
X101036476Y-93964285D01*
X101226952Y-93916666D01*
X101369809Y-93916666D01*
X101560285Y-93964285D01*
X101655523Y-94011904D01*
X101750761Y-94107142D01*
X101798380Y-94250000D01*
X101798380Y-94488095D01*
%TO.C,TP4*%
X48268095Y-35404380D02*
X48839523Y-35404380D01*
X48553809Y-36404380D02*
X48553809Y-35404380D01*
X49172857Y-36404380D02*
X49172857Y-35404380D01*
X49553809Y-35404380D01*
X49649047Y-35452000D01*
X49696666Y-35499619D01*
X49744285Y-35594857D01*
X49744285Y-35737714D01*
X49696666Y-35832952D01*
X49649047Y-35880571D01*
X49553809Y-35928190D01*
X49172857Y-35928190D01*
X50601428Y-35737714D02*
X50601428Y-36404380D01*
X50363333Y-35356761D02*
X50125238Y-36071047D01*
X50744285Y-36071047D01*
%TO.C,TP3*%
X53348095Y-35404380D02*
X53919523Y-35404380D01*
X53633809Y-36404380D02*
X53633809Y-35404380D01*
X54252857Y-36404380D02*
X54252857Y-35404380D01*
X54633809Y-35404380D01*
X54729047Y-35452000D01*
X54776666Y-35499619D01*
X54824285Y-35594857D01*
X54824285Y-35737714D01*
X54776666Y-35832952D01*
X54729047Y-35880571D01*
X54633809Y-35928190D01*
X54252857Y-35928190D01*
X55157619Y-35404380D02*
X55776666Y-35404380D01*
X55443333Y-35785333D01*
X55586190Y-35785333D01*
X55681428Y-35832952D01*
X55729047Y-35880571D01*
X55776666Y-35975809D01*
X55776666Y-36213904D01*
X55729047Y-36309142D01*
X55681428Y-36356761D01*
X55586190Y-36404380D01*
X55300476Y-36404380D01*
X55205238Y-36356761D01*
X55157619Y-36309142D01*
%TO.C,TP2*%
X41918095Y-35404380D02*
X42489523Y-35404380D01*
X42203809Y-36404380D02*
X42203809Y-35404380D01*
X42822857Y-36404380D02*
X42822857Y-35404380D01*
X43203809Y-35404380D01*
X43299047Y-35452000D01*
X43346666Y-35499619D01*
X43394285Y-35594857D01*
X43394285Y-35737714D01*
X43346666Y-35832952D01*
X43299047Y-35880571D01*
X43203809Y-35928190D01*
X42822857Y-35928190D01*
X43775238Y-35499619D02*
X43822857Y-35452000D01*
X43918095Y-35404380D01*
X44156190Y-35404380D01*
X44251428Y-35452000D01*
X44299047Y-35499619D01*
X44346666Y-35594857D01*
X44346666Y-35690095D01*
X44299047Y-35832952D01*
X43727619Y-36404380D01*
X44346666Y-36404380D01*
%TO.C,TP1*%
X35568095Y-35404380D02*
X36139523Y-35404380D01*
X35853809Y-36404380D02*
X35853809Y-35404380D01*
X36472857Y-36404380D02*
X36472857Y-35404380D01*
X36853809Y-35404380D01*
X36949047Y-35452000D01*
X36996666Y-35499619D01*
X37044285Y-35594857D01*
X37044285Y-35737714D01*
X36996666Y-35832952D01*
X36949047Y-35880571D01*
X36853809Y-35928190D01*
X36472857Y-35928190D01*
X37996666Y-36404380D02*
X37425238Y-36404380D01*
X37710952Y-36404380D02*
X37710952Y-35404380D01*
X37615714Y-35547238D01*
X37520476Y-35642476D01*
X37425238Y-35690095D01*
%TO.C,TP8*%
X32472380Y-91431904D02*
X32472380Y-90860476D01*
X33472380Y-91146190D02*
X32472380Y-91146190D01*
X33472380Y-90527142D02*
X32472380Y-90527142D01*
X32472380Y-90146190D01*
X32520000Y-90050952D01*
X32567619Y-90003333D01*
X32662857Y-89955714D01*
X32805714Y-89955714D01*
X32900952Y-90003333D01*
X32948571Y-90050952D01*
X32996190Y-90146190D01*
X32996190Y-90527142D01*
X32900952Y-89384285D02*
X32853333Y-89479523D01*
X32805714Y-89527142D01*
X32710476Y-89574761D01*
X32662857Y-89574761D01*
X32567619Y-89527142D01*
X32520000Y-89479523D01*
X32472380Y-89384285D01*
X32472380Y-89193809D01*
X32520000Y-89098571D01*
X32567619Y-89050952D01*
X32662857Y-89003333D01*
X32710476Y-89003333D01*
X32805714Y-89050952D01*
X32853333Y-89098571D01*
X32900952Y-89193809D01*
X32900952Y-89384285D01*
X32948571Y-89479523D01*
X32996190Y-89527142D01*
X33091428Y-89574761D01*
X33281904Y-89574761D01*
X33377142Y-89527142D01*
X33424761Y-89479523D01*
X33472380Y-89384285D01*
X33472380Y-89193809D01*
X33424761Y-89098571D01*
X33377142Y-89050952D01*
X33281904Y-89003333D01*
X33091428Y-89003333D01*
X32996190Y-89050952D01*
X32948571Y-89098571D01*
X32900952Y-89193809D01*
%TO.C,TP7*%
X32472380Y-74921904D02*
X32472380Y-74350476D01*
X33472380Y-74636190D02*
X32472380Y-74636190D01*
X33472380Y-74017142D02*
X32472380Y-74017142D01*
X32472380Y-73636190D01*
X32520000Y-73540952D01*
X32567619Y-73493333D01*
X32662857Y-73445714D01*
X32805714Y-73445714D01*
X32900952Y-73493333D01*
X32948571Y-73540952D01*
X32996190Y-73636190D01*
X32996190Y-74017142D01*
X32472380Y-73112380D02*
X32472380Y-72445714D01*
X33472380Y-72874285D01*
%TO.C,TP6*%
X27948095Y-52434380D02*
X28519523Y-52434380D01*
X28233809Y-53434380D02*
X28233809Y-52434380D01*
X28852857Y-53434380D02*
X28852857Y-52434380D01*
X29233809Y-52434380D01*
X29329047Y-52482000D01*
X29376666Y-52529619D01*
X29424285Y-52624857D01*
X29424285Y-52767714D01*
X29376666Y-52862952D01*
X29329047Y-52910571D01*
X29233809Y-52958190D01*
X28852857Y-52958190D01*
X30281428Y-52434380D02*
X30090952Y-52434380D01*
X29995714Y-52482000D01*
X29948095Y-52529619D01*
X29852857Y-52672476D01*
X29805238Y-52862952D01*
X29805238Y-53243904D01*
X29852857Y-53339142D01*
X29900476Y-53386761D01*
X29995714Y-53434380D01*
X30186190Y-53434380D01*
X30281428Y-53386761D01*
X30329047Y-53339142D01*
X30376666Y-53243904D01*
X30376666Y-53005809D01*
X30329047Y-52910571D01*
X30281428Y-52862952D01*
X30186190Y-52815333D01*
X29995714Y-52815333D01*
X29900476Y-52862952D01*
X29852857Y-52910571D01*
X29805238Y-53005809D01*
%TO.C,TP5*%
X27948095Y-43544380D02*
X28519523Y-43544380D01*
X28233809Y-44544380D02*
X28233809Y-43544380D01*
X28852857Y-44544380D02*
X28852857Y-43544380D01*
X29233809Y-43544380D01*
X29329047Y-43592000D01*
X29376666Y-43639619D01*
X29424285Y-43734857D01*
X29424285Y-43877714D01*
X29376666Y-43972952D01*
X29329047Y-44020571D01*
X29233809Y-44068190D01*
X28852857Y-44068190D01*
X30329047Y-43544380D02*
X29852857Y-43544380D01*
X29805238Y-44020571D01*
X29852857Y-43972952D01*
X29948095Y-43925333D01*
X30186190Y-43925333D01*
X30281428Y-43972952D01*
X30329047Y-44020571D01*
X30376666Y-44115809D01*
X30376666Y-44353904D01*
X30329047Y-44449142D01*
X30281428Y-44496761D01*
X30186190Y-44544380D01*
X29948095Y-44544380D01*
X29852857Y-44496761D01*
X29805238Y-44449142D01*
%TO.C,H1*%
X29718095Y-42616380D02*
X29718095Y-41616380D01*
X29718095Y-42092571D02*
X30289523Y-42092571D01*
X30289523Y-42616380D02*
X30289523Y-41616380D01*
X31289523Y-42616380D02*
X30718095Y-42616380D01*
X31003809Y-42616380D02*
X31003809Y-41616380D01*
X30908571Y-41759238D01*
X30813333Y-41854476D01*
X30718095Y-41902095D01*
%TO.C,C4*%
X86193333Y-86209142D02*
X86145714Y-86256761D01*
X86002857Y-86304380D01*
X85907619Y-86304380D01*
X85764761Y-86256761D01*
X85669523Y-86161523D01*
X85621904Y-86066285D01*
X85574285Y-85875809D01*
X85574285Y-85732952D01*
X85621904Y-85542476D01*
X85669523Y-85447238D01*
X85764761Y-85352000D01*
X85907619Y-85304380D01*
X86002857Y-85304380D01*
X86145714Y-85352000D01*
X86193333Y-85399619D01*
X87050476Y-85637714D02*
X87050476Y-86304380D01*
X86812380Y-85256761D02*
X86574285Y-85971047D01*
X87193333Y-85971047D01*
X84717142Y-76160380D02*
X84812380Y-76160380D01*
X84907619Y-76208000D01*
X84955238Y-76255619D01*
X85002857Y-76350857D01*
X85050476Y-76541333D01*
X85050476Y-76779428D01*
X85002857Y-76969904D01*
X84955238Y-77065142D01*
X84907619Y-77112761D01*
X84812380Y-77160380D01*
X84717142Y-77160380D01*
X84621904Y-77112761D01*
X84574285Y-77065142D01*
X84526666Y-76969904D01*
X84479047Y-76779428D01*
X84479047Y-76541333D01*
X84526666Y-76350857D01*
X84574285Y-76255619D01*
X84621904Y-76208000D01*
X84717142Y-76160380D01*
X85479047Y-77065142D02*
X85526666Y-77112761D01*
X85479047Y-77160380D01*
X85431428Y-77112761D01*
X85479047Y-77065142D01*
X85479047Y-77160380D01*
X86479047Y-77160380D02*
X85907619Y-77160380D01*
X86193333Y-77160380D02*
X86193333Y-76160380D01*
X86098095Y-76303238D01*
X86002857Y-76398476D01*
X85907619Y-76446095D01*
X87336190Y-76493714D02*
X87336190Y-77160380D01*
X86907619Y-76493714D02*
X86907619Y-77017523D01*
X86955238Y-77112761D01*
X87050476Y-77160380D01*
X87193333Y-77160380D01*
X87288571Y-77112761D01*
X87336190Y-77065142D01*
X88145714Y-76636571D02*
X87812380Y-76636571D01*
X87812380Y-77160380D02*
X87812380Y-76160380D01*
X88288571Y-76160380D01*
%TO.C,C3*%
X74743333Y-36679142D02*
X74695714Y-36726761D01*
X74552857Y-36774380D01*
X74457619Y-36774380D01*
X74314761Y-36726761D01*
X74219523Y-36631523D01*
X74171904Y-36536285D01*
X74124285Y-36345809D01*
X74124285Y-36202952D01*
X74171904Y-36012476D01*
X74219523Y-35917238D01*
X74314761Y-35822000D01*
X74457619Y-35774380D01*
X74552857Y-35774380D01*
X74695714Y-35822000D01*
X74743333Y-35869619D01*
X75076666Y-35774380D02*
X75695714Y-35774380D01*
X75362380Y-36155333D01*
X75505238Y-36155333D01*
X75600476Y-36202952D01*
X75648095Y-36250571D01*
X75695714Y-36345809D01*
X75695714Y-36583904D01*
X75648095Y-36679142D01*
X75600476Y-36726761D01*
X75505238Y-36774380D01*
X75219523Y-36774380D01*
X75124285Y-36726761D01*
X75076666Y-36679142D01*
X78795619Y-42505047D02*
X78748000Y-42457428D01*
X78700380Y-42362190D01*
X78700380Y-42124095D01*
X78748000Y-42028857D01*
X78795619Y-41981238D01*
X78890857Y-41933619D01*
X78986095Y-41933619D01*
X79128952Y-41981238D01*
X79700380Y-42552666D01*
X79700380Y-41933619D01*
X78795619Y-41552666D02*
X78748000Y-41505047D01*
X78700380Y-41409809D01*
X78700380Y-41171714D01*
X78748000Y-41076476D01*
X78795619Y-41028857D01*
X78890857Y-40981238D01*
X78986095Y-40981238D01*
X79128952Y-41028857D01*
X79700380Y-41600285D01*
X79700380Y-40981238D01*
X78700380Y-40362190D02*
X78700380Y-40266952D01*
X78748000Y-40171714D01*
X78795619Y-40124095D01*
X78890857Y-40076476D01*
X79081333Y-40028857D01*
X79319428Y-40028857D01*
X79509904Y-40076476D01*
X79605142Y-40124095D01*
X79652761Y-40171714D01*
X79700380Y-40266952D01*
X79700380Y-40362190D01*
X79652761Y-40457428D01*
X79605142Y-40505047D01*
X79509904Y-40552666D01*
X79319428Y-40600285D01*
X79081333Y-40600285D01*
X78890857Y-40552666D01*
X78795619Y-40505047D01*
X78748000Y-40457428D01*
X78700380Y-40362190D01*
X79033714Y-39171714D02*
X79700380Y-39171714D01*
X79033714Y-39600285D02*
X79557523Y-39600285D01*
X79652761Y-39552666D01*
X79700380Y-39457428D01*
X79700380Y-39314571D01*
X79652761Y-39219333D01*
X79605142Y-39171714D01*
X79176571Y-38362190D02*
X79176571Y-38695523D01*
X79700380Y-38695523D02*
X78700380Y-38695523D01*
X78700380Y-38219333D01*
%TO.C,U2*%
X82002380Y-77723904D02*
X82811904Y-77723904D01*
X82907142Y-77676285D01*
X82954761Y-77628666D01*
X83002380Y-77533428D01*
X83002380Y-77342952D01*
X82954761Y-77247714D01*
X82907142Y-77200095D01*
X82811904Y-77152476D01*
X82002380Y-77152476D01*
X82097619Y-76723904D02*
X82050000Y-76676285D01*
X82002380Y-76581047D01*
X82002380Y-76342952D01*
X82050000Y-76247714D01*
X82097619Y-76200095D01*
X82192857Y-76152476D01*
X82288095Y-76152476D01*
X82430952Y-76200095D01*
X83002380Y-76771523D01*
X83002380Y-76152476D01*
X82002380Y-86319904D02*
X82002380Y-85653238D01*
X83002380Y-86081809D01*
X82335714Y-84843714D02*
X83002380Y-84843714D01*
X81954761Y-85081809D02*
X82669047Y-85319904D01*
X82669047Y-84700857D01*
X83002380Y-84319904D02*
X82002380Y-84319904D01*
X82478571Y-84319904D02*
X82478571Y-83748476D01*
X83002380Y-83748476D02*
X82002380Y-83748476D01*
X82907142Y-82700857D02*
X82954761Y-82748476D01*
X83002380Y-82891333D01*
X83002380Y-82986571D01*
X82954761Y-83129428D01*
X82859523Y-83224666D01*
X82764285Y-83272285D01*
X82573809Y-83319904D01*
X82430952Y-83319904D01*
X82240476Y-83272285D01*
X82145238Y-83224666D01*
X82050000Y-83129428D01*
X82002380Y-82986571D01*
X82002380Y-82891333D01*
X82050000Y-82748476D01*
X82097619Y-82700857D01*
X83002380Y-81748476D02*
X83002380Y-82319904D01*
X83002380Y-82034190D02*
X82002380Y-82034190D01*
X82145238Y-82129428D01*
X82240476Y-82224666D01*
X82288095Y-82319904D01*
X82002380Y-81415142D02*
X82002380Y-80796095D01*
X82383333Y-81129428D01*
X82383333Y-80986571D01*
X82430952Y-80891333D01*
X82478571Y-80843714D01*
X82573809Y-80796095D01*
X82811904Y-80796095D01*
X82907142Y-80843714D01*
X82954761Y-80891333D01*
X83002380Y-80986571D01*
X83002380Y-81272285D01*
X82954761Y-81367523D01*
X82907142Y-81415142D01*
X83002380Y-80319904D02*
X83002380Y-80129428D01*
X82954761Y-80034190D01*
X82907142Y-79986571D01*
X82764285Y-79891333D01*
X82573809Y-79843714D01*
X82192857Y-79843714D01*
X82097619Y-79891333D01*
X82050000Y-79938952D01*
X82002380Y-80034190D01*
X82002380Y-80224666D01*
X82050000Y-80319904D01*
X82097619Y-80367523D01*
X82192857Y-80415142D01*
X82430952Y-80415142D01*
X82526190Y-80367523D01*
X82573809Y-80319904D01*
X82621428Y-80224666D01*
X82621428Y-80034190D01*
X82573809Y-79938952D01*
X82526190Y-79891333D01*
X82430952Y-79843714D01*
%TO.C,U8*%
X54062380Y-77723904D02*
X54871904Y-77723904D01*
X54967142Y-77676285D01*
X55014761Y-77628666D01*
X55062380Y-77533428D01*
X55062380Y-77342952D01*
X55014761Y-77247714D01*
X54967142Y-77200095D01*
X54871904Y-77152476D01*
X54062380Y-77152476D01*
X54490952Y-76533428D02*
X54443333Y-76628666D01*
X54395714Y-76676285D01*
X54300476Y-76723904D01*
X54252857Y-76723904D01*
X54157619Y-76676285D01*
X54110000Y-76628666D01*
X54062380Y-76533428D01*
X54062380Y-76342952D01*
X54110000Y-76247714D01*
X54157619Y-76200095D01*
X54252857Y-76152476D01*
X54300476Y-76152476D01*
X54395714Y-76200095D01*
X54443333Y-76247714D01*
X54490952Y-76342952D01*
X54490952Y-76533428D01*
X54538571Y-76628666D01*
X54586190Y-76676285D01*
X54681428Y-76723904D01*
X54871904Y-76723904D01*
X54967142Y-76676285D01*
X55014761Y-76628666D01*
X55062380Y-76533428D01*
X55062380Y-76342952D01*
X55014761Y-76247714D01*
X54967142Y-76200095D01*
X54871904Y-76152476D01*
X54681428Y-76152476D01*
X54586190Y-76200095D01*
X54538571Y-76247714D01*
X54490952Y-76342952D01*
X54062380Y-86573904D02*
X54062380Y-85907238D01*
X55062380Y-86335809D01*
X54395714Y-85097714D02*
X55062380Y-85097714D01*
X54014761Y-85335809D02*
X54729047Y-85573904D01*
X54729047Y-84954857D01*
X55062380Y-84573904D02*
X54062380Y-84573904D01*
X54538571Y-84573904D02*
X54538571Y-84002476D01*
X55062380Y-84002476D02*
X54062380Y-84002476D01*
X54967142Y-82954857D02*
X55014761Y-83002476D01*
X55062380Y-83145333D01*
X55062380Y-83240571D01*
X55014761Y-83383428D01*
X54919523Y-83478666D01*
X54824285Y-83526285D01*
X54633809Y-83573904D01*
X54490952Y-83573904D01*
X54300476Y-83526285D01*
X54205238Y-83478666D01*
X54110000Y-83383428D01*
X54062380Y-83240571D01*
X54062380Y-83145333D01*
X54110000Y-83002476D01*
X54157619Y-82954857D01*
X54062380Y-82050095D02*
X54062380Y-82526285D01*
X54538571Y-82573904D01*
X54490952Y-82526285D01*
X54443333Y-82431047D01*
X54443333Y-82192952D01*
X54490952Y-82097714D01*
X54538571Y-82050095D01*
X54633809Y-82002476D01*
X54871904Y-82002476D01*
X54967142Y-82050095D01*
X55014761Y-82097714D01*
X55062380Y-82192952D01*
X55062380Y-82431047D01*
X55014761Y-82526285D01*
X54967142Y-82573904D01*
X55062380Y-81526285D02*
X55062380Y-81335809D01*
X55014761Y-81240571D01*
X54967142Y-81192952D01*
X54824285Y-81097714D01*
X54633809Y-81050095D01*
X54252857Y-81050095D01*
X54157619Y-81097714D01*
X54110000Y-81145333D01*
X54062380Y-81240571D01*
X54062380Y-81431047D01*
X54110000Y-81526285D01*
X54157619Y-81573904D01*
X54252857Y-81621523D01*
X54490952Y-81621523D01*
X54586190Y-81573904D01*
X54633809Y-81526285D01*
X54681428Y-81431047D01*
X54681428Y-81240571D01*
X54633809Y-81145333D01*
X54586190Y-81097714D01*
X54490952Y-81050095D01*
X54062380Y-80145333D02*
X54062380Y-80621523D01*
X54538571Y-80669142D01*
X54490952Y-80621523D01*
X54443333Y-80526285D01*
X54443333Y-80288190D01*
X54490952Y-80192952D01*
X54538571Y-80145333D01*
X54633809Y-80097714D01*
X54871904Y-80097714D01*
X54967142Y-80145333D01*
X55014761Y-80192952D01*
X55062380Y-80288190D01*
X55062380Y-80526285D01*
X55014761Y-80621523D01*
X54967142Y-80669142D01*
%TO.C,R4*%
X60650380Y-73786666D02*
X60174190Y-74120000D01*
X60650380Y-74358095D02*
X59650380Y-74358095D01*
X59650380Y-73977142D01*
X59698000Y-73881904D01*
X59745619Y-73834285D01*
X59840857Y-73786666D01*
X59983714Y-73786666D01*
X60078952Y-73834285D01*
X60126571Y-73881904D01*
X60174190Y-73977142D01*
X60174190Y-74358095D01*
X59983714Y-72929523D02*
X60650380Y-72929523D01*
X59602761Y-73167619D02*
X60317047Y-73405714D01*
X60317047Y-72786666D01*
X65404761Y-74072380D02*
X64833333Y-74072380D01*
X65119047Y-74072380D02*
X65119047Y-73072380D01*
X65023809Y-73215238D01*
X64928571Y-73310476D01*
X64833333Y-73358095D01*
X66023809Y-73072380D02*
X66119047Y-73072380D01*
X66214285Y-73120000D01*
X66261904Y-73167619D01*
X66309523Y-73262857D01*
X66357142Y-73453333D01*
X66357142Y-73691428D01*
X66309523Y-73881904D01*
X66261904Y-73977142D01*
X66214285Y-74024761D01*
X66119047Y-74072380D01*
X66023809Y-74072380D01*
X65928571Y-74024761D01*
X65880952Y-73977142D01*
X65833333Y-73881904D01*
X65785714Y-73691428D01*
X65785714Y-73453333D01*
X65833333Y-73262857D01*
X65880952Y-73167619D01*
X65928571Y-73120000D01*
X66023809Y-73072380D01*
X66785714Y-74072380D02*
X66785714Y-73072380D01*
X66880952Y-73691428D02*
X67166666Y-74072380D01*
X67166666Y-73405714D02*
X66785714Y-73786666D01*
%TO.C,H4*%
X104648095Y-94178380D02*
X104648095Y-93178380D01*
X104648095Y-93654571D02*
X105219523Y-93654571D01*
X105219523Y-94178380D02*
X105219523Y-93178380D01*
X106124285Y-93511714D02*
X106124285Y-94178380D01*
X105886190Y-93130761D02*
X105648095Y-93845047D01*
X106267142Y-93845047D01*
%TO.C,C8*%
X58253333Y-55729142D02*
X58205714Y-55776761D01*
X58062857Y-55824380D01*
X57967619Y-55824380D01*
X57824761Y-55776761D01*
X57729523Y-55681523D01*
X57681904Y-55586285D01*
X57634285Y-55395809D01*
X57634285Y-55252952D01*
X57681904Y-55062476D01*
X57729523Y-54967238D01*
X57824761Y-54872000D01*
X57967619Y-54824380D01*
X58062857Y-54824380D01*
X58205714Y-54872000D01*
X58253333Y-54919619D01*
X58824761Y-55252952D02*
X58729523Y-55205333D01*
X58681904Y-55157714D01*
X58634285Y-55062476D01*
X58634285Y-55014857D01*
X58681904Y-54919619D01*
X58729523Y-54872000D01*
X58824761Y-54824380D01*
X59015238Y-54824380D01*
X59110476Y-54872000D01*
X59158095Y-54919619D01*
X59205714Y-55014857D01*
X59205714Y-55062476D01*
X59158095Y-55157714D01*
X59110476Y-55205333D01*
X59015238Y-55252952D01*
X58824761Y-55252952D01*
X58729523Y-55300571D01*
X58681904Y-55348190D01*
X58634285Y-55443428D01*
X58634285Y-55633904D01*
X58681904Y-55729142D01*
X58729523Y-55776761D01*
X58824761Y-55824380D01*
X59015238Y-55824380D01*
X59110476Y-55776761D01*
X59158095Y-55729142D01*
X59205714Y-55633904D01*
X59205714Y-55443428D01*
X59158095Y-55348190D01*
X59110476Y-55300571D01*
X59015238Y-55252952D01*
X56777142Y-45680380D02*
X56872380Y-45680380D01*
X56967619Y-45728000D01*
X57015238Y-45775619D01*
X57062857Y-45870857D01*
X57110476Y-46061333D01*
X57110476Y-46299428D01*
X57062857Y-46489904D01*
X57015238Y-46585142D01*
X56967619Y-46632761D01*
X56872380Y-46680380D01*
X56777142Y-46680380D01*
X56681904Y-46632761D01*
X56634285Y-46585142D01*
X56586666Y-46489904D01*
X56539047Y-46299428D01*
X56539047Y-46061333D01*
X56586666Y-45870857D01*
X56634285Y-45775619D01*
X56681904Y-45728000D01*
X56777142Y-45680380D01*
X57539047Y-46585142D02*
X57586666Y-46632761D01*
X57539047Y-46680380D01*
X57491428Y-46632761D01*
X57539047Y-46585142D01*
X57539047Y-46680380D01*
X58539047Y-46680380D02*
X57967619Y-46680380D01*
X58253333Y-46680380D02*
X58253333Y-45680380D01*
X58158095Y-45823238D01*
X58062857Y-45918476D01*
X57967619Y-45966095D01*
X59396190Y-46013714D02*
X59396190Y-46680380D01*
X58967619Y-46013714D02*
X58967619Y-46537523D01*
X59015238Y-46632761D01*
X59110476Y-46680380D01*
X59253333Y-46680380D01*
X59348571Y-46632761D01*
X59396190Y-46585142D01*
X60205714Y-46156571D02*
X59872380Y-46156571D01*
X59872380Y-46680380D02*
X59872380Y-45680380D01*
X60348571Y-45680380D01*
%TO.C,U1*%
X82002380Y-62737904D02*
X82811904Y-62737904D01*
X82907142Y-62690285D01*
X82954761Y-62642666D01*
X83002380Y-62547428D01*
X83002380Y-62356952D01*
X82954761Y-62261714D01*
X82907142Y-62214095D01*
X82811904Y-62166476D01*
X82002380Y-62166476D01*
X83002380Y-61166476D02*
X83002380Y-61737904D01*
X83002380Y-61452190D02*
X82002380Y-61452190D01*
X82145238Y-61547428D01*
X82240476Y-61642666D01*
X82288095Y-61737904D01*
X82002380Y-71079904D02*
X82002380Y-70413238D01*
X83002380Y-70841809D01*
X82335714Y-69603714D02*
X83002380Y-69603714D01*
X81954761Y-69841809D02*
X82669047Y-70079904D01*
X82669047Y-69460857D01*
X83002380Y-69079904D02*
X82002380Y-69079904D01*
X82478571Y-69079904D02*
X82478571Y-68508476D01*
X83002380Y-68508476D02*
X82002380Y-68508476D01*
X82907142Y-67460857D02*
X82954761Y-67508476D01*
X83002380Y-67651333D01*
X83002380Y-67746571D01*
X82954761Y-67889428D01*
X82859523Y-67984666D01*
X82764285Y-68032285D01*
X82573809Y-68079904D01*
X82430952Y-68079904D01*
X82240476Y-68032285D01*
X82145238Y-67984666D01*
X82050000Y-67889428D01*
X82002380Y-67746571D01*
X82002380Y-67651333D01*
X82050000Y-67508476D01*
X82097619Y-67460857D01*
X83002380Y-66508476D02*
X83002380Y-67079904D01*
X83002380Y-66794190D02*
X82002380Y-66794190D01*
X82145238Y-66889428D01*
X82240476Y-66984666D01*
X82288095Y-67079904D01*
X82097619Y-66127523D02*
X82050000Y-66079904D01*
X82002380Y-65984666D01*
X82002380Y-65746571D01*
X82050000Y-65651333D01*
X82097619Y-65603714D01*
X82192857Y-65556095D01*
X82288095Y-65556095D01*
X82430952Y-65603714D01*
X83002380Y-66175142D01*
X83002380Y-65556095D01*
X82002380Y-65222761D02*
X82002380Y-64603714D01*
X82383333Y-64937047D01*
X82383333Y-64794190D01*
X82430952Y-64698952D01*
X82478571Y-64651333D01*
X82573809Y-64603714D01*
X82811904Y-64603714D01*
X82907142Y-64651333D01*
X82954761Y-64698952D01*
X83002380Y-64794190D01*
X83002380Y-65079904D01*
X82954761Y-65175142D01*
X82907142Y-65222761D01*
%TO.C,U3*%
X107402380Y-47751904D02*
X108211904Y-47751904D01*
X108307142Y-47704285D01*
X108354761Y-47656666D01*
X108402380Y-47561428D01*
X108402380Y-47370952D01*
X108354761Y-47275714D01*
X108307142Y-47228095D01*
X108211904Y-47180476D01*
X107402380Y-47180476D01*
X107402380Y-46799523D02*
X107402380Y-46180476D01*
X107783333Y-46513809D01*
X107783333Y-46370952D01*
X107830952Y-46275714D01*
X107878571Y-46228095D01*
X107973809Y-46180476D01*
X108211904Y-46180476D01*
X108307142Y-46228095D01*
X108354761Y-46275714D01*
X108402380Y-46370952D01*
X108402380Y-46656666D01*
X108354761Y-46751904D01*
X108307142Y-46799523D01*
X107402380Y-55871714D02*
X107402380Y-55205047D01*
X108402380Y-55633619D01*
X107735714Y-54395523D02*
X108402380Y-54395523D01*
X107354761Y-54633619D02*
X108069047Y-54871714D01*
X108069047Y-54252666D01*
X108402380Y-53871714D02*
X107402380Y-53871714D01*
X107878571Y-53871714D02*
X107878571Y-53300285D01*
X108402380Y-53300285D02*
X107402380Y-53300285D01*
X108307142Y-52252666D02*
X108354761Y-52300285D01*
X108402380Y-52443142D01*
X108402380Y-52538380D01*
X108354761Y-52681238D01*
X108259523Y-52776476D01*
X108164285Y-52824095D01*
X107973809Y-52871714D01*
X107830952Y-52871714D01*
X107640476Y-52824095D01*
X107545238Y-52776476D01*
X107450000Y-52681238D01*
X107402380Y-52538380D01*
X107402380Y-52443142D01*
X107450000Y-52300285D01*
X107497619Y-52252666D01*
X107402380Y-51633619D02*
X107402380Y-51538380D01*
X107450000Y-51443142D01*
X107497619Y-51395523D01*
X107592857Y-51347904D01*
X107783333Y-51300285D01*
X108021428Y-51300285D01*
X108211904Y-51347904D01*
X108307142Y-51395523D01*
X108354761Y-51443142D01*
X108402380Y-51538380D01*
X108402380Y-51633619D01*
X108354761Y-51728857D01*
X108307142Y-51776476D01*
X108211904Y-51824095D01*
X108021428Y-51871714D01*
X107783333Y-51871714D01*
X107592857Y-51824095D01*
X107497619Y-51776476D01*
X107450000Y-51728857D01*
X107402380Y-51633619D01*
X107402380Y-50681238D02*
X107402380Y-50586000D01*
X107450000Y-50490761D01*
X107497619Y-50443142D01*
X107592857Y-50395523D01*
X107783333Y-50347904D01*
X108021428Y-50347904D01*
X108211904Y-50395523D01*
X108307142Y-50443142D01*
X108354761Y-50490761D01*
X108402380Y-50586000D01*
X108402380Y-50681238D01*
X108354761Y-50776476D01*
X108307142Y-50824095D01*
X108211904Y-50871714D01*
X108021428Y-50919333D01*
X107783333Y-50919333D01*
X107592857Y-50871714D01*
X107497619Y-50824095D01*
X107450000Y-50776476D01*
X107402380Y-50681238D01*
%TO.C,D2*%
X36848904Y-90980380D02*
X36848904Y-89980380D01*
X37087000Y-89980380D01*
X37229857Y-90028000D01*
X37325095Y-90123238D01*
X37372714Y-90218476D01*
X37420333Y-90408952D01*
X37420333Y-90551809D01*
X37372714Y-90742285D01*
X37325095Y-90837523D01*
X37229857Y-90932761D01*
X37087000Y-90980380D01*
X36848904Y-90980380D01*
X37801285Y-90075619D02*
X37848904Y-90028000D01*
X37944142Y-89980380D01*
X38182238Y-89980380D01*
X38277476Y-90028000D01*
X38325095Y-90075619D01*
X38372714Y-90170857D01*
X38372714Y-90266095D01*
X38325095Y-90408952D01*
X37753666Y-90980380D01*
X38372714Y-90980380D01*
X36444142Y-98852761D02*
X36587000Y-98900380D01*
X36825095Y-98900380D01*
X36920333Y-98852761D01*
X36967952Y-98805142D01*
X37015571Y-98709904D01*
X37015571Y-98614666D01*
X36967952Y-98519428D01*
X36920333Y-98471809D01*
X36825095Y-98424190D01*
X36634619Y-98376571D01*
X36539380Y-98328952D01*
X36491761Y-98281333D01*
X36444142Y-98186095D01*
X36444142Y-98090857D01*
X36491761Y-97995619D01*
X36539380Y-97948000D01*
X36634619Y-97900380D01*
X36872714Y-97900380D01*
X37015571Y-97948000D01*
X37444142Y-98376571D02*
X37777476Y-98376571D01*
X37920333Y-98900380D02*
X37444142Y-98900380D01*
X37444142Y-97900380D01*
X37920333Y-97900380D01*
X38825095Y-98900380D02*
X38348904Y-98900380D01*
X38348904Y-97900380D01*
%TO.C,U7*%
X54062380Y-62991904D02*
X54871904Y-62991904D01*
X54967142Y-62944285D01*
X55014761Y-62896666D01*
X55062380Y-62801428D01*
X55062380Y-62610952D01*
X55014761Y-62515714D01*
X54967142Y-62468095D01*
X54871904Y-62420476D01*
X54062380Y-62420476D01*
X54062380Y-62039523D02*
X54062380Y-61372857D01*
X55062380Y-61801428D01*
X54062380Y-71079904D02*
X54062380Y-70413238D01*
X55062380Y-70841809D01*
X54395714Y-69603714D02*
X55062380Y-69603714D01*
X54014761Y-69841809D02*
X54729047Y-70079904D01*
X54729047Y-69460857D01*
X55062380Y-69079904D02*
X54062380Y-69079904D01*
X54538571Y-69079904D02*
X54538571Y-68508476D01*
X55062380Y-68508476D02*
X54062380Y-68508476D01*
X54967142Y-67460857D02*
X55014761Y-67508476D01*
X55062380Y-67651333D01*
X55062380Y-67746571D01*
X55014761Y-67889428D01*
X54919523Y-67984666D01*
X54824285Y-68032285D01*
X54633809Y-68079904D01*
X54490952Y-68079904D01*
X54300476Y-68032285D01*
X54205238Y-67984666D01*
X54110000Y-67889428D01*
X54062380Y-67746571D01*
X54062380Y-67651333D01*
X54110000Y-67508476D01*
X54157619Y-67460857D01*
X55062380Y-66508476D02*
X55062380Y-67079904D01*
X55062380Y-66794190D02*
X54062380Y-66794190D01*
X54205238Y-66889428D01*
X54300476Y-66984666D01*
X54348095Y-67079904D01*
X54062380Y-65651333D02*
X54062380Y-65841809D01*
X54110000Y-65937047D01*
X54157619Y-65984666D01*
X54300476Y-66079904D01*
X54490952Y-66127523D01*
X54871904Y-66127523D01*
X54967142Y-66079904D01*
X55014761Y-66032285D01*
X55062380Y-65937047D01*
X55062380Y-65746571D01*
X55014761Y-65651333D01*
X54967142Y-65603714D01*
X54871904Y-65556095D01*
X54633809Y-65556095D01*
X54538571Y-65603714D01*
X54490952Y-65651333D01*
X54443333Y-65746571D01*
X54443333Y-65937047D01*
X54490952Y-66032285D01*
X54538571Y-66079904D01*
X54633809Y-66127523D01*
X54062380Y-64651333D02*
X54062380Y-65127523D01*
X54538571Y-65175142D01*
X54490952Y-65127523D01*
X54443333Y-65032285D01*
X54443333Y-64794190D01*
X54490952Y-64698952D01*
X54538571Y-64651333D01*
X54633809Y-64603714D01*
X54871904Y-64603714D01*
X54967142Y-64651333D01*
X55014761Y-64698952D01*
X55062380Y-64794190D01*
X55062380Y-65032285D01*
X55014761Y-65127523D01*
X54967142Y-65175142D01*
%TO.C,R2*%
X55205333Y-89098380D02*
X54872000Y-88622190D01*
X54633904Y-89098380D02*
X54633904Y-88098380D01*
X55014857Y-88098380D01*
X55110095Y-88146000D01*
X55157714Y-88193619D01*
X55205333Y-88288857D01*
X55205333Y-88431714D01*
X55157714Y-88526952D01*
X55110095Y-88574571D01*
X55014857Y-88622190D01*
X54633904Y-88622190D01*
X55586285Y-88193619D02*
X55633904Y-88146000D01*
X55729142Y-88098380D01*
X55967238Y-88098380D01*
X56062476Y-88146000D01*
X56110095Y-88193619D01*
X56157714Y-88288857D01*
X56157714Y-88384095D01*
X56110095Y-88526952D01*
X55538666Y-89098380D01*
X56157714Y-89098380D01*
%TO.C,J3*%
X100012380Y-38712333D02*
X100726666Y-38712333D01*
X100869523Y-38759952D01*
X100964761Y-38855190D01*
X101012380Y-38998047D01*
X101012380Y-39093285D01*
X100012380Y-38331380D02*
X100012380Y-37712333D01*
X100393333Y-38045666D01*
X100393333Y-37902809D01*
X100440952Y-37807571D01*
X100488571Y-37759952D01*
X100583809Y-37712333D01*
X100821904Y-37712333D01*
X100917142Y-37759952D01*
X100964761Y-37807571D01*
X101012380Y-37902809D01*
X101012380Y-38188523D01*
X100964761Y-38283761D01*
X100917142Y-38331380D01*
X83471428Y-36218761D02*
X83614285Y-36266380D01*
X83852380Y-36266380D01*
X83947619Y-36218761D01*
X83995238Y-36171142D01*
X84042857Y-36075904D01*
X84042857Y-35980666D01*
X83995238Y-35885428D01*
X83947619Y-35837809D01*
X83852380Y-35790190D01*
X83661904Y-35742571D01*
X83566666Y-35694952D01*
X83519047Y-35647333D01*
X83471428Y-35552095D01*
X83471428Y-35456857D01*
X83519047Y-35361619D01*
X83566666Y-35314000D01*
X83661904Y-35266380D01*
X83900000Y-35266380D01*
X84042857Y-35314000D01*
X84471428Y-36266380D02*
X84471428Y-35266380D01*
X84709523Y-35266380D01*
X84852380Y-35314000D01*
X84947619Y-35409238D01*
X84995238Y-35504476D01*
X85042857Y-35694952D01*
X85042857Y-35837809D01*
X84995238Y-36028285D01*
X84947619Y-36123523D01*
X84852380Y-36218761D01*
X84709523Y-36266380D01*
X84471428Y-36266380D01*
X86804761Y-36171142D02*
X86757142Y-36218761D01*
X86614285Y-36266380D01*
X86519047Y-36266380D01*
X86376190Y-36218761D01*
X86280952Y-36123523D01*
X86233333Y-36028285D01*
X86185714Y-35837809D01*
X86185714Y-35694952D01*
X86233333Y-35504476D01*
X86280952Y-35409238D01*
X86376190Y-35314000D01*
X86519047Y-35266380D01*
X86614285Y-35266380D01*
X86757142Y-35314000D01*
X86804761Y-35361619D01*
X87661904Y-36266380D02*
X87661904Y-35742571D01*
X87614285Y-35647333D01*
X87519047Y-35599714D01*
X87328571Y-35599714D01*
X87233333Y-35647333D01*
X87661904Y-36218761D02*
X87566666Y-36266380D01*
X87328571Y-36266380D01*
X87233333Y-36218761D01*
X87185714Y-36123523D01*
X87185714Y-36028285D01*
X87233333Y-35933047D01*
X87328571Y-35885428D01*
X87566666Y-35885428D01*
X87661904Y-35837809D01*
X88138095Y-36266380D02*
X88138095Y-35599714D01*
X88138095Y-35790190D02*
X88185714Y-35694952D01*
X88233333Y-35647333D01*
X88328571Y-35599714D01*
X88423809Y-35599714D01*
X89185714Y-36266380D02*
X89185714Y-35266380D01*
X89185714Y-36218761D02*
X89090476Y-36266380D01*
X88900000Y-36266380D01*
X88804761Y-36218761D01*
X88757142Y-36171142D01*
X88709523Y-36075904D01*
X88709523Y-35790190D01*
X88757142Y-35694952D01*
X88804761Y-35647333D01*
X88900000Y-35599714D01*
X89090476Y-35599714D01*
X89185714Y-35647333D01*
X90757142Y-35742571D02*
X90900000Y-35790190D01*
X90947619Y-35837809D01*
X90995238Y-35933047D01*
X90995238Y-36075904D01*
X90947619Y-36171142D01*
X90900000Y-36218761D01*
X90804761Y-36266380D01*
X90423809Y-36266380D01*
X90423809Y-35266380D01*
X90757142Y-35266380D01*
X90852380Y-35314000D01*
X90900000Y-35361619D01*
X90947619Y-35456857D01*
X90947619Y-35552095D01*
X90900000Y-35647333D01*
X90852380Y-35694952D01*
X90757142Y-35742571D01*
X90423809Y-35742571D01*
X91566666Y-36266380D02*
X91471428Y-36218761D01*
X91423809Y-36171142D01*
X91376190Y-36075904D01*
X91376190Y-35790190D01*
X91423809Y-35694952D01*
X91471428Y-35647333D01*
X91566666Y-35599714D01*
X91709523Y-35599714D01*
X91804761Y-35647333D01*
X91852380Y-35694952D01*
X91900000Y-35790190D01*
X91900000Y-36075904D01*
X91852380Y-36171142D01*
X91804761Y-36218761D01*
X91709523Y-36266380D01*
X91566666Y-36266380D01*
X92757142Y-36266380D02*
X92757142Y-35742571D01*
X92709523Y-35647333D01*
X92614285Y-35599714D01*
X92423809Y-35599714D01*
X92328571Y-35647333D01*
X92757142Y-36218761D02*
X92661904Y-36266380D01*
X92423809Y-36266380D01*
X92328571Y-36218761D01*
X92280952Y-36123523D01*
X92280952Y-36028285D01*
X92328571Y-35933047D01*
X92423809Y-35885428D01*
X92661904Y-35885428D01*
X92757142Y-35837809D01*
X93233333Y-36266380D02*
X93233333Y-35599714D01*
X93233333Y-35790190D02*
X93280952Y-35694952D01*
X93328571Y-35647333D01*
X93423809Y-35599714D01*
X93519047Y-35599714D01*
X94280952Y-36266380D02*
X94280952Y-35266380D01*
X94280952Y-36218761D02*
X94185714Y-36266380D01*
X93995238Y-36266380D01*
X93900000Y-36218761D01*
X93852380Y-36171142D01*
X93804761Y-36075904D01*
X93804761Y-35790190D01*
X93852380Y-35694952D01*
X93900000Y-35647333D01*
X93995238Y-35599714D01*
X94185714Y-35599714D01*
X94280952Y-35647333D01*
%TO.C,C10*%
X85717142Y-55729142D02*
X85669523Y-55776761D01*
X85526666Y-55824380D01*
X85431428Y-55824380D01*
X85288571Y-55776761D01*
X85193333Y-55681523D01*
X85145714Y-55586285D01*
X85098095Y-55395809D01*
X85098095Y-55252952D01*
X85145714Y-55062476D01*
X85193333Y-54967238D01*
X85288571Y-54872000D01*
X85431428Y-54824380D01*
X85526666Y-54824380D01*
X85669523Y-54872000D01*
X85717142Y-54919619D01*
X86669523Y-55824380D02*
X86098095Y-55824380D01*
X86383809Y-55824380D02*
X86383809Y-54824380D01*
X86288571Y-54967238D01*
X86193333Y-55062476D01*
X86098095Y-55110095D01*
X87288571Y-54824380D02*
X87383809Y-54824380D01*
X87479047Y-54872000D01*
X87526666Y-54919619D01*
X87574285Y-55014857D01*
X87621904Y-55205333D01*
X87621904Y-55443428D01*
X87574285Y-55633904D01*
X87526666Y-55729142D01*
X87479047Y-55776761D01*
X87383809Y-55824380D01*
X87288571Y-55824380D01*
X87193333Y-55776761D01*
X87145714Y-55729142D01*
X87098095Y-55633904D01*
X87050476Y-55443428D01*
X87050476Y-55205333D01*
X87098095Y-55014857D01*
X87145714Y-54919619D01*
X87193333Y-54872000D01*
X87288571Y-54824380D01*
X84717142Y-45680380D02*
X84812380Y-45680380D01*
X84907619Y-45728000D01*
X84955238Y-45775619D01*
X85002857Y-45870857D01*
X85050476Y-46061333D01*
X85050476Y-46299428D01*
X85002857Y-46489904D01*
X84955238Y-46585142D01*
X84907619Y-46632761D01*
X84812380Y-46680380D01*
X84717142Y-46680380D01*
X84621904Y-46632761D01*
X84574285Y-46585142D01*
X84526666Y-46489904D01*
X84479047Y-46299428D01*
X84479047Y-46061333D01*
X84526666Y-45870857D01*
X84574285Y-45775619D01*
X84621904Y-45728000D01*
X84717142Y-45680380D01*
X85479047Y-46585142D02*
X85526666Y-46632761D01*
X85479047Y-46680380D01*
X85431428Y-46632761D01*
X85479047Y-46585142D01*
X85479047Y-46680380D01*
X86479047Y-46680380D02*
X85907619Y-46680380D01*
X86193333Y-46680380D02*
X86193333Y-45680380D01*
X86098095Y-45823238D01*
X86002857Y-45918476D01*
X85907619Y-45966095D01*
X87336190Y-46013714D02*
X87336190Y-46680380D01*
X86907619Y-46013714D02*
X86907619Y-46537523D01*
X86955238Y-46632761D01*
X87050476Y-46680380D01*
X87193333Y-46680380D01*
X87288571Y-46632761D01*
X87336190Y-46585142D01*
X88145714Y-46156571D02*
X87812380Y-46156571D01*
X87812380Y-46680380D02*
X87812380Y-45680380D01*
X88288571Y-45680380D01*
%TO.C,C7*%
X58253333Y-86209142D02*
X58205714Y-86256761D01*
X58062857Y-86304380D01*
X57967619Y-86304380D01*
X57824761Y-86256761D01*
X57729523Y-86161523D01*
X57681904Y-86066285D01*
X57634285Y-85875809D01*
X57634285Y-85732952D01*
X57681904Y-85542476D01*
X57729523Y-85447238D01*
X57824761Y-85352000D01*
X57967619Y-85304380D01*
X58062857Y-85304380D01*
X58205714Y-85352000D01*
X58253333Y-85399619D01*
X58586666Y-85304380D02*
X59253333Y-85304380D01*
X58824761Y-86304380D01*
X56777142Y-76160380D02*
X56872380Y-76160380D01*
X56967619Y-76208000D01*
X57015238Y-76255619D01*
X57062857Y-76350857D01*
X57110476Y-76541333D01*
X57110476Y-76779428D01*
X57062857Y-76969904D01*
X57015238Y-77065142D01*
X56967619Y-77112761D01*
X56872380Y-77160380D01*
X56777142Y-77160380D01*
X56681904Y-77112761D01*
X56634285Y-77065142D01*
X56586666Y-76969904D01*
X56539047Y-76779428D01*
X56539047Y-76541333D01*
X56586666Y-76350857D01*
X56634285Y-76255619D01*
X56681904Y-76208000D01*
X56777142Y-76160380D01*
X57539047Y-77065142D02*
X57586666Y-77112761D01*
X57539047Y-77160380D01*
X57491428Y-77112761D01*
X57539047Y-77065142D01*
X57539047Y-77160380D01*
X58539047Y-77160380D02*
X57967619Y-77160380D01*
X58253333Y-77160380D02*
X58253333Y-76160380D01*
X58158095Y-76303238D01*
X58062857Y-76398476D01*
X57967619Y-76446095D01*
X59396190Y-76493714D02*
X59396190Y-77160380D01*
X58967619Y-76493714D02*
X58967619Y-77017523D01*
X59015238Y-77112761D01*
X59110476Y-77160380D01*
X59253333Y-77160380D01*
X59348571Y-77112761D01*
X59396190Y-77065142D01*
X60205714Y-76636571D02*
X59872380Y-76636571D01*
X59872380Y-77160380D02*
X59872380Y-76160380D01*
X60348571Y-76160380D01*
%TO.C,X1*%
X42370476Y-42802380D02*
X43037142Y-43802380D01*
X43037142Y-42802380D02*
X42370476Y-43802380D01*
X43941904Y-43802380D02*
X43370476Y-43802380D01*
X43656190Y-43802380D02*
X43656190Y-42802380D01*
X43560952Y-42945238D01*
X43465714Y-43040476D01*
X43370476Y-43088095D01*
X33869523Y-58802380D02*
X33298095Y-58802380D01*
X33583809Y-58802380D02*
X33583809Y-57802380D01*
X33488571Y-57945238D01*
X33393333Y-58040476D01*
X33298095Y-58088095D01*
X34726666Y-57802380D02*
X34536190Y-57802380D01*
X34440952Y-57850000D01*
X34393333Y-57897619D01*
X34298095Y-58040476D01*
X34250476Y-58230952D01*
X34250476Y-58611904D01*
X34298095Y-58707142D01*
X34345714Y-58754761D01*
X34440952Y-58802380D01*
X34631428Y-58802380D01*
X34726666Y-58754761D01*
X34774285Y-58707142D01*
X34821904Y-58611904D01*
X34821904Y-58373809D01*
X34774285Y-58278571D01*
X34726666Y-58230952D01*
X34631428Y-58183333D01*
X34440952Y-58183333D01*
X34345714Y-58230952D01*
X34298095Y-58278571D01*
X34250476Y-58373809D01*
X35250476Y-58802380D02*
X35250476Y-57802380D01*
X35583809Y-58516666D01*
X35917142Y-57802380D01*
X35917142Y-58802380D01*
X36393333Y-58802380D02*
X36393333Y-57802380D01*
X36393333Y-58278571D02*
X36964761Y-58278571D01*
X36964761Y-58802380D02*
X36964761Y-57802380D01*
X37345714Y-58135714D02*
X37869523Y-58135714D01*
X37345714Y-58802380D01*
X37869523Y-58802380D01*
%TO.C,C2*%
X81129142Y-58586666D02*
X81176761Y-58634285D01*
X81224380Y-58777142D01*
X81224380Y-58872380D01*
X81176761Y-59015238D01*
X81081523Y-59110476D01*
X80986285Y-59158095D01*
X80795809Y-59205714D01*
X80652952Y-59205714D01*
X80462476Y-59158095D01*
X80367238Y-59110476D01*
X80272000Y-59015238D01*
X80224380Y-58872380D01*
X80224380Y-58777142D01*
X80272000Y-58634285D01*
X80319619Y-58586666D01*
X80319619Y-58205714D02*
X80272000Y-58158095D01*
X80224380Y-58062857D01*
X80224380Y-57824761D01*
X80272000Y-57729523D01*
X80319619Y-57681904D01*
X80414857Y-57634285D01*
X80510095Y-57634285D01*
X80652952Y-57681904D01*
X81224380Y-58253333D01*
X81224380Y-57634285D01*
X70921619Y-60062857D02*
X70874000Y-60015238D01*
X70826380Y-59920000D01*
X70826380Y-59681904D01*
X70874000Y-59586666D01*
X70921619Y-59539047D01*
X71016857Y-59491428D01*
X71112095Y-59491428D01*
X71254952Y-59539047D01*
X71826380Y-60110476D01*
X71826380Y-59491428D01*
X70921619Y-59110476D02*
X70874000Y-59062857D01*
X70826380Y-58967619D01*
X70826380Y-58729523D01*
X70874000Y-58634285D01*
X70921619Y-58586666D01*
X71016857Y-58539047D01*
X71112095Y-58539047D01*
X71254952Y-58586666D01*
X71826380Y-59158095D01*
X71826380Y-58539047D01*
X71159714Y-58110476D02*
X72159714Y-58110476D01*
X71207333Y-58110476D02*
X71159714Y-58015238D01*
X71159714Y-57824761D01*
X71207333Y-57729523D01*
X71254952Y-57681904D01*
X71350190Y-57634285D01*
X71635904Y-57634285D01*
X71731142Y-57681904D01*
X71778761Y-57729523D01*
X71826380Y-57824761D01*
X71826380Y-58015238D01*
X71778761Y-58110476D01*
X71302571Y-56872380D02*
X71302571Y-57205714D01*
X71826380Y-57205714D02*
X70826380Y-57205714D01*
X70826380Y-56729523D01*
%TO.C,J2*%
X83232666Y-88352380D02*
X83232666Y-89066666D01*
X83185047Y-89209523D01*
X83089809Y-89304761D01*
X82946952Y-89352380D01*
X82851714Y-89352380D01*
X83661238Y-88447619D02*
X83708857Y-88400000D01*
X83804095Y-88352380D01*
X84042190Y-88352380D01*
X84137428Y-88400000D01*
X84185047Y-88447619D01*
X84232666Y-88542857D01*
X84232666Y-88638095D01*
X84185047Y-88780952D01*
X83613619Y-89352380D01*
X84232666Y-89352380D01*
X93631333Y-89329761D02*
X93774190Y-89377380D01*
X94012285Y-89377380D01*
X94107523Y-89329761D01*
X94155142Y-89282142D01*
X94202761Y-89186904D01*
X94202761Y-89091666D01*
X94155142Y-88996428D01*
X94107523Y-88948809D01*
X94012285Y-88901190D01*
X93821809Y-88853571D01*
X93726571Y-88805952D01*
X93678952Y-88758333D01*
X93631333Y-88663095D01*
X93631333Y-88567857D01*
X93678952Y-88472619D01*
X93726571Y-88425000D01*
X93821809Y-88377380D01*
X94059904Y-88377380D01*
X94202761Y-88425000D01*
X94631333Y-89377380D02*
X94631333Y-88377380D01*
X95631333Y-88425000D02*
X95536095Y-88377380D01*
X95393238Y-88377380D01*
X95250380Y-88425000D01*
X95155142Y-88520238D01*
X95107523Y-88615476D01*
X95059904Y-88805952D01*
X95059904Y-88948809D01*
X95107523Y-89139285D01*
X95155142Y-89234523D01*
X95250380Y-89329761D01*
X95393238Y-89377380D01*
X95488476Y-89377380D01*
X95631333Y-89329761D01*
X95678952Y-89282142D01*
X95678952Y-88948809D01*
X95488476Y-88948809D01*
X96107523Y-89377380D02*
X96107523Y-88377380D01*
X96678952Y-89377380D01*
X96678952Y-88377380D01*
X97107523Y-89091666D02*
X97583714Y-89091666D01*
X97012285Y-89377380D02*
X97345619Y-88377380D01*
X97678952Y-89377380D01*
X98488476Y-89377380D02*
X98012285Y-89377380D01*
X98012285Y-88377380D01*
X99583714Y-89377380D02*
X99583714Y-88377380D01*
X99964666Y-88377380D01*
X100059904Y-88425000D01*
X100107523Y-88472619D01*
X100155142Y-88567857D01*
X100155142Y-88710714D01*
X100107523Y-88805952D01*
X100059904Y-88853571D01*
X99964666Y-88901190D01*
X99583714Y-88901190D01*
X100774190Y-88377380D02*
X100964666Y-88377380D01*
X101059904Y-88425000D01*
X101155142Y-88520238D01*
X101202761Y-88710714D01*
X101202761Y-89044047D01*
X101155142Y-89234523D01*
X101059904Y-89329761D01*
X100964666Y-89377380D01*
X100774190Y-89377380D01*
X100678952Y-89329761D01*
X100583714Y-89234523D01*
X100536095Y-89044047D01*
X100536095Y-88710714D01*
X100583714Y-88520238D01*
X100678952Y-88425000D01*
X100774190Y-88377380D01*
X102202761Y-89377380D02*
X101869428Y-88901190D01*
X101631333Y-89377380D02*
X101631333Y-88377380D01*
X102012285Y-88377380D01*
X102107523Y-88425000D01*
X102155142Y-88472619D01*
X102202761Y-88567857D01*
X102202761Y-88710714D01*
X102155142Y-88805952D01*
X102107523Y-88853571D01*
X102012285Y-88901190D01*
X101631333Y-88901190D01*
X102488476Y-88377380D02*
X103059904Y-88377380D01*
X102774190Y-89377380D02*
X102774190Y-88377380D01*
%TO.C,H3*%
X29718095Y-94442380D02*
X29718095Y-93442380D01*
X29718095Y-93918571D02*
X30289523Y-93918571D01*
X30289523Y-94442380D02*
X30289523Y-93442380D01*
X30670476Y-93442380D02*
X31289523Y-93442380D01*
X30956190Y-93823333D01*
X31099047Y-93823333D01*
X31194285Y-93870952D01*
X31241904Y-93918571D01*
X31289523Y-94013809D01*
X31289523Y-94251904D01*
X31241904Y-94347142D01*
X31194285Y-94394761D01*
X31099047Y-94442380D01*
X30813333Y-94442380D01*
X30718095Y-94394761D01*
X30670476Y-94347142D01*
%TO.C,H2*%
X104648095Y-42616380D02*
X104648095Y-41616380D01*
X104648095Y-42092571D02*
X105219523Y-42092571D01*
X105219523Y-42616380D02*
X105219523Y-41616380D01*
X105648095Y-41711619D02*
X105695714Y-41664000D01*
X105790952Y-41616380D01*
X106029047Y-41616380D01*
X106124285Y-41664000D01*
X106171904Y-41711619D01*
X106219523Y-41806857D01*
X106219523Y-41902095D01*
X106171904Y-42044952D01*
X105600476Y-42616380D01*
X106219523Y-42616380D01*
%TO.C,C1*%
X69699142Y-58586666D02*
X69746761Y-58634285D01*
X69794380Y-58777142D01*
X69794380Y-58872380D01*
X69746761Y-59015238D01*
X69651523Y-59110476D01*
X69556285Y-59158095D01*
X69365809Y-59205714D01*
X69222952Y-59205714D01*
X69032476Y-59158095D01*
X68937238Y-59110476D01*
X68842000Y-59015238D01*
X68794380Y-58872380D01*
X68794380Y-58777142D01*
X68842000Y-58634285D01*
X68889619Y-58586666D01*
X69794380Y-57634285D02*
X69794380Y-58205714D01*
X69794380Y-57920000D02*
X68794380Y-57920000D01*
X68937238Y-58015238D01*
X69032476Y-58110476D01*
X69080095Y-58205714D01*
X59745619Y-60022857D02*
X59698000Y-59975238D01*
X59650380Y-59880000D01*
X59650380Y-59641904D01*
X59698000Y-59546666D01*
X59745619Y-59499047D01*
X59840857Y-59451428D01*
X59936095Y-59451428D01*
X60078952Y-59499047D01*
X60650380Y-60070476D01*
X60650380Y-59451428D01*
X59745619Y-59070476D02*
X59698000Y-59022857D01*
X59650380Y-58927619D01*
X59650380Y-58689523D01*
X59698000Y-58594285D01*
X59745619Y-58546666D01*
X59840857Y-58499047D01*
X59936095Y-58499047D01*
X60078952Y-58546666D01*
X60650380Y-59118095D01*
X60650380Y-58499047D01*
X59983714Y-58070476D02*
X60983714Y-58070476D01*
X60031333Y-58070476D02*
X59983714Y-57975238D01*
X59983714Y-57784761D01*
X60031333Y-57689523D01*
X60078952Y-57641904D01*
X60174190Y-57594285D01*
X60459904Y-57594285D01*
X60555142Y-57641904D01*
X60602761Y-57689523D01*
X60650380Y-57784761D01*
X60650380Y-57975238D01*
X60602761Y-58070476D01*
X60126571Y-56832380D02*
X60126571Y-57165714D01*
X60650380Y-57165714D02*
X59650380Y-57165714D01*
X59650380Y-56689523D01*
%TO.C,U4*%
X107402380Y-62991904D02*
X108211904Y-62991904D01*
X108307142Y-62944285D01*
X108354761Y-62896666D01*
X108402380Y-62801428D01*
X108402380Y-62610952D01*
X108354761Y-62515714D01*
X108307142Y-62468095D01*
X108211904Y-62420476D01*
X107402380Y-62420476D01*
X107735714Y-61515714D02*
X108402380Y-61515714D01*
X107354761Y-61753809D02*
X108069047Y-61991904D01*
X108069047Y-61372857D01*
X107402380Y-71111714D02*
X107402380Y-70445047D01*
X108402380Y-70873619D01*
X107735714Y-69635523D02*
X108402380Y-69635523D01*
X107354761Y-69873619D02*
X108069047Y-70111714D01*
X108069047Y-69492666D01*
X108402380Y-69111714D02*
X107402380Y-69111714D01*
X107878571Y-69111714D02*
X107878571Y-68540285D01*
X108402380Y-68540285D02*
X107402380Y-68540285D01*
X108307142Y-67492666D02*
X108354761Y-67540285D01*
X108402380Y-67683142D01*
X108402380Y-67778380D01*
X108354761Y-67921238D01*
X108259523Y-68016476D01*
X108164285Y-68064095D01*
X107973809Y-68111714D01*
X107830952Y-68111714D01*
X107640476Y-68064095D01*
X107545238Y-68016476D01*
X107450000Y-67921238D01*
X107402380Y-67778380D01*
X107402380Y-67683142D01*
X107450000Y-67540285D01*
X107497619Y-67492666D01*
X107402380Y-66873619D02*
X107402380Y-66778380D01*
X107450000Y-66683142D01*
X107497619Y-66635523D01*
X107592857Y-66587904D01*
X107783333Y-66540285D01*
X108021428Y-66540285D01*
X108211904Y-66587904D01*
X108307142Y-66635523D01*
X108354761Y-66683142D01*
X108402380Y-66778380D01*
X108402380Y-66873619D01*
X108354761Y-66968857D01*
X108307142Y-67016476D01*
X108211904Y-67064095D01*
X108021428Y-67111714D01*
X107783333Y-67111714D01*
X107592857Y-67064095D01*
X107497619Y-67016476D01*
X107450000Y-66968857D01*
X107402380Y-66873619D01*
X107402380Y-65921238D02*
X107402380Y-65826000D01*
X107450000Y-65730761D01*
X107497619Y-65683142D01*
X107592857Y-65635523D01*
X107783333Y-65587904D01*
X108021428Y-65587904D01*
X108211904Y-65635523D01*
X108307142Y-65683142D01*
X108354761Y-65730761D01*
X108402380Y-65826000D01*
X108402380Y-65921238D01*
X108354761Y-66016476D01*
X108307142Y-66064095D01*
X108211904Y-66111714D01*
X108021428Y-66159333D01*
X107783333Y-66159333D01*
X107592857Y-66111714D01*
X107497619Y-66064095D01*
X107450000Y-66016476D01*
X107402380Y-65921238D01*
%TO.C,C6*%
X30313333Y-86209142D02*
X30265714Y-86256761D01*
X30122857Y-86304380D01*
X30027619Y-86304380D01*
X29884761Y-86256761D01*
X29789523Y-86161523D01*
X29741904Y-86066285D01*
X29694285Y-85875809D01*
X29694285Y-85732952D01*
X29741904Y-85542476D01*
X29789523Y-85447238D01*
X29884761Y-85352000D01*
X30027619Y-85304380D01*
X30122857Y-85304380D01*
X30265714Y-85352000D01*
X30313333Y-85399619D01*
X31170476Y-85304380D02*
X30980000Y-85304380D01*
X30884761Y-85352000D01*
X30837142Y-85399619D01*
X30741904Y-85542476D01*
X30694285Y-85732952D01*
X30694285Y-86113904D01*
X30741904Y-86209142D01*
X30789523Y-86256761D01*
X30884761Y-86304380D01*
X31075238Y-86304380D01*
X31170476Y-86256761D01*
X31218095Y-86209142D01*
X31265714Y-86113904D01*
X31265714Y-85875809D01*
X31218095Y-85780571D01*
X31170476Y-85732952D01*
X31075238Y-85685333D01*
X30884761Y-85685333D01*
X30789523Y-85732952D01*
X30741904Y-85780571D01*
X30694285Y-85875809D01*
X28837142Y-76414380D02*
X28932380Y-76414380D01*
X29027619Y-76462000D01*
X29075238Y-76509619D01*
X29122857Y-76604857D01*
X29170476Y-76795333D01*
X29170476Y-77033428D01*
X29122857Y-77223904D01*
X29075238Y-77319142D01*
X29027619Y-77366761D01*
X28932380Y-77414380D01*
X28837142Y-77414380D01*
X28741904Y-77366761D01*
X28694285Y-77319142D01*
X28646666Y-77223904D01*
X28599047Y-77033428D01*
X28599047Y-76795333D01*
X28646666Y-76604857D01*
X28694285Y-76509619D01*
X28741904Y-76462000D01*
X28837142Y-76414380D01*
X29599047Y-77319142D02*
X29646666Y-77366761D01*
X29599047Y-77414380D01*
X29551428Y-77366761D01*
X29599047Y-77319142D01*
X29599047Y-77414380D01*
X30599047Y-77414380D02*
X30027619Y-77414380D01*
X30313333Y-77414380D02*
X30313333Y-76414380D01*
X30218095Y-76557238D01*
X30122857Y-76652476D01*
X30027619Y-76700095D01*
X31456190Y-76747714D02*
X31456190Y-77414380D01*
X31027619Y-76747714D02*
X31027619Y-77271523D01*
X31075238Y-77366761D01*
X31170476Y-77414380D01*
X31313333Y-77414380D01*
X31408571Y-77366761D01*
X31456190Y-77319142D01*
X32265714Y-76890571D02*
X31932380Y-76890571D01*
X31932380Y-77414380D02*
X31932380Y-76414380D01*
X32408571Y-76414380D01*
%TO.C,J1*%
X60372666Y-88352380D02*
X60372666Y-89066666D01*
X60325047Y-89209523D01*
X60229809Y-89304761D01*
X60086952Y-89352380D01*
X59991714Y-89352380D01*
X61372666Y-89352380D02*
X60801238Y-89352380D01*
X61086952Y-89352380D02*
X61086952Y-88352380D01*
X60991714Y-88495238D01*
X60896476Y-88590476D01*
X60801238Y-88638095D01*
X72414285Y-89148380D02*
X72414285Y-88148380D01*
X72652380Y-88148380D01*
X72795238Y-88196000D01*
X72890476Y-88291238D01*
X72938095Y-88386476D01*
X72985714Y-88576952D01*
X72985714Y-88719809D01*
X72938095Y-88910285D01*
X72890476Y-89005523D01*
X72795238Y-89100761D01*
X72652380Y-89148380D01*
X72414285Y-89148380D01*
X73366666Y-88862666D02*
X73842857Y-88862666D01*
X73271428Y-89148380D02*
X73604761Y-88148380D01*
X73938095Y-89148380D01*
X74128571Y-88148380D02*
X74700000Y-88148380D01*
X74414285Y-89148380D02*
X74414285Y-88148380D01*
X74985714Y-88862666D02*
X75461904Y-88862666D01*
X74890476Y-89148380D02*
X75223809Y-88148380D01*
X75557142Y-89148380D01*
X76652380Y-89148380D02*
X76652380Y-88148380D01*
X77033333Y-88148380D01*
X77128571Y-88196000D01*
X77176190Y-88243619D01*
X77223809Y-88338857D01*
X77223809Y-88481714D01*
X77176190Y-88576952D01*
X77128571Y-88624571D01*
X77033333Y-88672190D01*
X76652380Y-88672190D01*
X77842857Y-88148380D02*
X78033333Y-88148380D01*
X78128571Y-88196000D01*
X78223809Y-88291238D01*
X78271428Y-88481714D01*
X78271428Y-88815047D01*
X78223809Y-89005523D01*
X78128571Y-89100761D01*
X78033333Y-89148380D01*
X77842857Y-89148380D01*
X77747619Y-89100761D01*
X77652380Y-89005523D01*
X77604761Y-88815047D01*
X77604761Y-88481714D01*
X77652380Y-88291238D01*
X77747619Y-88196000D01*
X77842857Y-88148380D01*
X79271428Y-89148380D02*
X78938095Y-88672190D01*
X78700000Y-89148380D02*
X78700000Y-88148380D01*
X79080952Y-88148380D01*
X79176190Y-88196000D01*
X79223809Y-88243619D01*
X79271428Y-88338857D01*
X79271428Y-88481714D01*
X79223809Y-88576952D01*
X79176190Y-88624571D01*
X79080952Y-88672190D01*
X78700000Y-88672190D01*
X79557142Y-88148380D02*
X80128571Y-88148380D01*
X79842857Y-89148380D02*
X79842857Y-88148380D01*
%TO.C,D1*%
X49040904Y-90980380D02*
X49040904Y-89980380D01*
X49279000Y-89980380D01*
X49421857Y-90028000D01*
X49517095Y-90123238D01*
X49564714Y-90218476D01*
X49612333Y-90408952D01*
X49612333Y-90551809D01*
X49564714Y-90742285D01*
X49517095Y-90837523D01*
X49421857Y-90932761D01*
X49279000Y-90980380D01*
X49040904Y-90980380D01*
X50564714Y-90980380D02*
X49993285Y-90980380D01*
X50279000Y-90980380D02*
X50279000Y-89980380D01*
X50183761Y-90123238D01*
X50088523Y-90218476D01*
X49993285Y-90266095D01*
X48659952Y-98614666D02*
X49136142Y-98614666D01*
X48564714Y-98900380D02*
X48898047Y-97900380D01*
X49231380Y-98900380D01*
X50136142Y-98805142D02*
X50088523Y-98852761D01*
X49945666Y-98900380D01*
X49850428Y-98900380D01*
X49707571Y-98852761D01*
X49612333Y-98757523D01*
X49564714Y-98662285D01*
X49517095Y-98471809D01*
X49517095Y-98328952D01*
X49564714Y-98138476D01*
X49612333Y-98043238D01*
X49707571Y-97948000D01*
X49850428Y-97900380D01*
X49945666Y-97900380D01*
X50088523Y-97948000D01*
X50136142Y-97995619D01*
X50421857Y-97900380D02*
X50993285Y-97900380D01*
X50707571Y-98900380D02*
X50707571Y-97900380D01*
%TO.C,C11*%
X85717142Y-70969142D02*
X85669523Y-71016761D01*
X85526666Y-71064380D01*
X85431428Y-71064380D01*
X85288571Y-71016761D01*
X85193333Y-70921523D01*
X85145714Y-70826285D01*
X85098095Y-70635809D01*
X85098095Y-70492952D01*
X85145714Y-70302476D01*
X85193333Y-70207238D01*
X85288571Y-70112000D01*
X85431428Y-70064380D01*
X85526666Y-70064380D01*
X85669523Y-70112000D01*
X85717142Y-70159619D01*
X86669523Y-71064380D02*
X86098095Y-71064380D01*
X86383809Y-71064380D02*
X86383809Y-70064380D01*
X86288571Y-70207238D01*
X86193333Y-70302476D01*
X86098095Y-70350095D01*
X87621904Y-71064380D02*
X87050476Y-71064380D01*
X87336190Y-71064380D02*
X87336190Y-70064380D01*
X87240952Y-70207238D01*
X87145714Y-70302476D01*
X87050476Y-70350095D01*
X84717142Y-60920380D02*
X84812380Y-60920380D01*
X84907619Y-60968000D01*
X84955238Y-61015619D01*
X85002857Y-61110857D01*
X85050476Y-61301333D01*
X85050476Y-61539428D01*
X85002857Y-61729904D01*
X84955238Y-61825142D01*
X84907619Y-61872761D01*
X84812380Y-61920380D01*
X84717142Y-61920380D01*
X84621904Y-61872761D01*
X84574285Y-61825142D01*
X84526666Y-61729904D01*
X84479047Y-61539428D01*
X84479047Y-61301333D01*
X84526666Y-61110857D01*
X84574285Y-61015619D01*
X84621904Y-60968000D01*
X84717142Y-60920380D01*
X85479047Y-61825142D02*
X85526666Y-61872761D01*
X85479047Y-61920380D01*
X85431428Y-61872761D01*
X85479047Y-61825142D01*
X85479047Y-61920380D01*
X86479047Y-61920380D02*
X85907619Y-61920380D01*
X86193333Y-61920380D02*
X86193333Y-60920380D01*
X86098095Y-61063238D01*
X86002857Y-61158476D01*
X85907619Y-61206095D01*
X87336190Y-61253714D02*
X87336190Y-61920380D01*
X86907619Y-61253714D02*
X86907619Y-61777523D01*
X86955238Y-61872761D01*
X87050476Y-61920380D01*
X87193333Y-61920380D01*
X87288571Y-61872761D01*
X87336190Y-61825142D01*
X88145714Y-61396571D02*
X87812380Y-61396571D01*
X87812380Y-61920380D02*
X87812380Y-60920380D01*
X88288571Y-60920380D01*
%TO.C,C5*%
X58253333Y-70969142D02*
X58205714Y-71016761D01*
X58062857Y-71064380D01*
X57967619Y-71064380D01*
X57824761Y-71016761D01*
X57729523Y-70921523D01*
X57681904Y-70826285D01*
X57634285Y-70635809D01*
X57634285Y-70492952D01*
X57681904Y-70302476D01*
X57729523Y-70207238D01*
X57824761Y-70112000D01*
X57967619Y-70064380D01*
X58062857Y-70064380D01*
X58205714Y-70112000D01*
X58253333Y-70159619D01*
X59158095Y-70064380D02*
X58681904Y-70064380D01*
X58634285Y-70540571D01*
X58681904Y-70492952D01*
X58777142Y-70445333D01*
X59015238Y-70445333D01*
X59110476Y-70492952D01*
X59158095Y-70540571D01*
X59205714Y-70635809D01*
X59205714Y-70873904D01*
X59158095Y-70969142D01*
X59110476Y-71016761D01*
X59015238Y-71064380D01*
X58777142Y-71064380D01*
X58681904Y-71016761D01*
X58634285Y-70969142D01*
X56777142Y-60920380D02*
X56872380Y-60920380D01*
X56967619Y-60968000D01*
X57015238Y-61015619D01*
X57062857Y-61110857D01*
X57110476Y-61301333D01*
X57110476Y-61539428D01*
X57062857Y-61729904D01*
X57015238Y-61825142D01*
X56967619Y-61872761D01*
X56872380Y-61920380D01*
X56777142Y-61920380D01*
X56681904Y-61872761D01*
X56634285Y-61825142D01*
X56586666Y-61729904D01*
X56539047Y-61539428D01*
X56539047Y-61301333D01*
X56586666Y-61110857D01*
X56634285Y-61015619D01*
X56681904Y-60968000D01*
X56777142Y-60920380D01*
X57539047Y-61825142D02*
X57586666Y-61872761D01*
X57539047Y-61920380D01*
X57491428Y-61872761D01*
X57539047Y-61825142D01*
X57539047Y-61920380D01*
X58539047Y-61920380D02*
X57967619Y-61920380D01*
X58253333Y-61920380D02*
X58253333Y-60920380D01*
X58158095Y-61063238D01*
X58062857Y-61158476D01*
X57967619Y-61206095D01*
X59396190Y-61253714D02*
X59396190Y-61920380D01*
X58967619Y-61253714D02*
X58967619Y-61777523D01*
X59015238Y-61872761D01*
X59110476Y-61920380D01*
X59253333Y-61920380D01*
X59348571Y-61872761D01*
X59396190Y-61825142D01*
X60205714Y-61396571D02*
X59872380Y-61396571D01*
X59872380Y-61920380D02*
X59872380Y-60920380D01*
X60348571Y-60920380D01*
%TO.C,U5*%
X82002380Y-47497904D02*
X82811904Y-47497904D01*
X82907142Y-47450285D01*
X82954761Y-47402666D01*
X83002380Y-47307428D01*
X83002380Y-47116952D01*
X82954761Y-47021714D01*
X82907142Y-46974095D01*
X82811904Y-46926476D01*
X82002380Y-46926476D01*
X82002380Y-45974095D02*
X82002380Y-46450285D01*
X82478571Y-46497904D01*
X82430952Y-46450285D01*
X82383333Y-46355047D01*
X82383333Y-46116952D01*
X82430952Y-46021714D01*
X82478571Y-45974095D01*
X82573809Y-45926476D01*
X82811904Y-45926476D01*
X82907142Y-45974095D01*
X82954761Y-46021714D01*
X83002380Y-46116952D01*
X83002380Y-46355047D01*
X82954761Y-46450285D01*
X82907142Y-46497904D01*
X82002380Y-55839904D02*
X82002380Y-55173238D01*
X83002380Y-55601809D01*
X82335714Y-54363714D02*
X83002380Y-54363714D01*
X81954761Y-54601809D02*
X82669047Y-54839904D01*
X82669047Y-54220857D01*
X83002380Y-53839904D02*
X82002380Y-53839904D01*
X82478571Y-53839904D02*
X82478571Y-53268476D01*
X83002380Y-53268476D02*
X82002380Y-53268476D01*
X82907142Y-52220857D02*
X82954761Y-52268476D01*
X83002380Y-52411333D01*
X83002380Y-52506571D01*
X82954761Y-52649428D01*
X82859523Y-52744666D01*
X82764285Y-52792285D01*
X82573809Y-52839904D01*
X82430952Y-52839904D01*
X82240476Y-52792285D01*
X82145238Y-52744666D01*
X82050000Y-52649428D01*
X82002380Y-52506571D01*
X82002380Y-52411333D01*
X82050000Y-52268476D01*
X82097619Y-52220857D01*
X83002380Y-51268476D02*
X83002380Y-51839904D01*
X83002380Y-51554190D02*
X82002380Y-51554190D01*
X82145238Y-51649428D01*
X82240476Y-51744666D01*
X82288095Y-51839904D01*
X82002380Y-50411333D02*
X82002380Y-50601809D01*
X82050000Y-50697047D01*
X82097619Y-50744666D01*
X82240476Y-50839904D01*
X82430952Y-50887523D01*
X82811904Y-50887523D01*
X82907142Y-50839904D01*
X82954761Y-50792285D01*
X83002380Y-50697047D01*
X83002380Y-50506571D01*
X82954761Y-50411333D01*
X82907142Y-50363714D01*
X82811904Y-50316095D01*
X82573809Y-50316095D01*
X82478571Y-50363714D01*
X82430952Y-50411333D01*
X82383333Y-50506571D01*
X82383333Y-50697047D01*
X82430952Y-50792285D01*
X82478571Y-50839904D01*
X82573809Y-50887523D01*
X82002380Y-49982761D02*
X82002380Y-49363714D01*
X82383333Y-49697047D01*
X82383333Y-49554190D01*
X82430952Y-49458952D01*
X82478571Y-49411333D01*
X82573809Y-49363714D01*
X82811904Y-49363714D01*
X82907142Y-49411333D01*
X82954761Y-49458952D01*
X83002380Y-49554190D01*
X83002380Y-49839904D01*
X82954761Y-49935142D01*
X82907142Y-49982761D01*
%TO.C,C9*%
X30313333Y-70969142D02*
X30265714Y-71016761D01*
X30122857Y-71064380D01*
X30027619Y-71064380D01*
X29884761Y-71016761D01*
X29789523Y-70921523D01*
X29741904Y-70826285D01*
X29694285Y-70635809D01*
X29694285Y-70492952D01*
X29741904Y-70302476D01*
X29789523Y-70207238D01*
X29884761Y-70112000D01*
X30027619Y-70064380D01*
X30122857Y-70064380D01*
X30265714Y-70112000D01*
X30313333Y-70159619D01*
X30789523Y-71064380D02*
X30980000Y-71064380D01*
X31075238Y-71016761D01*
X31122857Y-70969142D01*
X31218095Y-70826285D01*
X31265714Y-70635809D01*
X31265714Y-70254857D01*
X31218095Y-70159619D01*
X31170476Y-70112000D01*
X31075238Y-70064380D01*
X30884761Y-70064380D01*
X30789523Y-70112000D01*
X30741904Y-70159619D01*
X30694285Y-70254857D01*
X30694285Y-70492952D01*
X30741904Y-70588190D01*
X30789523Y-70635809D01*
X30884761Y-70683428D01*
X31075238Y-70683428D01*
X31170476Y-70635809D01*
X31218095Y-70588190D01*
X31265714Y-70492952D01*
X28837142Y-61174380D02*
X28932380Y-61174380D01*
X29027619Y-61222000D01*
X29075238Y-61269619D01*
X29122857Y-61364857D01*
X29170476Y-61555333D01*
X29170476Y-61793428D01*
X29122857Y-61983904D01*
X29075238Y-62079142D01*
X29027619Y-62126761D01*
X28932380Y-62174380D01*
X28837142Y-62174380D01*
X28741904Y-62126761D01*
X28694285Y-62079142D01*
X28646666Y-61983904D01*
X28599047Y-61793428D01*
X28599047Y-61555333D01*
X28646666Y-61364857D01*
X28694285Y-61269619D01*
X28741904Y-61222000D01*
X28837142Y-61174380D01*
X29599047Y-62079142D02*
X29646666Y-62126761D01*
X29599047Y-62174380D01*
X29551428Y-62126761D01*
X29599047Y-62079142D01*
X29599047Y-62174380D01*
X30599047Y-62174380D02*
X30027619Y-62174380D01*
X30313333Y-62174380D02*
X30313333Y-61174380D01*
X30218095Y-61317238D01*
X30122857Y-61412476D01*
X30027619Y-61460095D01*
X31456190Y-61507714D02*
X31456190Y-62174380D01*
X31027619Y-61507714D02*
X31027619Y-62031523D01*
X31075238Y-62126761D01*
X31170476Y-62174380D01*
X31313333Y-62174380D01*
X31408571Y-62126761D01*
X31456190Y-62079142D01*
X32265714Y-61650571D02*
X31932380Y-61650571D01*
X31932380Y-62174380D02*
X31932380Y-61174380D01*
X32408571Y-61174380D01*
%TO.C,R1*%
X63333333Y-38806380D02*
X63000000Y-38330190D01*
X62761904Y-38806380D02*
X62761904Y-37806380D01*
X63142857Y-37806380D01*
X63238095Y-37854000D01*
X63285714Y-37901619D01*
X63333333Y-37996857D01*
X63333333Y-38139714D01*
X63285714Y-38234952D01*
X63238095Y-38282571D01*
X63142857Y-38330190D01*
X62761904Y-38330190D01*
X64285714Y-38806380D02*
X63714285Y-38806380D01*
X64000000Y-38806380D02*
X64000000Y-37806380D01*
X63904761Y-37949238D01*
X63809523Y-38044476D01*
X63714285Y-38092095D01*
X62904761Y-41092380D02*
X62333333Y-41092380D01*
X62619047Y-41092380D02*
X62619047Y-40092380D01*
X62523809Y-40235238D01*
X62428571Y-40330476D01*
X62333333Y-40378095D01*
X63523809Y-40092380D02*
X63619047Y-40092380D01*
X63714285Y-40140000D01*
X63761904Y-40187619D01*
X63809523Y-40282857D01*
X63857142Y-40473333D01*
X63857142Y-40711428D01*
X63809523Y-40901904D01*
X63761904Y-40997142D01*
X63714285Y-41044761D01*
X63619047Y-41092380D01*
X63523809Y-41092380D01*
X63428571Y-41044761D01*
X63380952Y-40997142D01*
X63333333Y-40901904D01*
X63285714Y-40711428D01*
X63285714Y-40473333D01*
X63333333Y-40282857D01*
X63380952Y-40187619D01*
X63428571Y-40140000D01*
X63523809Y-40092380D01*
X64285714Y-41092380D02*
X64285714Y-40092380D01*
X64380952Y-40711428D02*
X64666666Y-41092380D01*
X64666666Y-40425714D02*
X64285714Y-40806666D01*
%TO.C,U6*%
X107402380Y-78231904D02*
X108211904Y-78231904D01*
X108307142Y-78184285D01*
X108354761Y-78136666D01*
X108402380Y-78041428D01*
X108402380Y-77850952D01*
X108354761Y-77755714D01*
X108307142Y-77708095D01*
X108211904Y-77660476D01*
X107402380Y-77660476D01*
X107402380Y-76755714D02*
X107402380Y-76946190D01*
X107450000Y-77041428D01*
X107497619Y-77089047D01*
X107640476Y-77184285D01*
X107830952Y-77231904D01*
X108211904Y-77231904D01*
X108307142Y-77184285D01*
X108354761Y-77136666D01*
X108402380Y-77041428D01*
X108402380Y-76850952D01*
X108354761Y-76755714D01*
X108307142Y-76708095D01*
X108211904Y-76660476D01*
X107973809Y-76660476D01*
X107878571Y-76708095D01*
X107830952Y-76755714D01*
X107783333Y-76850952D01*
X107783333Y-77041428D01*
X107830952Y-77136666D01*
X107878571Y-77184285D01*
X107973809Y-77231904D01*
X107402380Y-86351714D02*
X107402380Y-85685047D01*
X108402380Y-86113619D01*
X107735714Y-84875523D02*
X108402380Y-84875523D01*
X107354761Y-85113619D02*
X108069047Y-85351714D01*
X108069047Y-84732666D01*
X108402380Y-84351714D02*
X107402380Y-84351714D01*
X107878571Y-84351714D02*
X107878571Y-83780285D01*
X108402380Y-83780285D02*
X107402380Y-83780285D01*
X108307142Y-82732666D02*
X108354761Y-82780285D01*
X108402380Y-82923142D01*
X108402380Y-83018380D01*
X108354761Y-83161238D01*
X108259523Y-83256476D01*
X108164285Y-83304095D01*
X107973809Y-83351714D01*
X107830952Y-83351714D01*
X107640476Y-83304095D01*
X107545238Y-83256476D01*
X107450000Y-83161238D01*
X107402380Y-83018380D01*
X107402380Y-82923142D01*
X107450000Y-82780285D01*
X107497619Y-82732666D01*
X107402380Y-82113619D02*
X107402380Y-82018380D01*
X107450000Y-81923142D01*
X107497619Y-81875523D01*
X107592857Y-81827904D01*
X107783333Y-81780285D01*
X108021428Y-81780285D01*
X108211904Y-81827904D01*
X108307142Y-81875523D01*
X108354761Y-81923142D01*
X108402380Y-82018380D01*
X108402380Y-82113619D01*
X108354761Y-82208857D01*
X108307142Y-82256476D01*
X108211904Y-82304095D01*
X108021428Y-82351714D01*
X107783333Y-82351714D01*
X107592857Y-82304095D01*
X107497619Y-82256476D01*
X107450000Y-82208857D01*
X107402380Y-82113619D01*
X107402380Y-81161238D02*
X107402380Y-81066000D01*
X107450000Y-80970761D01*
X107497619Y-80923142D01*
X107592857Y-80875523D01*
X107783333Y-80827904D01*
X108021428Y-80827904D01*
X108211904Y-80875523D01*
X108307142Y-80923142D01*
X108354761Y-80970761D01*
X108402380Y-81066000D01*
X108402380Y-81161238D01*
X108354761Y-81256476D01*
X108307142Y-81304095D01*
X108211904Y-81351714D01*
X108021428Y-81399333D01*
X107783333Y-81399333D01*
X107592857Y-81351714D01*
X107497619Y-81304095D01*
X107450000Y-81256476D01*
X107402380Y-81161238D01*
%TO.C,R3*%
X43013333Y-89098380D02*
X42680000Y-88622190D01*
X42441904Y-89098380D02*
X42441904Y-88098380D01*
X42822857Y-88098380D01*
X42918095Y-88146000D01*
X42965714Y-88193619D01*
X43013333Y-88288857D01*
X43013333Y-88431714D01*
X42965714Y-88526952D01*
X42918095Y-88574571D01*
X42822857Y-88622190D01*
X42441904Y-88622190D01*
X43346666Y-88098380D02*
X43965714Y-88098380D01*
X43632380Y-88479333D01*
X43775238Y-88479333D01*
X43870476Y-88526952D01*
X43918095Y-88574571D01*
X43965714Y-88669809D01*
X43965714Y-88907904D01*
X43918095Y-89003142D01*
X43870476Y-89050761D01*
X43775238Y-89098380D01*
X43489523Y-89098380D01*
X43394285Y-89050761D01*
X43346666Y-89003142D01*
%TO.C,R5*%
X82494380Y-73786666D02*
X82018190Y-74120000D01*
X82494380Y-74358095D02*
X81494380Y-74358095D01*
X81494380Y-73977142D01*
X81542000Y-73881904D01*
X81589619Y-73834285D01*
X81684857Y-73786666D01*
X81827714Y-73786666D01*
X81922952Y-73834285D01*
X81970571Y-73881904D01*
X82018190Y-73977142D01*
X82018190Y-74358095D01*
X81494380Y-72881904D02*
X81494380Y-73358095D01*
X81970571Y-73405714D01*
X81922952Y-73358095D01*
X81875333Y-73262857D01*
X81875333Y-73024761D01*
X81922952Y-72929523D01*
X81970571Y-72881904D01*
X82065809Y-72834285D01*
X82303904Y-72834285D01*
X82399142Y-72881904D01*
X82446761Y-72929523D01*
X82494380Y-73024761D01*
X82494380Y-73262857D01*
X82446761Y-73358095D01*
X82399142Y-73405714D01*
X76040952Y-74072380D02*
X75469523Y-74072380D01*
X75755238Y-74072380D02*
X75755238Y-73072380D01*
X75660000Y-73215238D01*
X75564761Y-73310476D01*
X75469523Y-73358095D01*
X76469523Y-74072380D02*
X76469523Y-73072380D01*
X76564761Y-73691428D02*
X76850476Y-74072380D01*
X76850476Y-73405714D02*
X76469523Y-73786666D01*
%TO.C,REF\u002A\u002A*%
G36*
X89155833Y-99494663D02*
G01*
X89158048Y-99532850D01*
X89159784Y-99590886D01*
X89160899Y-99664180D01*
X89161257Y-99741055D01*
X89161257Y-100001196D01*
X89115326Y-100047127D01*
X89083675Y-100075429D01*
X89055890Y-100086893D01*
X89017915Y-100086168D01*
X89002840Y-100084321D01*
X88955726Y-100078948D01*
X88916756Y-100075869D01*
X88907257Y-100075585D01*
X88875233Y-100077445D01*
X88829432Y-100082114D01*
X88811674Y-100084321D01*
X88768057Y-100087735D01*
X88738745Y-100080320D01*
X88709680Y-100057427D01*
X88699188Y-100047127D01*
X88653257Y-100001196D01*
X88653257Y-99514602D01*
X88690226Y-99497758D01*
X88722059Y-99485282D01*
X88740683Y-99480914D01*
X88745458Y-99494718D01*
X88749921Y-99533286D01*
X88753775Y-99592356D01*
X88756722Y-99667663D01*
X88758143Y-99731286D01*
X88762114Y-99981657D01*
X88796759Y-99986556D01*
X88828268Y-99983131D01*
X88843708Y-99972041D01*
X88848023Y-99951308D01*
X88851708Y-99907145D01*
X88854469Y-99845146D01*
X88856012Y-99770909D01*
X88856235Y-99732706D01*
X88856457Y-99512783D01*
X88902166Y-99496849D01*
X88934518Y-99486015D01*
X88952115Y-99480962D01*
X88952623Y-99480914D01*
X88954388Y-99494648D01*
X88956329Y-99532730D01*
X88958282Y-99590482D01*
X88960084Y-99663227D01*
X88961343Y-99731286D01*
X88965314Y-99981657D01*
X89052400Y-99981657D01*
X89056396Y-99753240D01*
X89060392Y-99524822D01*
X89102847Y-99502868D01*
X89134192Y-99487793D01*
X89152744Y-99480951D01*
X89153279Y-99480914D01*
X89155833Y-99494663D01*
G37*
D11*
X89155833Y-99494663D02*
X89158048Y-99532850D01*
X89159784Y-99590886D01*
X89160899Y-99664180D01*
X89161257Y-99741055D01*
X89161257Y-100001196D01*
X89115326Y-100047127D01*
X89083675Y-100075429D01*
X89055890Y-100086893D01*
X89017915Y-100086168D01*
X89002840Y-100084321D01*
X88955726Y-100078948D01*
X88916756Y-100075869D01*
X88907257Y-100075585D01*
X88875233Y-100077445D01*
X88829432Y-100082114D01*
X88811674Y-100084321D01*
X88768057Y-100087735D01*
X88738745Y-100080320D01*
X88709680Y-100057427D01*
X88699188Y-100047127D01*
X88653257Y-100001196D01*
X88653257Y-99514602D01*
X88690226Y-99497758D01*
X88722059Y-99485282D01*
X88740683Y-99480914D01*
X88745458Y-99494718D01*
X88749921Y-99533286D01*
X88753775Y-99592356D01*
X88756722Y-99667663D01*
X88758143Y-99731286D01*
X88762114Y-99981657D01*
X88796759Y-99986556D01*
X88828268Y-99983131D01*
X88843708Y-99972041D01*
X88848023Y-99951308D01*
X88851708Y-99907145D01*
X88854469Y-99845146D01*
X88856012Y-99770909D01*
X88856235Y-99732706D01*
X88856457Y-99512783D01*
X88902166Y-99496849D01*
X88934518Y-99486015D01*
X88952115Y-99480962D01*
X88952623Y-99480914D01*
X88954388Y-99494648D01*
X88956329Y-99532730D01*
X88958282Y-99590482D01*
X88960084Y-99663227D01*
X88961343Y-99731286D01*
X88965314Y-99981657D01*
X89052400Y-99981657D01*
X89056396Y-99753240D01*
X89060392Y-99524822D01*
X89102847Y-99502868D01*
X89134192Y-99487793D01*
X89152744Y-99480951D01*
X89153279Y-99480914D01*
X89155833Y-99494663D01*
G36*
X84113096Y-99644159D02*
G01*
X84118068Y-99607949D01*
X84126713Y-99581299D01*
X84140005Y-99557722D01*
X84142943Y-99553338D01*
X84192313Y-99494249D01*
X84246109Y-99459947D01*
X84311602Y-99446331D01*
X84333842Y-99445665D01*
X84417115Y-99457962D01*
X84485145Y-99493733D01*
X84535351Y-99551301D01*
X84553185Y-99588312D01*
X84567063Y-99643882D01*
X84574167Y-99714096D01*
X84574840Y-99790727D01*
X84569427Y-99865552D01*
X84558270Y-99930342D01*
X84541714Y-99976873D01*
X84536626Y-99984887D01*
X84476355Y-100044707D01*
X84404769Y-100080535D01*
X84327092Y-100091020D01*
X84248548Y-100074810D01*
X84226689Y-100065092D01*
X84184122Y-100035143D01*
X84146763Y-99995433D01*
X84143232Y-99990397D01*
X84128881Y-99966124D01*
X84119394Y-99940178D01*
X84113790Y-99906022D01*
X84111086Y-99857119D01*
X84110299Y-99786935D01*
X84110286Y-99771200D01*
X84110322Y-99766192D01*
X84255429Y-99766192D01*
X84256273Y-99832430D01*
X84259596Y-99876386D01*
X84266583Y-99904779D01*
X84278416Y-99924325D01*
X84284457Y-99930857D01*
X84319186Y-99955680D01*
X84352903Y-99954548D01*
X84386995Y-99933016D01*
X84407329Y-99910029D01*
X84419371Y-99876478D01*
X84426134Y-99823569D01*
X84426598Y-99817399D01*
X84427752Y-99721513D01*
X84415688Y-99650299D01*
X84390570Y-99604194D01*
X84352560Y-99583635D01*
X84338992Y-99582514D01*
X84303364Y-99588152D01*
X84278994Y-99607686D01*
X84264093Y-99645042D01*
X84256875Y-99704150D01*
X84255429Y-99766192D01*
X84110322Y-99766192D01*
X84110826Y-99696413D01*
X84113096Y-99644159D01*
G37*
X84113096Y-99644159D02*
X84118068Y-99607949D01*
X84126713Y-99581299D01*
X84140005Y-99557722D01*
X84142943Y-99553338D01*
X84192313Y-99494249D01*
X84246109Y-99459947D01*
X84311602Y-99446331D01*
X84333842Y-99445665D01*
X84417115Y-99457962D01*
X84485145Y-99493733D01*
X84535351Y-99551301D01*
X84553185Y-99588312D01*
X84567063Y-99643882D01*
X84574167Y-99714096D01*
X84574840Y-99790727D01*
X84569427Y-99865552D01*
X84558270Y-99930342D01*
X84541714Y-99976873D01*
X84536626Y-99984887D01*
X84476355Y-100044707D01*
X84404769Y-100080535D01*
X84327092Y-100091020D01*
X84248548Y-100074810D01*
X84226689Y-100065092D01*
X84184122Y-100035143D01*
X84146763Y-99995433D01*
X84143232Y-99990397D01*
X84128881Y-99966124D01*
X84119394Y-99940178D01*
X84113790Y-99906022D01*
X84111086Y-99857119D01*
X84110299Y-99786935D01*
X84110286Y-99771200D01*
X84110322Y-99766192D01*
X84255429Y-99766192D01*
X84256273Y-99832430D01*
X84259596Y-99876386D01*
X84266583Y-99904779D01*
X84278416Y-99924325D01*
X84284457Y-99930857D01*
X84319186Y-99955680D01*
X84352903Y-99954548D01*
X84386995Y-99933016D01*
X84407329Y-99910029D01*
X84419371Y-99876478D01*
X84426134Y-99823569D01*
X84426598Y-99817399D01*
X84427752Y-99721513D01*
X84415688Y-99650299D01*
X84390570Y-99604194D01*
X84352560Y-99583635D01*
X84338992Y-99582514D01*
X84303364Y-99588152D01*
X84278994Y-99607686D01*
X84264093Y-99645042D01*
X84256875Y-99704150D01*
X84255429Y-99766192D01*
X84110322Y-99766192D01*
X84110826Y-99696413D01*
X84113096Y-99644159D01*
G36*
X90244196Y-99631384D02*
G01*
X90257884Y-99582695D01*
X90280096Y-99546849D01*
X90312574Y-99518513D01*
X90326733Y-99509355D01*
X90391053Y-99485507D01*
X90461473Y-99484006D01*
X90529595Y-99502966D01*
X90587021Y-99540497D01*
X90614719Y-99574096D01*
X90636662Y-99635064D01*
X90638405Y-99683308D01*
X90634457Y-99747816D01*
X90485686Y-99812934D01*
X90413349Y-99846202D01*
X90366084Y-99872964D01*
X90341507Y-99896144D01*
X90337237Y-99918667D01*
X90350889Y-99943455D01*
X90365943Y-99959886D01*
X90409746Y-99986235D01*
X90457389Y-99988081D01*
X90501145Y-99967546D01*
X90533289Y-99926752D01*
X90539038Y-99912347D01*
X90566576Y-99867356D01*
X90598258Y-99848182D01*
X90641714Y-99831779D01*
X90641714Y-99893966D01*
X90637872Y-99936283D01*
X90622823Y-99971969D01*
X90591280Y-100012943D01*
X90586592Y-100018267D01*
X90551506Y-100054720D01*
X90521347Y-100074283D01*
X90483615Y-100083283D01*
X90452335Y-100086230D01*
X90396385Y-100086965D01*
X90356555Y-100077660D01*
X90331708Y-100063846D01*
X90292656Y-100033467D01*
X90265625Y-100000613D01*
X90248517Y-99959294D01*
X90239238Y-99903521D01*
X90235693Y-99827305D01*
X90235410Y-99788622D01*
X90236372Y-99742247D01*
X90324007Y-99742247D01*
X90325023Y-99767126D01*
X90327556Y-99771200D01*
X90344274Y-99765665D01*
X90380249Y-99751017D01*
X90428331Y-99730190D01*
X90438386Y-99725714D01*
X90499152Y-99694814D01*
X90532632Y-99667657D01*
X90539990Y-99642220D01*
X90522391Y-99616481D01*
X90507856Y-99605109D01*
X90455410Y-99582364D01*
X90406322Y-99586122D01*
X90365227Y-99613884D01*
X90336758Y-99663152D01*
X90327631Y-99702257D01*
X90324007Y-99742247D01*
X90236372Y-99742247D01*
X90237285Y-99698249D01*
X90244196Y-99631384D01*
G37*
X90244196Y-99631384D02*
X90257884Y-99582695D01*
X90280096Y-99546849D01*
X90312574Y-99518513D01*
X90326733Y-99509355D01*
X90391053Y-99485507D01*
X90461473Y-99484006D01*
X90529595Y-99502966D01*
X90587021Y-99540497D01*
X90614719Y-99574096D01*
X90636662Y-99635064D01*
X90638405Y-99683308D01*
X90634457Y-99747816D01*
X90485686Y-99812934D01*
X90413349Y-99846202D01*
X90366084Y-99872964D01*
X90341507Y-99896144D01*
X90337237Y-99918667D01*
X90350889Y-99943455D01*
X90365943Y-99959886D01*
X90409746Y-99986235D01*
X90457389Y-99988081D01*
X90501145Y-99967546D01*
X90533289Y-99926752D01*
X90539038Y-99912347D01*
X90566576Y-99867356D01*
X90598258Y-99848182D01*
X90641714Y-99831779D01*
X90641714Y-99893966D01*
X90637872Y-99936283D01*
X90622823Y-99971969D01*
X90591280Y-100012943D01*
X90586592Y-100018267D01*
X90551506Y-100054720D01*
X90521347Y-100074283D01*
X90483615Y-100083283D01*
X90452335Y-100086230D01*
X90396385Y-100086965D01*
X90356555Y-100077660D01*
X90331708Y-100063846D01*
X90292656Y-100033467D01*
X90265625Y-100000613D01*
X90248517Y-99959294D01*
X90239238Y-99903521D01*
X90235693Y-99827305D01*
X90235410Y-99788622D01*
X90236372Y-99742247D01*
X90324007Y-99742247D01*
X90325023Y-99767126D01*
X90327556Y-99771200D01*
X90344274Y-99765665D01*
X90380249Y-99751017D01*
X90428331Y-99730190D01*
X90438386Y-99725714D01*
X90499152Y-99694814D01*
X90532632Y-99667657D01*
X90539990Y-99642220D01*
X90522391Y-99616481D01*
X90507856Y-99605109D01*
X90455410Y-99582364D01*
X90406322Y-99586122D01*
X90365227Y-99613884D01*
X90336758Y-99663152D01*
X90327631Y-99702257D01*
X90324007Y-99742247D01*
X90236372Y-99742247D01*
X90237285Y-99698249D01*
X90244196Y-99631384D01*
G36*
X86092093Y-99463780D02*
G01*
X86138672Y-99490723D01*
X86171057Y-99517466D01*
X86194742Y-99545484D01*
X86211059Y-99579748D01*
X86221339Y-99625227D01*
X86226914Y-99686892D01*
X86229116Y-99769711D01*
X86229371Y-99829246D01*
X86229371Y-100048391D01*
X86167686Y-100076044D01*
X86106000Y-100103697D01*
X86098743Y-99863670D01*
X86095744Y-99774028D01*
X86092598Y-99708962D01*
X86088701Y-99664026D01*
X86083447Y-99634770D01*
X86076231Y-99616748D01*
X86066450Y-99605511D01*
X86063312Y-99603079D01*
X86015761Y-99584083D01*
X85967697Y-99591600D01*
X85939086Y-99611543D01*
X85927447Y-99625675D01*
X85919391Y-99644220D01*
X85914271Y-99672334D01*
X85911441Y-99715173D01*
X85910256Y-99777895D01*
X85910057Y-99843261D01*
X85910018Y-99925268D01*
X85908614Y-99983316D01*
X85903914Y-100022465D01*
X85893987Y-100047780D01*
X85876903Y-100064323D01*
X85850732Y-100077156D01*
X85815775Y-100090491D01*
X85777596Y-100105007D01*
X85782141Y-99847389D01*
X85783971Y-99754519D01*
X85786112Y-99685889D01*
X85789181Y-99636711D01*
X85793794Y-99602198D01*
X85800568Y-99577562D01*
X85810119Y-99558016D01*
X85821634Y-99540770D01*
X85877190Y-99485680D01*
X85944980Y-99453822D01*
X86018713Y-99446191D01*
X86092093Y-99463780D01*
G37*
X86092093Y-99463780D02*
X86138672Y-99490723D01*
X86171057Y-99517466D01*
X86194742Y-99545484D01*
X86211059Y-99579748D01*
X86221339Y-99625227D01*
X86226914Y-99686892D01*
X86229116Y-99769711D01*
X86229371Y-99829246D01*
X86229371Y-100048391D01*
X86167686Y-100076044D01*
X86106000Y-100103697D01*
X86098743Y-99863670D01*
X86095744Y-99774028D01*
X86092598Y-99708962D01*
X86088701Y-99664026D01*
X86083447Y-99634770D01*
X86076231Y-99616748D01*
X86066450Y-99605511D01*
X86063312Y-99603079D01*
X86015761Y-99584083D01*
X85967697Y-99591600D01*
X85939086Y-99611543D01*
X85927447Y-99625675D01*
X85919391Y-99644220D01*
X85914271Y-99672334D01*
X85911441Y-99715173D01*
X85910256Y-99777895D01*
X85910057Y-99843261D01*
X85910018Y-99925268D01*
X85908614Y-99983316D01*
X85903914Y-100022465D01*
X85893987Y-100047780D01*
X85876903Y-100064323D01*
X85850732Y-100077156D01*
X85815775Y-100090491D01*
X85777596Y-100105007D01*
X85782141Y-99847389D01*
X85783971Y-99754519D01*
X85786112Y-99685889D01*
X85789181Y-99636711D01*
X85793794Y-99602198D01*
X85800568Y-99577562D01*
X85810119Y-99558016D01*
X85821634Y-99540770D01*
X85877190Y-99485680D01*
X85944980Y-99453822D01*
X86018713Y-99446191D01*
X86092093Y-99463780D01*
G36*
X90028600Y-99494752D02*
G01*
X90045948Y-99502334D01*
X90087356Y-99535128D01*
X90122765Y-99582547D01*
X90144664Y-99633151D01*
X90148229Y-99658098D01*
X90136279Y-99692927D01*
X90110067Y-99711357D01*
X90081964Y-99722516D01*
X90069095Y-99724572D01*
X90062829Y-99709649D01*
X90050456Y-99677175D01*
X90045028Y-99662502D01*
X90014590Y-99611744D01*
X89970520Y-99586427D01*
X89914010Y-99587206D01*
X89909825Y-99588203D01*
X89879655Y-99602507D01*
X89857476Y-99630393D01*
X89842327Y-99675287D01*
X89833250Y-99740615D01*
X89829286Y-99829804D01*
X89828914Y-99877261D01*
X89828730Y-99952071D01*
X89827522Y-100003069D01*
X89824309Y-100035471D01*
X89818109Y-100054495D01*
X89807940Y-100065356D01*
X89792819Y-100073272D01*
X89791946Y-100073670D01*
X89762828Y-100085981D01*
X89748403Y-100090514D01*
X89746186Y-100076809D01*
X89744289Y-100038925D01*
X89742847Y-99981715D01*
X89741998Y-99910027D01*
X89741829Y-99857565D01*
X89742692Y-99756047D01*
X89746070Y-99679032D01*
X89753142Y-99622023D01*
X89765088Y-99580526D01*
X89783090Y-99550043D01*
X89808327Y-99526080D01*
X89833247Y-99509355D01*
X89893171Y-99487097D01*
X89962911Y-99482076D01*
X90028600Y-99494752D01*
G37*
X90028600Y-99494752D02*
X90045948Y-99502334D01*
X90087356Y-99535128D01*
X90122765Y-99582547D01*
X90144664Y-99633151D01*
X90148229Y-99658098D01*
X90136279Y-99692927D01*
X90110067Y-99711357D01*
X90081964Y-99722516D01*
X90069095Y-99724572D01*
X90062829Y-99709649D01*
X90050456Y-99677175D01*
X90045028Y-99662502D01*
X90014590Y-99611744D01*
X89970520Y-99586427D01*
X89914010Y-99587206D01*
X89909825Y-99588203D01*
X89879655Y-99602507D01*
X89857476Y-99630393D01*
X89842327Y-99675287D01*
X89833250Y-99740615D01*
X89829286Y-99829804D01*
X89828914Y-99877261D01*
X89828730Y-99952071D01*
X89827522Y-100003069D01*
X89824309Y-100035471D01*
X89818109Y-100054495D01*
X89807940Y-100065356D01*
X89792819Y-100073272D01*
X89791946Y-100073670D01*
X89762828Y-100085981D01*
X89748403Y-100090514D01*
X89746186Y-100076809D01*
X89744289Y-100038925D01*
X89742847Y-99981715D01*
X89741998Y-99910027D01*
X89741829Y-99857565D01*
X89742692Y-99756047D01*
X89746070Y-99679032D01*
X89753142Y-99622023D01*
X89765088Y-99580526D01*
X89783090Y-99550043D01*
X89808327Y-99526080D01*
X89833247Y-99509355D01*
X89893171Y-99487097D01*
X89962911Y-99482076D01*
X90028600Y-99494752D01*
G36*
X88160726Y-99626086D02*
G01*
X88183135Y-99574600D01*
X88218124Y-99534443D01*
X88245375Y-99513861D01*
X88294907Y-99491625D01*
X88352316Y-99481304D01*
X88405682Y-99484067D01*
X88435543Y-99495212D01*
X88447261Y-99498383D01*
X88455037Y-99486557D01*
X88460465Y-99454866D01*
X88464571Y-99406593D01*
X88469067Y-99352829D01*
X88475313Y-99320482D01*
X88486676Y-99301985D01*
X88506528Y-99289770D01*
X88519000Y-99284362D01*
X88566171Y-99264601D01*
X88566117Y-99601358D01*
X88565933Y-99709837D01*
X88565219Y-99793287D01*
X88563675Y-99855704D01*
X88561001Y-99901085D01*
X88556894Y-99933429D01*
X88551055Y-99956733D01*
X88543182Y-99974995D01*
X88537221Y-99985418D01*
X88487855Y-100041945D01*
X88425264Y-100077377D01*
X88356013Y-100090090D01*
X88286668Y-100078463D01*
X88245375Y-100057568D01*
X88202025Y-100021422D01*
X88172481Y-99977276D01*
X88154655Y-99919462D01*
X88146463Y-99842313D01*
X88145302Y-99785714D01*
X88145458Y-99781647D01*
X88246857Y-99781647D01*
X88247476Y-99846550D01*
X88250314Y-99889514D01*
X88256840Y-99917622D01*
X88268523Y-99937953D01*
X88282483Y-99953288D01*
X88329365Y-99982890D01*
X88379701Y-99985419D01*
X88427276Y-99960705D01*
X88430979Y-99957356D01*
X88446783Y-99939935D01*
X88456693Y-99919209D01*
X88462058Y-99888362D01*
X88464228Y-99840577D01*
X88464571Y-99787748D01*
X88463827Y-99721381D01*
X88460748Y-99677106D01*
X88454061Y-99648009D01*
X88442496Y-99627173D01*
X88433013Y-99616107D01*
X88388960Y-99588198D01*
X88338224Y-99584843D01*
X88289796Y-99606159D01*
X88280450Y-99614073D01*
X88264540Y-99631647D01*
X88254610Y-99652587D01*
X88249278Y-99683782D01*
X88247163Y-99732122D01*
X88246857Y-99781647D01*
X88145458Y-99781647D01*
X88148810Y-99694568D01*
X88160726Y-99626086D01*
G37*
X88160726Y-99626086D02*
X88183135Y-99574600D01*
X88218124Y-99534443D01*
X88245375Y-99513861D01*
X88294907Y-99491625D01*
X88352316Y-99481304D01*
X88405682Y-99484067D01*
X88435543Y-99495212D01*
X88447261Y-99498383D01*
X88455037Y-99486557D01*
X88460465Y-99454866D01*
X88464571Y-99406593D01*
X88469067Y-99352829D01*
X88475313Y-99320482D01*
X88486676Y-99301985D01*
X88506528Y-99289770D01*
X88519000Y-99284362D01*
X88566171Y-99264601D01*
X88566117Y-99601358D01*
X88565933Y-99709837D01*
X88565219Y-99793287D01*
X88563675Y-99855704D01*
X88561001Y-99901085D01*
X88556894Y-99933429D01*
X88551055Y-99956733D01*
X88543182Y-99974995D01*
X88537221Y-99985418D01*
X88487855Y-100041945D01*
X88425264Y-100077377D01*
X88356013Y-100090090D01*
X88286668Y-100078463D01*
X88245375Y-100057568D01*
X88202025Y-100021422D01*
X88172481Y-99977276D01*
X88154655Y-99919462D01*
X88146463Y-99842313D01*
X88145302Y-99785714D01*
X88145458Y-99781647D01*
X88246857Y-99781647D01*
X88247476Y-99846550D01*
X88250314Y-99889514D01*
X88256840Y-99917622D01*
X88268523Y-99937953D01*
X88282483Y-99953288D01*
X88329365Y-99982890D01*
X88379701Y-99985419D01*
X88427276Y-99960705D01*
X88430979Y-99957356D01*
X88446783Y-99939935D01*
X88456693Y-99919209D01*
X88462058Y-99888362D01*
X88464228Y-99840577D01*
X88464571Y-99787748D01*
X88463827Y-99721381D01*
X88460748Y-99677106D01*
X88454061Y-99648009D01*
X88442496Y-99627173D01*
X88433013Y-99616107D01*
X88388960Y-99588198D01*
X88338224Y-99584843D01*
X88289796Y-99606159D01*
X88280450Y-99614073D01*
X88264540Y-99631647D01*
X88254610Y-99652587D01*
X88249278Y-99683782D01*
X88247163Y-99732122D01*
X88246857Y-99781647D01*
X88145458Y-99781647D01*
X88148810Y-99694568D01*
X88160726Y-99626086D01*
G36*
X86751886Y-99387289D02*
G01*
X86756139Y-99446613D01*
X86761025Y-99481572D01*
X86767795Y-99496820D01*
X86777702Y-99497015D01*
X86780914Y-99495195D01*
X86823644Y-99482015D01*
X86879227Y-99482785D01*
X86935737Y-99496333D01*
X86971082Y-99513861D01*
X87007321Y-99541861D01*
X87033813Y-99573549D01*
X87051999Y-99613813D01*
X87063322Y-99667543D01*
X87069222Y-99739626D01*
X87071143Y-99834951D01*
X87071177Y-99853237D01*
X87071200Y-100058646D01*
X87025491Y-100074580D01*
X86993027Y-100085420D01*
X86975215Y-100090468D01*
X86974691Y-100090514D01*
X86972937Y-100076828D01*
X86971444Y-100039076D01*
X86970326Y-99982224D01*
X86969697Y-99911234D01*
X86969600Y-99868073D01*
X86969398Y-99782973D01*
X86968358Y-99721981D01*
X86965831Y-99680177D01*
X86961164Y-99652642D01*
X86953707Y-99634456D01*
X86942811Y-99620698D01*
X86936007Y-99614073D01*
X86889272Y-99587375D01*
X86838272Y-99585375D01*
X86792001Y-99607955D01*
X86783444Y-99616107D01*
X86770893Y-99631436D01*
X86762188Y-99649618D01*
X86756631Y-99675909D01*
X86753526Y-99715562D01*
X86752176Y-99773832D01*
X86751886Y-99854173D01*
X86751886Y-100058646D01*
X86706177Y-100074580D01*
X86673713Y-100085420D01*
X86655901Y-100090468D01*
X86655377Y-100090514D01*
X86654037Y-100076623D01*
X86652828Y-100037439D01*
X86651801Y-99976700D01*
X86651002Y-99898141D01*
X86650481Y-99805498D01*
X86650286Y-99702509D01*
X86650286Y-99305342D01*
X86697457Y-99285444D01*
X86744629Y-99265547D01*
X86751886Y-99387289D01*
G37*
X86751886Y-99387289D02*
X86756139Y-99446613D01*
X86761025Y-99481572D01*
X86767795Y-99496820D01*
X86777702Y-99497015D01*
X86780914Y-99495195D01*
X86823644Y-99482015D01*
X86879227Y-99482785D01*
X86935737Y-99496333D01*
X86971082Y-99513861D01*
X87007321Y-99541861D01*
X87033813Y-99573549D01*
X87051999Y-99613813D01*
X87063322Y-99667543D01*
X87069222Y-99739626D01*
X87071143Y-99834951D01*
X87071177Y-99853237D01*
X87071200Y-100058646D01*
X87025491Y-100074580D01*
X86993027Y-100085420D01*
X86975215Y-100090468D01*
X86974691Y-100090514D01*
X86972937Y-100076828D01*
X86971444Y-100039076D01*
X86970326Y-99982224D01*
X86969697Y-99911234D01*
X86969600Y-99868073D01*
X86969398Y-99782973D01*
X86968358Y-99721981D01*
X86965831Y-99680177D01*
X86961164Y-99652642D01*
X86953707Y-99634456D01*
X86942811Y-99620698D01*
X86936007Y-99614073D01*
X86889272Y-99587375D01*
X86838272Y-99585375D01*
X86792001Y-99607955D01*
X86783444Y-99616107D01*
X86770893Y-99631436D01*
X86762188Y-99649618D01*
X86756631Y-99675909D01*
X86753526Y-99715562D01*
X86752176Y-99773832D01*
X86751886Y-99854173D01*
X86751886Y-100058646D01*
X86706177Y-100074580D01*
X86673713Y-100085420D01*
X86655901Y-100090468D01*
X86655377Y-100090514D01*
X86654037Y-100076623D01*
X86652828Y-100037439D01*
X86651801Y-99976700D01*
X86651002Y-99898141D01*
X86650481Y-99805498D01*
X86650286Y-99702509D01*
X86650286Y-99305342D01*
X86697457Y-99285444D01*
X86744629Y-99265547D01*
X86751886Y-99387289D01*
G36*
X87415744Y-99486968D02*
G01*
X87472616Y-99508087D01*
X87473267Y-99508493D01*
X87508440Y-99534380D01*
X87534407Y-99564633D01*
X87552670Y-99604058D01*
X87564732Y-99657462D01*
X87572096Y-99729651D01*
X87576264Y-99825432D01*
X87576629Y-99839078D01*
X87581876Y-100044842D01*
X87537716Y-100067678D01*
X87505763Y-100083110D01*
X87486470Y-100090423D01*
X87485578Y-100090514D01*
X87482239Y-100077022D01*
X87479587Y-100040626D01*
X87477956Y-99987452D01*
X87477600Y-99944393D01*
X87477592Y-99874641D01*
X87474403Y-99830837D01*
X87463288Y-99809944D01*
X87439501Y-99808925D01*
X87398296Y-99824741D01*
X87336086Y-99853815D01*
X87290341Y-99877963D01*
X87266813Y-99898913D01*
X87259896Y-99921747D01*
X87259886Y-99922877D01*
X87271299Y-99962212D01*
X87305092Y-99983462D01*
X87356809Y-99986539D01*
X87394061Y-99986006D01*
X87413703Y-99996735D01*
X87425952Y-100022505D01*
X87433002Y-100055337D01*
X87422842Y-100073966D01*
X87419017Y-100076632D01*
X87383001Y-100087340D01*
X87332566Y-100088856D01*
X87280626Y-100081759D01*
X87243822Y-100068788D01*
X87192938Y-100025585D01*
X87164014Y-99965446D01*
X87158286Y-99918462D01*
X87162657Y-99876082D01*
X87178475Y-99841488D01*
X87209797Y-99810763D01*
X87260678Y-99779990D01*
X87335176Y-99745252D01*
X87339714Y-99743288D01*
X87406821Y-99712287D01*
X87448232Y-99686862D01*
X87465981Y-99664014D01*
X87462107Y-99640745D01*
X87438643Y-99614056D01*
X87431627Y-99607914D01*
X87384630Y-99584100D01*
X87335933Y-99585103D01*
X87293522Y-99608451D01*
X87265384Y-99651675D01*
X87262769Y-99660160D01*
X87237308Y-99701308D01*
X87205001Y-99721128D01*
X87158286Y-99740770D01*
X87158286Y-99689950D01*
X87172496Y-99616082D01*
X87214675Y-99548327D01*
X87236624Y-99525661D01*
X87286517Y-99496569D01*
X87349967Y-99483400D01*
X87415744Y-99486968D01*
G37*
X87415744Y-99486968D02*
X87472616Y-99508087D01*
X87473267Y-99508493D01*
X87508440Y-99534380D01*
X87534407Y-99564633D01*
X87552670Y-99604058D01*
X87564732Y-99657462D01*
X87572096Y-99729651D01*
X87576264Y-99825432D01*
X87576629Y-99839078D01*
X87581876Y-100044842D01*
X87537716Y-100067678D01*
X87505763Y-100083110D01*
X87486470Y-100090423D01*
X87485578Y-100090514D01*
X87482239Y-100077022D01*
X87479587Y-100040626D01*
X87477956Y-99987452D01*
X87477600Y-99944393D01*
X87477592Y-99874641D01*
X87474403Y-99830837D01*
X87463288Y-99809944D01*
X87439501Y-99808925D01*
X87398296Y-99824741D01*
X87336086Y-99853815D01*
X87290341Y-99877963D01*
X87266813Y-99898913D01*
X87259896Y-99921747D01*
X87259886Y-99922877D01*
X87271299Y-99962212D01*
X87305092Y-99983462D01*
X87356809Y-99986539D01*
X87394061Y-99986006D01*
X87413703Y-99996735D01*
X87425952Y-100022505D01*
X87433002Y-100055337D01*
X87422842Y-100073966D01*
X87419017Y-100076632D01*
X87383001Y-100087340D01*
X87332566Y-100088856D01*
X87280626Y-100081759D01*
X87243822Y-100068788D01*
X87192938Y-100025585D01*
X87164014Y-99965446D01*
X87158286Y-99918462D01*
X87162657Y-99876082D01*
X87178475Y-99841488D01*
X87209797Y-99810763D01*
X87260678Y-99779990D01*
X87335176Y-99745252D01*
X87339714Y-99743288D01*
X87406821Y-99712287D01*
X87448232Y-99686862D01*
X87465981Y-99664014D01*
X87462107Y-99640745D01*
X87438643Y-99614056D01*
X87431627Y-99607914D01*
X87384630Y-99584100D01*
X87335933Y-99585103D01*
X87293522Y-99608451D01*
X87265384Y-99651675D01*
X87262769Y-99660160D01*
X87237308Y-99701308D01*
X87205001Y-99721128D01*
X87158286Y-99740770D01*
X87158286Y-99689950D01*
X87172496Y-99616082D01*
X87214675Y-99548327D01*
X87236624Y-99525661D01*
X87286517Y-99496569D01*
X87349967Y-99483400D01*
X87415744Y-99486968D01*
G36*
X87479910Y-94778348D02*
G01*
X87558454Y-94778778D01*
X87615298Y-94779942D01*
X87654105Y-94782207D01*
X87678538Y-94785940D01*
X87692262Y-94791506D01*
X87698940Y-94799273D01*
X87702236Y-94809605D01*
X87702556Y-94810943D01*
X87707562Y-94835079D01*
X87716829Y-94882701D01*
X87729392Y-94948741D01*
X87744287Y-95028128D01*
X87760551Y-95115796D01*
X87761119Y-95118875D01*
X87777410Y-95204789D01*
X87792652Y-95280696D01*
X87805861Y-95342045D01*
X87816054Y-95384282D01*
X87822248Y-95402855D01*
X87822543Y-95403184D01*
X87840788Y-95412253D01*
X87878405Y-95427367D01*
X87927271Y-95445262D01*
X87927543Y-95445358D01*
X87989093Y-95468493D01*
X88061657Y-95497965D01*
X88130057Y-95527597D01*
X88133294Y-95529062D01*
X88244702Y-95579626D01*
X88491399Y-95411160D01*
X88567077Y-95359803D01*
X88635631Y-95313889D01*
X88693088Y-95276030D01*
X88735476Y-95248837D01*
X88758825Y-95234921D01*
X88761042Y-95233889D01*
X88778010Y-95238484D01*
X88809701Y-95260655D01*
X88857352Y-95301447D01*
X88922198Y-95361905D01*
X88988397Y-95426227D01*
X89052214Y-95489612D01*
X89109329Y-95547451D01*
X89156305Y-95596175D01*
X89189703Y-95632210D01*
X89206085Y-95651984D01*
X89206694Y-95653002D01*
X89208505Y-95666572D01*
X89201683Y-95688733D01*
X89184540Y-95722478D01*
X89155393Y-95770800D01*
X89112555Y-95836692D01*
X89055448Y-95921517D01*
X89004766Y-95996177D01*
X88959461Y-96063140D01*
X88922150Y-96118516D01*
X88895452Y-96158420D01*
X88881985Y-96178962D01*
X88881137Y-96180356D01*
X88882781Y-96200038D01*
X88895245Y-96238293D01*
X88916048Y-96287889D01*
X88923462Y-96303728D01*
X88955814Y-96374290D01*
X88990328Y-96454353D01*
X89018365Y-96523629D01*
X89038568Y-96575045D01*
X89054615Y-96614119D01*
X89063888Y-96634541D01*
X89065041Y-96636114D01*
X89082096Y-96638721D01*
X89122298Y-96645863D01*
X89180302Y-96656523D01*
X89250763Y-96669685D01*
X89328335Y-96684333D01*
X89407672Y-96699449D01*
X89483431Y-96714018D01*
X89550264Y-96727022D01*
X89602828Y-96737445D01*
X89635776Y-96744270D01*
X89643857Y-96746199D01*
X89652205Y-96750962D01*
X89658506Y-96761718D01*
X89663045Y-96782098D01*
X89666104Y-96815734D01*
X89667967Y-96866255D01*
X89668918Y-96937292D01*
X89669240Y-97032476D01*
X89669257Y-97071492D01*
X89669257Y-97388799D01*
X89593057Y-97403839D01*
X89550663Y-97411995D01*
X89487400Y-97423899D01*
X89410962Y-97438116D01*
X89329043Y-97453210D01*
X89306400Y-97457355D01*
X89230806Y-97472053D01*
X89164953Y-97486505D01*
X89114366Y-97499375D01*
X89084574Y-97509322D01*
X89079612Y-97512287D01*
X89067426Y-97533283D01*
X89049953Y-97573967D01*
X89030577Y-97626322D01*
X89026734Y-97637600D01*
X89001339Y-97707523D01*
X88969817Y-97786418D01*
X88938969Y-97857266D01*
X88938817Y-97857595D01*
X88887447Y-97968733D01*
X89056399Y-98217253D01*
X89225352Y-98465772D01*
X89008429Y-98683058D01*
X88942819Y-98747726D01*
X88882979Y-98804733D01*
X88832267Y-98851033D01*
X88794046Y-98883584D01*
X88771675Y-98899343D01*
X88768466Y-98900343D01*
X88749626Y-98892469D01*
X88711180Y-98870578D01*
X88657330Y-98837267D01*
X88592276Y-98795131D01*
X88521940Y-98747943D01*
X88450555Y-98699810D01*
X88386908Y-98657928D01*
X88335041Y-98624871D01*
X88298995Y-98603218D01*
X88282867Y-98595543D01*
X88263189Y-98602037D01*
X88225875Y-98619150D01*
X88178621Y-98643326D01*
X88173612Y-98646013D01*
X88109977Y-98677927D01*
X88066341Y-98693579D01*
X88039202Y-98693745D01*
X88025057Y-98679204D01*
X88024975Y-98679000D01*
X88017905Y-98661779D01*
X88001042Y-98620899D01*
X87975695Y-98559525D01*
X87943171Y-98480819D01*
X87904778Y-98387947D01*
X87861822Y-98284072D01*
X87820222Y-98183502D01*
X87774504Y-98072516D01*
X87732526Y-97969703D01*
X87695548Y-97878215D01*
X87664827Y-97801201D01*
X87641622Y-97741815D01*
X87627190Y-97703209D01*
X87622743Y-97688800D01*
X87633896Y-97672272D01*
X87663069Y-97645930D01*
X87701971Y-97616887D01*
X87812757Y-97525039D01*
X87899351Y-97419759D01*
X87960716Y-97303266D01*
X87995815Y-97177776D01*
X88003608Y-97045507D01*
X87997943Y-96984457D01*
X87967078Y-96857795D01*
X87913920Y-96745941D01*
X87841767Y-96650001D01*
X87753917Y-96571076D01*
X87653665Y-96510270D01*
X87544310Y-96468687D01*
X87429147Y-96447428D01*
X87311475Y-96447599D01*
X87194590Y-96470301D01*
X87081789Y-96516638D01*
X86976369Y-96587713D01*
X86932368Y-96627911D01*
X86847979Y-96731129D01*
X86789222Y-96843925D01*
X86755704Y-96963010D01*
X86747035Y-97085095D01*
X86762823Y-97206893D01*
X86802678Y-97325116D01*
X86866207Y-97436475D01*
X86953021Y-97537684D01*
X87050029Y-97616887D01*
X87090437Y-97647162D01*
X87118982Y-97673219D01*
X87129257Y-97688825D01*
X87123877Y-97705843D01*
X87108575Y-97746500D01*
X87084612Y-97807642D01*
X87053244Y-97886119D01*
X87015732Y-97978780D01*
X86973333Y-98082472D01*
X86931663Y-98183526D01*
X86885690Y-98294607D01*
X86843107Y-98397541D01*
X86805221Y-98489165D01*
X86773340Y-98566316D01*
X86748771Y-98625831D01*
X86732820Y-98664544D01*
X86726910Y-98679000D01*
X86712948Y-98693685D01*
X86685940Y-98693642D01*
X86642413Y-98678099D01*
X86578890Y-98646284D01*
X86578388Y-98646013D01*
X86530560Y-98621323D01*
X86491897Y-98603338D01*
X86470095Y-98595614D01*
X86469133Y-98595543D01*
X86452721Y-98603378D01*
X86416487Y-98625165D01*
X86364474Y-98658328D01*
X86300725Y-98700291D01*
X86230060Y-98747943D01*
X86158116Y-98796191D01*
X86093274Y-98838151D01*
X86039735Y-98871227D01*
X86001697Y-98892821D01*
X85983533Y-98900343D01*
X85966808Y-98890457D01*
X85933180Y-98862826D01*
X85886010Y-98820495D01*
X85828658Y-98766505D01*
X85764484Y-98703899D01*
X85743497Y-98682983D01*
X85526499Y-98465623D01*
X85691668Y-98223220D01*
X85741864Y-98148781D01*
X85785919Y-98081972D01*
X85821362Y-98026665D01*
X85845719Y-97986729D01*
X85856522Y-97966036D01*
X85856838Y-97964563D01*
X85851143Y-97945058D01*
X85835826Y-97905822D01*
X85813537Y-97853430D01*
X85797893Y-97818355D01*
X85768641Y-97751201D01*
X85741094Y-97683358D01*
X85719737Y-97626034D01*
X85713935Y-97608572D01*
X85697452Y-97561938D01*
X85681340Y-97525905D01*
X85672490Y-97512287D01*
X85652960Y-97503952D01*
X85610334Y-97492137D01*
X85550145Y-97478181D01*
X85477922Y-97463422D01*
X85445600Y-97457355D01*
X85363522Y-97442273D01*
X85284795Y-97427669D01*
X85217109Y-97414980D01*
X85168160Y-97405642D01*
X85158943Y-97403839D01*
X85082743Y-97388799D01*
X85082743Y-97071492D01*
X85082914Y-96967154D01*
X85083616Y-96888213D01*
X85085134Y-96831038D01*
X85087749Y-96791999D01*
X85091746Y-96767465D01*
X85097409Y-96753805D01*
X85105020Y-96747389D01*
X85108143Y-96746199D01*
X85126978Y-96741980D01*
X85168588Y-96733562D01*
X85227630Y-96721961D01*
X85298757Y-96708195D01*
X85376625Y-96693280D01*
X85455887Y-96678232D01*
X85531198Y-96664069D01*
X85597213Y-96651806D01*
X85648587Y-96642461D01*
X85679975Y-96637050D01*
X85686959Y-96636114D01*
X85693285Y-96623596D01*
X85707290Y-96590246D01*
X85726355Y-96542377D01*
X85733634Y-96523629D01*
X85762996Y-96451195D01*
X85797571Y-96371170D01*
X85828537Y-96303728D01*
X85851323Y-96252159D01*
X85866482Y-96209785D01*
X85871542Y-96183834D01*
X85870736Y-96180356D01*
X85860041Y-96163936D01*
X85835620Y-96127417D01*
X85800095Y-96074687D01*
X85756087Y-96009635D01*
X85706217Y-95936151D01*
X85696356Y-95921645D01*
X85638492Y-95835704D01*
X85595956Y-95770261D01*
X85567054Y-95722304D01*
X85550090Y-95688820D01*
X85543367Y-95666795D01*
X85545190Y-95653217D01*
X85545236Y-95653131D01*
X85559586Y-95635297D01*
X85591323Y-95600817D01*
X85637010Y-95553268D01*
X85693204Y-95496222D01*
X85756468Y-95433255D01*
X85763602Y-95426227D01*
X85843330Y-95349020D01*
X85904857Y-95292330D01*
X85949421Y-95255110D01*
X85978257Y-95236315D01*
X85990958Y-95233889D01*
X86009494Y-95244471D01*
X86047961Y-95268916D01*
X86102386Y-95304612D01*
X86168798Y-95348947D01*
X86243225Y-95399311D01*
X86260601Y-95411160D01*
X86507297Y-95579626D01*
X86618706Y-95529062D01*
X86686457Y-95499595D01*
X86759183Y-95469959D01*
X86821703Y-95446330D01*
X86824457Y-95445358D01*
X86873360Y-95427457D01*
X86911057Y-95412320D01*
X86929425Y-95403210D01*
X86929456Y-95403184D01*
X86935285Y-95386717D01*
X86945192Y-95346219D01*
X86958195Y-95286242D01*
X86973309Y-95211340D01*
X86989552Y-95126064D01*
X86990881Y-95118875D01*
X87007175Y-95031014D01*
X87022133Y-94951260D01*
X87034791Y-94884681D01*
X87044186Y-94836347D01*
X87049354Y-94811325D01*
X87049444Y-94810943D01*
X87052589Y-94800299D01*
X87058704Y-94792262D01*
X87071453Y-94786467D01*
X87094500Y-94782547D01*
X87131509Y-94780135D01*
X87186144Y-94778865D01*
X87262067Y-94778371D01*
X87362944Y-94778286D01*
X87376000Y-94778286D01*
X87479910Y-94778348D01*
G37*
X87479910Y-94778348D02*
X87558454Y-94778778D01*
X87615298Y-94779942D01*
X87654105Y-94782207D01*
X87678538Y-94785940D01*
X87692262Y-94791506D01*
X87698940Y-94799273D01*
X87702236Y-94809605D01*
X87702556Y-94810943D01*
X87707562Y-94835079D01*
X87716829Y-94882701D01*
X87729392Y-94948741D01*
X87744287Y-95028128D01*
X87760551Y-95115796D01*
X87761119Y-95118875D01*
X87777410Y-95204789D01*
X87792652Y-95280696D01*
X87805861Y-95342045D01*
X87816054Y-95384282D01*
X87822248Y-95402855D01*
X87822543Y-95403184D01*
X87840788Y-95412253D01*
X87878405Y-95427367D01*
X87927271Y-95445262D01*
X87927543Y-95445358D01*
X87989093Y-95468493D01*
X88061657Y-95497965D01*
X88130057Y-95527597D01*
X88133294Y-95529062D01*
X88244702Y-95579626D01*
X88491399Y-95411160D01*
X88567077Y-95359803D01*
X88635631Y-95313889D01*
X88693088Y-95276030D01*
X88735476Y-95248837D01*
X88758825Y-95234921D01*
X88761042Y-95233889D01*
X88778010Y-95238484D01*
X88809701Y-95260655D01*
X88857352Y-95301447D01*
X88922198Y-95361905D01*
X88988397Y-95426227D01*
X89052214Y-95489612D01*
X89109329Y-95547451D01*
X89156305Y-95596175D01*
X89189703Y-95632210D01*
X89206085Y-95651984D01*
X89206694Y-95653002D01*
X89208505Y-95666572D01*
X89201683Y-95688733D01*
X89184540Y-95722478D01*
X89155393Y-95770800D01*
X89112555Y-95836692D01*
X89055448Y-95921517D01*
X89004766Y-95996177D01*
X88959461Y-96063140D01*
X88922150Y-96118516D01*
X88895452Y-96158420D01*
X88881985Y-96178962D01*
X88881137Y-96180356D01*
X88882781Y-96200038D01*
X88895245Y-96238293D01*
X88916048Y-96287889D01*
X88923462Y-96303728D01*
X88955814Y-96374290D01*
X88990328Y-96454353D01*
X89018365Y-96523629D01*
X89038568Y-96575045D01*
X89054615Y-96614119D01*
X89063888Y-96634541D01*
X89065041Y-96636114D01*
X89082096Y-96638721D01*
X89122298Y-96645863D01*
X89180302Y-96656523D01*
X89250763Y-96669685D01*
X89328335Y-96684333D01*
X89407672Y-96699449D01*
X89483431Y-96714018D01*
X89550264Y-96727022D01*
X89602828Y-96737445D01*
X89635776Y-96744270D01*
X89643857Y-96746199D01*
X89652205Y-96750962D01*
X89658506Y-96761718D01*
X89663045Y-96782098D01*
X89666104Y-96815734D01*
X89667967Y-96866255D01*
X89668918Y-96937292D01*
X89669240Y-97032476D01*
X89669257Y-97071492D01*
X89669257Y-97388799D01*
X89593057Y-97403839D01*
X89550663Y-97411995D01*
X89487400Y-97423899D01*
X89410962Y-97438116D01*
X89329043Y-97453210D01*
X89306400Y-97457355D01*
X89230806Y-97472053D01*
X89164953Y-97486505D01*
X89114366Y-97499375D01*
X89084574Y-97509322D01*
X89079612Y-97512287D01*
X89067426Y-97533283D01*
X89049953Y-97573967D01*
X89030577Y-97626322D01*
X89026734Y-97637600D01*
X89001339Y-97707523D01*
X88969817Y-97786418D01*
X88938969Y-97857266D01*
X88938817Y-97857595D01*
X88887447Y-97968733D01*
X89056399Y-98217253D01*
X89225352Y-98465772D01*
X89008429Y-98683058D01*
X88942819Y-98747726D01*
X88882979Y-98804733D01*
X88832267Y-98851033D01*
X88794046Y-98883584D01*
X88771675Y-98899343D01*
X88768466Y-98900343D01*
X88749626Y-98892469D01*
X88711180Y-98870578D01*
X88657330Y-98837267D01*
X88592276Y-98795131D01*
X88521940Y-98747943D01*
X88450555Y-98699810D01*
X88386908Y-98657928D01*
X88335041Y-98624871D01*
X88298995Y-98603218D01*
X88282867Y-98595543D01*
X88263189Y-98602037D01*
X88225875Y-98619150D01*
X88178621Y-98643326D01*
X88173612Y-98646013D01*
X88109977Y-98677927D01*
X88066341Y-98693579D01*
X88039202Y-98693745D01*
X88025057Y-98679204D01*
X88024975Y-98679000D01*
X88017905Y-98661779D01*
X88001042Y-98620899D01*
X87975695Y-98559525D01*
X87943171Y-98480819D01*
X87904778Y-98387947D01*
X87861822Y-98284072D01*
X87820222Y-98183502D01*
X87774504Y-98072516D01*
X87732526Y-97969703D01*
X87695548Y-97878215D01*
X87664827Y-97801201D01*
X87641622Y-97741815D01*
X87627190Y-97703209D01*
X87622743Y-97688800D01*
X87633896Y-97672272D01*
X87663069Y-97645930D01*
X87701971Y-97616887D01*
X87812757Y-97525039D01*
X87899351Y-97419759D01*
X87960716Y-97303266D01*
X87995815Y-97177776D01*
X88003608Y-97045507D01*
X87997943Y-96984457D01*
X87967078Y-96857795D01*
X87913920Y-96745941D01*
X87841767Y-96650001D01*
X87753917Y-96571076D01*
X87653665Y-96510270D01*
X87544310Y-96468687D01*
X87429147Y-96447428D01*
X87311475Y-96447599D01*
X87194590Y-96470301D01*
X87081789Y-96516638D01*
X86976369Y-96587713D01*
X86932368Y-96627911D01*
X86847979Y-96731129D01*
X86789222Y-96843925D01*
X86755704Y-96963010D01*
X86747035Y-97085095D01*
X86762823Y-97206893D01*
X86802678Y-97325116D01*
X86866207Y-97436475D01*
X86953021Y-97537684D01*
X87050029Y-97616887D01*
X87090437Y-97647162D01*
X87118982Y-97673219D01*
X87129257Y-97688825D01*
X87123877Y-97705843D01*
X87108575Y-97746500D01*
X87084612Y-97807642D01*
X87053244Y-97886119D01*
X87015732Y-97978780D01*
X86973333Y-98082472D01*
X86931663Y-98183526D01*
X86885690Y-98294607D01*
X86843107Y-98397541D01*
X86805221Y-98489165D01*
X86773340Y-98566316D01*
X86748771Y-98625831D01*
X86732820Y-98664544D01*
X86726910Y-98679000D01*
X86712948Y-98693685D01*
X86685940Y-98693642D01*
X86642413Y-98678099D01*
X86578890Y-98646284D01*
X86578388Y-98646013D01*
X86530560Y-98621323D01*
X86491897Y-98603338D01*
X86470095Y-98595614D01*
X86469133Y-98595543D01*
X86452721Y-98603378D01*
X86416487Y-98625165D01*
X86364474Y-98658328D01*
X86300725Y-98700291D01*
X86230060Y-98747943D01*
X86158116Y-98796191D01*
X86093274Y-98838151D01*
X86039735Y-98871227D01*
X86001697Y-98892821D01*
X85983533Y-98900343D01*
X85966808Y-98890457D01*
X85933180Y-98862826D01*
X85886010Y-98820495D01*
X85828658Y-98766505D01*
X85764484Y-98703899D01*
X85743497Y-98682983D01*
X85526499Y-98465623D01*
X85691668Y-98223220D01*
X85741864Y-98148781D01*
X85785919Y-98081972D01*
X85821362Y-98026665D01*
X85845719Y-97986729D01*
X85856522Y-97966036D01*
X85856838Y-97964563D01*
X85851143Y-97945058D01*
X85835826Y-97905822D01*
X85813537Y-97853430D01*
X85797893Y-97818355D01*
X85768641Y-97751201D01*
X85741094Y-97683358D01*
X85719737Y-97626034D01*
X85713935Y-97608572D01*
X85697452Y-97561938D01*
X85681340Y-97525905D01*
X85672490Y-97512287D01*
X85652960Y-97503952D01*
X85610334Y-97492137D01*
X85550145Y-97478181D01*
X85477922Y-97463422D01*
X85445600Y-97457355D01*
X85363522Y-97442273D01*
X85284795Y-97427669D01*
X85217109Y-97414980D01*
X85168160Y-97405642D01*
X85158943Y-97403839D01*
X85082743Y-97388799D01*
X85082743Y-97071492D01*
X85082914Y-96967154D01*
X85083616Y-96888213D01*
X85085134Y-96831038D01*
X85087749Y-96791999D01*
X85091746Y-96767465D01*
X85097409Y-96753805D01*
X85105020Y-96747389D01*
X85108143Y-96746199D01*
X85126978Y-96741980D01*
X85168588Y-96733562D01*
X85227630Y-96721961D01*
X85298757Y-96708195D01*
X85376625Y-96693280D01*
X85455887Y-96678232D01*
X85531198Y-96664069D01*
X85597213Y-96651806D01*
X85648587Y-96642461D01*
X85679975Y-96637050D01*
X85686959Y-96636114D01*
X85693285Y-96623596D01*
X85707290Y-96590246D01*
X85726355Y-96542377D01*
X85733634Y-96523629D01*
X85762996Y-96451195D01*
X85797571Y-96371170D01*
X85828537Y-96303728D01*
X85851323Y-96252159D01*
X85866482Y-96209785D01*
X85871542Y-96183834D01*
X85870736Y-96180356D01*
X85860041Y-96163936D01*
X85835620Y-96127417D01*
X85800095Y-96074687D01*
X85756087Y-96009635D01*
X85706217Y-95936151D01*
X85696356Y-95921645D01*
X85638492Y-95835704D01*
X85595956Y-95770261D01*
X85567054Y-95722304D01*
X85550090Y-95688820D01*
X85543367Y-95666795D01*
X85545190Y-95653217D01*
X85545236Y-95653131D01*
X85559586Y-95635297D01*
X85591323Y-95600817D01*
X85637010Y-95553268D01*
X85693204Y-95496222D01*
X85756468Y-95433255D01*
X85763602Y-95426227D01*
X85843330Y-95349020D01*
X85904857Y-95292330D01*
X85949421Y-95255110D01*
X85978257Y-95236315D01*
X85990958Y-95233889D01*
X86009494Y-95244471D01*
X86047961Y-95268916D01*
X86102386Y-95304612D01*
X86168798Y-95348947D01*
X86243225Y-95399311D01*
X86260601Y-95411160D01*
X86507297Y-95579626D01*
X86618706Y-95529062D01*
X86686457Y-95499595D01*
X86759183Y-95469959D01*
X86821703Y-95446330D01*
X86824457Y-95445358D01*
X86873360Y-95427457D01*
X86911057Y-95412320D01*
X86929425Y-95403210D01*
X86929456Y-95403184D01*
X86935285Y-95386717D01*
X86945192Y-95346219D01*
X86958195Y-95286242D01*
X86973309Y-95211340D01*
X86989552Y-95126064D01*
X86990881Y-95118875D01*
X87007175Y-95031014D01*
X87022133Y-94951260D01*
X87034791Y-94884681D01*
X87044186Y-94836347D01*
X87049354Y-94811325D01*
X87049444Y-94810943D01*
X87052589Y-94800299D01*
X87058704Y-94792262D01*
X87071453Y-94786467D01*
X87094500Y-94782547D01*
X87131509Y-94780135D01*
X87186144Y-94778865D01*
X87262067Y-94778371D01*
X87362944Y-94778286D01*
X87376000Y-94778286D01*
X87479910Y-94778348D01*
G36*
X89520876Y-99492335D02*
G01*
X89562667Y-99511344D01*
X89595469Y-99534378D01*
X89619503Y-99560133D01*
X89636097Y-99593358D01*
X89646577Y-99638800D01*
X89652271Y-99701207D01*
X89654507Y-99785327D01*
X89654743Y-99840721D01*
X89654743Y-100056826D01*
X89617774Y-100073670D01*
X89588656Y-100085981D01*
X89574231Y-100090514D01*
X89571472Y-100077025D01*
X89569282Y-100040653D01*
X89567942Y-99987542D01*
X89567657Y-99945372D01*
X89566434Y-99884447D01*
X89563136Y-99836115D01*
X89558321Y-99806518D01*
X89554496Y-99800229D01*
X89528783Y-99806652D01*
X89488418Y-99823125D01*
X89441679Y-99845458D01*
X89396845Y-99869457D01*
X89362193Y-99890930D01*
X89346002Y-99905685D01*
X89345938Y-99905845D01*
X89347330Y-99933152D01*
X89359818Y-99959219D01*
X89381743Y-99980392D01*
X89413743Y-99987474D01*
X89441092Y-99986649D01*
X89479826Y-99986042D01*
X89500158Y-99995116D01*
X89512369Y-100019092D01*
X89513909Y-100023613D01*
X89519203Y-100057806D01*
X89505047Y-100078568D01*
X89468148Y-100088462D01*
X89428289Y-100090292D01*
X89356562Y-100076727D01*
X89319432Y-100057355D01*
X89273576Y-100011845D01*
X89249256Y-99955983D01*
X89247073Y-99896957D01*
X89267629Y-99841953D01*
X89298549Y-99807486D01*
X89329420Y-99788189D01*
X89377942Y-99763759D01*
X89434485Y-99738985D01*
X89443910Y-99735199D01*
X89506019Y-99707791D01*
X89541822Y-99683634D01*
X89553337Y-99659619D01*
X89542580Y-99632635D01*
X89524114Y-99611543D01*
X89480469Y-99585572D01*
X89432446Y-99583624D01*
X89388406Y-99603637D01*
X89356709Y-99643551D01*
X89352549Y-99653848D01*
X89328327Y-99691724D01*
X89292965Y-99719842D01*
X89248343Y-99742917D01*
X89248343Y-99677485D01*
X89250969Y-99637506D01*
X89262230Y-99605997D01*
X89287199Y-99572378D01*
X89311169Y-99546484D01*
X89348441Y-99509817D01*
X89377401Y-99490121D01*
X89408505Y-99482220D01*
X89443713Y-99480914D01*
X89520876Y-99492335D01*
G37*
X89520876Y-99492335D02*
X89562667Y-99511344D01*
X89595469Y-99534378D01*
X89619503Y-99560133D01*
X89636097Y-99593358D01*
X89646577Y-99638800D01*
X89652271Y-99701207D01*
X89654507Y-99785327D01*
X89654743Y-99840721D01*
X89654743Y-100056826D01*
X89617774Y-100073670D01*
X89588656Y-100085981D01*
X89574231Y-100090514D01*
X89571472Y-100077025D01*
X89569282Y-100040653D01*
X89567942Y-99987542D01*
X89567657Y-99945372D01*
X89566434Y-99884447D01*
X89563136Y-99836115D01*
X89558321Y-99806518D01*
X89554496Y-99800229D01*
X89528783Y-99806652D01*
X89488418Y-99823125D01*
X89441679Y-99845458D01*
X89396845Y-99869457D01*
X89362193Y-99890930D01*
X89346002Y-99905685D01*
X89345938Y-99905845D01*
X89347330Y-99933152D01*
X89359818Y-99959219D01*
X89381743Y-99980392D01*
X89413743Y-99987474D01*
X89441092Y-99986649D01*
X89479826Y-99986042D01*
X89500158Y-99995116D01*
X89512369Y-100019092D01*
X89513909Y-100023613D01*
X89519203Y-100057806D01*
X89505047Y-100078568D01*
X89468148Y-100088462D01*
X89428289Y-100090292D01*
X89356562Y-100076727D01*
X89319432Y-100057355D01*
X89273576Y-100011845D01*
X89249256Y-99955983D01*
X89247073Y-99896957D01*
X89267629Y-99841953D01*
X89298549Y-99807486D01*
X89329420Y-99788189D01*
X89377942Y-99763759D01*
X89434485Y-99738985D01*
X89443910Y-99735199D01*
X89506019Y-99707791D01*
X89541822Y-99683634D01*
X89553337Y-99659619D01*
X89542580Y-99632635D01*
X89524114Y-99611543D01*
X89480469Y-99585572D01*
X89432446Y-99583624D01*
X89388406Y-99603637D01*
X89356709Y-99643551D01*
X89352549Y-99653848D01*
X89328327Y-99691724D01*
X89292965Y-99719842D01*
X89248343Y-99742917D01*
X89248343Y-99677485D01*
X89250969Y-99637506D01*
X89262230Y-99605997D01*
X89287199Y-99572378D01*
X89311169Y-99546484D01*
X89348441Y-99509817D01*
X89377401Y-99490121D01*
X89408505Y-99482220D01*
X89443713Y-99480914D01*
X89520876Y-99492335D01*
G36*
X85247550Y-99572212D02*
G01*
X85281456Y-99523302D01*
X85342653Y-99473878D01*
X85410063Y-99449359D01*
X85478880Y-99447797D01*
X85544303Y-99467239D01*
X85601527Y-99505735D01*
X85645749Y-99561335D01*
X85672167Y-99632086D01*
X85677510Y-99684162D01*
X85676903Y-99705893D01*
X85671822Y-99722531D01*
X85657855Y-99737437D01*
X85630589Y-99753973D01*
X85585612Y-99775498D01*
X85518511Y-99805374D01*
X85518171Y-99805524D01*
X85456407Y-99833813D01*
X85405759Y-99858933D01*
X85371404Y-99878179D01*
X85358518Y-99888848D01*
X85358514Y-99888934D01*
X85369872Y-99912166D01*
X85396431Y-99937774D01*
X85426923Y-99956221D01*
X85442370Y-99959886D01*
X85484515Y-99947212D01*
X85520808Y-99915471D01*
X85538517Y-99880572D01*
X85555552Y-99854845D01*
X85588922Y-99825546D01*
X85628149Y-99800235D01*
X85662756Y-99786471D01*
X85669993Y-99785714D01*
X85678139Y-99798160D01*
X85678630Y-99829972D01*
X85672643Y-99872866D01*
X85661357Y-99918558D01*
X85645950Y-99958761D01*
X85645171Y-99960322D01*
X85598804Y-100025062D01*
X85538711Y-100069097D01*
X85470465Y-100090711D01*
X85399638Y-100088185D01*
X85331804Y-100059804D01*
X85328788Y-100057808D01*
X85275427Y-100009448D01*
X85240340Y-99946352D01*
X85220922Y-99863387D01*
X85218316Y-99840078D01*
X85213701Y-99730055D01*
X85219233Y-99678748D01*
X85358514Y-99678748D01*
X85360324Y-99710753D01*
X85370222Y-99720093D01*
X85394898Y-99713105D01*
X85433795Y-99696587D01*
X85477275Y-99675881D01*
X85478356Y-99675333D01*
X85515209Y-99655949D01*
X85530000Y-99643013D01*
X85526353Y-99629451D01*
X85510995Y-99611632D01*
X85471923Y-99585845D01*
X85429846Y-99583950D01*
X85392103Y-99602717D01*
X85366034Y-99638915D01*
X85358514Y-99678748D01*
X85219233Y-99678748D01*
X85223194Y-99642027D01*
X85247550Y-99572212D01*
G37*
X85247550Y-99572212D02*
X85281456Y-99523302D01*
X85342653Y-99473878D01*
X85410063Y-99449359D01*
X85478880Y-99447797D01*
X85544303Y-99467239D01*
X85601527Y-99505735D01*
X85645749Y-99561335D01*
X85672167Y-99632086D01*
X85677510Y-99684162D01*
X85676903Y-99705893D01*
X85671822Y-99722531D01*
X85657855Y-99737437D01*
X85630589Y-99753973D01*
X85585612Y-99775498D01*
X85518511Y-99805374D01*
X85518171Y-99805524D01*
X85456407Y-99833813D01*
X85405759Y-99858933D01*
X85371404Y-99878179D01*
X85358518Y-99888848D01*
X85358514Y-99888934D01*
X85369872Y-99912166D01*
X85396431Y-99937774D01*
X85426923Y-99956221D01*
X85442370Y-99959886D01*
X85484515Y-99947212D01*
X85520808Y-99915471D01*
X85538517Y-99880572D01*
X85555552Y-99854845D01*
X85588922Y-99825546D01*
X85628149Y-99800235D01*
X85662756Y-99786471D01*
X85669993Y-99785714D01*
X85678139Y-99798160D01*
X85678630Y-99829972D01*
X85672643Y-99872866D01*
X85661357Y-99918558D01*
X85645950Y-99958761D01*
X85645171Y-99960322D01*
X85598804Y-100025062D01*
X85538711Y-100069097D01*
X85470465Y-100090711D01*
X85399638Y-100088185D01*
X85331804Y-100059804D01*
X85328788Y-100057808D01*
X85275427Y-100009448D01*
X85240340Y-99946352D01*
X85220922Y-99863387D01*
X85218316Y-99840078D01*
X85213701Y-99730055D01*
X85219233Y-99678748D01*
X85358514Y-99678748D01*
X85360324Y-99710753D01*
X85370222Y-99720093D01*
X85394898Y-99713105D01*
X85433795Y-99696587D01*
X85477275Y-99675881D01*
X85478356Y-99675333D01*
X85515209Y-99655949D01*
X85530000Y-99643013D01*
X85526353Y-99629451D01*
X85510995Y-99611632D01*
X85471923Y-99585845D01*
X85429846Y-99583950D01*
X85392103Y-99602717D01*
X85366034Y-99638915D01*
X85358514Y-99678748D01*
X85219233Y-99678748D01*
X85223194Y-99642027D01*
X85247550Y-99572212D01*
G36*
X87905926Y-99485755D02*
G01*
X87971858Y-99510084D01*
X88025273Y-99553117D01*
X88046164Y-99583409D01*
X88068939Y-99638994D01*
X88068466Y-99679186D01*
X88044562Y-99706217D01*
X88035717Y-99710813D01*
X87997530Y-99725144D01*
X87978028Y-99721472D01*
X87971422Y-99697407D01*
X87971086Y-99684114D01*
X87958992Y-99635210D01*
X87927471Y-99600999D01*
X87883659Y-99584476D01*
X87834695Y-99588634D01*
X87794894Y-99610227D01*
X87781450Y-99622544D01*
X87771921Y-99637487D01*
X87765485Y-99660075D01*
X87761317Y-99695328D01*
X87758597Y-99748266D01*
X87756502Y-99823907D01*
X87755960Y-99847857D01*
X87753981Y-99929790D01*
X87751731Y-99987455D01*
X87748357Y-100025608D01*
X87743006Y-100049004D01*
X87734824Y-100062398D01*
X87722959Y-100070545D01*
X87715362Y-100074144D01*
X87683102Y-100086452D01*
X87664111Y-100090514D01*
X87657836Y-100076948D01*
X87654006Y-100035934D01*
X87652600Y-99966999D01*
X87653598Y-99869669D01*
X87653908Y-99854657D01*
X87656101Y-99765859D01*
X87658693Y-99701019D01*
X87662382Y-99655067D01*
X87667864Y-99622935D01*
X87675835Y-99599553D01*
X87686993Y-99579852D01*
X87692830Y-99571410D01*
X87726296Y-99534057D01*
X87763727Y-99505003D01*
X87768309Y-99502467D01*
X87835426Y-99482443D01*
X87905926Y-99485755D01*
G37*
X87905926Y-99485755D02*
X87971858Y-99510084D01*
X88025273Y-99553117D01*
X88046164Y-99583409D01*
X88068939Y-99638994D01*
X88068466Y-99679186D01*
X88044562Y-99706217D01*
X88035717Y-99710813D01*
X87997530Y-99725144D01*
X87978028Y-99721472D01*
X87971422Y-99697407D01*
X87971086Y-99684114D01*
X87958992Y-99635210D01*
X87927471Y-99600999D01*
X87883659Y-99584476D01*
X87834695Y-99588634D01*
X87794894Y-99610227D01*
X87781450Y-99622544D01*
X87771921Y-99637487D01*
X87765485Y-99660075D01*
X87761317Y-99695328D01*
X87758597Y-99748266D01*
X87756502Y-99823907D01*
X87755960Y-99847857D01*
X87753981Y-99929790D01*
X87751731Y-99987455D01*
X87748357Y-100025608D01*
X87743006Y-100049004D01*
X87734824Y-100062398D01*
X87722959Y-100070545D01*
X87715362Y-100074144D01*
X87683102Y-100086452D01*
X87664111Y-100090514D01*
X87657836Y-100076948D01*
X87654006Y-100035934D01*
X87652600Y-99966999D01*
X87653598Y-99869669D01*
X87653908Y-99854657D01*
X87656101Y-99765859D01*
X87658693Y-99701019D01*
X87662382Y-99655067D01*
X87667864Y-99622935D01*
X87675835Y-99599553D01*
X87686993Y-99579852D01*
X87692830Y-99571410D01*
X87726296Y-99534057D01*
X87763727Y-99505003D01*
X87768309Y-99502467D01*
X87835426Y-99482443D01*
X87905926Y-99485755D01*
G36*
X84669677Y-99686333D02*
G01*
X84672450Y-99638958D01*
X84676388Y-99605290D01*
X84681849Y-99581498D01*
X84689192Y-99563753D01*
X84698777Y-99548224D01*
X84702887Y-99542381D01*
X84757405Y-99487185D01*
X84826336Y-99455890D01*
X84906072Y-99447165D01*
X84975744Y-99455918D01*
X85031201Y-99483568D01*
X85080148Y-99534480D01*
X85093629Y-99553338D01*
X85108314Y-99578015D01*
X85117842Y-99604816D01*
X85123293Y-99640587D01*
X85125747Y-99692169D01*
X85126286Y-99760267D01*
X85123852Y-99853588D01*
X85115394Y-99923657D01*
X85099174Y-99975931D01*
X85073454Y-100015869D01*
X85036497Y-100048929D01*
X85033782Y-100050886D01*
X84997360Y-100070908D01*
X84953502Y-100080815D01*
X84897724Y-100083257D01*
X84807048Y-100083257D01*
X84807010Y-100171283D01*
X84806166Y-100220308D01*
X84801024Y-100249065D01*
X84787587Y-100266311D01*
X84761858Y-100280808D01*
X84755679Y-100283769D01*
X84726764Y-100297648D01*
X84704376Y-100306414D01*
X84687729Y-100307171D01*
X84676036Y-100297023D01*
X84668510Y-100273073D01*
X84664366Y-100232426D01*
X84662815Y-100172186D01*
X84663071Y-100089455D01*
X84664349Y-99981339D01*
X84664748Y-99949000D01*
X84666185Y-99837524D01*
X84667472Y-99764603D01*
X84806971Y-99764603D01*
X84807755Y-99826499D01*
X84811240Y-99866997D01*
X84819124Y-99893708D01*
X84833105Y-99914244D01*
X84842597Y-99924260D01*
X84881404Y-99953567D01*
X84915763Y-99955952D01*
X84951216Y-99931750D01*
X84952114Y-99930857D01*
X84966539Y-99912153D01*
X84975313Y-99886732D01*
X84979739Y-99847584D01*
X84981118Y-99787697D01*
X84981143Y-99774430D01*
X84977812Y-99691901D01*
X84966969Y-99634691D01*
X84947340Y-99599766D01*
X84917650Y-99584094D01*
X84900491Y-99582514D01*
X84859766Y-99589926D01*
X84831832Y-99614330D01*
X84815017Y-99658980D01*
X84807650Y-99727130D01*
X84806971Y-99764603D01*
X84667472Y-99764603D01*
X84667708Y-99751245D01*
X84669677Y-99686333D01*
G37*
X84669677Y-99686333D02*
X84672450Y-99638958D01*
X84676388Y-99605290D01*
X84681849Y-99581498D01*
X84689192Y-99563753D01*
X84698777Y-99548224D01*
X84702887Y-99542381D01*
X84757405Y-99487185D01*
X84826336Y-99455890D01*
X84906072Y-99447165D01*
X84975744Y-99455918D01*
X85031201Y-99483568D01*
X85080148Y-99534480D01*
X85093629Y-99553338D01*
X85108314Y-99578015D01*
X85117842Y-99604816D01*
X85123293Y-99640587D01*
X85125747Y-99692169D01*
X85126286Y-99760267D01*
X85123852Y-99853588D01*
X85115394Y-99923657D01*
X85099174Y-99975931D01*
X85073454Y-100015869D01*
X85036497Y-100048929D01*
X85033782Y-100050886D01*
X84997360Y-100070908D01*
X84953502Y-100080815D01*
X84897724Y-100083257D01*
X84807048Y-100083257D01*
X84807010Y-100171283D01*
X84806166Y-100220308D01*
X84801024Y-100249065D01*
X84787587Y-100266311D01*
X84761858Y-100280808D01*
X84755679Y-100283769D01*
X84726764Y-100297648D01*
X84704376Y-100306414D01*
X84687729Y-100307171D01*
X84676036Y-100297023D01*
X84668510Y-100273073D01*
X84664366Y-100232426D01*
X84662815Y-100172186D01*
X84663071Y-100089455D01*
X84664349Y-99981339D01*
X84664748Y-99949000D01*
X84666185Y-99837524D01*
X84667472Y-99764603D01*
X84806971Y-99764603D01*
X84807755Y-99826499D01*
X84811240Y-99866997D01*
X84819124Y-99893708D01*
X84833105Y-99914244D01*
X84842597Y-99924260D01*
X84881404Y-99953567D01*
X84915763Y-99955952D01*
X84951216Y-99931750D01*
X84952114Y-99930857D01*
X84966539Y-99912153D01*
X84975313Y-99886732D01*
X84979739Y-99847584D01*
X84981118Y-99787697D01*
X84981143Y-99774430D01*
X84977812Y-99691901D01*
X84966969Y-99634691D01*
X84947340Y-99599766D01*
X84917650Y-99584094D01*
X84900491Y-99582514D01*
X84859766Y-99589926D01*
X84831832Y-99614330D01*
X84815017Y-99658980D01*
X84807650Y-99727130D01*
X84806971Y-99764603D01*
X84667472Y-99764603D01*
X84667708Y-99751245D01*
X84669677Y-99686333D01*
D12*
%TO.C,TP4*%
X48080000Y-36650000D02*
X50980000Y-36650000D01*
X50980000Y-39550000D02*
X48080000Y-39550000D01*
X48080000Y-39550000D02*
X48080000Y-36650000D01*
X50980000Y-36650000D02*
X50980000Y-39550000D01*
%TO.C,TP3*%
X53160000Y-36650000D02*
X56060000Y-36650000D01*
X56060000Y-39550000D02*
X53160000Y-39550000D01*
X53160000Y-39550000D02*
X53160000Y-36650000D01*
X56060000Y-36650000D02*
X56060000Y-39550000D01*
%TO.C,TP2*%
X41730000Y-36650000D02*
X44630000Y-36650000D01*
X44630000Y-39550000D02*
X41730000Y-39550000D01*
X41730000Y-39550000D02*
X41730000Y-36650000D01*
X44630000Y-36650000D02*
X44630000Y-39550000D01*
%TO.C,TP1*%
X35380000Y-36650000D02*
X38280000Y-36650000D01*
X38280000Y-39550000D02*
X35380000Y-39550000D01*
X35380000Y-39550000D02*
X35380000Y-36650000D01*
X38280000Y-36650000D02*
X38280000Y-39550000D01*
%TO.C,TP8*%
X27010000Y-87970000D02*
X31410000Y-87970000D01*
X31410000Y-92370000D02*
X27010000Y-92370000D01*
X27010000Y-92370000D02*
X27010000Y-87970000D01*
X31410000Y-87970000D02*
X31410000Y-92370000D01*
%TO.C,TP7*%
X27010000Y-71460000D02*
X31410000Y-71460000D01*
X31410000Y-75860000D02*
X27010000Y-75860000D01*
X27010000Y-75860000D02*
X27010000Y-71460000D01*
X31410000Y-71460000D02*
X31410000Y-75860000D01*
%TO.C,TP6*%
X31410000Y-53680000D02*
X31410000Y-58080000D01*
X27010000Y-58080000D02*
X27010000Y-53680000D01*
X31410000Y-58080000D02*
X27010000Y-58080000D01*
X27010000Y-53680000D02*
X31410000Y-53680000D01*
%TO.C,TP5*%
X27010000Y-44790000D02*
X31410000Y-44790000D01*
X31410000Y-49190000D02*
X27010000Y-49190000D01*
X27010000Y-49190000D02*
X27010000Y-44790000D01*
X31410000Y-44790000D02*
X31410000Y-49190000D01*
%TO.C,C4*%
X87415000Y-78700000D02*
X87730000Y-78700000D01*
X84990000Y-78700000D02*
X85305000Y-78700000D01*
X84990000Y-83940000D02*
X85305000Y-83940000D01*
X87730000Y-83940000D02*
X87730000Y-78700000D01*
X84990000Y-83940000D02*
X84990000Y-78700000D01*
X87415000Y-83940000D02*
X87730000Y-83940000D01*
%TO.C,C3*%
X75270000Y-37429000D02*
X75270000Y-39600000D01*
X75430000Y-37451000D02*
X75430000Y-39600000D01*
X75390000Y-41680000D02*
X75390000Y-43835000D01*
X75711000Y-37509000D02*
X75711000Y-39600000D01*
X71724759Y-38486000D02*
X71724759Y-39116000D01*
X78151000Y-40238000D02*
X78151000Y-41042000D01*
X74950000Y-37410000D02*
X74950000Y-43870000D01*
X75550000Y-41680000D02*
X75550000Y-43807000D01*
X78071000Y-39838000D02*
X78071000Y-41442000D01*
X75310000Y-37434000D02*
X75310000Y-39600000D01*
X76631000Y-41680000D02*
X76631000Y-43382000D01*
X76511000Y-37828000D02*
X76511000Y-39600000D01*
X76871000Y-41680000D02*
X76871000Y-43218000D01*
X77511000Y-38696000D02*
X77511000Y-42584000D01*
X76191000Y-41680000D02*
X76191000Y-43610000D01*
X76671000Y-37924000D02*
X76671000Y-39600000D01*
X75791000Y-37530000D02*
X75791000Y-39600000D01*
X77391000Y-38548000D02*
X77391000Y-42732000D01*
X76991000Y-41680000D02*
X76991000Y-43124000D01*
X75470000Y-37458000D02*
X75470000Y-39600000D01*
X75110000Y-37416000D02*
X75110000Y-43864000D01*
X77311000Y-38458000D02*
X77311000Y-42822000D01*
X75590000Y-37481000D02*
X75590000Y-39600000D01*
X76911000Y-41680000D02*
X76911000Y-43188000D01*
X76671000Y-41680000D02*
X76671000Y-43356000D01*
X75510000Y-37465000D02*
X75510000Y-39600000D01*
X75350000Y-37439000D02*
X75350000Y-39600000D01*
X77631000Y-38864000D02*
X77631000Y-42416000D01*
X75190000Y-41680000D02*
X75190000Y-43858000D01*
X76151000Y-41680000D02*
X76151000Y-43626000D01*
X76231000Y-41680000D02*
X76231000Y-43592000D01*
X75430000Y-41680000D02*
X75430000Y-43829000D01*
X75230000Y-37425000D02*
X75230000Y-39600000D01*
X77471000Y-38645000D02*
X77471000Y-42635000D01*
X75390000Y-37445000D02*
X75390000Y-39600000D01*
X75150000Y-41680000D02*
X75150000Y-43862000D01*
X75550000Y-37473000D02*
X75550000Y-39600000D01*
X77351000Y-38503000D02*
X77351000Y-42777000D01*
X77071000Y-38224000D02*
X77071000Y-39600000D01*
X77671000Y-38926000D02*
X77671000Y-42354000D01*
X76551000Y-37850000D02*
X76551000Y-39600000D01*
X75270000Y-41680000D02*
X75270000Y-43851000D01*
X75631000Y-41680000D02*
X75631000Y-43790000D01*
X75510000Y-41680000D02*
X75510000Y-43815000D01*
X76471000Y-37806000D02*
X76471000Y-39600000D01*
X76791000Y-41680000D02*
X76791000Y-43276000D01*
X77711000Y-38990000D02*
X77711000Y-42290000D01*
X76351000Y-41680000D02*
X76351000Y-43536000D01*
X77191000Y-41680000D02*
X77191000Y-42945000D01*
X76391000Y-41680000D02*
X76391000Y-43516000D01*
X75871000Y-41680000D02*
X75871000Y-43726000D01*
X76831000Y-38033000D02*
X76831000Y-39600000D01*
X76431000Y-41680000D02*
X76431000Y-43496000D01*
X76751000Y-37976000D02*
X76751000Y-39600000D01*
X77751000Y-39059000D02*
X77751000Y-42221000D01*
X75671000Y-37499000D02*
X75671000Y-39600000D01*
X77191000Y-38335000D02*
X77191000Y-39600000D01*
X74990000Y-37410000D02*
X74990000Y-43870000D01*
X77151000Y-38297000D02*
X77151000Y-39600000D01*
X77791000Y-39131000D02*
X77791000Y-42149000D01*
X76111000Y-41680000D02*
X76111000Y-43642000D01*
X76591000Y-37874000D02*
X76591000Y-39600000D01*
X77991000Y-39581000D02*
X77991000Y-41699000D01*
X75470000Y-41680000D02*
X75470000Y-43822000D01*
X75190000Y-37422000D02*
X75190000Y-39600000D01*
X77831000Y-39208000D02*
X77831000Y-42072000D01*
X76191000Y-37670000D02*
X76191000Y-39600000D01*
X77591000Y-38806000D02*
X77591000Y-42474000D01*
X71409759Y-38801000D02*
X72039759Y-38801000D01*
X76831000Y-41680000D02*
X76831000Y-43247000D01*
X75751000Y-41680000D02*
X75751000Y-43761000D01*
X76471000Y-41680000D02*
X76471000Y-43474000D01*
X75911000Y-37566000D02*
X75911000Y-39600000D01*
X75791000Y-41680000D02*
X75791000Y-43750000D01*
X75871000Y-37554000D02*
X75871000Y-39600000D01*
X76311000Y-41680000D02*
X76311000Y-43556000D01*
X76111000Y-37638000D02*
X76111000Y-39600000D01*
X77031000Y-41680000D02*
X77031000Y-43090000D01*
X76351000Y-37744000D02*
X76351000Y-39600000D01*
X75831000Y-41680000D02*
X75831000Y-43738000D01*
X75751000Y-37519000D02*
X75751000Y-39600000D01*
X75230000Y-41680000D02*
X75230000Y-43855000D01*
X76551000Y-41680000D02*
X76551000Y-43430000D01*
X75590000Y-41680000D02*
X75590000Y-43799000D01*
X75991000Y-37593000D02*
X75991000Y-39600000D01*
X77431000Y-38596000D02*
X77431000Y-42684000D01*
X78111000Y-40007000D02*
X78111000Y-41273000D01*
X76631000Y-37898000D02*
X76631000Y-39600000D01*
X77271000Y-38416000D02*
X77271000Y-42864000D01*
X75350000Y-41680000D02*
X75350000Y-43841000D01*
X76951000Y-38124000D02*
X76951000Y-39600000D01*
X77871000Y-39290000D02*
X77871000Y-41990000D01*
X75951000Y-37579000D02*
X75951000Y-39600000D01*
X74910000Y-37410000D02*
X74910000Y-43870000D01*
X76711000Y-41680000D02*
X76711000Y-43330000D01*
X75911000Y-41680000D02*
X75911000Y-43714000D01*
X76271000Y-37706000D02*
X76271000Y-39600000D01*
X75310000Y-41680000D02*
X75310000Y-43846000D01*
X77911000Y-39378000D02*
X77911000Y-41902000D01*
X77551000Y-38750000D02*
X77551000Y-42530000D01*
X76071000Y-41680000D02*
X76071000Y-43658000D01*
X76711000Y-37950000D02*
X76711000Y-39600000D01*
X77231000Y-38375000D02*
X77231000Y-42905000D01*
X75030000Y-37412000D02*
X75030000Y-43868000D01*
X76231000Y-37688000D02*
X76231000Y-39600000D01*
X77151000Y-41680000D02*
X77151000Y-42983000D01*
X76031000Y-37607000D02*
X76031000Y-39600000D01*
X76311000Y-37724000D02*
X76311000Y-39600000D01*
X76511000Y-41680000D02*
X76511000Y-43452000D01*
X75711000Y-41680000D02*
X75711000Y-43771000D01*
X76391000Y-37764000D02*
X76391000Y-39600000D01*
X76791000Y-38004000D02*
X76791000Y-39600000D01*
X77111000Y-38260000D02*
X77111000Y-39600000D01*
X76431000Y-37784000D02*
X76431000Y-39600000D01*
X75951000Y-41680000D02*
X75951000Y-43701000D01*
X76151000Y-37654000D02*
X76151000Y-39600000D01*
X77031000Y-38190000D02*
X77031000Y-39600000D01*
X75831000Y-37542000D02*
X75831000Y-39600000D01*
X75671000Y-41680000D02*
X75671000Y-43781000D01*
X77951000Y-39475000D02*
X77951000Y-41805000D01*
X76911000Y-38092000D02*
X76911000Y-39600000D01*
X76951000Y-41680000D02*
X76951000Y-43156000D01*
X76031000Y-41680000D02*
X76031000Y-43673000D01*
X75150000Y-37418000D02*
X75150000Y-39600000D01*
X75070000Y-37413000D02*
X75070000Y-43867000D01*
X75991000Y-41680000D02*
X75991000Y-43687000D01*
X76271000Y-41680000D02*
X76271000Y-43574000D01*
X76591000Y-41680000D02*
X76591000Y-43406000D01*
X76071000Y-37622000D02*
X76071000Y-39600000D01*
X76751000Y-41680000D02*
X76751000Y-43304000D01*
X77111000Y-41680000D02*
X77111000Y-43020000D01*
X75631000Y-37490000D02*
X75631000Y-39600000D01*
X76871000Y-38062000D02*
X76871000Y-39600000D01*
X78031000Y-39700000D02*
X78031000Y-41580000D01*
X77071000Y-41680000D02*
X77071000Y-43056000D01*
X76991000Y-38156000D02*
X76991000Y-39600000D01*
X78180000Y-40640000D02*
G75*
G03*
X78180000Y-40640000I-3270000J0D01*
G01*
%TO.C,U2*%
X60790000Y-76090000D02*
X60790000Y-86370000D01*
X81290000Y-83880000D02*
X81290000Y-78580000D01*
X81350000Y-86370000D02*
X81350000Y-76090000D01*
X60850000Y-82230000D02*
X60850000Y-83880000D01*
X81290000Y-78580000D02*
X60850000Y-78580000D01*
X81350000Y-76090000D02*
X60790000Y-76090000D01*
X60850000Y-83880000D02*
X81290000Y-83880000D01*
X60790000Y-86370000D02*
X81350000Y-86370000D01*
X60850000Y-78580000D02*
X60850000Y-80230000D01*
X60850000Y-82230000D02*
G75*
G03*
X60850000Y-80230000I0J1000000D01*
G01*
%TO.C,U8*%
X32890000Y-86410000D02*
X53450000Y-86410000D01*
X32950000Y-83920000D02*
X53390000Y-83920000D01*
X53450000Y-86410000D02*
X53450000Y-76130000D01*
X53390000Y-78620000D02*
X32950000Y-78620000D01*
X53450000Y-76130000D02*
X32890000Y-76130000D01*
X32890000Y-76130000D02*
X32890000Y-86410000D01*
X32950000Y-82270000D02*
X32950000Y-83920000D01*
X53390000Y-83920000D02*
X53390000Y-78620000D01*
X32950000Y-78620000D02*
X32950000Y-80270000D01*
X32950000Y-82270000D02*
G75*
G03*
X32950000Y-80270000I0J1000000D01*
G01*
%TO.C,R4*%
X62730000Y-74990000D02*
X69270000Y-74990000D01*
X69270000Y-72250000D02*
X69270000Y-72580000D01*
X62730000Y-74660000D02*
X62730000Y-74990000D01*
X62730000Y-72250000D02*
X69270000Y-72250000D01*
X69270000Y-74990000D02*
X69270000Y-74660000D01*
X62730000Y-72580000D02*
X62730000Y-72250000D01*
%TO.C,C8*%
X57010000Y-48100000D02*
X57325000Y-48100000D01*
X59435000Y-53340000D02*
X59750000Y-53340000D01*
X57010000Y-53340000D02*
X57010000Y-48100000D01*
X59435000Y-48100000D02*
X59750000Y-48100000D01*
X57010000Y-53340000D02*
X57325000Y-53340000D01*
X59750000Y-53340000D02*
X59750000Y-48100000D01*
%TO.C,U1*%
X81350000Y-71130000D02*
X81350000Y-60850000D01*
X81350000Y-60850000D02*
X60790000Y-60850000D01*
X60850000Y-68640000D02*
X81290000Y-68640000D01*
X81290000Y-63340000D02*
X60850000Y-63340000D01*
X60790000Y-71130000D02*
X81350000Y-71130000D01*
X60790000Y-60850000D02*
X60790000Y-71130000D01*
X60850000Y-63340000D02*
X60850000Y-64990000D01*
X60850000Y-66990000D02*
X60850000Y-68640000D01*
X81290000Y-68640000D02*
X81290000Y-63340000D01*
X60850000Y-66990000D02*
G75*
G03*
X60850000Y-64990000I0J1000000D01*
G01*
%TO.C,U3*%
X88835000Y-53440000D02*
X106735000Y-53440000D01*
X106735000Y-53440000D02*
X106735000Y-48140000D01*
X88775000Y-45650000D02*
X88775000Y-55930000D01*
X88775000Y-55930000D02*
X106795000Y-55930000D01*
X88835000Y-51790000D02*
X88835000Y-53440000D01*
X106795000Y-55930000D02*
X106795000Y-45650000D01*
X106735000Y-48140000D02*
X88835000Y-48140000D01*
X106795000Y-45650000D02*
X88775000Y-45650000D01*
X88835000Y-48140000D02*
X88835000Y-49790000D01*
X88835000Y-51790000D02*
G75*
G03*
X88835000Y-49790000I0J1000000D01*
G01*
%TO.C,D2*%
X35027000Y-92943000D02*
X35027000Y-96033000D01*
X40577000Y-94488462D02*
G75*
G03*
X35027000Y-92943170I-2990000J462D01*
G01*
X35027000Y-96032830D02*
G75*
G03*
X40577000Y-94487538I2560000J1544830D01*
G01*
X40087000Y-94488000D02*
G75*
G03*
X40087000Y-94488000I-2500000J0D01*
G01*
%TO.C,U7*%
X32950000Y-67030000D02*
X32950000Y-68680000D01*
X53390000Y-63380000D02*
X32950000Y-63380000D01*
X32890000Y-71170000D02*
X53450000Y-71170000D01*
X32950000Y-68680000D02*
X53390000Y-68680000D01*
X53450000Y-71170000D02*
X53450000Y-60890000D01*
X32950000Y-63380000D02*
X32950000Y-65030000D01*
X32890000Y-60890000D02*
X32890000Y-71170000D01*
X53450000Y-60890000D02*
X32890000Y-60890000D01*
X53390000Y-68680000D02*
X53390000Y-63380000D01*
X32950000Y-67030000D02*
G75*
G03*
X32950000Y-65030000I0J1000000D01*
G01*
%TO.C,R2*%
X54332000Y-97758000D02*
X54002000Y-97758000D01*
X56412000Y-97758000D02*
X56742000Y-97758000D01*
X54002000Y-97758000D02*
X54002000Y-91218000D01*
X56742000Y-91218000D02*
X56412000Y-91218000D01*
X54002000Y-91218000D02*
X54332000Y-91218000D01*
X56742000Y-97758000D02*
X56742000Y-91218000D01*
%TO.C,J3*%
X99120000Y-39709000D02*
X97790000Y-39709000D01*
X96520000Y-37049000D02*
X96520000Y-39709000D01*
X99120000Y-38379000D02*
X99120000Y-39709000D01*
X96520000Y-39709000D02*
X83760000Y-39709000D01*
X96520000Y-37049000D02*
X83760000Y-37049000D01*
X83760000Y-37049000D02*
X83760000Y-39709000D01*
%TO.C,C10*%
X84990000Y-48220000D02*
X85305000Y-48220000D01*
X84990000Y-53460000D02*
X84990000Y-48220000D01*
X87730000Y-53460000D02*
X87730000Y-48220000D01*
X87415000Y-53460000D02*
X87730000Y-53460000D01*
X87415000Y-48220000D02*
X87730000Y-48220000D01*
X84990000Y-53460000D02*
X85305000Y-53460000D01*
%TO.C,C7*%
X57010000Y-83900000D02*
X57325000Y-83900000D01*
X59750000Y-83900000D02*
X59750000Y-78660000D01*
X57010000Y-83900000D02*
X57010000Y-78660000D01*
X59435000Y-78660000D02*
X59750000Y-78660000D01*
X59435000Y-83900000D02*
X59750000Y-83900000D01*
X57010000Y-78660000D02*
X57325000Y-78660000D01*
%TO.C,X1*%
X32730000Y-45100000D02*
X32730000Y-57250000D01*
X52880000Y-44350000D02*
X33480000Y-44350000D01*
X32730000Y-57250000D02*
X52880000Y-57250000D01*
X53630000Y-56500000D02*
X53630000Y-45100000D01*
X53630000Y-45100000D02*
G75*
G03*
X52880000Y-44350000I-750000J0D01*
G01*
X33480000Y-44350000D02*
G75*
G03*
X32730000Y-45100000I0J-750000D01*
G01*
X52880000Y-57250000D02*
G75*
G03*
X53630000Y-56500000I0J750000D01*
G01*
%TO.C,C2*%
X78740000Y-59435000D02*
X78740000Y-59750000D01*
X73500000Y-57010000D02*
X78740000Y-57010000D01*
X73500000Y-59435000D02*
X73500000Y-59750000D01*
X73500000Y-59750000D02*
X78740000Y-59750000D01*
X78740000Y-57010000D02*
X78740000Y-57325000D01*
X73500000Y-57010000D02*
X73500000Y-57325000D01*
%TO.C,J2*%
X100076000Y-90135000D02*
X100076000Y-92795000D01*
X82236000Y-90135000D02*
X82236000Y-92795000D01*
X102676000Y-92795000D02*
X101346000Y-92795000D01*
X100076000Y-92795000D02*
X82236000Y-92795000D01*
X102676000Y-91465000D02*
X102676000Y-92795000D01*
X100076000Y-90135000D02*
X82236000Y-90135000D01*
%TO.C,C1*%
X67430000Y-57365000D02*
X67430000Y-57050000D01*
X67430000Y-59790000D02*
X62190000Y-59790000D01*
X67430000Y-57050000D02*
X62190000Y-57050000D01*
X62190000Y-59790000D02*
X62190000Y-59475000D01*
X62190000Y-57365000D02*
X62190000Y-57050000D01*
X67430000Y-59790000D02*
X67430000Y-59475000D01*
%TO.C,U4*%
X106795000Y-71170000D02*
X106795000Y-60890000D01*
X88835000Y-67030000D02*
X88835000Y-68680000D01*
X88775000Y-71170000D02*
X106795000Y-71170000D01*
X106735000Y-68680000D02*
X106735000Y-63380000D01*
X106795000Y-60890000D02*
X88775000Y-60890000D01*
X88775000Y-60890000D02*
X88775000Y-71170000D01*
X106735000Y-63380000D02*
X88835000Y-63380000D01*
X88835000Y-63380000D02*
X88835000Y-65030000D01*
X88835000Y-68680000D02*
X106735000Y-68680000D01*
X88835000Y-67030000D02*
G75*
G03*
X88835000Y-65030000I0J1000000D01*
G01*
%TO.C,C6*%
X29110000Y-78620000D02*
X29425000Y-78620000D01*
X31535000Y-83860000D02*
X31850000Y-83860000D01*
X29110000Y-83860000D02*
X29110000Y-78620000D01*
X31850000Y-83860000D02*
X31850000Y-78620000D01*
X29110000Y-83860000D02*
X29425000Y-83860000D01*
X31535000Y-78620000D02*
X31850000Y-78620000D01*
%TO.C,J1*%
X79816000Y-92770000D02*
X78486000Y-92770000D01*
X79816000Y-91440000D02*
X79816000Y-92770000D01*
X59376000Y-90110000D02*
X59376000Y-92770000D01*
X77216000Y-92770000D02*
X59376000Y-92770000D01*
X77216000Y-90110000D02*
X77216000Y-92770000D01*
X77216000Y-90110000D02*
X59376000Y-90110000D01*
%TO.C,D1*%
X47219000Y-92943000D02*
X47219000Y-96033000D01*
X47219000Y-96032830D02*
G75*
G03*
X52769000Y-94487538I2560000J1544830D01*
G01*
X52769000Y-94488462D02*
G75*
G03*
X47219000Y-92943170I-2990000J462D01*
G01*
X52279000Y-94488000D02*
G75*
G03*
X52279000Y-94488000I-2500000J0D01*
G01*
%TO.C,C11*%
X84990000Y-68660000D02*
X85305000Y-68660000D01*
X87415000Y-68660000D02*
X87730000Y-68660000D01*
X84990000Y-68660000D02*
X84990000Y-63420000D01*
X87730000Y-68660000D02*
X87730000Y-63420000D01*
X84990000Y-63420000D02*
X85305000Y-63420000D01*
X87415000Y-63420000D02*
X87730000Y-63420000D01*
%TO.C,C5*%
X59435000Y-63420000D02*
X59750000Y-63420000D01*
X57010000Y-68660000D02*
X57010000Y-63420000D01*
X57010000Y-63420000D02*
X57325000Y-63420000D01*
X59435000Y-68660000D02*
X59750000Y-68660000D01*
X57010000Y-68660000D02*
X57325000Y-68660000D01*
X59750000Y-68660000D02*
X59750000Y-63420000D01*
%TO.C,U5*%
X81290000Y-48100000D02*
X60850000Y-48100000D01*
X81350000Y-55890000D02*
X81350000Y-45610000D01*
X60850000Y-48100000D02*
X60850000Y-49750000D01*
X81350000Y-45610000D02*
X60790000Y-45610000D01*
X60850000Y-53400000D02*
X81290000Y-53400000D01*
X60790000Y-55890000D02*
X81350000Y-55890000D01*
X60790000Y-45610000D02*
X60790000Y-55890000D01*
X81290000Y-53400000D02*
X81290000Y-48100000D01*
X60850000Y-51750000D02*
X60850000Y-53400000D01*
X60850000Y-51750000D02*
G75*
G03*
X60850000Y-49750000I0J1000000D01*
G01*
%TO.C,C9*%
X29110000Y-68700000D02*
X29110000Y-63460000D01*
X31850000Y-68700000D02*
X31850000Y-63460000D01*
X29110000Y-63460000D02*
X29425000Y-63460000D01*
X31535000Y-63460000D02*
X31850000Y-63460000D01*
X29110000Y-68700000D02*
X29425000Y-68700000D01*
X31535000Y-68700000D02*
X31850000Y-68700000D01*
%TO.C,R1*%
X60230000Y-39270000D02*
X66770000Y-39270000D01*
X60230000Y-39600000D02*
X60230000Y-39270000D01*
X66770000Y-39270000D02*
X66770000Y-39600000D01*
X60230000Y-41680000D02*
X60230000Y-42010000D01*
X66770000Y-42010000D02*
X66770000Y-41680000D01*
X60230000Y-42010000D02*
X66770000Y-42010000D01*
%TO.C,U6*%
X88835000Y-83920000D02*
X106735000Y-83920000D01*
X106795000Y-86410000D02*
X106795000Y-76130000D01*
X88775000Y-76130000D02*
X88775000Y-86410000D01*
X88835000Y-78620000D02*
X88835000Y-80270000D01*
X106795000Y-76130000D02*
X88775000Y-76130000D01*
X88775000Y-86410000D02*
X106795000Y-86410000D01*
X88835000Y-82270000D02*
X88835000Y-83920000D01*
X106735000Y-83920000D02*
X106735000Y-78620000D01*
X106735000Y-78620000D02*
X88835000Y-78620000D01*
X88835000Y-82270000D02*
G75*
G03*
X88835000Y-80270000I0J1000000D01*
G01*
%TO.C,R3*%
X41810000Y-91218000D02*
X42140000Y-91218000D01*
X42140000Y-97758000D02*
X41810000Y-97758000D01*
X44550000Y-91218000D02*
X44220000Y-91218000D01*
X41810000Y-97758000D02*
X41810000Y-91218000D01*
X44550000Y-97758000D02*
X44550000Y-91218000D01*
X44220000Y-97758000D02*
X44550000Y-97758000D01*
%TO.C,R5*%
X72890000Y-72580000D02*
X72890000Y-72250000D01*
X79430000Y-74990000D02*
X79430000Y-74660000D01*
X72890000Y-72250000D02*
X79430000Y-72250000D01*
X79430000Y-72250000D02*
X79430000Y-72580000D01*
X72890000Y-74990000D02*
X79430000Y-74990000D01*
X72890000Y-74660000D02*
X72890000Y-74990000D01*
%TD*%
M02*
