M48
; DRILL file {KiCad (6.0.9)} date Wed Aug 16 20:18:12 2023
; FORMAT={-:-/ absolute / inch / decimal}
; #@! TF.CreationDate,2023-08-16T20:18:12+02:00
; #@! TF.GenerationSoftware,Kicad,Pcbnew,(6.0.9)
; #@! TF.FileFunction,Plated,1,2,PTH
FMAT,2
INCH
; #@! TA.AperFunction,Plated,PTH,ViaDrill
T1C0.0157
; #@! TA.AperFunction,Plated,PTH,ComponentDrill
T2C0.0315
; #@! TA.AperFunction,Plated,PTH,ComponentDrill
T3C0.0354
; #@! TA.AperFunction,Plated,PTH,ComponentDrill
T4C0.0394
; #@! TA.AperFunction,Plated,PTH,ComponentDrill
T5C0.0472
%
G90
G05
T1
X1.34Y-3.25
X1.35Y-1.65
X1.4Y-2.6
X1.42Y-2.95
X1.45Y-2.85
X1.5Y-2.5715
X1.5Y-3.25
X1.55Y-2.93
X1.65Y-2.57
X1.65Y-2.93
X1.75Y-2.59
X1.79Y-2.28
X1.79Y-2.3485
X1.8402Y-2.8898
X1.9Y-2.84
X2.16Y-2.03
X2.2Y-2.07
X2.2Y-2.68
X2.21Y-2.57
X2.23Y-3.16
X2.45Y-3.47
X2.5Y-3.51
X2.52Y-2.97
X2.65Y-3.45
X3.03Y-2.95
X3.13Y-2.54
X3.25Y-1.56
X3.3Y-2.61
X3.3Y-2.69
X3.31Y-1.69
X3.31Y-1.79
X3.31Y-2.02
X3.55Y-2.0
X3.56Y-3.2
X3.8004Y-3.9424
X3.91Y-3.8
X3.95Y-2.36
X4.05Y-2.6
X4.15Y-2.0
T2
X1.2Y-2.5031
X1.2Y-2.7
X1.2Y-3.1
X1.2Y-3.2969
X1.3496Y-2.4496
X1.3496Y-2.7496
X1.3496Y-3.0496
X1.3496Y-3.3496
X1.4Y-1.85
X1.4Y-2.15
X1.4496Y-2.4496
X1.4496Y-2.7496
X1.4496Y-3.0496
X1.4496Y-3.3496
X1.5496Y-2.4496
X1.5496Y-2.7496
X1.5496Y-3.0496
X1.5496Y-3.3496
X1.6496Y-2.4496
X1.6496Y-2.7496
X1.6496Y-3.0496
X1.6496Y-3.3496
X1.7Y-3.57
X1.7Y-3.87
X1.7496Y-2.4496
X1.7496Y-2.7496
X1.7496Y-3.0496
X1.7496Y-3.3496
X1.8496Y-2.4496
X1.8496Y-2.7496
X1.8496Y-3.0496
X1.8496Y-3.3496
X1.9496Y-2.4496
X1.9496Y-2.7496
X1.9496Y-3.0496
X1.9496Y-3.3496
X2.0Y-1.85
X2.0Y-2.15
X2.0496Y-2.4496
X2.0496Y-2.7496
X2.0496Y-3.0496
X2.0496Y-3.3496
X2.18Y-3.57
X2.18Y-3.87
X2.2984Y-1.8984
X2.2984Y-2.0953
X2.2984Y-2.5016
X2.2984Y-2.6984
X2.2984Y-3.1016
X2.2984Y-3.2984
X2.35Y-1.6
X2.448Y-1.848
X2.448Y-2.148
X2.448Y-2.448
X2.448Y-2.748
X2.448Y-3.048
X2.448Y-3.348
X2.4484Y-2.8984
X2.4531Y-2.3
X2.548Y-1.848
X2.548Y-2.148
X2.548Y-2.448
X2.548Y-2.748
X2.548Y-3.048
X2.548Y-3.348
X2.648Y-1.848
X2.648Y-2.148
X2.648Y-2.448
X2.648Y-2.748
X2.648Y-3.048
X2.648Y-3.348
X2.65Y-1.6
X2.65Y-2.3
X2.748Y-1.848
X2.748Y-2.148
X2.748Y-2.448
X2.748Y-2.748
X2.748Y-3.048
X2.748Y-3.348
X2.7484Y-2.8984
X2.848Y-1.848
X2.848Y-2.148
X2.848Y-2.448
X2.848Y-2.748
X2.848Y-3.048
X2.848Y-3.348
X2.8484Y-2.8984
X2.8984Y-2.2984
X2.9Y-1.6
X2.948Y-1.848
X2.948Y-2.148
X2.948Y-2.448
X2.948Y-2.748
X2.948Y-3.048
X2.948Y-3.348
X2.9984Y-1.6
X3.048Y-1.848
X3.048Y-2.148
X3.048Y-2.448
X3.048Y-2.748
X3.048Y-3.048
X3.048Y-3.348
X3.0953Y-2.2984
X3.148Y-1.848
X3.148Y-2.148
X3.148Y-2.448
X3.148Y-2.748
X3.148Y-3.048
X3.148Y-3.348
X3.1484Y-2.8984
X3.4Y-1.9031
X3.4Y-2.1
X3.4Y-2.5016
X3.4Y-2.6984
X3.4Y-3.1031
X3.4Y-3.3
X3.5498Y-1.8496
X3.5498Y-2.1496
X3.5498Y-2.4496
X3.5498Y-2.7496
X3.5498Y-3.0496
X3.5498Y-3.3496
X3.6498Y-1.8496
X3.6498Y-2.1496
X3.6498Y-2.4496
X3.6498Y-2.7496
X3.6498Y-3.0496
X3.6498Y-3.3496
X3.7498Y-1.8496
X3.7498Y-2.1496
X3.7498Y-2.4496
X3.7498Y-2.7496
X3.7498Y-3.0496
X3.7498Y-3.3496
X3.8498Y-1.8496
X3.8498Y-2.1496
X3.8498Y-2.4496
X3.8498Y-2.7496
X3.8498Y-3.0496
X3.8498Y-3.3496
X3.9498Y-1.8496
X3.9498Y-2.1496
X3.9498Y-2.4496
X3.9498Y-2.7496
X3.9498Y-3.0496
X3.9498Y-3.3496
X4.0498Y-1.8496
X4.0498Y-2.1496
X4.0498Y-2.4496
X4.0498Y-2.7496
X4.0498Y-3.0496
X4.0498Y-3.3496
X4.1498Y-1.8496
X4.1498Y-2.1496
X4.1498Y-2.4496
X4.1498Y-2.7496
X4.1498Y-3.0496
X4.1498Y-3.3496
T3
X1.4298Y-3.72
X1.5298Y-3.72
X1.9098Y-3.72
X2.0098Y-3.72
T4
X2.39Y-3.6
X2.49Y-3.6
X2.59Y-3.6
X2.69Y-3.6
X2.79Y-3.6
X2.89Y-3.6
X2.99Y-3.6
X3.09Y-3.6
X3.29Y-3.601
X3.35Y-1.511
X3.39Y-3.601
X3.45Y-1.511
X3.49Y-3.601
X3.55Y-1.511
X3.59Y-3.601
X3.65Y-1.511
X3.69Y-3.601
X3.75Y-1.511
X3.79Y-3.601
X3.85Y-1.511
X3.89Y-3.601
X3.99Y-3.601
T5
X1.45Y-1.5
X1.7Y-1.5
X1.95Y-1.5
X2.15Y-1.5
T0
M30
